<svg width="16" height="16" viewBox="0 0 16 16" fill="none" xmlns="http://www.w3.org/2000/svg">
    <path d="M6 9.25C6.55228 9.25 7 8.80228 7 8.25C7 7.69772 6.55228 7.25 6 7.25C5.44772 7.25 5 7.69772 5 8.25C5 8.80228 5.44772 9.25 6 9.25Z" fill="#2B2B2B"/>
    <path d="M10 9.25C10.5523 9.25 11 8.80228 11 8.25C11 7.69772 10.5523 7.25 10 7.25C9.44772 7.25 9 7.69772 9 8.25C9 8.80228 9.44772 9.25 10 9.25Z" fill="#2B2B2B"/>
    <path d="M9.45605 10.9126L10.4436 12.8814C10.4922 12.9836 10.575 13.0658 10.6776 13.1137C10.7803 13.1616 10.8964 13.1723 11.0061 13.1439C12.5373 12.7689 13.8623 12.1189 14.8248 11.2814C14.8974 11.2173 14.9501 11.1339 14.9766 11.0408C15.0032 10.9478 15.0026 10.849 14.9748 10.7564L12.8561 3.68135C12.8354 3.60895 12.7981 3.54239 12.7471 3.48703C12.6961 3.43167 12.6328 3.38905 12.5623 3.3626C11.9637 3.11702 11.3446 2.92461 10.7123 2.7876C10.5908 2.76099 10.4637 2.78005 10.3554 2.84115C10.247 2.90224 10.1649 3.0011 10.1248 3.11885L9.46855 5.09385" stroke="#2B2B2B" stroke-width="1.5" stroke-linecap="round" stroke-linejoin="round"/>
    <path d="M6.54398 10.9126L5.55648 12.8814C5.50782 12.9836 5.42506 13.0658 5.32241 13.1137C5.21976 13.1616 5.10363 13.1723 4.99398 13.1439C3.46273 12.7689 2.13773 12.1189 1.17523 11.2814C1.10266 11.2173 1.04997 11.1339 1.02338 11.0408C0.9968 10.9478 0.99744 10.849 1.02523 10.7564L3.14398 3.68135C3.1646 3.60895 3.20192 3.54239 3.25294 3.48703C3.30395 3.43167 3.36725 3.38905 3.43773 3.3626C4.03633 3.11702 4.65538 2.92461 5.28773 2.7876C5.40925 2.76099 5.53631 2.78005 5.64467 2.84115C5.75303 2.90224 5.83511 3.0011 5.87523 3.11885L6.53148 5.09385" stroke="#2B2B2B" stroke-width="1.5" stroke-linecap="round" stroke-linejoin="round"/>
    <path d="M11.3187 10.5C10.3687 10.8187 9.2249 11 7.9999 11C6.7749 11 5.63115 10.8187 4.68115 10.5" stroke="#2B2B2B" stroke-width="1.5" stroke-linecap="round" stroke-linejoin="round"/>
    <path d="M11 5.40004C10.0236 5.12729 9.01377 4.99265 8 5.00004C6.98623 4.99265 5.97642 5.12729 5 5.40004" stroke="#2B2B2B" stroke-width="1.5" stroke-linecap="round" stroke-linejoin="round"/>
</svg>
