<svg width="380" height="756" viewBox="0 0 380 756" fill="none" xmlns="http://www.w3.org/2000/svg">
    <g clip-path="url(#clip0_3016_25300)">
        <path d="M0 391.508C0 391.508 31.1284 379 76.3721 379C121.616 379 138.03 391.508 167.749 391.508C197.468 391.508 203.268 381.502 233.843 381.502C264.417 381.502 271.513 391.508 310.547 391.508C349.582 391.508 380 381.502 380 381.502L380 756.5H0V391.508Z" fill="#5DCBF5"/>
        <path d="M76.37 378C121.617 378 138.028 392.189 167.747 392.189C197.467 392.189 203.267 380.838 233.841 380.838C264.416 380.838 269.744 392.132 310.547 392.189C349.584 392.246 380 380.838 380 380.838V391.243C380 391.243 342.351 392.605 310.549 395.595C271.596 399.254 264.416 386.892 233.844 386.892C203.272 386.892 197.469 392.946 167.75 392.946C146.763 392.946 123.725 386.695 100.548 383.468C77.1722 380.214 70.4034 379.903 57.1139 380.384C27.2467 381.462 1.41115e-05 406 1.41115e-05 406V392.189C1.41115e-05 392.189 31.1259 378 76.37 378Z" fill="#418EAB"/>
        <path d="M270.897 402.034C269.09 401.673 267.743 400.495 267.887 399.403C268.032 398.311 269.614 397.719 271.42 398.08C273.227 398.441 274.574 399.619 274.43 400.711C274.285 401.803 272.703 402.396 270.897 402.034Z" fill="#418EAB"/>
        <path d="M84.8838 390.68C82.7736 390.503 81.1203 389.326 81.191 388.05C81.2618 386.775 83.0298 385.884 85.14 386.061C87.2503 386.238 88.9036 387.415 88.8328 388.69C88.7621 389.966 86.994 390.857 84.8838 390.68Z" fill="#418EAB"/>
        <path d="M17.455 400.34C17.1591 399.115 18.5617 397.523 20.5879 396.783C22.614 396.044 24.4964 396.437 24.7923 397.662C25.0882 398.887 23.6856 400.479 21.6595 401.218C19.6333 401.958 17.751 401.565 17.455 400.34Z" fill="#418EAB"/>
        <path d="M68 387.5C68 388.881 70.2381 390 73 390C75.762 390 78 388.881 78 387.5C78 386.119 75.762 385 73 385C70.2381 385 68 386.119 68 387.5Z" fill="#418EAB"/>
        <path d="M281.887 405.009C279.15 404.462 277.048 403.133 277.193 402.041C277.337 400.949 279.673 400.507 282.411 401.055C285.148 401.602 287.25 402.931 287.105 404.023C286.961 405.115 284.625 405.556 281.887 405.009Z" fill="#418EAB"/>
        <path d="M76.37 377C121.617 377 138.028 388.806 167.747 388.806C197.467 388.806 203.267 379.361 233.841 379.361C264.416 379.361 269.744 388.758 310.547 388.806C349.584 388.853 380 379.361 380 379.361V381.722C380 381.722 342.351 391.041 310.549 393.528C271.596 396.572 264.416 381.25 233.844 381.25C203.272 381.25 197.469 390.694 167.75 390.694C146.763 390.694 123.725 385.809 100.548 383.123C77.1722 380.416 70.4034 379.843 57.1139 380.243C27.2467 381.14 1.41115e-05 394 1.41115e-05 394V388.806C1.41115e-05 388.806 31.1259 377 76.37 377Z" fill="white"/>
        <path d="M221.371 423.441L223.222 429.808L221.371 436.163L231.637 433.091C231.637 433.091 259.005 441.014 269.493 429.808C269.493 429.808 257.512 418.167 232.044 426.948L221.371 423.441Z" fill="#2DABE0"/>
        <path d="M251.652 431.686H250.594L250.287 430.766H248.44L248.126 431.686H247.068L248.959 426.488H249.754L251.652 431.686ZM250.017 429.912L249.382 428.021L248.725 429.912H250.017ZM253.307 431.686H252.293V426.488H253.307V431.686Z" fill="#5DCBF5"/>
        <path d="M260.004 464L262.536 472.029L260.004 480.041L274.046 476.168C274.046 476.168 311.48 486.158 325.826 472.029C325.826 472.029 309.438 457.351 274.603 468.422L260.004 464Z" fill="#2DABE0"/>
        <path d="M288.07 473.904H287.012L286.705 472.985H284.858L284.544 473.904H283.486L285.377 468.707H286.172L288.07 473.904ZM286.435 472.13L285.8 470.24L285.143 472.13H286.435ZM291.799 473.904H290.85V471.605C290.85 471.366 290.786 471.191 290.66 471.079C290.538 470.967 290.392 470.911 290.222 470.911C290.047 470.911 289.896 470.967 289.769 471.079C289.647 471.191 289.587 471.366 289.587 471.605V473.904H288.638V470.101H289.565V470.451C289.813 470.189 290.129 470.057 290.514 470.057C290.889 470.057 291.188 470.169 291.412 470.393C291.67 470.651 291.799 471.011 291.799 471.473V473.904ZM295.699 473.904H294.772V473.576C294.64 473.707 294.504 473.802 294.363 473.861C294.227 473.914 294.051 473.941 293.837 473.941C293.414 473.941 293.09 473.829 292.866 473.605C292.657 473.386 292.552 473.101 292.552 472.751C292.552 472.43 292.664 472.167 292.888 471.963C293.112 471.753 293.438 471.649 293.866 471.649H294.75V471.459C294.75 471.249 294.694 471.099 294.582 471.006C294.47 470.909 294.29 470.86 294.042 470.86C293.745 470.86 293.501 470.97 293.312 471.189L292.713 470.597C292.898 470.393 293.09 470.252 293.29 470.174C293.494 470.096 293.757 470.057 294.078 470.057C295.159 470.057 295.699 470.505 295.699 471.4V473.904ZM294.75 472.503V472.298H294.027C293.652 472.298 293.465 472.444 293.465 472.736C293.465 473.024 293.657 473.167 294.042 473.167C294.29 473.167 294.477 473.106 294.604 472.985C294.701 472.902 294.75 472.741 294.75 472.503ZM298.336 473.904H297.795C297.43 473.904 297.153 473.797 296.963 473.583C296.778 473.369 296.686 473.114 296.686 472.817V468.707H297.635V472.758C297.635 472.987 297.747 473.101 297.971 473.101H298.336V473.904ZM301.92 470.101L300.292 474.518C300.209 474.737 300.114 474.9 300.007 475.007C299.812 475.201 299.54 475.299 299.189 475.299H298.817V474.445H299.036C299.172 474.445 299.272 474.42 299.335 474.372C299.403 474.328 299.462 474.238 299.51 474.102L299.671 473.634L298.372 470.101H299.372L300.16 472.452L300.919 470.101H301.92ZM304.191 473.904H303.673C303.313 473.904 303.038 473.797 302.848 473.583C302.663 473.369 302.57 473.114 302.57 472.817V470.933H302.169V470.21H302.57V469.086H303.519V470.21H304.191V470.933H303.519V472.758C303.519 472.987 303.629 473.101 303.848 473.101H304.191V473.904ZM305.998 473.904H305.049V470.21H305.998V473.904ZM306.006 469.451H305.035V468.677H306.006V469.451ZM309.827 473.43C309.496 473.775 309.077 473.948 308.571 473.948C308.41 473.948 308.255 473.931 308.104 473.897C307.953 473.858 307.8 473.795 307.644 473.707C307.493 473.615 307.362 473.498 307.25 473.357C307.138 473.211 307.045 473.024 306.972 472.795C306.904 472.561 306.87 472.296 306.87 471.999C306.87 471.702 306.904 471.439 306.972 471.211C307.045 470.977 307.138 470.79 307.25 470.648C307.362 470.507 307.493 470.39 307.644 470.298C307.8 470.206 307.953 470.142 308.104 470.108C308.255 470.074 308.41 470.057 308.571 470.057C309.082 470.057 309.501 470.227 309.827 470.568L309.184 471.211C308.999 471.011 308.795 470.911 308.571 470.911C308.347 470.911 308.167 470.994 308.031 471.159C307.89 471.335 307.819 471.615 307.819 471.999C307.819 472.388 307.89 472.671 308.031 472.846C308.167 473.011 308.347 473.094 308.571 473.094C308.795 473.094 308.999 472.994 309.184 472.795L309.827 473.43ZM313.322 472.707C313.322 473.111 313.171 473.42 312.87 473.634C312.568 473.844 312.181 473.948 311.709 473.948C311.358 473.948 311.057 473.912 310.804 473.839C310.55 473.766 310.312 473.62 310.088 473.401L310.709 472.78C310.942 473.019 311.281 473.138 311.723 473.138C311.908 473.138 312.067 473.106 312.198 473.043C312.329 472.975 312.395 472.875 312.395 472.744C312.395 472.534 312.261 472.418 311.994 472.393L311.38 472.335C310.65 472.262 310.285 471.907 310.285 471.269C310.285 470.889 310.426 470.592 310.709 470.378C310.996 470.164 311.344 470.057 311.753 470.057C312.4 470.057 312.884 470.206 313.205 470.502L312.621 471.094C312.432 470.923 312.137 470.838 311.738 470.838C311.558 470.838 311.422 470.875 311.329 470.948C311.242 471.016 311.198 471.101 311.198 471.203C311.198 471.393 311.329 471.503 311.592 471.532L312.191 471.59C312.945 471.663 313.322 472.036 313.322 472.707Z" fill="#5DCBF5"/>
        <path d="M150 561L153.425 572.068L150 583.114L168.998 577.774C168.998 577.774 219.644 591.547 239.053 572.068C239.053 572.068 216.881 551.834 169.752 567.096L150 561Z" fill="#2DABE0"/>
        <path d="M183.302 570.196C183.341 570.449 183.361 570.831 183.361 571.342C183.361 571.853 183.341 572.238 183.302 572.496C183.268 572.749 183.178 572.977 183.032 573.182C182.667 573.688 182.144 573.941 181.463 573.941H179.586V568.743H181.463C182.144 568.743 182.667 568.996 183.032 569.502C183.178 569.707 183.268 569.938 183.302 570.196ZM182.309 572.277C182.334 572.092 182.346 571.78 182.346 571.342C182.346 570.904 182.334 570.593 182.309 570.408C182.285 570.223 182.227 570.077 182.134 569.97C181.964 569.755 181.711 569.648 181.375 569.648H180.601V573.036H181.375C181.711 573.036 181.964 572.929 182.134 572.715C182.227 572.607 182.285 572.461 182.309 572.277ZM187.202 573.941H186.275V573.613C186.143 573.744 186.007 573.839 185.866 573.897C185.73 573.951 185.555 573.978 185.34 573.978C184.917 573.978 184.593 573.866 184.369 573.642C184.16 573.423 184.056 573.138 184.056 572.788C184.056 572.466 184.168 572.204 184.391 571.999C184.615 571.79 184.941 571.685 185.37 571.685H186.253V571.495C186.253 571.286 186.197 571.135 186.085 571.043C185.973 570.945 185.793 570.897 185.545 570.897C185.248 570.897 185.005 571.006 184.815 571.225L184.216 570.634C184.401 570.43 184.593 570.288 184.793 570.211C184.997 570.133 185.26 570.094 185.581 570.094C186.662 570.094 187.202 570.541 187.202 571.437V573.941ZM186.253 572.539V572.335H185.53C185.156 572.335 184.968 572.481 184.968 572.773C184.968 573.06 185.16 573.204 185.545 573.204C185.793 573.204 185.98 573.143 186.107 573.021C186.204 572.938 186.253 572.778 186.253 572.539ZM191.387 573.941H190.437V571.641C190.437 571.403 190.374 571.228 190.248 571.116C190.126 571.004 189.98 570.948 189.81 570.948C189.634 570.948 189.484 571.004 189.357 571.116C189.235 571.228 189.174 571.403 189.174 571.641V573.941H188.225V570.138H189.153V570.488C189.401 570.225 189.717 570.094 190.102 570.094C190.476 570.094 190.776 570.206 191 570.43C191.258 570.687 191.387 571.048 191.387 571.51V573.941ZM195.871 573.941H194.695L193.761 572.357L193.359 572.809V573.941H192.41V568.743H193.359V571.693L194.622 570.138H195.769L194.411 571.671L195.871 573.941ZM198.342 572.298H196.094V571.415H198.342V572.298ZM202.166 572.744C202.166 573.148 202.015 573.457 201.714 573.671C201.412 573.88 201.025 573.985 200.553 573.985C200.202 573.985 199.901 573.948 199.648 573.875C199.394 573.802 199.156 573.656 198.932 573.437L199.553 572.817C199.786 573.055 200.124 573.174 200.567 573.174C200.752 573.174 200.91 573.143 201.042 573.08C201.173 573.011 201.239 572.912 201.239 572.78C201.239 572.571 201.105 572.454 200.837 572.43L200.224 572.371C199.494 572.298 199.129 571.943 199.129 571.306C199.129 570.926 199.27 570.629 199.553 570.415C199.84 570.201 200.188 570.094 200.597 570.094C201.244 570.094 201.728 570.242 202.049 570.539L201.465 571.13C201.276 570.96 200.981 570.875 200.582 570.875C200.402 570.875 200.266 570.911 200.173 570.984C200.086 571.053 200.042 571.138 200.042 571.24C200.042 571.43 200.173 571.539 200.436 571.568L201.035 571.627C201.789 571.7 202.166 572.072 202.166 572.744ZM206.123 573.941H205.174V571.641C205.174 571.403 205.11 571.228 204.984 571.116C204.862 571.004 204.716 570.948 204.546 570.948C204.371 570.948 204.22 571.004 204.093 571.116C203.972 571.228 203.911 571.403 203.911 571.641V573.941H202.962V568.743H203.911V570.488C204.149 570.225 204.458 570.094 204.838 570.094C205.213 570.094 205.512 570.206 205.736 570.43C205.994 570.687 206.123 571.048 206.123 571.51V573.941ZM210.023 573.941H209.096V573.613C208.964 573.744 208.828 573.839 208.687 573.897C208.551 573.951 208.376 573.978 208.161 573.978C207.738 573.978 207.414 573.866 207.19 573.642C206.981 573.423 206.877 573.138 206.877 572.788C206.877 572.466 206.988 572.204 207.212 571.999C207.436 571.79 207.762 571.685 208.191 571.685H209.074V571.495C209.074 571.286 209.018 571.135 208.906 571.043C208.794 570.945 208.614 570.897 208.366 570.897C208.069 570.897 207.826 571.006 207.636 571.225L207.037 570.634C207.222 570.43 207.414 570.288 207.614 570.211C207.818 570.133 208.081 570.094 208.402 570.094C209.483 570.094 210.023 570.541 210.023 571.437V573.941ZM209.074 572.539V572.335H208.351C207.976 572.335 207.789 572.481 207.789 572.773C207.789 573.06 207.981 573.204 208.366 573.204C208.614 573.204 208.801 573.143 208.928 573.021C209.025 572.938 209.074 572.778 209.074 572.539ZM213.828 570.451L213.112 571.174C212.962 571.023 212.794 570.948 212.609 570.948C212.448 570.948 212.304 571.009 212.178 571.13C212.056 571.252 211.995 571.425 211.995 571.649V573.941H211.046V570.138H211.974V570.503C212.071 570.386 212.205 570.288 212.375 570.211C212.55 570.133 212.735 570.094 212.93 570.094C213.29 570.094 213.589 570.213 213.828 570.451ZM217.177 573.941H216.25V573.583C216.012 573.851 215.698 573.985 215.308 573.985C214.909 573.985 214.6 573.87 214.381 573.642C214.216 573.471 214.109 573.26 214.06 573.007C214.011 572.754 213.987 572.43 213.987 572.036C213.987 571.646 214.011 571.325 214.06 571.072C214.109 570.819 214.216 570.607 214.381 570.437C214.6 570.208 214.907 570.094 215.301 570.094C215.69 570.094 216 570.22 216.228 570.473V568.743H217.177V573.941ZM216.228 572.036C216.228 571.68 216.184 571.41 216.097 571.225C216.014 571.04 215.841 570.948 215.579 570.948C215.442 570.948 215.328 570.975 215.235 571.028C215.148 571.082 215.082 571.162 215.038 571.269C214.999 571.376 214.973 571.488 214.958 571.605C214.943 571.717 214.936 571.86 214.936 572.036C214.936 572.211 214.943 572.357 214.958 572.474C214.973 572.586 214.999 572.698 215.038 572.809C215.082 572.917 215.148 572.997 215.235 573.05C215.328 573.104 215.442 573.131 215.579 573.131C215.715 573.131 215.827 573.104 215.914 573.05C216.007 572.997 216.075 572.917 216.119 572.809C216.163 572.702 216.192 572.59 216.206 572.474C216.221 572.352 216.228 572.206 216.228 572.036ZM219.189 573.941H218.24V570.247H219.189V573.941ZM219.196 569.488H218.225V568.714H219.196V569.488ZM223.411 573.941H222.462V571.641C222.462 571.403 222.399 571.228 222.273 571.116C222.151 571.004 222.005 570.948 221.835 570.948C221.659 570.948 221.508 571.004 221.382 571.116C221.26 571.228 221.199 571.403 221.199 571.641V573.941H220.25V570.138H221.177V570.488C221.426 570.225 221.742 570.094 222.127 570.094C222.501 570.094 222.801 570.206 223.024 570.43C223.282 570.687 223.411 571.048 223.411 571.51V573.941ZM227.421 573.802C227.421 574.265 227.268 574.642 226.961 574.934C226.659 575.231 226.255 575.379 225.749 575.379C225.448 575.379 225.19 575.343 224.975 575.27C224.761 575.197 224.559 575.068 224.37 574.883L224.961 574.284C225.16 574.479 225.409 574.576 225.706 574.576C225.968 574.576 226.161 574.498 226.282 574.343C226.409 574.192 226.472 574.007 226.472 573.788V573.401C226.243 573.654 225.942 573.78 225.567 573.78C225.187 573.78 224.885 573.668 224.662 573.445C224.496 573.279 224.389 573.084 224.34 572.861C224.297 572.632 224.275 572.323 224.275 571.933C224.275 571.544 224.297 571.237 224.34 571.014C224.389 570.79 224.496 570.595 224.662 570.43C224.885 570.206 225.19 570.094 225.574 570.094C225.949 570.094 226.258 570.228 226.501 570.495V570.138H227.421V573.802ZM226.472 571.933C226.472 571.627 226.431 571.386 226.348 571.211C226.265 571.035 226.097 570.948 225.844 570.948C225.708 570.948 225.596 570.975 225.508 571.028C225.426 571.077 225.362 571.152 225.319 571.254C225.28 571.357 225.253 571.459 225.238 571.561C225.229 571.663 225.224 571.787 225.224 571.933C225.224 572.079 225.229 572.204 225.238 572.306C225.253 572.408 225.28 572.51 225.319 572.612C225.358 572.715 225.421 572.792 225.508 572.846C225.596 572.9 225.708 572.926 225.844 572.926C225.98 572.926 226.092 572.9 226.18 572.846C226.268 572.792 226.331 572.715 226.37 572.612C226.409 572.51 226.436 572.408 226.45 572.306C226.465 572.204 226.472 572.079 226.472 571.933Z" fill="#5DCBF5"/>
        <path d="M347 536.878L344.468 544.907L347 552.919L332.958 549.046C332.958 549.046 295.524 559.036 281.178 544.907C281.178 544.907 297.566 530.229 332.401 541.3L347 536.878Z" fill="#2DABE0"/>
        <path d="M298.268 542.49H295.859V543.768H297.91V544.673H295.859V546.783H294.844V541.585H298.268V542.49ZM301.733 546.783H300.806V546.454C300.674 546.586 300.538 546.681 300.397 546.739C300.26 546.792 300.085 546.819 299.871 546.819C299.448 546.819 299.124 546.707 298.9 546.483C298.691 546.264 298.586 545.98 298.586 545.629C298.586 545.308 298.698 545.045 298.922 544.841C299.146 544.632 299.472 544.527 299.9 544.527H300.784V544.337C300.784 544.128 300.728 543.977 300.616 543.884C300.504 543.787 300.324 543.738 300.075 543.738C299.779 543.738 299.535 543.848 299.345 544.067L298.747 543.476C298.932 543.271 299.124 543.13 299.324 543.052C299.528 542.974 299.791 542.935 300.112 542.935C301.192 542.935 301.733 543.383 301.733 544.279V546.783ZM300.784 545.381V545.177H300.061C299.686 545.177 299.499 545.323 299.499 545.615C299.499 545.902 299.691 546.045 300.075 546.045C300.324 546.045 300.511 545.985 300.638 545.863C300.735 545.78 300.784 545.62 300.784 545.381ZM305.538 543.293L304.822 544.016C304.671 543.865 304.503 543.79 304.318 543.79C304.158 543.79 304.014 543.85 303.888 543.972C303.766 544.094 303.705 544.267 303.705 544.49V546.783H302.756V542.979H303.683V543.344C303.781 543.227 303.914 543.13 304.085 543.052C304.26 542.974 304.445 542.935 304.64 542.935C305 542.935 305.299 543.055 305.538 543.293ZM308.624 546.308C308.293 546.654 307.875 546.827 307.368 546.827C307.208 546.827 307.052 546.809 306.901 546.775C306.75 546.736 306.597 546.673 306.441 546.586C306.29 546.493 306.159 546.376 306.047 546.235C305.935 546.089 305.843 545.902 305.77 545.673C305.702 545.439 305.667 545.174 305.667 544.877C305.667 544.58 305.702 544.318 305.77 544.089C305.843 543.855 305.935 543.668 306.047 543.527C306.159 543.386 306.29 543.269 306.441 543.176C306.597 543.084 306.75 543.021 306.901 542.986C307.052 542.952 307.208 542.935 307.368 542.935C307.88 542.935 308.298 543.106 308.624 543.446L307.982 544.089C307.797 543.889 307.592 543.79 307.368 543.79C307.145 543.79 306.965 543.872 306.828 544.038C306.687 544.213 306.617 544.493 306.617 544.877C306.617 545.267 306.687 545.549 306.828 545.724C306.965 545.89 307.145 545.972 307.368 545.972C307.592 545.972 307.797 545.873 307.982 545.673L308.624 546.308ZM312.206 546.783H311.278V546.454C311.147 546.586 311.011 546.681 310.87 546.739C310.733 546.792 310.558 546.819 310.344 546.819C309.921 546.819 309.597 546.707 309.373 546.483C309.164 546.264 309.059 545.98 309.059 545.629C309.059 545.308 309.171 545.045 309.395 544.841C309.619 544.632 309.945 544.527 310.373 544.527H311.257V544.337C311.257 544.128 311.201 543.977 311.089 543.884C310.977 543.787 310.797 543.738 310.548 543.738C310.252 543.738 310.008 543.848 309.818 544.067L309.22 543.476C309.405 543.271 309.597 543.13 309.797 543.052C310.001 542.974 310.264 542.935 310.585 542.935C311.665 542.935 312.206 543.383 312.206 544.279V546.783ZM311.257 545.381V545.177H310.534C310.159 545.177 309.972 545.323 309.972 545.615C309.972 545.902 310.164 546.045 310.548 546.045C310.797 546.045 310.984 545.985 311.111 545.863C311.208 545.78 311.257 545.62 311.257 545.381ZM316.091 545.585C316.091 545.989 315.94 546.298 315.638 546.513C315.336 546.722 314.949 546.827 314.477 546.827C314.127 546.827 313.825 546.79 313.572 546.717C313.319 546.644 313.081 546.498 312.857 546.279L313.477 545.658C313.711 545.897 314.049 546.016 314.492 546.016C314.677 546.016 314.835 545.985 314.967 545.921C315.098 545.853 315.164 545.753 315.164 545.622C315.164 545.413 315.03 545.296 314.762 545.272L314.149 545.213C313.419 545.14 313.054 544.785 313.054 544.147C313.054 543.768 313.195 543.471 313.477 543.257C313.764 543.042 314.112 542.935 314.521 542.935C315.169 542.935 315.653 543.084 315.974 543.381L315.39 543.972C315.2 543.802 314.906 543.717 314.507 543.717C314.327 543.717 314.19 543.753 314.098 543.826C314.01 543.894 313.966 543.979 313.966 544.082C313.966 544.271 314.098 544.381 314.361 544.41L314.959 544.468C315.714 544.541 316.091 544.914 316.091 545.585ZM318.523 546.783H318.005C317.645 546.783 317.37 546.676 317.18 546.461C316.995 546.247 316.903 545.992 316.903 545.695V543.811H316.501V543.089H316.903V541.964H317.852V543.089H318.523V543.811H317.852V545.637C317.852 545.865 317.961 545.98 318.18 545.98H318.523V546.783ZM322.471 545.177H320.091C320.091 545.43 320.164 545.634 320.31 545.79C320.456 545.946 320.66 546.023 320.923 546.023C321.118 546.023 321.276 545.997 321.397 545.943C321.524 545.885 321.653 545.792 321.784 545.666L322.361 546.228C322.157 546.437 321.945 546.59 321.726 546.688C321.512 546.78 321.242 546.827 320.916 546.827C320.672 546.827 320.451 546.797 320.251 546.739C320.057 546.676 319.874 546.573 319.704 546.432C319.533 546.291 319.4 546.089 319.302 545.826C319.205 545.564 319.156 545.247 319.156 544.877C319.156 544.269 319.307 543.794 319.609 543.454C319.911 543.108 320.312 542.935 320.813 542.935C321.334 542.935 321.741 543.106 322.033 543.446C322.325 543.782 322.471 544.225 322.471 544.775V545.177ZM321.536 544.527C321.531 544.361 321.502 544.225 321.448 544.118C321.332 543.855 321.12 543.724 320.813 543.724C320.507 543.724 320.295 543.855 320.178 544.118C320.125 544.225 320.095 544.361 320.091 544.527H321.536ZM326.127 543.293L325.412 544.016C325.261 543.865 325.093 543.79 324.908 543.79C324.747 543.79 324.604 543.85 324.477 543.972C324.355 544.094 324.295 544.267 324.295 544.49V546.783H323.346V542.979H324.273V543.344C324.37 543.227 324.504 543.13 324.674 543.052C324.849 542.974 325.034 542.935 325.229 542.935C325.589 542.935 325.889 543.055 326.127 543.293Z" fill="#5DCBF5"/>
        <path d="M189.781 427.65L187.42 435.402L189.781 443.138L176.683 439.398C176.683 439.398 141.766 449.044 128.384 435.402C128.384 435.402 143.671 421.23 176.164 431.919L189.781 427.65Z" fill="#2DABE0"/>
        <path d="M147.423 433.527C147.462 433.78 147.482 434.162 147.482 434.674C147.482 435.185 147.462 435.569 147.423 435.827C147.389 436.08 147.299 436.309 147.153 436.513C146.788 437.019 146.265 437.272 145.584 437.272H143.707V432.075H145.584C146.265 432.075 146.788 432.328 147.153 432.834C147.299 433.038 147.389 433.269 147.423 433.527ZM146.431 435.608C146.455 435.423 146.467 435.112 146.467 434.674C146.467 434.235 146.455 433.924 146.431 433.739C146.406 433.554 146.348 433.408 146.255 433.301C146.085 433.087 145.832 432.98 145.496 432.98H144.722V436.367H145.496C145.832 436.367 146.085 436.26 146.255 436.046C146.348 435.939 146.406 435.793 146.431 435.608ZM151.571 435.666H149.191C149.191 435.919 149.264 436.124 149.41 436.28C149.556 436.435 149.761 436.513 150.024 436.513C150.218 436.513 150.377 436.486 150.498 436.433C150.625 436.375 150.754 436.282 150.885 436.155L151.462 436.718C151.257 436.927 151.046 437.08 150.827 437.178C150.613 437.27 150.342 437.316 150.016 437.316C149.773 437.316 149.552 437.287 149.352 437.229C149.157 437.165 148.975 437.063 148.805 436.922C148.634 436.781 148.5 436.579 148.403 436.316C148.306 436.053 148.257 435.737 148.257 435.367C148.257 434.759 148.408 434.284 148.71 433.943C149.011 433.598 149.413 433.425 149.914 433.425C150.435 433.425 150.841 433.595 151.133 433.936C151.425 434.272 151.571 434.715 151.571 435.265V435.666ZM150.637 435.017C150.632 434.851 150.603 434.715 150.549 434.608C150.432 434.345 150.221 434.214 149.914 434.214C149.608 434.214 149.396 434.345 149.279 434.608C149.225 434.715 149.196 434.851 149.191 435.017H150.637ZM155.783 432.542C156.094 432.853 156.25 433.238 156.25 433.695C156.25 434.153 156.094 434.537 155.783 434.849C155.476 435.16 155.06 435.316 154.534 435.316H153.534V437.272H152.519V432.075H154.534C155.06 432.075 155.476 432.23 155.783 432.542ZM155.031 434.214C155.167 434.082 155.235 433.909 155.235 433.695C155.235 433.481 155.167 433.308 155.031 433.177C154.894 433.046 154.712 432.98 154.483 432.98H153.534V434.403H154.483C154.712 434.403 154.894 434.34 155.031 434.214ZM158.118 437.272H157.103V432.075H158.118V437.272ZM163.307 437.272H162.401L160.343 434.082V437.272H159.328V432.075H160.233L162.292 435.258V432.075H163.307V437.272Z" fill="#5DCBF5"/>
        <path d="M40.2422 436.863L42.1781 443.784L40.2422 450.691L50.9802 447.352C50.9802 447.352 79.6063 455.964 90.5766 443.784C90.5766 443.784 78.0446 431.131 51.4061 440.674L40.2422 436.863Z" fill="#2DABE0"/>
        <path d="M66.9039 441.916C66.9428 442.169 66.9623 442.551 66.9623 443.062C66.9623 443.573 66.9428 443.957 66.9039 444.215C66.8698 444.468 66.7798 444.697 66.6338 444.902C66.2687 445.408 65.7455 445.661 65.0642 445.661H63.188V440.463H65.0642C65.7455 440.463 66.2687 440.716 66.6338 441.222C66.7798 441.427 66.8698 441.658 66.9039 441.916ZM65.911 443.996C65.9354 443.811 65.9475 443.5 65.9475 443.062C65.9475 442.624 65.9354 442.312 65.911 442.127C65.8867 441.942 65.8283 441.796 65.7358 441.689C65.5655 441.475 65.3124 441.368 64.9766 441.368H64.2027V444.756H64.9766C65.3124 444.756 65.5655 444.648 65.7358 444.434C65.8283 444.327 65.8867 444.181 65.911 443.996ZM71.0518 444.055H68.6719C68.6719 444.308 68.7449 444.512 68.8909 444.668C69.0369 444.824 69.2413 444.902 69.5041 444.902C69.6988 444.902 69.857 444.875 69.9787 444.821C70.1052 444.763 70.2342 444.67 70.3656 444.544L70.9423 445.106C70.7379 445.315 70.5262 445.469 70.3072 445.566C70.093 445.658 69.8229 445.705 69.4968 445.705C69.2535 445.705 69.0321 445.675 68.8325 445.617C68.6378 445.554 68.4553 445.451 68.285 445.31C68.1146 445.169 67.9808 444.967 67.8835 444.704C67.7861 444.442 67.7374 444.125 67.7374 443.755C67.7374 443.147 67.8883 442.672 68.1901 442.332C68.4918 441.986 68.8933 441.813 69.3946 441.813C69.9154 441.813 70.3218 441.984 70.6138 442.324C70.9058 442.66 71.0518 443.103 71.0518 443.653V444.055ZM70.1174 443.405C70.1125 443.239 70.0833 443.103 70.0298 442.996C69.913 442.733 69.7013 442.602 69.3946 442.602C69.088 442.602 68.8763 442.733 68.7595 442.996C68.706 443.103 68.6768 443.239 68.6719 443.405H70.1174ZM75.4237 441.368H73.0146V442.646H75.066V443.551H73.0146V445.661H71.9998V440.463H75.4237V441.368ZM77.182 445.661H76.2329V441.967H77.182V445.661ZM77.1893 441.208H76.2183V440.434H77.1893V441.208Z" fill="#5DCBF5"/>
        <path d="M140.609 480.006L138.163 487.758L140.609 495.494L127.039 491.755C127.039 491.755 90.8636 501.4 77 487.758C77 487.758 92.8371 473.587 126.501 484.276L140.609 480.006Z" fill="#2DABE0"/>
        <path d="M96.2376 488.096C96.2376 488.587 96.0575 488.974 95.6973 489.256C95.3372 489.534 94.8748 489.673 94.3103 489.673C93.8966 489.673 93.5388 489.621 93.2371 489.519C92.9353 489.412 92.6604 489.235 92.4121 488.986L93.0692 488.329C93.3612 488.621 93.7773 488.767 94.3176 488.767C94.6193 488.767 94.8481 488.711 95.0038 488.599C95.1644 488.487 95.2447 488.327 95.2447 488.118C95.2447 487.938 95.1912 487.794 95.0841 487.687C94.9916 487.599 94.8359 487.541 94.6169 487.512L93.9963 487.417C93.5583 487.353 93.2225 487.21 92.9889 486.986C92.7407 486.743 92.6166 486.402 92.6166 485.964C92.6166 485.492 92.7796 485.112 93.1057 484.825C93.4318 484.533 93.8722 484.387 94.4271 484.387C95.1279 484.387 95.6876 484.589 96.1062 484.993L95.4637 485.628C95.2204 485.39 94.8651 485.27 94.3979 485.27C94.1399 485.27 93.9428 485.334 93.8065 485.46C93.6703 485.582 93.6021 485.738 93.6021 485.927C93.6021 486.083 93.6508 486.207 93.7481 486.3C93.8601 486.402 94.0182 486.468 94.2227 486.497L94.8432 486.592C95.2861 486.655 95.617 486.791 95.836 487.001C96.1037 487.249 96.2376 487.614 96.2376 488.096ZM100.178 487.723C100.178 488.088 100.147 488.385 100.084 488.614C100.025 488.838 99.9132 489.035 99.7478 489.205C99.446 489.517 99.0518 489.673 98.5651 489.673C98.0833 489.673 97.6915 489.517 97.3897 489.205C97.2242 489.03 97.1099 488.831 97.0466 488.607C96.9882 488.378 96.959 488.084 96.959 487.723C96.959 487.363 96.9882 487.071 97.0466 486.847C97.1099 486.623 97.2242 486.424 97.3897 486.249C97.6915 485.937 98.0833 485.781 98.5651 485.781C99.0615 485.781 99.4557 485.937 99.7478 486.249C99.9132 486.424 100.025 486.623 100.084 486.847C100.147 487.071 100.178 487.363 100.178 487.723ZM99.2294 487.723C99.2294 487.251 99.1564 486.945 99.0104 486.804C98.8985 486.692 98.75 486.636 98.5651 486.636C98.385 486.636 98.239 486.692 98.1271 486.804C97.9811 486.945 97.9081 487.251 97.9081 487.723C97.9081 488.2 97.9811 488.509 98.1271 488.651C98.239 488.762 98.385 488.818 98.5651 488.818C98.75 488.818 98.8985 488.762 99.0104 488.651C99.1564 488.509 99.2294 488.2 99.2294 487.723ZM102.697 489.629H102.157C101.792 489.629 101.514 489.522 101.324 489.308C101.139 489.093 101.047 488.838 101.047 488.541V484.431H101.996V488.483C101.996 488.711 102.108 488.826 102.332 488.826H102.697V489.629ZM106.334 489.629H105.407V489.3C105.275 489.432 105.139 489.527 104.998 489.585C104.862 489.639 104.686 489.665 104.472 489.665C104.049 489.665 103.725 489.553 103.501 489.329C103.292 489.11 103.187 488.826 103.187 488.475C103.187 488.154 103.299 487.891 103.523 487.687C103.747 487.478 104.073 487.373 104.502 487.373H105.385V487.183C105.385 486.974 105.329 486.823 105.217 486.731C105.105 486.633 104.925 486.585 104.677 486.585C104.38 486.585 104.137 486.694 103.947 486.913L103.348 486.322C103.533 486.117 103.725 485.976 103.925 485.898C104.129 485.82 104.392 485.781 104.713 485.781C105.794 485.781 106.334 486.229 106.334 487.125V489.629ZM105.385 488.227V488.023H104.662C104.287 488.023 104.1 488.169 104.1 488.461C104.1 488.748 104.292 488.891 104.677 488.891C104.925 488.891 105.112 488.831 105.239 488.709C105.336 488.626 105.385 488.466 105.385 488.227ZM110.518 489.629H109.569V487.329C109.569 487.091 109.506 486.915 109.38 486.804C109.258 486.692 109.112 486.636 108.942 486.636C108.766 486.636 108.615 486.692 108.489 486.804C108.367 486.915 108.306 487.091 108.306 487.329V489.629H107.357V485.825H108.284V486.176C108.533 485.913 108.849 485.781 109.234 485.781C109.608 485.781 109.908 485.893 110.131 486.117C110.389 486.375 110.518 486.735 110.518 487.198V489.629ZM114.419 489.629H113.491V489.3C113.36 489.432 113.224 489.527 113.083 489.585C112.946 489.639 112.771 489.665 112.557 489.665C112.134 489.665 111.81 489.553 111.586 489.329C111.377 489.11 111.272 488.826 111.272 488.475C111.272 488.154 111.384 487.891 111.608 487.687C111.832 487.478 112.158 487.373 112.586 487.373H113.47V487.183C113.47 486.974 113.414 486.823 113.302 486.731C113.19 486.633 113.01 486.585 112.761 486.585C112.465 486.585 112.221 486.694 112.031 486.913L111.433 486.322C111.618 486.117 111.81 485.976 112.009 485.898C112.214 485.82 112.477 485.781 112.798 485.781C113.878 485.781 114.419 486.229 114.419 487.125V489.629ZM113.47 488.227V488.023H112.747C112.372 488.023 112.185 488.169 112.185 488.461C112.185 488.748 112.377 488.891 112.761 488.891C113.01 488.891 113.197 488.831 113.324 488.709C113.421 488.626 113.47 488.466 113.47 488.227Z" fill="#5DCBF5"/>
        <path d="M113.387 526.425L109.962 537.494L113.387 548.539L94.3887 543.2C94.3887 543.2 43.7426 556.972 24.3336 537.494C24.3336 537.494 46.5056 517.259 93.6352 532.521L113.387 526.425Z" fill="#2DABE0"/>
        <path d="M48.6524 538.813H47.5939L47.2872 537.893H45.4402L45.1263 538.813H44.0678L45.9586 533.615H46.7543L48.6524 538.813ZM47.0171 537.039L46.382 535.148L45.7249 537.039H47.0171ZM52.4026 536.908C52.4026 537.302 52.3783 537.626 52.3296 537.879C52.2809 538.132 52.1739 538.343 52.0084 538.514C51.7894 538.743 51.4828 538.857 51.0885 538.857C50.6943 538.857 50.3877 538.73 50.1687 538.477V540.207H49.2196V535.01H50.1395V535.367C50.378 535.1 50.6943 534.966 51.0885 534.966C51.4828 534.966 51.7894 535.08 52.0084 535.309C52.1739 535.479 52.2809 535.691 52.3296 535.944C52.3783 536.197 52.4026 536.518 52.4026 536.908ZM51.4317 537.346C51.4463 537.229 51.4536 537.083 51.4536 536.908C51.4536 536.732 51.4463 536.589 51.4317 536.477C51.4171 536.36 51.3879 536.248 51.344 536.141C51.3051 536.034 51.2394 535.954 51.1469 535.9C51.0593 535.847 50.9474 535.82 50.8111 535.82C50.6748 535.82 50.5605 535.847 50.468 535.9C50.3804 535.954 50.3147 536.034 50.2709 536.141C50.232 536.248 50.2052 536.36 50.1906 536.477C50.176 536.589 50.1687 536.732 50.1687 536.908C50.1687 537.083 50.176 537.229 50.1906 537.346C50.2052 537.458 50.232 537.57 50.2709 537.682C50.3147 537.789 50.3804 537.869 50.468 537.922C50.5605 537.976 50.6748 538.003 50.8111 538.003C50.9474 538.003 51.0593 537.976 51.1469 537.922C51.2394 537.869 51.3051 537.789 51.344 537.682C51.3879 537.57 51.4171 537.458 51.4317 537.346ZM56.4877 536.908C56.4877 537.302 56.4634 537.626 56.4147 537.879C56.366 538.132 56.259 538.343 56.0935 538.514C55.8745 538.743 55.5679 538.857 55.1736 538.857C54.7794 538.857 54.4728 538.73 54.2538 538.477V540.207H53.3047V535.01H54.2246V535.367C54.4631 535.1 54.7794 534.966 55.1736 534.966C55.5679 534.966 55.8745 535.08 56.0935 535.309C56.259 535.479 56.366 535.691 56.4147 535.944C56.4634 536.197 56.4877 536.518 56.4877 536.908ZM55.5168 537.346C55.5314 537.229 55.5387 537.083 55.5387 536.908C55.5387 536.732 55.5314 536.589 55.5168 536.477C55.5022 536.36 55.473 536.248 55.4291 536.141C55.3902 536.034 55.3245 535.954 55.232 535.9C55.1444 535.847 55.0325 535.82 54.8962 535.82C54.7599 535.82 54.6456 535.847 54.5531 535.9C54.4655 535.954 54.3998 536.034 54.356 536.141C54.3171 536.248 54.2903 536.36 54.2757 536.477C54.2611 536.589 54.2538 536.732 54.2538 536.908C54.2538 537.083 54.2611 537.229 54.2757 537.346C54.2903 537.458 54.3171 537.57 54.356 537.682C54.3998 537.789 54.4655 537.869 54.5531 537.922C54.6456 537.976 54.7599 538.003 54.8962 538.003C55.0325 538.003 55.1444 537.976 55.232 537.922C55.3245 537.869 55.3902 537.789 55.4291 537.682C55.473 537.57 55.5022 537.458 55.5168 537.346ZM60.1567 538.339C59.8257 538.684 59.4072 538.857 58.901 538.857C58.7404 538.857 58.5847 538.84 58.4338 538.806C58.2829 538.767 58.1296 538.704 57.9739 538.616C57.823 538.524 57.6916 538.407 57.5796 538.266C57.4677 538.12 57.3752 537.932 57.3022 537.703C57.2341 537.47 57.2 537.205 57.2 536.908C57.2 536.611 57.2341 536.348 57.3022 536.119C57.3752 535.886 57.4677 535.698 57.5796 535.557C57.6916 535.416 57.823 535.299 57.9739 535.207C58.1296 535.114 58.2829 535.051 58.4338 535.017C58.5847 534.983 58.7404 534.966 58.901 534.966C59.412 534.966 59.8306 535.136 60.1567 535.477L59.5142 536.119C59.3293 535.92 59.1249 535.82 58.901 535.82C58.6771 535.82 58.4971 535.903 58.3608 536.068C58.2196 536.243 58.1491 536.523 58.1491 536.908C58.1491 537.297 58.2196 537.579 58.3608 537.755C58.4971 537.92 58.6771 538.003 58.901 538.003C59.1249 538.003 59.3293 537.903 59.5142 537.703L60.1567 538.339ZM64.0585 538.813H63.1095V536.513C63.1095 536.275 63.0462 536.1 62.9197 535.988C62.798 535.876 62.652 535.82 62.4816 535.82C62.3064 535.82 62.1556 535.876 62.029 535.988C61.9073 536.1 61.8465 536.275 61.8465 536.513V538.813H60.8975V533.615H61.8465V535.36C62.085 535.097 62.394 534.966 62.7737 534.966C63.1484 534.966 63.4477 535.078 63.6716 535.302C63.9296 535.56 64.0585 535.92 64.0585 536.382V538.813ZM67.9587 538.813H67.0316V538.485C66.9002 538.616 66.7639 538.711 66.6228 538.769C66.4865 538.823 66.3113 538.85 66.0971 538.85C65.6737 538.85 65.35 538.738 65.1262 538.514C64.9169 538.295 64.8122 538.01 64.8122 537.66C64.8122 537.338 64.9242 537.076 65.1481 536.871C65.3719 536.662 65.698 536.557 66.1263 536.557H67.0097V536.367C67.0097 536.158 66.9537 536.007 66.8418 535.915C66.7298 535.818 66.5497 535.769 66.3015 535.769C66.0046 535.769 65.7613 535.878 65.5715 536.097L64.9729 535.506C65.1578 535.302 65.35 535.16 65.5496 535.083C65.754 535.005 66.0168 534.966 66.338 534.966C67.4185 534.966 67.9587 535.414 67.9587 536.309V538.813ZM67.0097 537.411V537.207H66.2869C65.9122 537.207 65.7248 537.353 65.7248 537.645C65.7248 537.932 65.917 538.076 66.3015 538.076C66.5497 538.076 66.7371 538.015 66.8637 537.893C66.961 537.811 67.0097 537.65 67.0097 537.411ZM69.9312 538.813H68.9821V535.119H69.9312V538.813ZM69.9385 534.36H68.9675V533.586H69.9385V534.36ZM74.1537 538.813H73.2046V536.513C73.2046 536.275 73.1413 536.1 73.0148 535.988C72.8931 535.876 72.7471 535.82 72.5768 535.82C72.4015 535.82 72.2507 535.876 72.1241 535.988C72.0025 536.1 71.9416 536.275 71.9416 536.513V538.813H70.9926V535.01H71.9197V535.36C72.1679 535.097 72.4843 534.966 72.8688 534.966C73.2435 534.966 73.5428 535.078 73.7667 535.302C74.0247 535.56 74.1537 535.92 74.1537 536.382V538.813ZM78.0392 537.616C78.0392 538.02 77.8884 538.329 77.5866 538.543C77.2849 538.752 76.8979 538.857 76.4258 538.857C76.0754 538.857 75.7737 538.82 75.5206 538.747C75.2675 538.674 75.029 538.528 74.8052 538.309L75.4257 537.689C75.6593 537.927 75.9976 538.047 76.4405 538.047C76.6254 538.047 76.7836 538.015 76.915 537.952C77.0464 537.884 77.1121 537.784 77.1121 537.652C77.1121 537.443 76.9782 537.326 76.7106 537.302L76.0973 537.244C75.3673 537.171 75.0023 536.815 75.0023 536.178C75.0023 535.798 75.1434 535.501 75.4257 535.287C75.7128 535.073 76.0608 534.966 76.4697 534.966C77.117 534.966 77.6012 535.114 77.9224 535.411L77.3384 536.002C77.1486 535.832 76.8541 535.747 76.4551 535.747C76.275 535.747 76.1387 535.783 76.0462 535.856C75.9586 535.925 75.9148 536.01 75.9148 536.112C75.9148 536.302 76.0462 536.411 76.309 536.44L76.9077 536.499C77.6621 536.572 78.0392 536.944 78.0392 537.616Z" fill="#5DCBF5"/>
        <path d="M262.055 502.501L258.63 513.569L262.055 524.615L243.057 519.275C243.057 519.275 192.411 533.048 173.002 513.569C173.002 513.569 195.174 493.335 242.303 508.597L262.055 502.501Z" fill="#2DABE0"/>
        <path d="M188.662 515.442H185.245V514.624L187.464 511.149H185.34V510.244H188.662V511.047L186.435 514.537H188.662V515.442ZM192.61 513.836H190.23C190.23 514.089 190.303 514.293 190.449 514.449C190.595 514.605 190.8 514.683 191.062 514.683C191.257 514.683 191.415 514.656 191.537 514.602C191.664 514.544 191.793 514.452 191.924 514.325L192.501 514.887C192.296 515.096 192.085 515.25 191.866 515.347C191.651 515.44 191.381 515.486 191.055 515.486C190.812 515.486 190.59 515.457 190.391 515.398C190.196 515.335 190.014 515.233 189.843 515.092C189.673 514.95 189.539 514.748 189.442 514.486C189.344 514.223 189.296 513.906 189.296 513.537C189.296 512.928 189.447 512.454 189.748 512.113C190.05 511.767 190.452 511.595 190.953 511.595C191.474 511.595 191.88 511.765 192.172 512.106C192.464 512.442 192.61 512.884 192.61 513.434V513.836ZM191.676 513.186C191.671 513.021 191.642 512.884 191.588 512.777C191.471 512.515 191.26 512.383 190.953 512.383C190.646 512.383 190.435 512.515 190.318 512.777C190.264 512.884 190.235 513.021 190.23 513.186H191.676ZM196.267 511.952L195.551 512.675C195.4 512.524 195.232 512.449 195.047 512.449C194.887 512.449 194.743 512.51 194.617 512.631C194.495 512.753 194.434 512.926 194.434 513.15V515.442H193.485V511.638H194.412V512.004C194.51 511.887 194.643 511.789 194.814 511.712C194.989 511.634 195.174 511.595 195.369 511.595C195.729 511.595 196.028 511.714 196.267 511.952ZM199.645 513.537C199.645 513.902 199.614 514.199 199.55 514.427C199.492 514.651 199.38 514.848 199.215 515.019C198.913 515.33 198.519 515.486 198.032 515.486C197.55 515.486 197.158 515.33 196.857 515.019C196.691 514.843 196.577 514.644 196.513 514.42C196.455 514.191 196.426 513.897 196.426 513.537C196.426 513.176 196.455 512.884 196.513 512.661C196.577 512.437 196.691 512.237 196.857 512.062C197.158 511.75 197.55 511.595 198.032 511.595C198.528 511.595 198.923 511.75 199.215 512.062C199.38 512.237 199.492 512.437 199.55 512.661C199.614 512.884 199.645 513.176 199.645 513.537ZM198.696 513.537C198.696 513.065 198.623 512.758 198.477 512.617C198.365 512.505 198.217 512.449 198.032 512.449C197.852 512.449 197.706 512.505 197.594 512.617C197.448 512.758 197.375 513.065 197.375 513.537C197.375 514.014 197.448 514.323 197.594 514.464C197.706 514.576 197.852 514.632 198.032 514.632C198.217 514.632 198.365 514.576 198.477 514.464C198.623 514.323 198.696 514.014 198.696 513.537ZM202.697 513.799H200.448V512.916H202.697V513.799ZM207.119 515.442H205.944L205.009 513.858L204.608 514.31V515.442H203.659V510.244H204.608V513.193L205.871 511.638H207.017L205.659 513.172L207.119 515.442ZM210.898 515.442H209.949V513.142C209.949 512.904 209.885 512.729 209.759 512.617C209.637 512.505 209.491 512.449 209.321 512.449C209.146 512.449 208.995 512.505 208.868 512.617C208.747 512.729 208.686 512.904 208.686 513.142V515.442H207.737V511.638H208.664V511.989C208.912 511.726 209.228 511.595 209.613 511.595C209.988 511.595 210.287 511.707 210.511 511.931C210.769 512.188 210.898 512.549 210.898 513.011V515.442ZM214.98 513.537C214.98 513.902 214.949 514.199 214.886 514.427C214.827 514.651 214.715 514.848 214.55 515.019C214.248 515.33 213.854 515.486 213.367 515.486C212.885 515.486 212.493 515.33 212.192 515.019C212.026 514.843 211.912 514.644 211.849 514.42C211.79 514.191 211.761 513.897 211.761 513.537C211.761 513.176 211.79 512.884 211.849 512.661C211.912 512.437 212.026 512.237 212.192 512.062C212.493 511.75 212.885 511.595 213.367 511.595C213.863 511.595 214.258 511.75 214.55 512.062C214.715 512.237 214.827 512.437 214.886 512.661C214.949 512.884 214.98 513.176 214.98 513.537ZM214.031 513.537C214.031 513.065 213.958 512.758 213.812 512.617C213.7 512.505 213.552 512.449 213.367 512.449C213.187 512.449 213.041 512.505 212.929 512.617C212.783 512.758 212.71 513.065 212.71 513.537C212.71 514.014 212.783 514.323 212.929 514.464C213.041 514.576 213.187 514.632 213.367 514.632C213.552 514.632 213.7 514.576 213.812 514.464C213.958 514.323 214.031 514.014 214.031 513.537ZM220.829 511.638L219.668 515.442H218.887L218.091 513.055L217.295 515.442H216.514L215.346 511.638H216.354L216.967 513.989L217.741 511.638H218.434L219.215 513.989L219.829 511.638H220.829ZM223.003 515.442H222.462C222.097 515.442 221.82 515.335 221.63 515.121C221.445 514.907 221.353 514.651 221.353 514.354V510.244H222.302V514.296C222.302 514.525 222.414 514.639 222.638 514.639H223.003V515.442ZM226.817 513.836H224.437C224.437 514.089 224.51 514.293 224.656 514.449C224.802 514.605 225.006 514.683 225.269 514.683C225.464 514.683 225.622 514.656 225.743 514.602C225.87 514.544 225.999 514.452 226.13 514.325L226.707 514.887C226.503 515.096 226.291 515.25 226.072 515.347C225.858 515.44 225.588 515.486 225.262 515.486C225.018 515.486 224.797 515.457 224.597 515.398C224.403 515.335 224.22 515.233 224.05 515.092C223.879 514.95 223.746 514.748 223.648 514.486C223.551 514.223 223.502 513.906 223.502 513.537C223.502 512.928 223.653 512.454 223.955 512.113C224.257 511.767 224.658 511.595 225.159 511.595C225.68 511.595 226.087 511.765 226.379 512.106C226.671 512.442 226.817 512.884 226.817 513.434V513.836ZM225.882 513.186C225.877 513.021 225.848 512.884 225.795 512.777C225.678 512.515 225.466 512.383 225.159 512.383C224.853 512.383 224.641 512.515 224.524 512.777C224.471 512.884 224.442 513.021 224.437 513.186H225.882ZM230.721 515.442H229.794V515.084C229.556 515.352 229.242 515.486 228.852 515.486C228.453 515.486 228.144 515.371 227.925 515.143C227.76 514.972 227.653 514.761 227.604 514.508C227.555 514.254 227.531 513.931 227.531 513.537C227.531 513.147 227.555 512.826 227.604 512.573C227.653 512.32 227.76 512.108 227.925 511.938C228.144 511.709 228.451 511.595 228.845 511.595C229.234 511.595 229.544 511.721 229.772 511.974V510.244H230.721V515.442ZM229.772 513.537C229.772 513.181 229.728 512.911 229.641 512.726C229.558 512.541 229.385 512.449 229.123 512.449C228.986 512.449 228.872 512.476 228.779 512.529C228.692 512.583 228.626 512.663 228.582 512.77C228.543 512.877 228.517 512.989 228.502 513.106C228.487 513.218 228.48 513.361 228.48 513.537C228.48 513.712 228.487 513.858 228.502 513.975C228.517 514.087 228.543 514.199 228.582 514.31C228.626 514.418 228.692 514.498 228.779 514.551C228.872 514.605 228.986 514.632 229.123 514.632C229.259 514.632 229.371 514.605 229.458 514.551C229.551 514.498 229.619 514.418 229.663 514.31C229.707 514.203 229.736 514.091 229.75 513.975C229.765 513.853 229.772 513.707 229.772 513.537ZM234.77 515.303C234.77 515.766 234.616 516.143 234.31 516.435C234.008 516.732 233.604 516.88 233.098 516.88C232.796 516.88 232.538 516.844 232.324 516.771C232.11 516.698 231.908 516.569 231.718 516.384L232.309 515.785C232.509 515.98 232.757 516.077 233.054 516.077C233.317 516.077 233.509 515.999 233.631 515.844C233.757 515.693 233.821 515.508 233.821 515.289V514.902C233.592 515.155 233.29 515.281 232.915 515.281C232.536 515.281 232.234 515.169 232.01 514.946C231.845 514.78 231.738 514.585 231.689 514.362C231.645 514.133 231.623 513.824 231.623 513.434C231.623 513.045 231.645 512.738 231.689 512.515C231.738 512.291 231.845 512.096 232.01 511.931C232.234 511.707 232.538 511.595 232.923 511.595C233.297 511.595 233.607 511.729 233.85 511.996V511.638H234.77V515.303ZM233.821 513.434C233.821 513.128 233.779 512.887 233.697 512.712C233.614 512.536 233.446 512.449 233.193 512.449C233.057 512.449 232.945 512.476 232.857 512.529C232.774 512.578 232.711 512.653 232.667 512.755C232.628 512.858 232.602 512.96 232.587 513.062C232.577 513.164 232.572 513.288 232.572 513.434C232.572 513.58 232.577 513.705 232.587 513.807C232.602 513.909 232.628 514.011 232.667 514.113C232.706 514.216 232.769 514.293 232.857 514.347C232.945 514.4 233.057 514.427 233.193 514.427C233.329 514.427 233.441 514.4 233.529 514.347C233.616 514.293 233.68 514.216 233.718 514.113C233.757 514.011 233.784 513.909 233.799 513.807C233.813 513.705 233.821 513.58 233.821 513.434ZM238.958 513.836H236.578C236.578 514.089 236.651 514.293 236.797 514.449C236.943 514.605 237.147 514.683 237.41 514.683C237.605 514.683 237.763 514.656 237.885 514.602C238.011 514.544 238.14 514.452 238.272 514.325L238.848 514.887C238.644 515.096 238.432 515.25 238.213 515.347C237.999 515.44 237.729 515.486 237.403 515.486C237.16 515.486 236.938 515.457 236.739 515.398C236.544 515.335 236.361 515.233 236.191 515.092C236.021 514.95 235.887 514.748 235.79 514.486C235.692 514.223 235.643 513.906 235.643 513.537C235.643 512.928 235.794 512.454 236.096 512.113C236.398 511.767 236.799 511.595 237.301 511.595C237.821 511.595 238.228 511.765 238.52 512.106C238.812 512.442 238.958 512.884 238.958 513.434V513.836ZM238.023 513.186C238.019 513.021 237.989 512.884 237.936 512.777C237.819 512.515 237.607 512.383 237.301 512.383C236.994 512.383 236.782 512.515 236.666 512.777C236.612 512.884 236.583 513.021 236.578 513.186H238.023Z" fill="#5DCBF5"/>
        <path opacity="0.6" d="M41 419L40.5385 421.002L41 423L38.44 422.034C38.44 422.034 31.6154 424.525 29 421.002C29 421.002 31.9877 417.342 38.3385 420.103L41 419Z" fill="#2DABE0"/>
        <path opacity="0.6" d="M59 610L59.4615 612.002L59 614L61.56 613.034C61.56 613.034 68.3846 615.525 71 612.002C71 612.002 68.0123 608.342 61.6615 611.103L59 610Z" fill="#2DABE0"/>
        <path opacity="0.6" d="M50 469L50.4615 471.002L50 473L52.56 472.034C52.56 472.034 59.3846 474.525 62 471.002C62 471.002 59.0123 467.342 52.6615 470.103L50 469Z" fill="#2DABE0"/>
        <path opacity="0.6" d="M50 660L49.5385 662.002L50 664L47.44 663.034C47.44 663.034 40.6154 665.525 38 662.002C38 662.002 40.9877 658.342 47.3385 661.103L50 660Z" fill="#2DABE0"/>
        <path opacity="0.6" d="M31 507L31.4615 509.002L31 511L33.56 510.034C33.56 510.034 40.3846 512.525 43 509.002C43 509.002 40.0123 505.342 33.6615 508.103L31 507Z" fill="#2DABE0"/>
        <path opacity="0.6" d="M52 736L51.5385 738.002L52 740L49.44 739.034C49.44 739.034 42.6154 741.525 40 738.002C40 738.002 42.9877 734.342 49.3385 737.103L52 736Z" fill="#2DABE0"/>
        <path opacity="0.6" d="M67 676L67.4615 678.002L67 680L69.56 679.034C69.56 679.034 76.3846 681.525 79 678.002C79 678.002 76.0123 674.342 69.6615 677.103L67 676Z" fill="#2DABE0"/>
        <path opacity="0.6" d="M129 718L129.462 720.002L129 722L131.56 721.034C131.56 721.034 138.385 723.525 141 720.002C141 720.002 138.012 716.342 131.662 719.103L129 718Z" fill="#2DABE0"/>
        <path opacity="0.6" d="M104 575L103.538 577.002L104 579L101.44 578.034C101.44 578.034 94.6154 580.525 92 577.002C92 577.002 94.9877 573.342 101.338 576.103L104 575Z" fill="#2DABE0"/>
        <path opacity="0.6" d="M171 476L171.462 478.002L171 480L173.56 479.034C173.56 479.034 180.385 481.525 183 478.002C183 478.002 180.012 474.342 173.662 477.103L171 476Z" fill="#2DABE0"/>
        <path opacity="0.6" d="M98 405L98.4615 407.002L98 409L100.56 408.034C100.56 408.034 107.385 410.525 110 407.002C110 407.002 107.012 403.342 100.662 406.103L98 405Z" fill="#2DABE0"/>
        <path opacity="0.6" d="M233 463L232.538 465.002L233 467L230.44 466.034C230.44 466.034 223.615 468.525 221 465.002C221 465.002 223.988 461.342 230.338 464.103L233 463Z" fill="#2DABE0"/>
        <path opacity="0.6" d="M334 419L334.462 421.002L334 423L336.56 422.034C336.56 422.034 343.385 424.525 346 421.002C346 421.002 343.012 417.342 336.662 420.103L334 419Z" fill="#2DABE0"/>
        <path opacity="0.6" d="M358 454L357.538 456.002L358 458L355.44 457.034C355.44 457.034 348.615 459.525 346 456.002C346 456.002 348.988 452.342 355.338 455.103L358 454Z" fill="#2DABE0"/>
        <path opacity="0.6" d="M298 624L297.538 626.002L298 628L295.44 627.034C295.44 627.034 288.615 629.525 286 626.002C286 626.002 288.988 622.342 295.338 625.103L298 624Z" fill="#2DABE0"/>
        <path opacity="0.6" d="M345 603L345.462 605.002L345 607L347.56 606.034C347.56 606.034 354.385 608.525 357 605.002C357 605.002 354.012 601.342 347.662 604.103L345 603Z" fill="#2DABE0"/>
        <path opacity="0.6" d="M338 504L337.538 506.002L338 508L335.44 507.034C335.44 507.034 328.615 509.525 326 506.002C326 506.002 328.988 502.342 335.338 505.103L338 504Z" fill="#2DABE0"/>
        <path opacity="0.6" d="M296 664L296.462 666.002L296 668L298.56 667.034C298.56 667.034 305.385 669.525 308 666.002C308 666.002 305.012 662.342 298.662 665.103L296 664Z" fill="#2DABE0"/>
        <path opacity="0.6" d="M298 514L297.538 516.002L298 518L295.44 517.034C295.44 517.034 288.615 519.525 286 516.002C286 516.002 288.988 512.342 295.338 515.103L298 514Z" fill="#2DABE0"/>
        <path opacity="0.6" d="M337 684L336.538 686.002L337 688L334.44 687.034C334.44 687.034 327.615 689.525 325 686.002C325 686.002 327.988 682.342 334.338 685.103L337 684Z" fill="#2DABE0"/>
        <path opacity="0.6" d="M261 716L260.538 718.002L261 720L258.44 719.034C258.44 719.034 251.615 721.525 249 718.002C249 718.002 251.988 714.342 258.338 717.103L261 716Z" fill="#2DABE0"/>
        <path opacity="0.6" d="M236 542L236.462 544.002L236 546L238.56 545.034C238.56 545.034 245.385 547.525 248 544.002C248 544.002 245.012 540.342 238.662 543.103L236 542Z" fill="#2DABE0"/>
        <path opacity="0.6" d="M298 574L297.538 576.002L298 578L295.44 577.034C295.44 577.034 288.615 579.525 286 576.002C286 576.002 288.988 572.342 295.338 575.103L298 574Z" fill="#2DABE0"/>
        <path opacity="0.6" d="M336 734L336.462 736.002L336 738L338.56 737.034C338.56 737.034 345.385 739.525 348 736.002C348 736.002 345.012 732.342 338.662 735.103L336 734Z" fill="#2DABE0"/>
        <path opacity="0.6" d="M144 532L144.462 534.002L144 536L146.56 535.034C146.56 535.034 153.385 537.525 156 534.002C156 534.002 153.012 530.342 146.662 533.103L144 532Z" fill="#2DABE0"/>

    </g>
    <defs>
        <clipPath id="clip0_3016_25300">
            <rect width="380" height="756" fill="white"/>
        </clipPath>
    </defs>
</svg>
