<svg width="1440" height="634" viewBox="0 0 1440 634" fill="none" xmlns="http://www.w3.org/2000/svg">
    <g clip-path="url(#clip0_1038_20486)">
        <rect width="1440" height="634" fill="#23294C"/>
        <path d="M1765 262.634C1764.93 237.792 1754.59 213.435 1743.67 190.739C1732.35 167.202 1714.46 124.469 1687.2 115.75C1661.74 107.605 1630.61 119.973 1619.65 144.315C1619.58 144.313 1619.51 144.309 1619.44 144.309C1607.13 144.309 1596.4 151.073 1590.75 161.082C1585.12 151.029 1574.37 144.231 1562.02 144.231C1548.38 144.231 1536.68 152.525 1531.68 164.345C1522.81 156.812 1511.32 152.264 1498.77 152.264C1471.1 152.264 1448.6 174.346 1447.91 201.846C1443.4 200.54 1438.64 199.838 1433.71 199.838C1429.38 199.838 1425.17 200.381 1421.15 201.402C1420.34 185.977 1408.92 173.373 1394.05 170.738C1394.25 168.913 1394.35 167.058 1394.35 165.182C1394.35 137.08 1371.57 114.299 1343.47 114.299C1325.06 114.299 1308.92 124.086 1299.99 138.742C1291.62 132.682 1281.33 129.108 1270.2 129.108C1253.99 129.108 1239.55 136.686 1230.24 148.493C1226.4 146.317 1222.08 144.887 1217.48 144.41C1213 131.558 1200.78 122.332 1186.39 122.332C1186.36 122.332 1186.34 122.336 1186.31 122.336C1180.99 111.291 1169.7 103.666 1156.62 103.666C1156.55 103.666 1156.48 103.672 1156.41 103.672C1148.44 85.9767 1130.66 73.6574 1109.99 73.6574C1098.16 73.6574 1087.27 77.7039 1078.63 84.4794L1078.26 83.7317C1075.6 61.6785 1058.85 43.9682 1037.24 39.8835C1036.48 39.7419 1035.71 39.6138 1034.94 39.5048C1034.89 39.4991 1034.85 39.4952 1034.8 39.4895C1034.06 39.3863 1033.32 39.2964 1032.58 39.2275C1032.47 39.218 1032.36 39.2122 1032.26 39.2046C1031.57 39.1434 1030.88 39.0898 1030.18 39.0592C1029.78 39.0382 1029.38 39.0382 1028.97 39.0287C1028.57 39.0191 1028.17 39 1027.75 39C1027.34 39 1026.94 39.0191 1026.54 39.0287C1026.13 39.0382 1025.73 39.0382 1025.33 39.0592C1024.63 39.0898 1023.94 39.1434 1023.25 39.2046C1023.15 39.2122 1023.04 39.218 1022.93 39.2275C1022.19 39.2964 1021.45 39.3863 1020.71 39.4895C1020.66 39.4952 1020.62 39.4991 1020.57 39.5048C1019.8 39.6138 1019.03 39.7419 1018.24 39.8892C996.659 43.9682 979.907 61.6785 977.247 83.7317L976.88 83.6246V84.4794C968.238 77.7039 957.351 73.6574 945.517 73.6574C924.852 73.6574 907.066 85.9767 899.099 103.672C899.028 103.672 898.959 103.666 898.888 103.666C885.812 103.666 874.516 111.291 869.203 122.336C869.174 122.336 869.146 122.332 869.115 122.332C854.734 122.332 842.514 131.558 838.03 144.41C833.429 144.887 829.113 146.317 825.273 148.493C815.956 136.686 801.519 129.108 785.31 129.108C774.182 129.108 763.892 132.682 755.518 138.742C746.585 124.086 730.455 114.299 712.037 114.299C683.935 114.299 661.155 137.08 661.155 165.182C661.155 167.058 661.26 168.913 661.457 170.738C646.589 173.373 635.164 185.977 634.361 201.402C630.341 200.381 626.132 199.838 621.795 199.838C616.869 199.838 612.107 200.54 607.604 201.846C606.913 174.346 584.405 152.264 556.739 152.264C544.186 152.264 532.699 156.812 523.827 164.345C518.831 152.525 507.127 144.231 493.488 144.231C481.144 144.231 470.391 151.029 464.755 161.082C459.108 151.073 448.382 144.309 436.068 144.309C435.999 144.309 435.928 144.313 435.859 144.315C427.891 126.62 410.106 114.299 389.437 114.299C356.541 114.301 334.092 156.099 317.187 180.699C290.345 219.759 275.716 280.916 278.561 328.017C314.385 328.923 350.404 332.792 386.951 332.792C412.095 332.792 437.296 333.285 462.433 332.792C483.955 332.369 498.007 334.999 519.244 340.367C566.142 352.22 614.693 354.859 662.216 363.24C733.006 375.726 802.298 400.946 874.175 400.223C904.834 399.915 953.027 407.66 983.269 402.619C1062.55 389.407 1124.05 363.395 1202.89 347.754C1235.69 341.248 1275.02 325.472 1308.33 329.889C1331.71 332.989 1354.84 332.792 1378.5 332.792H1397.56H1697.74C1716.65 332.792 1726.43 335.11 1740.83 320.794C1753.38 308.31 1761.93 291.715 1764.27 274.129C1764.78 270.289 1765.01 266.456 1765 262.634Z" fill="#2B356F"/>
        <path d="M1037.32 252.032C1027.99 246.261 1017.39 242.761 1005.63 242.516C984.907 242.081 964.801 248.865 945.099 255.3C943.056 255.967 940.899 256.637 938.795 256.205C934.529 255.33 932.503 250.608 930.431 246.776C922.806 232.671 906.647 224.834 890.703 223.142C874.761 221.451 858.773 224.97 843.155 228.587C839.783 208.866 824.834 192.062 806.35 184.418C787.869 176.771 766.44 177.762 747.806 185.027C730.617 133.588 694.454 79.1777 632.606 82.603C613.463 83.6626 596.343 91.6188 583.515 103.927C583.506 103.152 583.488 102.375 583.442 101.595C581.917 74.0622 558.37 52.9802 530.849 54.5068C512.601 55.5148 497.196 66.2159 489.324 81.3326C475.902 69.8461 458.539 62.9318 439.738 62.8146C430.933 27.6465 398.188 2.52005 360.657 4.59987C336.125 5.95952 314.909 18.6438 301.794 37.3025C295.8 34.3299 289.149 32.5264 282.143 32.1886C274.277 13.1046 255.009 0.163653 233.241 1.36884C233.197 1.37064 233.153 1.37823 233.109 1.38003C224.137 -14.8992 206.403 -25.4933 186.61 -24.3964C186.501 -24.3906 186.399 -24.3797 186.293 -24.3713C172.748 -50.4954 144.792 -67.657 113.512 -65.9253C95.4295 -64.9232 79.1503 -57.7651 66.5874 -46.602C60.4849 -85.2231 26.0113 -113.712 -13.8597 -111.502C-53.2423 -109.322 -84.0797 -77.9508 -86.562 -39.5396L-87.1303 -39.677C-80.7687 -38.1683 -79.7786 92.9993 -79.2255 102.98C-75.9424 162.252 -72.656 221.527 -69.373 280.8C-68.5671 295.314 -71.581 317.574 -66.5725 331.329C-62.9215 341.347 -56.7629 340.606 -51.7029 350.979C-40.2907 374.385 -42.9844 459.163 -23.101 478.909C2.73414 504.564 42.1479 509.541 78.499 511.5C362.241 526.782 646.816 418.004 930.431 435.5C955.526 437.05 982.101 403.665 1006.54 397.784C1025.63 393.192 1043.16 383.805 1060.45 374.516C1068.93 369.96 1077.97 364.82 1081.94 356.048C1084.54 350.299 1084.56 343.733 1084.04 337.446C1081.42 306.044 1064.93 269.101 1037.32 252.032Z" fill="#2C3986"/>
        <path d="M699.977 424.302C706.463 419.265 714.074 415.817 722.813 414.696C738.205 412.718 753.715 416.158 768.896 419.371C770.47 419.704 772.13 420.029 773.662 419.541C776.767 418.55 777.898 414.876 779.134 411.861C783.684 400.765 795.088 393.647 806.822 391.117C818.555 388.586 830.739 389.928 842.654 391.37C843.589 376.437 853.375 362.748 866.524 355.589C879.672 348.427 895.704 347.454 910.156 351.369C918.843 311.747 941.417 268.401 987.734 266.012C1002.07 265.272 1015.45 269.822 1025.98 277.95C1025.93 277.373 1025.88 276.794 1025.85 276.21C1024.79 255.616 1040.63 238.06 1061.24 236.998C1074.91 236.291 1087.23 243.019 1094.3 253.631C1103.37 244.019 1115.75 237.491 1129.73 235.904C1133.48 209.05 1155.85 187.753 1183.95 186.304C1202.33 185.357 1219.13 193.095 1230.39 205.923C1234.61 203.234 1239.42 201.362 1244.61 200.552C1248.94 185.733 1262.25 174.572 1278.55 173.731C1278.59 173.729 1278.62 173.731 1278.65 173.729C1284.03 160.908 1296.39 151.615 1311.21 150.85C1311.29 150.846 1311.37 150.846 1311.45 150.844C1319.44 130.337 1338.88 115.344 1362.31 114.135C1375.85 113.437 1388.54 117.461 1398.78 124.759C1400.24 95.5532 1423.63 71.6175 1453.49 70.0781C1482.98 68.5564 1508.44 89.4222 1513.36 117.787L1513.77 117.639C1509.16 119.269 1518.9 216.883 1519.29 224.349C1521.58 268.686 1523.87 313.025 1526.16 357.361C1526.72 368.218 1530.75 384.53 1528.12 395.158C1526.2 402.899 1521.55 402.839 1518.62 410.956C1511.99 429.272 1513.53 446.872 1500.3 463.142C1483.12 484.281 1454.17 491.127 1427.27 495.486C1217.26 529.496 995.242 542.353 785.501 578C766.942 581.156 727.667 568.422 709.001 566C694.427 564.108 680.193 553 672.025 544.5C648.001 519.5 687.409 434.06 699.977 424.302Z" fill="#2C3986"/>
        <path d="M1448.15 499.527C1448.08 471.172 1436.26 443.369 1423.78 417.463C1422.63 415.07 1421.42 412.502 1420.14 409.804C1407.12 382.214 1387.63 340.933 1359.25 331.868C1330.15 322.571 1294.58 336.688 1282.06 364.473C1282.03 364.472 1282 364.471 1281.97 364.47L1281.92 364.468C1281.89 364.467 1281.85 364.466 1281.82 364.466C1267.75 364.466 1255.49 372.187 1249.03 383.612C1242.6 372.137 1230.31 364.377 1216.2 364.377C1200.62 364.377 1187.24 373.844 1181.53 387.336C1171.4 378.738 1158.27 373.547 1143.92 373.547C1112.31 373.547 1086.59 398.752 1085.8 430.141C1080.65 428.65 1075.21 427.849 1069.58 427.849C1064.63 427.849 1059.82 428.469 1055.22 429.635C1054.3 412.028 1041.25 397.641 1024.26 394.633C1024.48 392.551 1024.6 390.433 1024.6 388.292C1024.6 356.215 998.573 330.211 966.46 330.211C945.414 330.211 926.981 341.383 916.773 358.112C907.204 351.195 895.445 347.115 882.728 347.115C864.206 347.115 847.709 355.766 837.062 369.242C832.674 366.758 827.742 365.126 822.484 364.582C817.359 349.911 803.396 339.381 786.962 339.381C786.944 339.381 786.927 339.383 786.91 339.384C786.897 339.385 786.883 339.385 786.87 339.386L786.862 339.386C780.789 326.778 767.882 318.075 752.939 318.075C752.899 318.075 752.859 318.076 752.819 318.078C752.779 318.08 752.739 318.081 752.699 318.081C743.595 297.884 723.269 283.822 699.655 283.822C686.13 283.822 673.692 288.441 663.814 296.175L663.397 295.321C660.357 270.149 641.214 249.934 616.513 245.271C615.646 245.109 614.769 244.963 613.886 244.839C613.861 244.836 613.836 244.833 613.81 244.83C613.784 244.827 613.759 244.825 613.734 244.821C612.89 244.703 612.042 244.601 611.188 244.522C611.107 244.515 611.027 244.51 610.947 244.504C610.907 244.502 610.867 244.499 610.827 244.496C610.038 244.426 609.249 244.365 608.452 244.33C607.995 244.306 607.532 244.306 607.073 244.295C606.922 244.292 606.771 244.287 606.62 244.282C606.309 244.272 605.995 244.263 605.672 244.263C605.206 244.263 604.747 244.284 604.286 244.295C603.825 244.306 603.364 244.306 602.908 244.33C602.11 244.365 601.321 244.426 600.532 244.496C600.492 244.499 600.452 244.502 600.412 244.504C600.332 244.51 600.252 244.515 600.172 244.522C599.317 244.601 598.469 244.703 597.626 244.821C597.575 244.828 597.523 244.832 597.47 244.839C596.59 244.963 595.713 245.109 594.811 245.278C570.145 249.934 551.002 270.149 547.963 295.321L547.543 295.199V296.175C537.668 288.441 525.227 283.822 511.704 283.822C488.09 283.822 467.764 297.884 458.66 318.081C458.62 318.081 458.58 318.08 458.54 318.078C458.5 318.076 458.461 318.075 458.42 318.075C443.477 318.075 430.569 326.778 424.498 339.386C424.482 339.386 424.466 339.385 424.449 339.384C424.432 339.383 424.415 339.381 424.397 339.381C407.964 339.381 394 349.911 388.875 364.582C383.617 365.126 378.685 366.758 374.297 369.242C363.65 355.766 347.154 347.115 328.631 347.115C315.915 347.115 304.156 351.195 294.586 358.112C284.379 341.383 265.946 330.211 244.899 330.211C212.786 330.211 186.755 356.215 186.755 388.292C186.755 390.433 186.875 392.551 187.1 394.633C170.109 397.641 157.054 412.028 156.137 429.635C151.543 428.469 146.733 427.849 141.777 427.849C136.148 427.849 130.706 428.65 125.56 430.141C19.4849 426.623 -52.944 576.151 24.5883 588.254C57.6037 596.589 91.3358 600.932 125.069 605.275C146.092 607.982 167.117 610.69 187.968 614.363C214.676 619.068 241.197 625.358 267.7 631.644C321.469 644.395 375.161 657.129 430.18 656.577C443.19 656.446 458.963 657.583 475.422 658.77C503.287 660.778 533.119 662.929 554.844 659.312C603.618 651.193 646.5 638.84 689.757 626.379C726.851 615.693 764.22 604.928 805.815 596.686C816.627 594.544 828.06 591.521 839.77 588.425C868.651 580.788 899.216 572.707 926.297 576.294C951.512 579.633 976.465 579.621 1001.91 579.609C1003.44 579.609 1004.96 579.608 1006.49 579.608H1028.27H1371.29C1374.08 579.608 1376.69 579.652 1379.16 579.693C1395.87 579.974 1406.2 580.148 1420.53 565.913C1434.87 551.663 1444.64 532.721 1447.31 512.648C1447.9 508.264 1448.16 503.89 1448.15 499.527Z" fill="#4C5798"/>
        <path d="M-586.458 574.979C-588.097 554.536 -581.238 533.789 -573.794 514.371C-573.106 512.577 -572.386 510.654 -571.629 508.632C-563.888 487.967 -552.306 457.047 -532.394 448.818C-511.972 440.378 -485.491 448.429 -474.803 467.708C-474.783 467.706 -474.763 467.704 -474.743 467.701L-474.704 467.697C-474.68 467.694 -474.655 467.691 -474.631 467.689C-464.489 466.849 -455.192 471.682 -449.857 479.531C-445.902 470.875 -437.508 464.548 -427.34 463.705C-416.106 462.774 -405.9 468.799 -400.978 478.183C-394.185 471.38 -385.032 466.854 -374.693 465.997C-351.905 464.108 -331.859 480.74 -329.415 503.318C-325.793 501.936 -321.92 501.034 -317.863 500.697C-314.29 500.401 -310.786 500.561 -307.406 501.127C-307.794 488.381 -299.245 477.231 -287.178 474.047C-287.464 472.56 -287.677 471.041 -287.805 469.497C-289.722 446.376 -272.511 426.077 -249.364 424.159C-234.193 422.901 -220.239 429.853 -211.882 441.302C-205.398 435.744 -197.165 432.101 -187.999 431.341C-174.648 430.234 -162.24 435.484 -153.761 444.563C-150.746 442.51 -147.288 441.038 -143.531 440.332C-140.714 429.451 -131.277 421.027 -119.432 420.045C-119.419 420.044 -119.407 420.044 -119.394 420.044C-119.385 420.044 -119.375 420.044 -119.365 420.043L-119.359 420.043C-115.735 410.592 -106.952 403.548 -96.1806 402.655C-96.1515 402.652 -96.1226 402.651 -96.0938 402.65C-96.065 402.649 -96.0361 402.648 -96.0069 402.645C-90.6513 387.543 -76.8405 376.193 -59.8191 374.782C-50.0702 373.974 -40.8284 376.56 -33.2465 381.545L-32.9966 380.904C-32.3093 362.578 -19.7183 346.863 -2.19252 342.027C-1.57681 341.859 -0.953927 341.701 -0.324992 341.559C-0.307062 341.555 -0.288702 341.551 -0.270344 341.548C-0.251984 341.544 -0.233714 341.541 -0.215785 341.537C0.385196 341.402 0.990284 341.277 1.60146 341.169C1.6589 341.159 1.71646 341.151 1.77401 341.142C1.80263 341.138 1.83124 341.133 1.85984 341.129C2.4243 341.031 2.98926 340.94 3.5621 340.867C3.88989 340.823 4.22389 340.795 4.55405 340.76C4.66259 340.748 4.77088 340.736 4.8796 340.723C5.10319 340.698 5.32863 340.672 5.56175 340.653C5.89727 340.625 6.22938 340.613 6.56239 340.593C6.89543 340.574 7.22769 340.546 7.55832 340.536C8.13537 340.514 8.70769 340.511 9.28053 340.514C9.30947 340.514 9.3384 340.513 9.36733 340.513C9.4255 340.512 9.48373 340.511 9.54201 340.511C10.1626 340.517 10.7799 340.54 11.395 340.575C11.4316 340.576 11.4697 340.576 11.5079 340.578C12.1501 340.615 12.7905 340.668 13.4511 340.735C31.5084 342.618 46.5146 356.046 50.2095 374.008L50.5046 373.895L50.5629 374.599C57.2192 368.434 65.9108 364.362 75.6581 363.554C92.6795 362.143 108.17 371.065 115.939 385.08C115.968 385.077 115.997 385.074 116.026 385.07C116.054 385.066 116.083 385.063 116.112 385.06C126.883 384.168 136.708 389.67 141.837 398.395C141.848 398.394 141.86 398.392 141.872 398.391C141.884 398.389 141.896 398.387 141.909 398.386C153.754 397.404 164.449 404.16 169.019 414.429C172.841 414.507 176.494 415.389 179.805 416.917C186.675 406.567 198.049 399.346 211.4 398.239C220.566 397.48 229.286 399.718 236.597 404.132C242.955 391.464 255.575 382.31 270.745 381.053C293.893 379.135 314.21 396.323 316.126 419.445C316.254 420.988 316.294 422.521 316.256 424.036C328.683 425.189 338.952 434.779 340.666 447.416C343.907 446.301 347.337 445.567 350.91 445.271C354.967 444.935 358.937 445.187 362.736 445.954C438.986 437.082 500.126 540.536 444.963 553.892C421.663 561.872 397.608 567.018 373.553 572.164C358.56 575.371 343.567 578.578 328.757 582.471C309.787 587.459 291.046 593.577 272.318 599.691C234.322 612.095 196.381 624.481 156.69 627.369C147.304 628.052 136.003 629.814 124.209 631.653C104.244 634.765 82.8696 638.097 66.9938 636.788C31.3522 633.849 -0.296044 627.507 -32.2204 621.109C-59.5964 615.623 -87.1755 610.096 -117.65 606.64C-125.571 605.742 -133.993 604.245 -142.619 602.713C-163.893 598.934 -186.407 594.935 -205.713 599.139C-223.689 603.052 -241.676 604.534 -260.02 606.045C-261.118 606.136 -262.216 606.226 -263.316 606.318L-279.018 607.619L-526.273 628.111C-528.28 628.277 -530.16 628.465 -531.939 628.642C-543.968 629.843 -551.403 630.586 -562.58 621.181C-573.768 611.766 -581.942 598.696 -585.07 584.387C-585.754 581.262 -586.205 578.125 -586.458 574.979Z" fill="#6770A7"/>
        <path d="M833.115 471.031C838.638 467.74 844.88 465.792 851.774 465.762C863.917 465.705 875.629 469.872 887.109 473.83C888.299 474.24 889.556 474.653 890.793 474.421C893.3 473.949 894.532 471.203 895.783 468.978C900.384 460.79 909.925 456.355 919.281 455.517C928.636 454.68 937.968 456.895 947.082 459.162C949.246 447.645 958.164 437.946 969.065 433.646C979.964 429.344 992.507 430.131 1003.35 434.565C1013.91 404.602 1035.62 373.081 1071.82 375.681C1083.02 376.485 1092.97 381.309 1100.37 388.641C1100.38 388.187 1100.4 387.733 1100.43 387.276C1101.59 371.165 1115.59 359.043 1131.69 360.202C1142.37 360.967 1151.29 367.382 1155.76 376.312C1163.73 369.713 1173.97 365.83 1184.99 365.942C1190.48 345.428 1209.9 331.026 1231.87 332.604C1246.22 333.636 1258.53 341.269 1266.04 352.323C1269.58 350.64 1273.49 349.647 1277.6 349.517C1282.39 338.415 1293.8 331.02 1306.54 331.935C1306.56 331.936 1306.59 331.941 1306.61 331.943C1312.03 322.494 1322.52 316.459 1334.1 317.292C1334.16 317.296 1334.22 317.304 1334.28 317.309C1342.47 302.139 1359.01 292.355 1377.32 293.67C1387.9 294.43 1397.37 298.779 1404.62 305.438C1408.56 282.876 1429.03 266.521 1452.37 268.198C1475.41 269.853 1493.18 288.523 1494.26 311.044L1494.6 310.969C1490.86 311.792 1489.02 388.606 1488.6 394.447C1486.11 429.131 1483.62 463.817 1481.13 498.501C1480.52 506.994 1482.07 520.061 1479 528.068C1476.77 533.901 1473.17 533.408 1470.11 539.435C1463.2 553.034 1462.69 566.863 1450.86 578.237C1435.48 593.015 1412.34 595.551 1391.03 596.35C1224.67 602.578 1060.03 551.077 893.72 558.603C879.005 559.27 864.013 560.372 849.751 556.693C838.617 553.82 828.436 548.154 818.397 542.547C813.473 539.798 808.227 536.7 805.987 531.525C804.518 528.132 804.565 524.287 804.932 520.609C806.767 502.242 816.783 480.763 833.115 471.031Z" fill="#6770A7"/>
        <path d="M1515.87 489.768C1513.73 472.048 1498.65 458.313 1480.35 458.313C1461.83 458.313 1446.6 472.388 1444.76 490.425C1438.66 485.578 1430.93 482.682 1422.53 482.682C1408 482.682 1395.5 491.343 1389.89 503.787C1389.85 503.785 1389.8 503.783 1389.75 503.783C1380.55 503.783 1372.61 509.144 1368.87 516.91C1368.85 516.91 1368.83 516.908 1368.81 516.908C1358.7 516.908 1350.11 523.394 1346.96 532.43C1343.72 532.767 1340.69 533.773 1337.99 535.303C1331.43 527.001 1321.28 521.671 1309.89 521.671C1302.06 521.671 1294.83 524.184 1288.94 528.445C1282.66 518.141 1271.32 511.259 1258.36 511.259C1238.61 511.259 1222.59 527.276 1222.59 547.037C1222.59 548.356 1222.66 549.66 1222.8 550.944C1212.35 552.797 1204.31 561.658 1203.75 572.505C1200.92 571.786 1197.96 571.404 1194.91 571.404C1191.45 571.404 1188.1 571.897 1184.93 572.815C1184.45 553.479 1168.62 537.953 1149.17 537.953C1140.34 537.953 1132.27 541.15 1126.03 546.448C1122.52 538.137 1114.29 532.304 1104.7 532.304C1096.02 532.304 1088.46 537.085 1084.49 544.153C1080.52 537.115 1072.98 532.359 1064.32 532.359C1064.27 532.359 1064.23 532.363 1064.18 532.363C1058.57 519.922 1046.07 511.259 1031.54 511.259C1023.14 511.259 1015.41 514.156 1009.31 519.002C1009.3 518.891 1009.28 518.782 1009.27 518.671V518.267L1009.22 518.283C1007.06 500.593 991.992 486.891 973.719 486.891C973.681 486.891 973.643 486.893 973.605 486.893C973.567 486.893 973.53 486.891 973.492 486.891C955.217 486.891 940.154 500.593 937.991 518.283L937.941 518.267V518.671C937.93 518.782 937.911 518.891 937.901 519.002C931.795 514.156 924.073 511.259 915.672 511.259C901.142 511.259 888.635 519.922 883.034 532.363C882.984 532.363 882.937 532.359 882.887 532.359C874.23 532.359 866.687 537.115 862.715 544.153C858.753 537.085 851.193 532.304 842.513 532.304C832.923 532.304 824.694 538.137 821.181 546.448C814.943 541.15 806.865 537.953 798.04 537.953C778.587 537.953 762.761 553.479 762.275 572.815C759.108 571.897 755.76 571.404 752.296 571.404C749.246 571.404 746.288 571.786 743.461 572.505C742.895 561.658 734.863 552.797 724.409 550.944C724.548 549.66 724.621 548.356 724.621 547.037C724.621 527.276 708.603 511.259 688.845 511.259C675.894 511.259 664.552 518.141 658.272 528.445C652.384 524.184 645.148 521.671 637.324 521.671C625.927 521.671 615.776 527.001 609.224 535.303C606.524 533.773 603.489 532.767 600.255 532.43C597.102 523.394 588.51 516.908 578.397 516.908C578.376 516.908 578.357 516.91 578.336 516.91C574.599 509.144 566.657 503.783 557.463 503.783C557.413 503.783 557.365 503.785 557.315 503.787C551.714 491.343 539.207 482.682 524.677 482.682C516.355 482.682 508.702 485.528 502.624 490.292V489.691L502.366 489.766C500.498 474.26 488.718 461.807 473.539 458.939C473.534 458.939 473.526 458.937 473.518 458.935C472.985 458.835 472.445 458.746 471.902 458.669C471.872 458.663 471.839 458.661 471.809 458.658C471.29 458.585 470.768 458.522 470.242 458.474C470.168 458.466 470.093 458.464 470.021 458.457C469.535 458.415 469.049 458.376 468.558 458.355C468.277 458.342 467.994 458.342 467.711 458.334C467.426 458.327 467.144 458.313 466.858 458.313H466.854H466.848C466.561 458.313 466.28 458.327 465.995 458.334C465.712 458.342 465.429 458.342 465.148 458.355C464.656 458.376 464.171 458.415 463.685 458.457C463.612 458.464 463.538 458.466 463.463 458.474C462.937 458.522 462.415 458.585 461.897 458.658C461.866 458.661 461.834 458.663 461.803 458.669C461.26 458.746 460.721 458.835 460.187 458.935C460.18 458.937 460.172 458.939 460.166 458.939C444.99 461.807 433.208 474.26 431.34 489.766L431.081 489.691V490.292C425.004 485.528 417.351 482.682 409.028 482.682C394.498 482.682 381.991 491.343 376.39 503.787C376.34 503.785 376.293 503.783 376.243 503.783C367.048 503.783 359.106 509.144 355.37 516.91C355.349 516.91 355.329 516.908 355.308 516.908C345.196 516.908 336.604 523.394 333.45 532.43C330.217 532.767 327.182 533.773 324.481 535.303C317.93 527.001 307.779 521.671 296.381 521.671C288.558 521.671 281.322 524.184 275.434 528.445C269.153 518.141 257.811 511.259 244.861 511.259C225.102 511.259 209.085 527.276 209.085 547.037C209.085 548.356 209.157 549.66 209.297 550.944C198.842 552.797 190.81 561.658 190.244 572.505C187.418 571.786 184.459 571.404 181.409 571.404C177.946 571.404 174.597 571.897 171.43 572.815C170.945 553.479 155.118 537.953 135.666 537.953C126.84 537.953 118.763 541.15 112.525 546.448C109.012 538.137 100.783 532.304 91.1923 532.304C82.5122 532.304 74.9526 537.085 70.9902 544.153C67.0183 537.115 59.4761 532.359 50.8189 532.359C50.7691 532.359 50.7213 532.363 50.6716 532.363C45.0703 519.922 32.5635 511.259 18.0335 511.259C9.63255 511.259 1.91057 514.156 -4.19556 519.002C-6.0295 500.964 -21.2652 486.891 -39.7863 486.891C-58.0817 486.891 -73.1664 500.624 -75.3024 518.344L-75.5625 518.267V664.889H206.83H220.232H431.081H502.624L700.11 693.735L726.876 664.889H937.941H1009.27H1220.33H1233.74H1516.13V489.691L1515.87 489.768Z" fill="#7E85B4"/>
    </g>
    <defs>
        <clipPath id="clip0_1038_20486">
            <rect width="1440" height="634" fill="white"/>
        </clipPath>
    </defs>
</svg>
