<svg width="380" height="756" viewBox="0 0 380 756" fill="none" xmlns="http://www.w3.org/2000/svg">
    <g clip-path="url(#clip0_3016_25300)">
        <path d="M76.37 377C121.617 377 138.028 388.806 167.747 388.806C197.467 388.806 203.267 379.361 233.841 379.361C264.416 379.361 269.744 388.758 310.547 388.806C349.584 388.853 380 379.361 380 379.361V381.722C380 381.722 342.351 391.041 310.549 393.528C271.596 396.572 264.416 381.25 233.844 381.25C203.272 381.25 197.469 390.694 167.75 390.694C146.763 390.694 123.725 385.809 100.548 383.123C77.1722 380.416 70.4034 379.843 57.1139 380.243C27.2467 381.14 1.41115e-05 394 1.41115e-05 394V388.806C1.41115e-05 388.806 31.1259 377 76.37 377Z" fill="white"/>
    </g>
    <defs>
        <clipPath id="clip0_3016_25300">
            <rect width="380" height="756" fill="white"/>
        </clipPath>
    </defs>
</svg>
