<svg width="1440" height="973" viewBox="0 0 1440 973" fill="none" xmlns="http://www.w3.org/2000/svg">
    <g clip-path="url(#clip0_1038_19364)">
        <path d="M1440 627.5C1440 627.5 1322.04 590 1150.59 590C979.14 590 916.94 627.5 804.32 627.5C691.7 627.5 669.72 597.5 553.86 597.5C438 597.5 411.11 627.5 263.19 627.5C115.27 627.5 0 597.5 0 597.5V1084.32H1440V627.5Z"
              fill="#5DCBF5"/>
        <g clip-path="url(#clip1_1038_19364)">
            <path d="M1150.59 590C979.13 590 916.94 627.5 804.32 627.5C691.7 627.5 669.72 597.5 553.86 597.5C438 597.5 417.81 627.35 263.19 627.5C115.26 627.65 0 597.5 0 597.5V625C0 625 142.67 628.6 263.18 636.5C410.79 646.17 438 613.5 553.85 613.5C669.7 613.5 691.69 629.5 804.31 629.5C883.84 629.5 971.14 612.98 1058.97 604.45C1147.55 595.85 1173.2 595.03 1223.56 596.3C1336.74 599.15 1439.99 664 1439.99 664V627.5C1439.99 627.5 1322.04 590 1150.59 590Z"
                  fill="#418EAB"/>
            <path d="M417.411 644.143C422.066 643.386 425.538 640.916 425.166 638.626C424.793 636.337 420.717 635.095 416.062 635.852C411.407 636.609 407.935 639.079 408.307 641.369C408.68 643.658 412.755 644.9 417.411 644.143Z"
                  fill="#418EAB"/>
            <path d="M1145.42 615.843C1150.13 615.522 1153.82 613.386 1153.66 611.072C1153.5 608.757 1149.56 607.141 1144.85 607.462C1140.15 607.783 1136.46 609.919 1136.62 612.233C1136.78 614.547 1140.72 616.163 1145.42 615.843Z"
                  fill="#418EAB"/>
            <path d="M1378.47 643.737C1379.13 641.514 1376 638.622 1371.48 637.28C1366.96 635.937 1362.76 636.651 1362.1 638.875C1361.44 641.098 1364.57 643.989 1369.09 645.332C1373.61 646.675 1377.81 645.961 1378.47 643.737Z"
                  fill="#418EAB"/>
            <path d="M1184.15 609.91C1184.15 612.23 1178.81 614.11 1172.22 614.11C1165.63 614.11 1160.29 612.23 1160.29 609.91C1160.29 607.59 1165.63 605.71 1172.22 605.71C1178.81 605.71 1184.15 607.59 1184.15 609.91Z"
                  fill="#418EAB"/>
            <path d="M389.09 650.379C396.143 649.232 401.56 646.445 401.187 644.156C400.815 641.866 394.795 640.941 387.741 642.088C380.687 643.236 375.271 646.022 375.643 648.312C376.016 650.601 382.036 651.527 389.09 650.379Z"
                  fill="#418EAB"/>
        </g>
    </g>
    <defs>
        <clipPath id="clip0_1038_19364">
            <rect width="1440" height="973" fill="white"/>
        </clipPath>
        <clipPath id="clip1_1038_19364">
            <rect width="1440" height="74" fill="white" transform="translate(0 590)"/>
        </clipPath>
        <clipPath id="clip2_1038_19364">
            <rect width="392.59" height="283.59" fill="white" transform="translate(508.254 454.85) rotate(-6.96504)"/>
        </clipPath>
    </defs>
</svg>
