<svg width="360" height="708" viewBox="0 0 360 708" fill="none" xmlns="http://www.w3.org/2000/svg">
<path opacity="0.6" d="M40 67L40.4615 69.0021L40 71L42.56 70.0342C42.56 70.0342 49.3846 72.5254 52 69.0021C52 69.0021 49.0123 65.342 42.6615 68.1026L40 67Z" fill="#2DABE0"/>
<path opacity="0.6" d="M40 437L40.4615 439.002L40 441L42.56 440.034C42.56 440.034 49.3846 442.525 52 439.002C52 439.002 49.0123 435.342 42.6615 438.103L40 437Z" fill="#2DABE0"/>
<path opacity="0.6" d="M40 258L39.5385 260.002L40 262L37.44 261.034C37.44 261.034 30.6154 263.525 28 260.002C28 260.002 30.9877 256.342 37.3385 259.103L40 258Z" fill="#2DABE0"/>
<path opacity="0.6" d="M40 628L39.5385 630.002L40 632L37.44 631.034C37.44 631.034 30.6154 633.525 28 630.002C28 630.002 30.9877 626.342 37.3385 629.103L40 628Z" fill="#2DABE0"/>
<path opacity="0.6" d="M42 334L41.5385 336.002L42 338L39.44 337.034C39.44 337.034 32.6154 339.525 30 336.002C30 336.002 32.9877 332.342 39.3385 335.103L42 334Z" fill="#2DABE0"/>
<path opacity="0.6" d="M42 704L41.5385 706.002L42 708L39.44 707.034C39.44 707.034 32.6154 709.525 30 706.002C30 706.002 32.9877 702.342 39.3385 705.103L42 704Z" fill="#2DABE0"/>
<path opacity="0.6" d="M57 274L57.4615 276.002L57 278L59.56 277.034C59.56 277.034 66.3846 279.525 69 276.002C69 276.002 66.0123 272.342 59.6615 275.103L57 274Z" fill="#2DABE0"/>
<path opacity="0.6" d="M57 644L57.4615 646.002L57 648L59.56 647.034C59.56 647.034 66.3846 649.525 69 646.002C69 646.002 66.0123 642.342 59.6615 645.103L57 644Z" fill="#2DABE0"/>
<path opacity="0.6" d="M161 74L161.462 76.0021L161 78L163.56 77.0342C163.56 77.0342 170.385 79.5254 173 76.0021C173 76.0021 170.012 72.342 163.662 75.1026L161 74Z" fill="#2DABE0"/>
<path opacity="0.6" d="M161 444L161.462 446.002L161 448L163.56 447.034C163.56 447.034 170.385 449.525 173 446.002C173 446.002 170.012 442.342 163.662 445.103L161 444Z" fill="#2DABE0"/>
<path opacity="0.6" d="M128 554L128.462 556.002L128 558L130.56 557.034C130.56 557.034 137.385 559.525 140 556.002C140 556.002 137.012 552.342 130.662 555.103L128 554Z" fill="#2DABE0"/>
<path opacity="0.6" d="M223 61L222.538 63.0021L223 65L220.44 64.0342C220.44 64.0342 213.615 66.5254 211 63.0021C211 63.0021 213.988 59.342 220.338 62.1026L223 61Z" fill="#2DABE0"/>
<path opacity="0.6" d="M133 301L132.538 303.002L133 305L130.44 304.034C130.44 304.034 123.615 306.525 121 303.002C121 303.002 123.988 299.342 130.338 302.103L133 301Z" fill="#2DABE0"/>
<path opacity="0.6" d="M223 431L222.538 433.002L223 435L220.44 434.034C220.44 434.034 213.615 436.525 211 433.002C211 433.002 213.988 429.342 220.338 432.103L223 431Z" fill="#2DABE0"/>
<path opacity="0.6" d="M254 20L254.462 22.0021L254 24L256.56 23.0342C256.56 23.0342 263.385 25.5254 266 22.0021C266 22.0021 263.012 18.342 256.662 21.1026L254 20Z" fill="#2DABE0"/>
<path opacity="0.6" d="M254 390L254.462 392.002L254 394L256.56 393.034C256.56 393.034 263.385 395.525 266 392.002C266 392.002 263.012 388.342 256.662 391.103L254 390Z" fill="#2DABE0"/>
<path opacity="0.6" d="M85 20L84.5385 22.0021L85 24L82.44 23.0342C82.44 23.0342 75.6154 25.5254 73 22.0021C73 22.0021 75.9877 18.342 82.3385 21.1026L85 20Z" fill="#2DABE0"/>
<path opacity="0.6" d="M85 390L84.5385 392.002L85 394L82.44 393.034C82.44 393.034 75.6154 395.525 73 392.002C73 392.002 75.9877 388.342 82.3385 391.103L85 390Z" fill="#2DABE0"/>
<path opacity="0.6" d="M348 52L347.538 54.0021L348 56L345.44 55.0342C345.44 55.0342 338.615 57.5254 336 54.0021C336 54.0021 338.988 50.342 345.338 53.1026L348 52Z" fill="#2DABE0"/>
<path opacity="0.6" d="M348 422L347.538 424.002L348 426L345.44 425.034C345.44 425.034 338.615 427.525 336 424.002C336 424.002 338.988 420.342 345.338 423.103L348 422Z" fill="#2DABE0"/>
<path opacity="0.6" d="M288 222L287.538 224.002L288 226L285.44 225.034C285.44 225.034 278.615 227.525 276 224.002C276 224.002 278.988 220.342 285.338 223.103L288 222Z" fill="#2DABE0"/>
<path opacity="0.6" d="M288 592L287.538 594.002L288 596L285.44 595.034C285.44 595.034 278.615 597.525 276 594.002C276 594.002 278.988 590.342 285.338 593.103L288 592Z" fill="#2DABE0"/>
<path opacity="0.6" d="M335 201L335.462 203.002L335 205L337.56 204.034C337.56 204.034 344.385 206.525 347 203.002C347 203.002 344.012 199.342 337.662 202.103L335 201Z" fill="#2DABE0"/>
<path opacity="0.6" d="M335 571L335.462 573.002L335 575L337.56 574.034C337.56 574.034 344.385 576.525 347 573.002C347 573.002 344.012 569.342 337.662 572.103L335 571Z" fill="#2DABE0"/>
<path opacity="0.6" d="M328 102L327.538 104.002L328 106L325.44 105.034C325.44 105.034 318.615 107.525 316 104.002C316 104.002 318.988 100.342 325.338 103.103L328 102Z" fill="#2DABE0"/>
<path opacity="0.6" d="M198 352L197.538 354.002L198 356L195.44 355.034C195.44 355.034 188.615 357.525 186 354.002C186 354.002 188.988 350.342 195.338 353.103L198 352Z" fill="#2DABE0"/>
<path opacity="0.6" d="M328 472L327.538 474.002L328 476L325.44 475.034C325.44 475.034 318.615 477.525 316 474.002C316 474.002 318.988 470.342 325.338 473.103L328 472Z" fill="#2DABE0"/>
<path opacity="0.6" d="M54 507L54.4615 509.002L54 511L56.56 510.034C56.56 510.034 63.3846 512.525 66 509.002C66 509.002 63.0123 505.342 56.6615 508.103L54 507Z" fill="#2DABE0"/>
<path opacity="0.6" d="M188 262L188.462 264.002L188 266L190.56 265.034C190.56 265.034 197.385 267.525 200 264.002C200 264.002 197.012 260.342 190.662 263.103L188 262Z" fill="#2DABE0"/>
<path opacity="0.6" d="M188 632L188.462 634.002L188 636L190.56 635.034C190.56 635.034 197.385 637.525 200 634.002C200 634.002 197.012 630.342 190.662 633.103L188 632Z" fill="#2DABE0"/>
<path opacity="0.6" d="M288 112L287.538 114.002L288 116L285.44 115.034C285.44 115.034 278.615 117.525 276 114.002C276 114.002 278.988 110.342 285.338 113.103L288 112Z" fill="#2DABE0"/>
<path opacity="0.6" d="M158 362L157.538 364.002L158 366L155.44 365.034C155.44 365.034 148.615 367.525 146 364.002C146 364.002 148.988 360.342 155.338 363.103L158 362Z" fill="#2DABE0"/>
<path opacity="0.6" d="M125 472L124.538 474.002L125 476L122.44 475.034C122.44 475.034 115.615 477.525 113 474.002C113 474.002 115.988 470.342 122.338 473.103L125 472Z" fill="#2DABE0"/>
<path opacity="0.6" d="M288 482L287.538 484.002L288 486L285.44 485.034C285.44 485.034 278.615 487.525 276 484.002C276 484.002 278.988 480.342 285.338 483.103L288 482Z" fill="#2DABE0"/>
<path opacity="0.6" d="M94 517L94.4615 519.002L94 521L96.56 520.034C96.56 520.034 103.385 522.525 106 519.002C106 519.002 103.012 515.342 96.6615 518.103L94 517Z" fill="#2DABE0"/>
<path opacity="0.6" d="M215 497L214.538 499.002L215 501L212.44 500.034C212.44 500.034 205.615 502.525 203 499.002C203 499.002 205.988 495.342 212.338 498.103L215 497Z" fill="#2DABE0"/>
<path opacity="0.6" d="M54 558L53.5385 560.002L54 562L51.44 561.034C51.44 561.034 44.6154 563.525 42 560.002C42 560.002 44.9877 556.342 51.3385 559.103L54 558Z" fill="#2DABE0"/>
<path opacity="0.6" d="M297 282L296.538 284.002L297 286L294.44 285.034C294.44 285.034 287.615 287.525 285 284.002C285 284.002 287.988 280.342 294.338 283.103L297 282Z" fill="#2DABE0"/>
<path opacity="0.6" d="M297 652L296.538 654.002L297 656L294.44 655.034C294.44 655.034 287.615 657.525 285 654.002C285 654.002 287.988 650.342 294.338 653.103L297 652Z" fill="#2DABE0"/>
<path opacity="0.6" d="M247 322L246.538 324.002L247 326L244.44 325.034C244.44 325.034 237.615 327.525 235 324.002C235 324.002 237.988 320.342 244.338 323.103L247 322Z" fill="#2DABE0"/>
<path opacity="0.6" d="M247 692L246.538 694.002L247 696L244.44 695.034C244.44 695.034 237.615 697.525 235 694.002C235 694.002 237.988 690.342 244.338 693.103L247 692Z" fill="#2DABE0"/>
<path opacity="0.6" d="M235 195L234.538 197.002L235 199L232.44 198.034C232.44 198.034 225.615 200.525 223 197.002C223 197.002 225.988 193.342 232.338 196.103L235 195Z" fill="#2DABE0"/>
<path opacity="0.6" d="M235 565L234.538 567.002L235 569L232.44 568.034C232.44 568.034 225.615 570.525 223 567.002C223 567.002 225.988 563.342 232.338 566.103L235 565Z" fill="#2DABE0"/>
<path opacity="0.6" d="M326 332L326.462 334.002L326 336L328.56 335.034C328.56 335.034 335.385 337.525 338 334.002C338 334.002 335.012 330.342 328.662 333.103L326 332Z" fill="#2DABE0"/>
<path opacity="0.6" d="M326 702L326.462 704.002L326 706L328.56 705.034C328.56 705.034 335.385 707.525 338 704.002C338 704.002 335.012 700.342 328.662 703.103L326 702Z" fill="#2DABE0"/>
</svg>
