<svg width="1244" height="743" viewBox="0 0 1244 743" fill="none" xmlns="http://www.w3.org/2000/svg">
    <g clip-path="url(#clip0_4008_5292)">
        <path d="M1223.49 147.16C1226.26 147.16 1228.51 144.913 1228.51 142.14C1228.51 139.368 1226.26 137.12 1223.49 137.12C1220.72 137.12 1218.47 139.368 1218.47 142.14C1218.47 144.913 1220.72 147.16 1223.49 147.16Z" stroke="white" stroke-width="3" stroke-miterlimit="10"/>
        <path d="M1112.57 658.72C1115.34 658.72 1117.59 656.472 1117.59 653.7C1117.59 650.927 1115.34 648.68 1112.57 648.68C1109.8 648.68 1107.55 650.927 1107.55 653.7C1107.55 656.472 1109.8 658.72 1112.57 658.72Z" stroke="white" stroke-width="3" stroke-miterlimit="10"/>
        <path d="M1129.4 685.59C1132.17 685.59 1134.42 683.342 1134.42 680.57C1134.42 677.797 1132.17 675.55 1129.4 675.55C1126.63 675.55 1124.38 677.797 1124.38 680.57C1124.38 683.342 1126.63 685.59 1129.4 685.59Z" stroke="white" stroke-width="3" stroke-miterlimit="10"/>
        <path d="M40.1802 413.28C42.9526 413.28 45.2002 411.033 45.2002 408.26C45.2002 405.488 42.9526 403.24 40.1802 403.24C37.4077 403.24 35.1602 405.488 35.1602 408.26C35.1602 411.033 37.4077 413.28 40.1802 413.28Z" stroke="white" stroke-width="3" stroke-miterlimit="10"/>
        <path d="M60.27 183.56C63.0425 183.56 65.29 181.312 65.29 178.54C65.29 175.768 63.0425 173.52 60.27 173.52C57.4975 173.52 55.25 175.768 55.25 178.54C55.25 181.312 57.4975 183.56 60.27 183.56Z" stroke="white" stroke-width="3" stroke-miterlimit="10"/>
        <path d="M169.59 741.06C172.363 741.06 174.61 738.812 174.61 736.04C174.61 733.268 172.363 731.02 169.59 731.02C166.818 731.02 164.57 733.268 164.57 736.04C164.57 738.812 166.818 741.06 169.59 741.06Z" stroke="white" stroke-width="3" stroke-miterlimit="10"/>
        <path d="M6.52 364.56C9.29247 364.56 11.54 362.313 11.54 359.54C11.54 356.768 9.29247 354.52 6.52 354.52C3.74753 354.52 1.5 356.768 1.5 359.54C1.5 362.313 3.74753 364.56 6.52 364.56Z" stroke="white" stroke-width="3" stroke-miterlimit="10"/>
        <path d="M1206.73 183.56C1209.5 183.56 1211.75 181.312 1211.75 178.54C1211.75 175.768 1209.5 173.52 1206.73 173.52C1203.96 173.52 1201.71 175.768 1201.71 178.54C1201.71 181.312 1203.96 183.56 1206.73 183.56Z" stroke="white" stroke-width="3" stroke-miterlimit="10"/>
    </g>
    <defs>
        <clipPath id="clip0_4008_5292">
            <rect width="1243.5" height="742.57" fill="white"/>
        </clipPath>
    </defs>
</svg>
