<svg width="1440" height="331" viewBox="0 0 1440 331" fill="none" xmlns="http://www.w3.org/2000/svg">
    <path d="M1114 67.1381C1114 67.1381 1065.88 25.0706 998.679 61.9984C998.679 61.9984 958.499 -16.3034 858.602 3.0868C758.706 22.477 750.398 99.3633 627.688 103.154C504.979 106.945 344.367 14.8862 225.983 25.0706C107.6 35.255 86 82.7092 86 82.7092V258H1113.86L1114 67.1381Z" fill="#3973B2"/>
    <path d="M0 220.129C0 220.129 62.8595 223.568 139.485 236.722C230.066 252.274 426.345 251.233 542.999 231.538C646.306 214.099 693.859 214.303 797.125 227.599C916.319 242.947 1219.78 247.09 1440 223.242V331H0V220.129Z" fill="#F9DC85"/>
    <path d="M755 317.199C755 317.199 756.9 303.549 766.03 307.369C766.03 307.369 769.83 294.929 777.06 300.349C777.06 300.349 781.05 291.719 789.42 291.919C797.79 292.119 788.09 315.199 788.09 315.199C788.09 315.199 771.55 311.989 755 317.209V317.199Z" fill="#91C082"/>
    <path d="M741.19 262.73C741.19 262.73 719.53 264.28 725.98 254.87C732.43 245.45 744.46 243.03 754.99 252.8C765.51 262.57 741.19 262.74 741.19 262.74V262.73Z" fill="#9B998C" stroke="#231F20" stroke-width="0.7" stroke-miterlimit="10"/>
    <path d="M724.77 268.67C724.77 268.67 709.04 269.8 713.73 262.96C718.42 256.12 727.15 254.36 734.79 261.46C742.43 268.55 724.77 268.67 724.77 268.67Z" fill="#9B998C" stroke="#231F20" stroke-width="0.7" stroke-miterlimit="10"/>
    <path d="M846.18 274.35C846.18 274.35 830.45 275.52 835.12 268.67C839.79 261.82 848.52 260.04 856.18 267.11C863.84 274.19 846.18 274.35 846.18 274.35Z" fill="#9B998C" stroke="#231F20" stroke-width="0.7" stroke-miterlimit="10"/>
    <path d="M605.499 276.452C605.499 276.452 595.599 277.332 598.549 272.392C601.499 267.462 607.009 266.152 611.809 271.222C616.609 276.292 605.499 276.452 605.499 276.452Z" fill="#9B998C"/>
    <path d="M605.499 276.452C605.499 276.452 595.599 277.332 598.549 272.392C601.499 267.462 607.009 266.152 611.809 271.222C616.609 276.292 605.499 276.452 605.499 276.452Z" fill="#9B998C"/>
    <path d="M580.989 309.9C580.989 309.9 565.162 311.347 569.878 303.223C574.594 295.115 583.403 292.961 591.076 301.299C598.75 309.637 580.989 309.9 580.989 309.9Z" fill="#9B998C"/>
    <path d="M473.204 257.221C473.204 257.221 461.054 258.271 464.674 252.311C468.294 246.341 475.054 244.771 480.944 250.901C486.844 257.031 473.194 257.221 473.194 257.221H473.204Z" fill="#9B998C"/>
    <path d="M501.898 272.317C501.898 272.317 486.198 273.557 490.868 266.377C495.538 259.197 504.258 257.317 511.888 264.717C519.518 272.117 501.898 272.317 501.898 272.317Z" fill="#9B998C"/>
    <path d="M545 265.43C545 265.43 533.23 253.38 545 251.98C545 251.98 534.35 237.97 541.08 235.73C547.81 233.49 564.33 255.9 564.33 255.9C564.33 255.9 572.17 249.18 580.58 266.55C580.58 266.55 561.53 262.35 545 265.43Z" fill="#91C082"/>
    <path d="M879.01 268.051C879.01 268.051 885.47 253.761 896.78 253.171C896.78 253.171 905.72 227.861 918.65 228.001C931.59 228.131 921.57 247.141 921.57 247.141C921.57 247.141 931.49 249.361 927.22 258.451L923.43 265.621C923.43 265.621 905.18 259.341 879 268.051H879.01Z" fill="#91C082"/>
    <path d="M462.187 283.599C462.187 283.599 455.337 267.069 443.747 272.109C443.747 272.109 435.057 251.519 423.457 252.009C411.857 252.499 421.877 273.789 421.877 273.789C421.877 273.789 414.497 274.069 415.027 280.509C415.027 280.509 444.007 276.309 462.187 283.589V283.599Z" fill="#91C082"/>
    <path d="M399.633 257.812C399.633 257.812 397.623 244.162 387.953 247.982C387.953 247.982 383.923 235.542 376.273 240.962C376.273 240.962 371.123 229.422 363.193 232.532C355.263 235.642 364.603 255.812 364.603 255.812C364.603 255.812 382.113 252.602 399.633 257.822V257.812Z" fill="#91C082"/>
    <path d="M1046.81 284.885C1046.81 284.885 1033.87 285.875 1037.71 280.115C1041.55 274.355 1048.74 272.845 1055.04 278.795C1061.34 284.745 1046.8 284.885 1046.8 284.885H1046.81Z" fill="#9B998C"/>
    <path d="M967.024 262.876C967.024 262.876 947.204 264.356 953.094 255.686C958.974 247.016 969.984 244.766 979.634 253.716C989.284 262.666 967.034 262.876 967.034 262.876H967.024Z" fill="#9B998C"/>
    <path d="M1030.19 248.857C1030.19 248.857 1042.82 236.807 1030.19 235.407C1030.19 235.407 1041.62 221.397 1034.4 219.157C1027.18 216.917 1009.44 239.327 1009.44 239.327C1009.44 239.327 1001.02 232.607 992 249.977C992 249.977 1012.45 245.777 1030.19 248.857Z" fill="#91C082"/>
</svg>
