<svg width="32" height="32" viewBox="0 0 32 32" fill="none" xmlns="http://www.w3.org/2000/svg">
<path d="M16 10V16" stroke="#2DABE0" stroke-width="2" stroke-linecap="round" stroke-linejoin="round"/>
<path d="M21.2 19L16 16" stroke="#2DABE0" stroke-width="2" stroke-linecap="round" stroke-linejoin="round"/>
<path d="M8.97559 12.4626H3.97559V7.46265" stroke="#2DABE0" stroke-width="2" stroke-linecap="round" stroke-linejoin="round"/>
<path d="M8.22559 23.775C9.76361 25.3143 11.7236 26.3628 13.8576 26.788C15.9917 27.2132 18.2039 26.9958 20.2144 26.1635C22.2249 25.3312 23.9434 23.9213 25.1525 22.1122C26.3616 20.3031 27.0069 18.176 27.0069 16C27.0069 13.824 26.3616 11.6969 25.1525 9.8878C23.9434 8.07866 22.2249 6.66877 20.2144 5.83647C18.2039 5.00417 15.9917 4.78686 13.8576 5.21202C11.7236 5.63719 9.76361 6.68573 8.22559 8.22501L3.97559 12.4625" stroke="#2DABE0" stroke-width="2" stroke-linecap="round" stroke-linejoin="round"/>
</svg>
