<svg width="48" height="48" viewBox="0 0 48 48" fill="none" xmlns="http://www.w3.org/2000/svg">
    <g filter="url(#filter0_d_1038_20783)">
        <path d="M24 40C32.8366 40 40 32.8366 40 24C40 15.1634 32.8366 8 24 8C15.1634 8 8 15.1634 8 24C8 32.8366 15.1634 40 24 40Z" fill="#627EEA"/>
        <path d="M24.5 12V20.87L31.997 24.22L24.5 12Z" fill="white" fill-opacity="0.602"/>
        <path d="M24.498 12L17 24.22L24.498 20.87V12Z" fill="white"/>
        <path d="M24.5 29.968V35.995L32.002 25.616L24.5 29.968Z" fill="white" fill-opacity="0.602"/>
        <path d="M24.498 35.995V29.9669L17 25.616L24.498 35.995Z" fill="white"/>
        <path d="M24.5 28.5731L31.997 24.22L24.5 20.8721V28.5731Z" fill="white" fill-opacity="0.2"/>
        <path d="M17 24.22L24.498 28.5731V20.8721L17 24.22Z" fill="white" fill-opacity="0.602"/>
    </g>
    <defs>
        <filter id="filter0_d_1038_20783" x="0" y="0" width="48" height="48" filterUnits="userSpaceOnUse" color-interpolation-filters="sRGB">
            <feFlood flood-opacity="0" result="BackgroundImageFix"/>
            <feColorMatrix in="SourceAlpha" type="matrix" values="0 0 0 0 0 0 0 0 0 0 0 0 0 0 0 0 0 0 127 0" result="hardAlpha"/>
            <feOffset/>
            <feGaussianBlur stdDeviation="4"/>
            <feComposite in2="hardAlpha" operator="out"/>
            <feColorMatrix type="matrix" values="0 0 0 0 0 0 0 0 0 0 0 0 0 0 0 0 0 0 0.12 0"/>
            <feBlend mode="normal" in2="BackgroundImageFix" result="effect1_dropShadow_1038_20783"/>
            <feBlend mode="normal" in="SourceGraphic" in2="effect1_dropShadow_1038_20783" result="shape"/>
        </filter>
    </defs>
</svg>
