<svg width="1440" height="272" viewBox="0 0 1440 272" fill="none" xmlns="http://www.w3.org/2000/svg">
    <g clip-path="url(#clip0_3043_20823)">
        <path d="M0 70.782C0 70.782 67.4111 26.4319 161.539 65.3635C161.539 65.3635 217.821 -17.187 357.753 3.25527C497.684 23.6976 509.323 104.756 681.21 108.752C853.097 112.748 1078.08 15.6949 1243.91 26.4319C1409.73 37.1689 1439.99 87.198 1439.99 87.198V272H0.189975L0 70.782Z" fill="#3973B2"/>
        <path d="M0 192.624C0 192.624 62.8617 196 139.482 208.91C230.07 224.174 426.334 223.153 542.998 203.822C646.315 186.705 693.848 186.905 797.125 199.956C916.319 215.02 1219.78 219.086 1440 195.679V272H0V192.624Z" fill="#F9DC85"/>
        <path d="M1095.98 218.035C1118.94 209.431 1151.77 199.726 1177.79 202.33C1177.79 202.33 1236.06 170.479 1304.41 177.15C1304.41 177.15 1389.01 139.52 1439.99 164.941V225.136C1439.99 225.136 1381.17 211.104 1334.1 227.379C1290.61 242.423 1216 215.711 1097.88 226.448C1092.85 226.909 1091.24 219.817 1095.97 218.045L1095.98 218.035Z" fill="#91C082"/>
        <path d="M1187.85 228.09C1204.38 221.129 1230.71 214.128 1261.29 221.049C1261.29 221.049 1302.18 186.254 1366.05 202.53C1366.05 202.53 1411.44 182.659 1440 195.679V235.362C1440 235.362 1424.31 231.265 1388.46 232.087C1359.27 232.758 1337.76 240.82 1304.71 239.568C1278.53 238.577 1237.32 228.832 1189.65 234.691C1185.68 235.182 1184.16 229.643 1187.85 228.09Z" fill="#70A460"/>
        <path d="M344.005 218.035C321.048 209.431 288.222 199.726 262.195 202.33C262.195 202.33 203.933 170.48 135.582 177.15C135.582 177.14 50.9833 139.511 0 164.931V225.126C0 225.126 58.8222 211.094 105.886 227.369C149.38 242.413 223.99 215.701 342.105 226.438C347.134 226.899 348.744 219.808 344.015 218.035H344.005Z" fill="#70A460"/>
        <path d="M252.157 228.09C235.619 221.129 209.292 214.128 178.716 221.049C178.716 221.049 137.822 186.254 73.9502 202.53C73.9502 202.53 28.5662 182.659 0 195.679V235.362C0 235.362 15.6879 231.265 51.5432 232.087C80.7293 232.758 102.247 240.82 135.292 239.568C161.469 238.577 202.683 228.832 250.357 234.691C254.326 235.182 255.846 229.643 252.157 228.09Z" fill="#91C082"/>
    </g>
    <defs>
        <clipPath id="clip0_3043_20823">
            <rect width="1440" height="272" fill="white"/>
        </clipPath>
    </defs>
</svg>
