<svg width="360" height="434" viewBox="0 0 360 434" fill="none" xmlns="http://www.w3.org/2000/svg">
    <g clip-path="url(#clip0_3014_22929)">
        <g clip-path="url(#clip1_3014_22929)">
            <path d="M-79.0586 361.54C-79.0586 361.54 -54.8039 345.582 -20.9366 359.59C-20.9366 359.59 -0.685994 329.888 49.6617 337.243C100.009 344.599 104.197 373.764 166.042 375.201C227.888 376.639 308.836 341.719 368.502 345.582C428.167 349.446 439.053 367.446 439.053 367.446V433.938H-78.9902L-79.0586 361.54Z" fill="#3973B2"/>
            <path d="M-79.0586 405.379C-79.0586 405.379 -56.4408 406.593 -28.8728 411.239C3.72101 416.731 74.3373 416.363 116.314 409.408C153.487 403.249 170.59 403.321 207.749 408.017C250.635 413.437 359.821 414.9 439.057 406.478V433.938H-79.0586V405.379Z" fill="#F9DC85"/>
            <path d="M315.281 414.521C323.541 411.426 335.351 407.934 344.716 408.871C344.716 408.871 365.679 397.411 390.271 399.811C390.271 399.811 420.71 386.272 439.054 395.418V417.076C439.054 417.076 417.89 412.028 400.956 417.884C385.307 423.296 358.462 413.685 315.964 417.548C314.155 417.714 313.575 415.163 315.277 414.525L315.281 414.521Z" fill="#91C082"/>
            <path d="M348.331 418.14C354.282 415.635 363.754 413.116 374.755 415.606C374.755 415.606 389.469 403.087 412.45 408.943C412.45 408.943 428.78 401.793 439.058 406.478V420.756C439.058 420.756 433.413 419.282 420.512 419.577C410.011 419.819 402.269 422.72 390.379 422.269C380.961 421.913 366.132 418.406 348.979 420.514C347.551 420.691 347.004 418.698 348.331 418.14Z" fill="#70A460"/>
            <path d="M44.7151 414.521C36.4551 411.426 24.6444 407.934 15.2799 408.871C15.2799 408.871 -5.68298 397.411 -30.2758 399.811C-30.2758 399.807 -60.7147 386.268 -79.0586 395.415V417.073C-79.0586 417.073 -57.8942 412.024 -40.9605 417.88C-25.3112 423.293 1.5337 413.682 44.0315 417.545C45.8411 417.711 46.4203 415.159 44.7187 414.521H44.7151Z" fill="#70A460"/>
            <path d="M11.668 418.14C5.71765 415.635 -3.7547 413.116 -14.756 415.606C-14.756 415.606 -29.47 403.087 -52.4511 408.943C-52.4511 408.943 -68.7804 401.793 -79.0586 406.478V420.756C-79.0586 420.756 -73.414 419.282 -60.5132 419.577C-50.012 419.819 -42.2701 422.72 -30.3802 422.269C-20.9618 421.913 -6.13268 418.406 11.0204 420.514C12.4487 420.691 12.9955 418.698 11.668 418.14Z" fill="#91C082"/>
        </g>
    </g>
    <defs>
        <clipPath id="clip0_3014_22929">
            <rect width="360" height="434" fill="white"/>
        </clipPath>
        <clipPath id="clip1_3014_22929">
            <rect width="518.115" height="97.8662" fill="white" transform="translate(-79.0586 336.072)"/>
        </clipPath>
        <clipPath id="clip2_3014_22929">
            <rect width="336.149" height="192.21" fill="white" transform="translate(4.05469 249)"/>
        </clipPath>
    </defs>
</svg>
