<svg width="48" height="40" viewBox="0 0 48 40" fill="none" xmlns="http://www.w3.org/2000/svg">
    <g clip-path="url(#clip0_1325_20412)">
        <path d="M20.6835 13.5402C21.1841 13.7098 21.6604 13.9442 22.1001 14.2375C22.7212 14.0788 23.3598 13.9991 24.0008 14.0002C24.6628 14.0002 25.3015 14.0829 25.9001 14.2369C26.3397 13.9439 26.8158 13.7096 27.3161 13.5402C27.7808 13.3822 28.4428 13.1262 28.8361 13.5615C29.1028 13.8575 29.1695 14.3535 29.2168 14.7322C29.2701 15.1549 29.2828 15.7055 29.1428 16.2522C29.6781 16.9435 30.0008 17.7682 30.0008 18.6669C30.0008 20.0282 29.2635 21.2102 28.1721 22.0289C27.6469 22.4179 27.0644 22.7229 26.4455 22.9329C26.5881 23.2595 26.6675 23.6209 26.6675 24.0002V26.0002C26.6675 26.177 26.5972 26.3466 26.4722 26.4716C26.3472 26.5966 26.1776 26.6669 26.0008 26.6669H22.0008C21.824 26.6669 21.6544 26.5966 21.5294 26.4716C21.4044 26.3466 21.3341 26.177 21.3341 26.0002V25.3395C20.6975 25.4175 20.1635 25.3482 19.7095 25.1555C19.2348 24.9542 18.9041 24.6422 18.6555 24.3435C18.4195 24.0609 18.1621 23.4235 17.7901 23.2995C17.7071 23.2719 17.6302 23.2281 17.5641 23.1708C17.4979 23.1134 17.4437 23.0436 17.4045 22.9653C17.3253 22.8071 17.3123 22.624 17.3681 22.4562C17.424 22.2884 17.5442 22.1497 17.7024 22.0705C17.8606 21.9914 18.0437 21.9783 18.2115 22.0342C18.6555 22.1822 18.9448 22.5022 19.1428 22.7595C19.4628 23.1729 19.7228 23.7129 20.2295 23.9282C20.4381 24.0169 20.7441 24.0749 21.2228 24.0095L21.3341 23.9869C21.3354 23.6241 21.411 23.2654 21.5561 22.9329C20.9372 22.7229 20.3547 22.4179 19.8295 22.0289C18.7381 21.2102 18.0008 20.0289 18.0008 18.6669C18.0008 17.7695 18.3228 16.9455 18.8568 16.2549C18.7168 15.7082 18.7288 15.1562 18.7821 14.7329L18.7855 14.7075C18.8341 14.3195 18.8908 13.8629 19.1628 13.5615C19.5561 13.1262 20.2188 13.3829 20.6828 13.5409L20.6835 13.5402Z" fill="#2B2B2B"/>
    </g>
    <defs>
        <clipPath id="clip0_1325_20412">
            <rect width="16" height="16" fill="white" transform="translate(16 12)"/>
        </clipPath>
    </defs>
</svg>
