<svg width="24" height="24" viewBox="0 0 24 24" fill="none" xmlns="http://www.w3.org/2000/svg">
<path fill-rule="evenodd" clip-rule="evenodd" d="M2.67438 12.4872L7.025 20.0228H7.02406C7.25625 20.4241 7.68344 20.6719 8.14687 20.6734H16.85C17.3141 20.6728 17.7428 20.425 17.975 20.0228L22.3256 12.4872C22.5581 12.0847 22.5581 11.5884 22.3256 11.1859L17.9756 3.65062C17.7444 3.25 17.3178 3.00219 16.8553 3H8.15C7.68594 3.00063 7.25719 3.24844 7.025 3.65062L2.67438 11.1859C2.44187 11.5884 2.44187 12.0847 2.67438 12.4872ZM15.3124 14.009L16.6458 15.3456C16.685 15.3848 16.707 15.4381 16.707 15.4935C16.707 15.549 16.685 15.6023 16.6458 15.6415L16.2958 15.9915C16.2565 16.0307 16.2033 16.0528 16.1478 16.0528C16.0923 16.0528 16.0391 16.0307 15.9999 15.9915L14.6633 14.655C14.6494 14.6411 14.6375 14.6253 14.628 14.6081C13.8988 15.1771 12.9801 15.4466 12.0591 15.3619C11.1381 15.2771 10.284 14.8443 9.67094 14.1518C9.05787 13.4593 8.73189 12.5591 8.75943 11.6346C8.78696 10.7101 9.16594 9.83086 9.81914 9.17604C10.4723 8.52123 11.3506 8.1401 12.2751 8.11029C13.1995 8.08048 14.1005 8.40424 14.7945 9.01562C15.4886 9.62699 15.9234 10.48 16.0104 11.4008C16.0975 12.3216 15.8302 13.2409 15.263 13.9715C15.2812 13.9815 15.2978 13.9941 15.3124 14.009ZM10.8681 14.0205C11.3178 14.3209 11.8465 14.4813 12.3874 14.4812C13.1124 14.4811 13.8078 14.193 14.3205 13.6803C14.8333 13.1676 15.1213 12.4722 15.1214 11.7471C15.1215 11.2063 14.9612 10.6776 14.6607 10.2279C14.3603 9.77817 13.9332 9.42765 13.4336 9.22065C12.9339 9.01365 12.3841 8.95948 11.8537 9.06498C11.3232 9.17047 10.836 9.4309 10.4535 9.81333C10.0711 10.1958 9.81068 10.683 9.70519 11.2135C9.59969 11.7439 9.65387 12.2937 9.86086 12.7934C10.0679 13.293 10.4184 13.7201 10.8681 14.0205ZM10.6395 12.7312V11.6012L11.3702 11.5943V13.4734C11.0655 13.2946 10.8136 13.0384 10.6395 12.7312ZM12.0067 13.7181V10.6643H12.7373V13.7181C12.4958 13.7626 12.2482 13.7626 12.0067 13.7181ZM14.1205 12.7267V12.7287L14.1211 12.7256C14.1209 12.7259 14.1207 12.7263 14.1205 12.7267ZM14.1205 12.0593V12.7267C13.9461 13.0327 13.6944 13.2875 13.3905 13.4656V12.0593H14.1205Z" fill="white"/>
</svg>
