<svg width="24" height="24" viewBox="0 0 24 24" fill="none" xmlns="http://www.w3.org/2000/svg">
<path d="M13.2734 8.81673C13.2734 8.48629 13.5444 8.21533 13.8748 8.21533H19.0825C19.413 8.21533 19.6839 8.48629 19.6839 8.81673C19.6839 9.14717 19.413 9.41813 19.0825 9.41813H13.8748C13.5444 9.41813 13.2734 9.14717 13.2734 8.81673ZM13.2734 12.022C13.2734 11.6915 13.5444 11.4206 13.8748 11.4206H19.0825C19.413 11.4206 19.6839 11.6915 19.6839 12.022C19.6839 12.3524 19.413 12.6234 19.0825 12.6234H13.8748C13.5444 12.6234 13.2734 12.3524 13.2734 12.022ZM13.2734 15.2206C13.2734 14.8902 13.5444 14.6192 13.8748 14.6192H19.0825C19.413 14.6192 19.6839 14.8902 19.6839 15.2206C19.6839 15.5511 19.413 15.822 19.0825 15.822H13.8748C13.5444 15.822 13.2734 15.5577 13.2734 15.2206Z" fill="white"/>
<path d="M20.8416 4.51437H14.4972C14.4707 4.51437 14.4509 4.51437 14.4245 4.52098V3.00757L2 4.42845V19.5691L14.4245 21.0297V19.4766C14.4509 19.4766 14.4707 19.4832 14.4972 19.4832H20.8416C21.1522 19.4832 21.4496 19.3643 21.6743 19.1462C21.8924 18.9281 22.0179 18.6373 22.0179 18.3267V5.6709C22.0179 5.36029 21.8924 5.0695 21.6743 4.85141C21.4496 4.63993 21.1522 4.51437 20.8416 4.51437ZM5.52908 12.9009C5.74056 12.9009 5.95204 12.8678 6.1503 12.8018L6.26265 13.4164C6.12387 13.4825 5.81987 13.5552 5.41673 13.5419C4.31307 13.5155 3.75793 12.7819 3.75793 11.8303C3.75793 10.6936 4.51794 10.0393 5.48943 10.0129C5.87274 9.99964 6.17013 10.0789 6.30231 10.145L6.1503 10.7663C5.95204 10.687 5.74056 10.6407 5.52247 10.6473C4.9409 10.6539 4.49811 11.0306 4.49811 11.7774C4.50472 12.4581 4.88142 12.8877 5.52908 12.9009ZM7.59762 13.5948C7.20771 13.5816 6.81779 13.4692 6.63274 13.3569L6.79135 12.7092C7.0557 12.848 7.34649 12.9273 7.65049 12.9405C8.01398 12.9472 8.20563 12.7951 8.20563 12.5638C8.20563 12.3391 8.04041 12.2136 7.62406 12.0616C7.05571 11.8567 6.68561 11.5329 6.68561 11.0306C6.68561 10.4358 7.16805 9.9666 7.98093 9.94677C8.37746 9.93355 8.67485 10.0129 8.88633 10.1054L8.7079 10.7663C8.47659 10.6605 8.22546 10.601 7.96771 10.6076C7.63067 10.6143 7.46545 10.7729 7.46545 10.9579C7.46545 11.1826 7.6571 11.2817 8.1065 11.447C8.73433 11.6783 9.03173 12.0087 9.03173 12.5176C9.02512 13.119 8.5625 13.6212 7.59762 13.5948ZM11.4505 13.6411L10.446 13.6146L9.26303 9.97321L10.175 9.95338L10.631 11.4998C10.7566 11.936 10.8756 12.359 10.9681 12.8216H10.9879C11.0804 12.3788 11.206 11.936 11.3316 11.513L11.8272 9.91373L12.7723 9.88729L11.4505 13.6411ZM21.3439 18.3201C21.3439 18.4523 21.291 18.5778 21.1985 18.6703C21.1059 18.7629 20.9738 18.8157 20.8416 18.8157H14.4972C14.4707 18.8157 14.4509 18.8157 14.4245 18.8091V5.18185C14.4509 5.17524 14.4707 5.17524 14.4972 5.17524H20.8416C20.9738 5.17524 21.1059 5.22811 21.1985 5.32064C21.291 5.41316 21.3439 5.53873 21.3439 5.6709V18.3201Z" fill="white"/>
</svg>
