<svg width="24" height="24" viewBox="0 0 24 24" fill="none" xmlns="http://www.w3.org/2000/svg">
<path d="M22 13.9647L12 12.7323L2 13.9647L12 21.7941L22 13.9647Z" fill="white"/>
<path d="M2 13.9647L12 16.9559V21.7941L2 16.7794V13.9647Z" fill="#C6C6C6"/>
<path d="M22 13.9647L12 16.9559V21.7941L22 16.7794V13.9647Z" fill="#E1E1E1"/>
<path d="M3.29118 9.71179H2V12.5559L3.29118 12.7912L4.72647 11.2677L3.29118 9.71179Z" fill="#C6C6C6"/>
<path d="M4.72436 12.6734L3.28906 12.7911V9.71167H4.72436V12.6734Z" fill="#E1E1E1"/>
<path d="M5.69219 6.16467L3.99219 6.48526V12.9382L5.69219 13.2911L7.24807 9.71173L5.69219 6.16467Z" fill="#C6C6C6"/>
<path d="M7.25119 13.1148L5.69531 13.2913V6.16479L7.25119 6.34127V13.1148Z" fill="#E1E1E1"/>
<path d="M9.01112 7.6001L6.66406 7.83539V13.4942L9.01112 13.9648L11.5023 10.7677L9.01112 7.6001Z" fill="#C6C6C6"/>
<path d="M10.5902 13.7001L9.00781 13.9648V7.6001L10.5902 7.71774V13.7001Z" fill="#E1E1E1"/>
<path d="M11.9964 2.46765L10.4141 2.96765V14.2294L11.9964 14.55L13.5788 8.50883L11.9964 2.46765Z" fill="#C6C6C6"/>
<path d="M13.4609 13.7L14.9874 13.9648L17.3345 9.71181L14.9874 5.48828L13.4609 5.72358V13.7Z" fill="#C6C6C6"/>
<path d="M17.3345 9.71181L14.9874 5.48828L13.4609 5.72358" fill="#C6C6C6"/>
<path d="M16.7188 13.1147L18.304 13.2912L20.004 7.92356L18.304 2.58533L16.7188 2.96768V13.1147Z" fill="#C6C6C6"/>
<path d="M19.2695 12.6735L20.7048 12.7912L21.996 7.48235L20.7048 2L19.2695 2.35294V12.6735Z" fill="#C6C6C6"/>
<path d="M12 2.46765L13.5824 2.96765V14.2294L12 14.55V2.46765Z" fill="#E1E1E1"/>
<path d="M17.3392 5.95887L14.9922 5.48828V13.9648L17.3392 13.4942V5.95887Z" fill="#E1E1E1"/>
<path d="M20.0047 3.26168L18.3047 2.58521V13.2911L20.0047 12.9381V3.26168Z" fill="#E1E1E1"/>
<path d="M22.0021 2.64412L20.7109 2V12.7912L22.0021 12.5559V2.64412Z" fill="#E1E1E1"/>
</svg>
