<svg width="24" height="24" viewBox="0 0 24 24" fill="none" xmlns="http://www.w3.org/2000/svg">
<path d="M18.7276 14.6122L12.4024 3.88052C12.3699 3.83174 12.3211 3.78296 12.2723 3.75044C12.2235 3.71792 12.1585 3.70166 12.0935 3.70166C12.0284 3.70166 11.9634 3.71792 11.9146 3.75044C11.8658 3.78296 11.817 3.83174 11.7845 3.88052L9.89834 7.10002C9.8333 7.19759 9.80078 7.32767 9.80078 7.44149C9.80078 7.55531 9.8333 7.68539 9.89834 7.78295L14.0284 14.7911C14.0935 14.8886 14.1748 14.9862 14.2886 15.0512C14.4024 15.1163 14.5162 15.1488 14.6463 15.1488H18.4186C18.4837 15.1488 18.5487 15.1325 18.5975 15.1C18.6463 15.0675 18.6951 15.0187 18.7276 14.9699C18.7601 14.9211 18.7764 14.8561 18.7764 14.7911C18.7764 14.726 18.7601 14.6772 18.7276 14.6122Z" fill="white"/>
<path d="M2.15879 20.2219L8.48397 9.49026C8.51649 9.44148 8.56527 9.3927 8.61405 9.36018C8.66283 9.32766 8.72788 9.3114 8.79292 9.3114C8.85796 9.3114 8.923 9.32766 8.97178 9.36018C9.02056 9.3927 9.06934 9.44148 9.10186 9.49026L10.988 12.7098C11.0531 12.8073 11.0856 12.9374 11.0856 13.0512C11.0856 13.165 11.0531 13.2951 10.988 13.3927L6.85796 20.4008C6.79292 20.4984 6.71162 20.5959 6.5978 20.661C6.48398 20.726 6.37016 20.7585 6.24008 20.7585H2.45147C2.38643 20.7585 2.32139 20.7423 2.27261 20.7097C2.22383 20.6772 2.17505 20.6284 2.14253 20.5797C2.11001 20.5309 2.09375 20.4658 2.09375 20.4008C2.11001 20.3358 2.12627 20.287 2.15879 20.2219Z" fill="white"/>
<path d="M9.08756 20.7422H21.7379C21.803 20.7422 21.868 20.726 21.9168 20.6934C21.9656 20.6609 22.0143 20.6121 22.0469 20.5634C22.0794 20.5146 22.0956 20.4495 22.0956 20.3845C22.0956 20.3195 22.0794 20.2707 22.0469 20.2056L20.1607 16.9861C20.0956 16.8886 20.0144 16.791 19.9005 16.726C19.7867 16.6609 19.6729 16.6284 19.5428 16.6284H11.2989C11.1688 16.6284 11.055 16.6609 10.9412 16.726C10.8274 16.791 10.7461 16.8723 10.681 16.9861L8.79487 20.2056C8.76235 20.2544 8.74609 20.3195 8.74609 20.3845C8.74609 20.4495 8.76235 20.4983 8.79487 20.5634C8.82739 20.6121 8.87618 20.6609 8.92496 20.6934C8.97374 20.726 9.03878 20.7422 9.08756 20.7422Z" fill="white"/>
</svg>
