<svg width="25" height="24" viewBox="0 0 25 24" fill="none" xmlns="http://www.w3.org/2000/svg">
<path fill-rule="evenodd" clip-rule="evenodd" d="M11.8793 22.0015C11.1069 22.0015 10.3786 21.8028 9.71655 21.4277L4.66276 18.5587C3.31655 17.8084 2.5 16.396 2.5 14.8732V9.13526C2.5 7.6125 3.33862 6.20009 4.66276 5.44974L9.71655 2.58078C11.0628 1.80836 12.7179 1.80836 14.0641 2.58078L19.1179 5.44974C19.7579 5.80284 20.2876 6.3325 20.6848 6.95043L14.0421 10.7684C12.74 11.5187 11.9014 12.9753 11.9014 14.4539V22.0015H11.8793ZM21.2807 13.8801V14.8732C21.2807 16.396 20.4421 17.8084 19.1179 18.5587L14.0641 21.4277C13.9317 21.5159 13.7772 21.5822 13.6228 21.6484V19.8608C13.6448 18.956 14.1083 18.1173 14.8807 17.6539C16.7786 16.5504 18.6986 15.469 20.5745 14.3656C20.8393 14.2332 21.06 14.0787 21.2807 13.8801ZM21.2366 8.58354C21.2586 8.76009 21.2807 8.93664 21.2807 9.13526V10.1725C21.2586 11.298 20.6628 12.3353 19.6917 12.9311C17.7938 14.0346 15.8738 15.116 13.9979 16.2194C13.8655 16.2856 13.7331 16.3739 13.6228 16.4622V14.4539C13.6448 13.5491 14.1303 12.7104 14.9248 12.247L21.2366 8.58354Z" fill="white"/>
</svg>
