<svg width="32" height="32" viewBox="0 0 32 32" fill="none" xmlns="http://www.w3.org/2000/svg">
<path d="M13.3251 19.0123L12.2376 20.2373C11.3998 21.0737 10.3329 21.6429 9.17177 21.8731C8.0106 22.1032 6.80725 21.984 5.71379 21.5306C4.62032 21.0771 3.68582 20.3096 3.02837 19.3252C2.37092 18.3408 2.02002 17.1836 2.02002 15.9998C2.02002 14.8161 2.37092 13.6589 3.02837 12.6744C3.68582 11.69 4.62032 10.9226 5.71379 10.4691C6.80725 10.0156 8.0106 9.89643 9.17177 10.1266C10.3329 10.3568 11.3998 10.926 12.2376 11.7623L19.7626 20.2373C20.6004 21.0737 21.6673 21.6429 22.8285 21.8731C23.9896 22.1032 25.193 21.984 26.2865 21.5306C27.3799 21.0771 28.3144 20.3096 28.9719 19.3252C29.6293 18.3408 29.9802 17.1836 29.9802 15.9998C29.9802 14.8161 29.6293 13.6589 28.9719 12.6744C28.3144 11.69 27.3799 10.9226 26.2865 10.4691C25.193 10.0156 23.9896 9.89643 22.8285 10.1266C21.6673 10.3568 20.6004 10.926 19.7626 11.7623L18.6751 12.9873" stroke="#EC6A3B" stroke-width="2" stroke-linecap="round" stroke-linejoin="round"/>
</svg>
