<svg width="1244" height="1029" viewBox="0 0 1244 1029" fill="none" xmlns="http://www.w3.org/2000/svg">
<path d="M1093.49 306.16C1096.26 306.16 1098.51 303.913 1098.51 301.14C1098.51 298.368 1096.26 296.12 1093.49 296.12C1090.72 296.12 1088.47 298.368 1088.47 301.14C1088.47 303.913 1090.72 306.16 1093.49 306.16Z" stroke="white" stroke-width="3" stroke-miterlimit="10"/>
<path d="M909.399 90.54C912.171 90.54 914.419 88.2925 914.419 85.52C914.419 82.7475 912.171 80.5 909.399 80.5C906.626 80.5 904.379 82.7475 904.379 85.52C904.379 88.2925 906.626 90.54 909.399 90.54Z" stroke="white" stroke-width="3" stroke-miterlimit="10"/>
<path d="M1112.57 737.72C1115.34 737.72 1117.59 735.472 1117.59 732.7C1117.59 729.927 1115.34 727.68 1112.57 727.68C1109.8 727.68 1107.55 729.927 1107.55 732.7C1107.55 735.472 1109.8 737.72 1112.57 737.72Z" stroke="white" stroke-width="3" stroke-miterlimit="10"/>
<path d="M1129.4 764.59C1132.18 764.59 1134.42 762.342 1134.42 759.57C1134.42 756.797 1132.18 754.55 1129.4 754.55C1126.63 754.55 1124.38 756.797 1124.38 759.57C1124.38 762.342 1126.63 764.59 1129.4 764.59Z" stroke="white" stroke-width="3" stroke-miterlimit="10"/>
<path d="M169.59 820.06C172.363 820.06 174.61 817.812 174.61 815.039C174.61 812.267 172.363 810.02 169.59 810.02C166.818 810.02 164.57 812.267 164.57 815.039C164.57 817.812 166.818 820.06 169.59 820.06Z" stroke="white" stroke-width="3" stroke-miterlimit="10"/>
<path d="M1106.98 409.79C1109.75 409.79 1112 407.542 1112 404.77C1112 401.998 1109.75 399.75 1106.98 399.75C1104.21 399.75 1101.96 401.998 1101.96 404.77C1101.96 407.542 1104.21 409.79 1106.98 409.79Z" stroke="white" stroke-width="3" stroke-miterlimit="10"/>
<path d="M1076.73 342.56C1079.5 342.56 1081.75 340.312 1081.75 337.54C1081.75 334.767 1079.5 332.52 1076.73 332.52C1073.96 332.52 1071.71 334.767 1071.71 337.54C1071.71 340.312 1073.96 342.56 1076.73 342.56Z" stroke="white" stroke-width="3" stroke-miterlimit="10"/>
<path d="M239.31 64L237.44 69.3272L232 71.2988L237.384 73.18L239.31 78.7332L241.237 73.293L246.62 71.2988L241.18 69.3272L239.31 64Z" fill="white"/>
<path d="M1151.31 513L1149.44 518.327L1144 520.299L1149.38 522.18L1151.31 527.733L1153.24 522.293L1158.62 520.299L1153.18 518.327L1151.31 513Z" fill="white"/>
<path d="M688.31 725L686.44 730.327L681 732.299L686.384 734.18L688.31 739.733L690.237 734.293L695.62 732.299L690.18 730.327L688.31 725Z" fill="white"/>
<path d="M673.31 293L671.44 298.327L666 300.299L671.384 302.18L673.31 307.733L675.237 302.293L680.62 300.299L675.18 298.327L673.31 293Z" fill="white"/>
<path d="M794.31 169L792.44 174.327L787 176.299L792.384 178.18L794.31 183.733L796.237 178.293L801.62 176.299L796.18 174.327L794.31 169Z" fill="white"/>
<path d="M389.295 194L386.917 200.774L380 203.28L386.845 205.672L389.295 212.733L391.744 205.816L398.59 203.28L391.672 200.774L389.295 194Z" fill="white"/>
<path d="M297.279 407L294.394 415.22L286 418.262L294.307 421.165L297.279 429.733L300.252 421.339L308.559 418.262L300.165 415.22L297.279 407Z" fill="white"/>
<path d="M1170.28 468L1167.39 476.22L1159 479.262L1167.31 482.165L1170.28 490.733L1173.25 482.339L1181.56 479.262L1173.16 476.22L1170.28 468Z" fill="white"/>
<path d="M940.279 788L937.394 796.22L929 799.262L937.307 802.165L940.279 810.733L943.252 802.339L951.559 799.262L943.165 796.22L940.279 788Z" fill="white"/>
<path d="M307.31 915L305.44 920.327L300 922.299L305.384 924.18L307.31 929.733L309.237 924.293L314.62 922.299L309.18 920.327L307.31 915Z" fill="white"/>
<path d="M220.396 938L216.97 947.763L207 951.376L216.866 954.823L220.396 965L223.927 955.03L233.793 951.376L223.823 947.763L220.396 938Z" fill="white"/>
</svg>
