<svg width="1017" height="787" viewBox="0 0 1017 787" fill="none" xmlns="http://www.w3.org/2000/svg">
    <g opacity="0.8">
        <path d="M156.289 287.79L136.139 297.87C136.139 297.87 126.139 312.76 161.089 361.01C196.039 409.26 211.189 451.44 236.279 480.55C243.279 488.67 256.529 486.7 238.239 456.18C219.949 425.66 209.699 414.5 218.359 410.41C227.019 406.32 230.719 439.59 242.749 439.86C254.779 440.13 234.409 412.51 218.729 393.02C203.049 373.53 217.319 370.52 224.899 379.24C241.709 398.57 259.639 453.64 275.929 460.15C292.219 466.66 292.309 447.54 278.529 430.7C264.749 413.86 229.879 370.11 212.299 344.58C178.099 294.88 156.289 287.79 156.289 287.79Z" fill="#E0B9D4"/>
        <mask id="mask0_3006_22956" style="mask-type:luminance" maskUnits="userSpaceOnUse" x="134" y="287" width="155" height="198">
            <path d="M156.289 287.79L136.139 297.87C136.139 297.87 126.139 312.76 161.089 361.01C196.039 409.26 211.189 451.44 236.279 480.55C243.279 488.67 256.529 486.7 238.239 456.18C219.949 425.66 209.699 414.5 218.359 410.41C227.019 406.32 230.719 439.59 242.749 439.86C254.779 440.13 234.409 412.51 218.729 393.02C203.049 373.53 217.319 370.52 224.899 379.24C241.709 398.57 259.639 453.64 275.929 460.15C292.219 466.66 292.309 447.54 278.529 430.7C264.749 413.86 229.879 370.11 212.299 344.58C178.099 294.88 156.289 287.79 156.289 287.79Z" fill="white"/>
        </mask>
        <g mask="url(#mask0_3006_22956)">
            <path d="M130.06 340.15C130.06 340.15 147.43 321.1 164.8 334.55C182.17 348 186.59 395.62 190.82 430.36C195.05 465.1 229.41 509.99 252.76 489.75C265.37 478.82 220.82 420.27 220.82 420.27C220.82 420.27 186.26 363.12 211.67 333.42C237.08 303.72 171.52 294.76 171.52 294.76L117.17 322.22L130.06 340.15Z" fill="#D68DBF"/>
            <path d="M225.491 355.22C225.491 355.22 224.061 378.19 230.501 393.88C236.941 409.57 249.551 430.58 249.551 430.58C249.551 430.58 240.871 396.96 263.561 398.92C286.251 400.88 225.491 355.22 225.491 355.22Z" fill="#D68DBF"/>
        </g>
        <path d="M105.171 292C105.171 292 93.4109 311.9 100.011 317.37C113.721 328.73 181.201 283.3 181.201 283.3C181.201 283.3 204.061 269.03 179.271 262.44C161.081 257.61 123.941 264.26 105.171 292Z" fill="#C3ECF9"/>
        <mask id="mask1_3006_22956" style="mask-type:luminance" maskUnits="userSpaceOnUse" x="98" y="260" width="93" height="60">
            <path d="M105.171 292C105.171 292 93.4109 311.9 100.011 317.37C113.721 328.73 181.201 283.3 181.201 283.3C181.201 283.3 204.061 269.03 179.271 262.44C161.081 257.61 123.941 264.26 105.171 292Z" fill="white"/>
        </mask>
        <g mask="url(#mask1_3006_22956)">
            <path d="M114.931 268.99C113.251 270.67 99.1311 301.84 117.171 292.52C128.381 286.73 130.431 279.26 130.431 279.26C130.431 279.26 153.111 277.61 156.951 267.31C160.791 257.01 131.741 261 131.741 261L114.931 268.99Z" fill="#E0F6FF"/>
        </g>
    </g>
    <path d="M236.316 506.337V532.036C236.316 532.036 236.592 551.394 259.4 586.512C282.194 621.629 326.434 679.834 346.791 726.502C355.332 746.092 363.524 756.584 368.266 747.093C373.007 737.603 355.506 689.063 323.084 652.944C299.203 626.345 316.24 615.926 328.203 635.865C340.165 655.789 346.791 647.256 360.073 660.534C373.355 673.812 369.034 693.373 376.197 718.419C379.996 731.712 407.677 792.615 424.555 784.852C435.589 779.773 401.79 764.449 395.163 710.888C393.757 699.482 385.782 648.011 361.973 633.949C339.44 620.642 322.91 592.984 333.742 584.451C345.109 575.512 383.781 625.286 401.804 671.838C419.828 718.39 429.398 729.564 440.679 722.192C451.583 715.082 411.751 657.182 398.484 637.258C385.202 617.334 301.552 485.833 279.483 481.145C242.305 473.251 236.331 506.293 236.331 506.293L236.316 506.337Z" fill="#E0B9D4"/>
    <mask id="mask2_3006_22956" style="mask-type:luminance" maskUnits="userSpaceOnUse" x="236" y="479" width="207" height="307">
        <path d="M236.316 506.337V532.036C236.316 532.036 236.592 551.394 259.4 586.512C282.194 621.629 326.434 679.834 346.791 726.502C355.332 746.092 363.524 756.584 368.266 747.093C373.007 737.603 355.506 689.063 323.084 652.944C299.203 626.345 316.24 615.926 328.203 635.865C340.165 655.789 346.791 647.256 360.073 660.534C373.355 673.812 369.034 693.373 376.197 718.419C379.996 731.712 407.677 792.615 424.555 784.852C435.589 779.773 401.79 764.449 395.163 710.888C393.757 699.482 385.782 648.011 361.973 633.949C339.44 620.642 322.91 592.984 333.742 584.451C345.109 575.512 383.781 625.286 401.804 671.838C419.828 718.39 429.398 729.564 440.679 722.192C451.583 715.082 411.751 657.182 398.484 637.258C385.202 617.334 301.552 485.833 279.483 481.145C242.305 473.251 236.331 506.293 236.331 506.293L236.316 506.337Z" fill="white"/>
    </mask>
    <g mask="url(#mask2_3006_22956)">
        <path d="M333.336 521.878C333.336 521.878 271.19 549.928 287.024 641.407C302.858 732.886 230.967 623.109 230.967 623.109L181 519.44L223.673 476.719L321.809 441.718L333.336 521.878Z" fill="#D68DBF"/>
        <path d="M358.929 548.709C358.929 548.709 333.946 567.994 347.967 600.993C361.989 633.992 374.778 663.363 357.711 676.785L384.522 768.25C384.522 768.25 409.505 776.521 412.55 740.2C415.595 703.878 367.455 628.768 393.048 603.997C418.64 579.226 358.929 548.723 358.929 548.723V548.709Z" fill="#D68DBF"/>
    </g>
    <path d="M191.874 497.485C191.874 497.485 185.218 525.855 194.788 533.792C214.667 550.277 312.513 484.353 312.513 484.353C312.513 484.353 335.162 470.378 309.715 454.082C280.758 435.537 206.446 441.936 191.874 497.485Z" fill="#C3ECF9"/>
    <mask id="mask3_3006_22956" style="mask-type:luminance" maskUnits="userSpaceOnUse" x="189" y="444" width="133" height="93">
        <path d="M191.874 497.485C191.874 497.485 185.218 525.855 194.788 533.792C214.667 550.277 312.513 484.353 312.513 484.353C312.513 484.353 335.162 470.378 309.715 454.082C280.758 435.537 206.446 441.936 191.874 497.485Z" fill="white"/>
    </mask>
    <g mask="url(#mask3_3006_22956)">
        <path d="M189.61 476.72C187.174 479.158 188.624 505.118 214.782 491.594C231.037 483.192 233.415 468.347 233.415 468.347C233.415 468.347 266.895 469.958 272.463 455.011C278.031 440.064 261.457 435 261.457 435L189.61 476.72Z" fill="#E0F6FF"/>
    </g>
    <g>
        <path d="M632.289 365.79L612.139 375.87C612.139 375.87 602.139 390.76 637.089 439.01C672.039 487.26 687.189 529.44 712.279 558.55C719.279 566.67 732.529 564.7 714.239 534.18C695.949 503.66 685.699 492.5 694.359 488.41C703.019 484.32 706.719 517.59 718.749 517.86C730.779 518.13 710.409 490.51 694.729 471.02C679.049 451.53 693.319 448.52 700.899 457.24C717.709 476.57 735.639 531.64 751.929 538.15C768.219 544.66 768.309 525.54 754.529 508.7C740.749 491.86 705.879 448.11 688.299 422.58C654.099 372.88 632.289 365.79 632.289 365.79Z" fill="#E0B9D4"/>
        <mask id="mask4_3006_22956" style="mask-type:luminance" maskUnits="userSpaceOnUse" x="610" y="365" width="155" height="198">
            <path d="M632.289 365.79L612.139 375.87C612.139 375.87 602.139 390.76 637.089 439.01C672.039 487.26 687.189 529.44 712.279 558.55C719.279 566.67 732.529 564.7 714.239 534.18C695.949 503.66 685.699 492.5 694.359 488.41C703.019 484.32 706.719 517.59 718.749 517.86C730.779 518.13 710.409 490.51 694.729 471.02C679.049 451.53 693.319 448.52 700.899 457.24C717.709 476.57 735.639 531.64 751.929 538.15C768.219 544.66 768.309 525.54 754.529 508.7C740.749 491.86 705.879 448.11 688.299 422.58C654.099 372.88 632.289 365.79 632.289 365.79Z" fill="white"/>
        </mask>
        <g mask="url(#mask4_3006_22956)">
            <path d="M606.06 418.15C606.06 418.15 623.43 399.1 640.8 412.55C658.17 426 662.59 473.62 666.82 508.36C671.05 543.1 705.41 587.99 728.76 567.75C741.37 556.82 696.82 498.27 696.82 498.27C696.82 498.27 662.26 441.12 687.67 411.42C713.08 381.72 647.52 372.76 647.52 372.76L593.17 400.22L606.06 418.15Z" fill="#D68DBF"/>
            <path d="M701.491 433.22C701.491 433.22 700.061 456.19 706.501 471.88C712.941 487.57 725.551 508.58 725.551 508.58C725.551 508.58 716.871 474.96 739.561 476.92C762.251 478.88 701.491 433.22 701.491 433.22Z" fill="#D68DBF"/>
        </g>
        <path d="M581.171 370C581.171 370 569.411 389.9 576.011 395.37C589.721 406.73 657.201 361.3 657.201 361.3C657.201 361.3 680.061 347.03 655.271 340.44C637.081 335.61 599.941 342.26 581.171 370Z" fill="#C3ECF9"/>
        <mask id="mask5_3006_22956" style="mask-type:luminance" maskUnits="userSpaceOnUse" x="574" y="338" width="93" height="60">
            <path d="M581.171 370C581.171 370 569.411 389.9 576.011 395.37C589.721 406.73 657.201 361.3 657.201 361.3C657.201 361.3 680.061 347.03 655.271 340.44C637.081 335.61 599.941 342.26 581.171 370Z" fill="white"/>
        </mask>
        <g mask="url(#mask5_3006_22956)">
            <path d="M590.931 346.99C589.251 348.67 575.131 379.84 593.171 370.52C604.381 364.73 606.431 357.26 606.431 357.26C606.431 357.26 629.111 355.61 632.951 345.31C636.791 335.01 607.741 339 607.741 339L590.931 346.99Z" fill="#E0F6FF"/>
        </g>
    </g>
    <g>
        <path d="M459.289 27.79L439.139 37.87C439.139 37.87 429.139 52.76 464.089 101.01C499.039 149.26 514.189 191.44 539.279 220.55C546.279 228.67 559.529 226.7 541.239 196.18C522.949 165.66 512.699 154.5 521.359 150.41C530.019 146.32 533.719 179.59 545.749 179.86C557.779 180.13 537.409 152.51 521.729 133.02C506.049 113.53 520.319 110.52 527.899 119.24C544.709 138.57 562.639 193.64 578.929 200.15C595.219 206.66 595.309 187.54 581.529 170.7C567.749 153.86 532.879 110.11 515.299 84.58C481.099 34.88 459.289 27.79 459.289 27.79Z" fill="#E0B9D4"/>
        <mask id="mask6_3006_22956" style="mask-type:luminance" maskUnits="userSpaceOnUse" x="437" y="27" width="155" height="198">
            <path d="M459.289 27.79L439.139 37.87C439.139 37.87 429.139 52.76 464.089 101.01C499.039 149.26 514.189 191.44 539.279 220.55C546.279 228.67 559.529 226.7 541.239 196.18C522.949 165.66 512.699 154.5 521.359 150.41C530.019 146.32 533.719 179.59 545.749 179.86C557.779 180.13 537.409 152.51 521.729 133.02C506.049 113.53 520.319 110.52 527.899 119.24C544.709 138.57 562.639 193.64 578.929 200.15C595.219 206.66 595.309 187.54 581.529 170.7C567.749 153.86 532.879 110.11 515.299 84.58C481.099 34.88 459.289 27.79 459.289 27.79Z" fill="white"/>
        </mask>
        <g mask="url(#mask6_3006_22956)">
            <path d="M433.06 80.1498C433.06 80.1498 450.43 61.0998 467.8 74.5498C485.17 87.9998 489.59 135.62 493.82 170.36C498.05 205.1 532.41 249.99 555.76 229.75C568.37 218.82 523.82 160.27 523.82 160.27C523.82 160.27 489.26 103.12 514.67 73.4198C540.08 43.7198 474.52 34.7598 474.52 34.7598L420.17 62.2198L433.06 80.1498Z" fill="#D68DBF"/>
            <path d="M528.491 95.2197C528.491 95.2197 527.061 118.19 533.501 133.88C539.941 149.57 552.551 170.58 552.551 170.58C552.551 170.58 543.871 136.96 566.561 138.92C589.251 140.88 528.491 95.2197 528.491 95.2197Z" fill="#D68DBF"/>
        </g>
        <path d="M408.171 32.0001C408.171 32.0001 396.411 51.9001 403.011 57.3701C416.721 68.7301 484.201 23.3001 484.201 23.3001C484.201 23.3001 507.061 9.03008 482.271 2.44008C464.081 -2.38992 426.941 4.26008 408.171 32.0001Z" fill="#C3ECF9"/>
        <mask id="mask7_3006_22956" style="mask-type:luminance" maskUnits="userSpaceOnUse" x="401" y="0" width="93" height="60">
            <path d="M408.171 32.0001C408.171 32.0001 396.411 51.9001 403.011 57.3701C416.721 68.7301 484.201 23.3001 484.201 23.3001C484.201 23.3001 507.061 9.03008 482.271 2.44008C464.081 -2.38992 426.941 4.26008 408.171 32.0001Z" fill="white"/>
        </mask>
        <g mask="url(#mask7_3006_22956)">
            <path d="M417.931 8.99012C416.251 10.6701 402.131 41.8401 420.171 32.5201C431.381 26.7301 433.431 19.2601 433.431 19.2601C433.431 19.2601 456.111 17.6101 459.951 7.31012C463.791 -2.98988 434.741 1.00012 434.741 1.00012L417.931 8.99012Z" fill="#E0F6FF"/>
        </g>
    </g>
    <g opacity="0.7" clip-path="url(#clip0_3006_22956)">
        <path d="M89.9796 447.846C89.9796 447.846 87.2577 453.16 97.7739 470.755C108.29 488.351 114.671 493.385 119.628 493.77C122.885 494.021 123.372 491.254 123.323 489.32C123.307 488.709 123.951 488.288 124.491 488.589C126.113 489.514 129.214 490.362 133.861 487.943C141.105 484.18 144.489 499.905 152.135 494.407C159.781 488.909 142.129 470.065 133.035 463.817C123.351 457.171 115.961 444.93 100.529 440.945C85.0957 436.96 89.9778 447.826 89.9778 447.826L89.9796 447.846Z" fill="#E0B9D4"/>
        <mask id="mask8_3006_22956" style="mask-type:luminance" maskUnits="userSpaceOnUse" x="89" y="440" width="66" height="56">
            <path d="M89.9796 447.846C89.9796 447.846 87.2577 453.16 97.7739 470.755C108.29 488.351 114.671 493.385 119.628 493.77C122.885 494.021 123.372 491.254 123.323 489.32C123.307 488.709 123.951 488.288 124.491 488.589C126.113 489.514 129.214 490.362 133.861 487.943C141.105 484.18 144.489 499.905 152.135 494.407C159.781 488.909 142.129 470.065 133.035 463.817C123.351 457.171 115.961 444.93 100.529 440.945C85.0957 436.96 89.9778 447.826 89.9778 447.826L89.9796 447.846Z" fill="white"/>
        </mask>
        <g mask="url(#mask8_3006_22956)">
            <path d="M104.821 486.242C104.821 486.242 101.287 466.283 112.28 473.621C121.068 479.486 125.746 480.228 129.387 472.038C133.028 463.848 125.315 448.332 125.315 448.332L100.684 421.347L73.5364 444.116L77.0716 474.178L104.821 486.242Z" fill="#D68DBF"/>
        </g>
        <path d="M71.8098 432.505C71.8098 432.505 65.0181 442.785 67.882 453.546C71.3344 466.544 83.2265 452.126 92.4429 445.368C101.659 438.61 123.809 428.577 113.224 420.658C102.64 412.74 80.4801 417.783 71.8098 432.505Z" fill="#C3ECF9"/>
        <mask id="mask9_3006_22956" style="mask-type:luminance" maskUnits="userSpaceOnUse" x="67" y="416" width="50" height="43">
            <path d="M71.8098 432.505C71.8098 432.505 65.0181 442.785 67.882 453.546C71.3344 466.544 83.2265 452.126 92.4429 445.368C101.659 438.61 123.809 428.577 113.224 420.658C102.64 412.74 80.4801 417.783 71.8098 432.505Z" fill="white"/>
        </mask>
        <g mask="url(#mask9_3006_22956)">
            <path d="M70.4681 425.057C70.4681 425.057 64.0481 446.189 84.7453 429.36C98.41 418.254 98.8444 408.08 83.3253 414.016C67.8062 419.951 70.4681 425.057 70.4681 425.057Z" fill="#E0F6FF"/>
        </g>
    </g>
    <g opacity="0.8">
        <g opacity="0.8">
            <g opacity="0.7">
                <path d="M311.32 122.354L275.527 140.256C275.527 140.256 257.764 166.701 319.847 252.392C381.93 338.083 408.842 412.994 453.41 464.692C465.845 479.113 489.381 475.615 456.892 421.412C424.403 367.209 406.195 347.389 421.578 340.125C436.961 332.861 443.534 391.948 464.903 392.428C486.273 392.907 450.089 343.855 422.235 309.241C394.382 274.627 419.731 269.281 433.196 284.768C463.056 319.097 494.906 416.901 523.842 428.462C552.779 440.024 552.939 406.067 528.461 376.16C503.983 346.252 442.042 268.553 410.814 223.212C350.063 134.946 311.32 122.354 311.32 122.354Z" fill="#E0B9D4"/>
                <mask id="mask10_3006_22956" style="mask-type:luminance" maskUnits="userSpaceOnUse" x="273" y="122" width="274" height="350">
                    <path d="M311.32 122.354L275.527 140.256C275.527 140.256 257.764 166.701 319.847 252.392C381.93 338.083 408.842 412.994 453.41 464.692C465.845 479.113 489.381 475.615 456.892 421.412C424.403 367.209 406.195 347.389 421.578 340.125C436.961 332.861 443.534 391.948 464.903 392.428C486.273 392.907 450.089 343.855 422.235 309.241C394.382 274.627 419.731 269.281 433.196 284.768C463.056 319.097 494.906 416.901 523.842 428.462C552.779 440.024 552.939 406.067 528.461 376.16C503.983 346.252 442.042 268.553 410.814 223.212C350.063 134.946 311.32 122.354 311.32 122.354Z" fill="white"/>
                </mask>
                <g mask="url(#mask10_3006_22956)">
                    <path d="M264.727 215.345C264.727 215.345 295.582 181.513 326.437 205.4C357.293 229.287 365.144 313.859 372.658 375.556C380.172 437.254 441.207 516.977 482.685 481.032C505.085 461.62 425.948 357.637 425.948 357.637C425.948 357.637 364.558 256.139 409.695 203.393C454.832 150.646 338.375 134.733 338.375 134.733L241.83 183.502L264.727 215.345Z" fill="#D68DBF"/>
                    <path d="M434.244 242.109C434.244 242.109 431.704 282.904 443.144 310.769C454.583 338.634 476.983 375.947 476.983 375.947C476.983 375.947 461.564 316.239 501.87 319.72C542.175 323.201 434.244 242.109 434.244 242.109Z" fill="#D68DBF"/>
                </g>
                <path d="M220.511 129.831C220.511 129.831 199.622 165.173 211.345 174.888C235.699 195.063 355.567 114.38 355.567 114.38C355.567 114.38 396.174 89.0371 352.139 77.3334C319.827 68.7554 253.853 80.5657 220.511 129.831Z" fill="#C3ECF9"/>
                <mask id="mask11_3006_22956" style="mask-type:luminance" maskUnits="userSpaceOnUse" x="207" y="74" width="166" height="105">
                    <path d="M220.511 129.831C220.511 129.831 199.622 165.173 211.345 174.888C235.699 195.063 355.567 114.38 355.567 114.38C355.567 114.38 396.174 89.0371 352.139 77.3334C319.827 68.7554 253.853 80.5657 220.511 129.831Z" fill="white"/>
                </mask>
                <g mask="url(#mask11_3006_22956)">
                    <path d="M237.848 88.966C234.863 91.9497 209.781 147.307 241.827 130.755C261.74 120.472 265.381 107.205 265.381 107.205C265.381 107.205 305.669 104.275 312.49 85.9824C319.311 67.6898 267.708 74.7759 267.708 74.7759L237.848 88.966Z" fill="#E0F6FF"/>
                </g>
            </g>
            <g>
                <path d="M177.157 55.6201L144.818 71.8048C144.818 71.8048 128.768 95.7125 184.861 173.184C240.954 250.655 265.269 318.38 305.537 365.12C316.771 378.157 338.037 374.994 308.682 325.991C279.328 276.987 262.877 259.068 276.776 252.501C290.675 245.934 296.613 299.354 315.921 299.787C335.228 300.221 302.535 255.873 277.37 224.58C252.204 193.286 275.107 188.453 287.272 202.454C314.252 233.491 343.028 321.912 369.173 332.365C395.317 342.818 395.462 312.118 373.346 285.08C351.229 258.041 295.265 187.795 267.05 146.803C212.161 67.004 177.157 55.6201 177.157 55.6201Z" fill="#E0B9D4"/>
                <mask id="mask12_3006_22956" style="mask-type:luminance" maskUnits="userSpaceOnUse" x="142" y="55" width="248" height="317">
                    <path d="M177.157 55.6201L144.818 71.8048C144.818 71.8048 128.768 95.7125 184.861 173.184C240.954 250.655 265.269 318.38 305.537 365.12C316.771 378.157 338.037 374.994 308.682 325.991C279.328 276.987 262.877 259.068 276.776 252.501C290.675 245.934 296.613 299.354 315.921 299.787C335.228 300.221 302.535 255.873 277.37 224.58C252.204 193.286 275.107 188.453 287.272 202.454C314.252 233.491 343.028 321.912 369.173 332.365C395.317 342.818 395.462 312.118 373.346 285.08C351.229 258.041 295.265 187.795 267.05 146.803C212.161 67.004 177.157 55.6201 177.157 55.6201Z" fill="white"/>
                </mask>
                <g mask="url(#mask12_3006_22956)">
                    <path d="M135.059 139.691C135.059 139.691 162.937 109.104 190.815 130.699C218.693 152.295 225.786 228.755 232.575 284.534C239.364 340.313 294.51 412.39 331.986 379.892C352.224 362.342 280.724 268.333 280.724 268.333C280.724 268.333 225.257 176.572 266.038 128.885C306.82 81.1979 201.6 66.8115 201.6 66.8115L114.371 110.902L135.059 139.691Z" fill="#D68DBF"/>
                    <path d="M288.219 163.888C288.219 163.888 285.924 200.769 296.26 225.961C306.596 251.153 326.834 284.887 326.834 284.887C326.834 284.887 312.903 230.906 349.319 234.053C385.735 237.2 288.219 163.888 288.219 163.888Z" fill="#D68DBF"/>
                </g>
                <path d="M95.1124 62.3795C95.1124 62.3795 76.2382 94.3314 86.8309 103.114C108.835 121.354 217.136 48.4106 217.136 48.4106C217.136 48.4106 253.825 25.4984 214.039 14.9173C184.845 7.16218 125.237 17.8396 95.1124 62.3795Z" fill="#C3ECF9"/>
                <mask id="mask13_3006_22956" style="mask-type:luminance" maskUnits="userSpaceOnUse" x="83" y="12" width="150" height="95">
                    <path d="M95.1124 62.3795C95.1124 62.3795 76.2382 94.3314 86.8309 103.114C108.835 121.354 217.136 48.4106 217.136 48.4106C217.136 48.4106 253.825 25.4984 214.039 14.9173C184.845 7.16218 125.237 17.8396 95.1124 62.3795Z" fill="white"/>
                </mask>
                <g mask="url(#mask13_3006_22956)">
                    <path d="M110.777 25.4346C108.08 28.132 85.4186 78.1792 114.372 63.2148C132.363 53.9183 135.653 41.9243 135.653 41.9243C135.653 41.9243 172.054 39.275 178.216 22.7371C184.379 6.1992 137.756 12.6056 137.756 12.6056L110.777 25.4346Z" fill="#E0F6FF"/>
                </g>
            </g>
        </g>
        <g>
            <path d="M440.835 345.927L414.043 359.321C414.043 359.321 400.746 379.107 447.218 443.221C493.689 507.335 513.834 563.383 547.195 602.064C556.503 612.854 574.121 610.236 549.801 569.682C525.482 529.127 511.853 514.298 523.368 508.863C534.882 503.428 539.802 547.637 555.798 547.996C571.794 548.355 544.709 511.653 523.86 485.755C503.01 459.857 521.985 455.858 532.064 467.445C554.415 493.13 578.256 566.307 599.916 574.957C621.576 583.607 621.696 558.201 603.373 535.824C585.051 513.447 538.685 455.313 515.31 421.389C469.835 355.348 440.835 345.927 440.835 345.927Z" fill="#E0B9D4"/>
            <mask id="mask14_3006_22956" style="mask-type:luminance" maskUnits="userSpaceOnUse" x="412" y="345" width="205" height="263">
                <path d="M440.835 345.927L414.043 359.321C414.043 359.321 400.746 379.107 447.218 443.221C493.689 507.335 513.834 563.383 547.195 602.064C556.503 612.854 574.121 610.236 549.801 569.682C525.482 529.127 511.853 514.298 523.368 508.863C534.882 503.428 539.802 547.637 555.798 547.996C571.794 548.355 544.709 511.653 523.86 485.755C503.01 459.857 521.985 455.858 532.064 467.445C554.415 493.13 578.256 566.307 599.916 574.957C621.576 583.607 621.696 558.201 603.373 535.824C585.051 513.447 538.685 455.313 515.31 421.389C469.835 355.348 440.835 345.927 440.835 345.927Z" fill="white"/>
            </mask>
            <g mask="url(#mask14_3006_22956)">
                <path d="M405.96 415.502C405.96 415.502 429.056 390.189 452.152 408.061C475.248 425.933 481.126 489.21 486.75 535.372C492.374 581.535 538.062 641.184 569.109 614.289C585.876 599.766 526.64 521.965 526.64 521.965C526.64 521.965 480.687 446.025 514.473 406.56C548.26 367.094 461.087 355.188 461.087 355.188L388.82 391.677L405.96 415.502Z" fill="#D68DBF"/>
                <path d="M532.85 435.527C532.85 435.527 530.948 466.049 539.511 486.898C548.074 507.747 564.841 535.665 564.841 535.665C564.841 535.665 553.3 490.991 583.47 493.595C613.64 496.2 532.85 435.527 532.85 435.527Z" fill="#D68DBF"/>
            </g>
            <path d="M372.863 351.521C372.863 351.521 357.226 377.964 366.002 385.232C384.232 400.328 473.957 339.961 473.957 339.961C473.957 339.961 504.353 320.999 471.391 312.242C447.204 305.824 397.821 314.66 372.863 351.521Z" fill="#C3ECF9"/>
            <mask id="mask15_3006_22956" style="mask-type:luminance" maskUnits="userSpaceOnUse" x="363" y="310" width="124" height="78">
                <path d="M372.863 351.521C372.863 351.521 357.226 377.964 366.002 385.232C384.232 400.328 473.957 339.961 473.957 339.961C473.957 339.961 504.353 320.999 471.391 312.242C447.204 305.824 397.821 314.66 372.863 351.521Z" fill="white"/>
            </mask>
            <g mask="url(#mask15_3006_22956)">
                <path d="M385.841 320.946C383.607 323.178 364.832 364.596 388.819 352.212C403.725 344.518 406.45 334.592 406.45 334.592C406.45 334.592 436.607 332.4 441.713 318.713C446.819 305.027 408.192 310.328 408.192 310.328L385.841 320.946Z" fill="#E0F6FF"/>
            </g>
        </g>
    </g>
    <path d="M370.449 435.56C389.159 419.63 421.799 484.3 429.769 497.73C432.779 502.8 435.799 507.76 438.839 512.55C451.499 530.78 464.729 516.91 464.729 516.91C464.729 516.91 497.899 559.8 510.589 562.67C523.279 565.54 530.429 551.1 513.329 534.98C496.229 518.86 466.829 477.28 456.199 462.43C445.569 447.58 441.539 438.48 444.709 425.76C447.829 413.22 417.269 375.57 416.359 374.44C392.819 345.78 368.619 323.7 354.209 325.09C333.509 327.08 304.339 358.24 304.339 358.24C304.339 358.24 302.289 411.23 334.229 443.62C366.169 476 394.849 493.94 408.149 534.13C421.449 574.33 450.749 556.35 425.979 516.28C401.209 476.21 350.159 452.86 370.469 435.56H370.449ZM367.009 394.14C371.829 390.84 379.469 393.61 384.069 400.34C388.669 407.07 388.489 415.19 383.669 418.49C378.849 421.79 371.209 419.02 366.609 412.29C362.009 405.57 362.189 397.44 367.009 394.14Z" fill="#E0B9D4"/>
    <mask id="mask16_3006_22956" style="mask-type:luminance" maskUnits="userSpaceOnUse" x="304" y="325" width="220" height="239">
        <path d="M370.449 435.56C389.159 419.63 421.799 484.3 429.769 497.73C432.779 502.8 435.799 507.76 438.839 512.55C451.499 530.78 464.729 516.91 464.729 516.91C464.729 516.91 497.899 559.8 510.589 562.67C523.279 565.54 530.429 551.1 513.329 534.98C496.229 518.86 466.829 477.28 456.199 462.43C445.569 447.58 441.539 438.48 444.709 425.76C447.829 413.22 417.269 375.57 416.359 374.44C392.819 345.78 368.619 323.7 354.209 325.09C333.509 327.08 304.339 358.24 304.339 358.24C304.339 358.24 302.289 411.23 334.229 443.62C366.169 476 394.849 493.94 408.149 534.13C421.449 574.33 450.749 556.35 425.979 516.28C401.209 476.21 350.159 452.86 370.469 435.56H370.449ZM367.009 394.14C371.829 390.84 379.469 393.61 384.069 400.34C388.669 407.07 388.489 415.19 383.669 418.49C378.849 421.79 371.209 419.02 366.609 412.29C362.009 405.57 362.189 397.44 367.009 394.14Z" fill="white"/>
    </mask>
    <g mask="url(#mask16_3006_22956)">
        <path d="M419.6 362.97C419.6 362.97 406.11 378.91 411.7 406.58C417.3 434.25 385.32 410.09 375.97 411.19C366.62 412.29 334.78 408.39 341.86 462.91C348.94 517.43 287.9 411.06 287.9 411.06L286.23 362.59L330.61 317.67L405.3 299.25L428.93 346.23L419.6 362.98V362.97Z" fill="#D68DBF"/>
        <path d="M396.359 445.83C396.359 445.83 418.809 465.07 433.029 456.56C447.249 448.05 451.289 404.18 451.289 404.18C451.289 404.18 478.399 446.65 479.989 448.47C481.579 450.29 490.239 475.54 490.239 475.54C490.239 475.54 445.279 483.37 448.389 533.67C451.499 583.97 438.719 526.81 438.719 526.81L398.979 465.01L396.369 445.83" fill="#D68DBF"/>
    </g>
    <path d="M329.13 346.583C329.13 346.583 287.17 382.343 269.05 379.273C250.93 376.203 226.21 349.943 252.38 303.613C278.55 257.283 333.73 247.143 368.77 257.953C403.81 268.753 410.68 303.323 378.77 319.153C346.86 334.983 329.13 346.583 329.13 346.583Z" fill="#C3ECF9"/>
    <mask id="mask17_3006_22956" style="mask-type:luminance" maskUnits="userSpaceOnUse" x="241" y="254" width="159" height="126">
        <path d="M329.13 346.583C329.13 346.583 287.17 382.343 269.05 379.273C250.93 376.203 226.21 349.943 252.38 303.613C278.55 257.283 333.73 247.143 368.77 257.953C403.81 268.753 410.68 303.323 378.77 319.153C346.86 334.983 329.13 346.583 329.13 346.583Z" fill="white"/>
    </mask>
    <g mask="url(#mask17_3006_22956)">
        <path d="M250.91 279.982C250.91 279.982 242.38 325.482 256.64 324.422C270.9 323.362 281.95 298.962 281.95 298.962C281.95 298.962 289.29 307.482 309.2 294.772C329.11 282.062 320.31 273.062 320.31 273.062C320.31 273.062 370.25 258.512 334.66 245.522C299.07 232.542 250.91 279.982 250.91 279.982Z" fill="#E0F6FF"/>
    </g>
    <path d="M809.316 425.338V451.037C809.316 451.037 809.592 470.395 832.4 505.513C855.194 540.63 899.434 598.835 919.791 645.503C928.332 665.093 936.524 675.585 941.266 666.094C946.007 656.604 928.506 608.064 896.084 571.945C872.203 545.346 889.24 534.927 901.203 554.866C913.165 574.79 919.791 566.257 933.073 579.535C946.355 592.813 942.034 612.374 949.197 637.42C952.996 650.713 980.677 711.616 997.555 703.853C1008.59 698.774 974.79 683.45 968.163 629.889C966.757 618.483 958.782 567.011 934.973 552.95C912.44 539.643 895.91 511.985 906.742 503.452C918.109 494.513 956.781 544.287 974.804 590.839C992.828 637.391 1002.4 648.565 1013.68 641.193C1024.58 634.083 984.751 576.183 971.484 556.259C958.202 536.335 874.552 404.833 852.483 400.146C815.305 392.252 809.331 425.294 809.331 425.294L809.316 425.338Z" fill="#E0B9D4"/>
    <mask id="mask18_3006_22956" style="mask-type:luminance" maskUnits="userSpaceOnUse" x="809" y="398" width="207" height="307">
        <path d="M809.316 425.338V451.037C809.316 451.037 809.592 470.395 832.4 505.513C855.194 540.63 899.434 598.835 919.791 645.503C928.332 665.093 936.524 675.585 941.266 666.094C946.007 656.604 928.506 608.064 896.084 571.945C872.203 545.346 889.24 534.927 901.203 554.866C913.165 574.79 919.791 566.257 933.073 579.535C946.355 592.813 942.034 612.374 949.197 637.42C952.996 650.713 980.677 711.616 997.555 703.853C1008.59 698.774 974.79 683.45 968.163 629.889C966.757 618.483 958.782 567.011 934.973 552.95C912.44 539.643 895.91 511.985 906.742 503.452C918.109 494.513 956.781 544.287 974.804 590.839C992.828 637.391 1002.4 648.565 1013.68 641.193C1024.58 634.083 984.751 576.183 971.484 556.259C958.202 536.335 874.552 404.833 852.483 400.146C815.305 392.252 809.331 425.294 809.331 425.294L809.316 425.338Z" fill="white"/>
    </mask>
    <g mask="url(#mask18_3006_22956)">
        <path d="M906.336 440.879C906.336 440.879 844.19 468.929 860.024 560.408C875.858 651.887 803.967 542.11 803.967 542.11L754 438.441L796.673 395.72L894.809 360.719L906.336 440.879Z" fill="#D68DBF"/>
        <path d="M931.929 467.71C931.929 467.71 906.946 486.995 920.967 519.994C934.989 552.993 947.778 582.364 930.711 595.786L957.522 687.251C957.522 687.251 982.505 695.522 985.55 659.201C988.595 622.879 940.455 547.769 966.048 522.998C991.64 498.227 931.929 467.724 931.929 467.724V467.71Z" fill="#D68DBF"/>
    </g>
    <path d="M764.874 416.485C764.874 416.485 758.218 444.855 767.788 452.792C787.667 469.277 885.513 403.353 885.513 403.353C885.513 403.353 908.162 389.378 882.715 373.082C853.758 354.537 779.446 360.936 764.874 416.485Z" fill="#C3ECF9"/>
    <mask id="mask19_3006_22956" style="mask-type:luminance" maskUnits="userSpaceOnUse" x="762" y="363" width="133" height="93">
        <path d="M764.874 416.485C764.874 416.485 758.218 444.855 767.788 452.792C787.667 469.277 885.513 403.353 885.513 403.353C885.513 403.353 908.162 389.378 882.715 373.082C853.758 354.537 779.446 360.936 764.874 416.485Z" fill="white"/>
    </mask>
    <g mask="url(#mask19_3006_22956)">
        <path d="M762.61 395.72C760.174 398.158 761.624 424.118 787.782 410.594C804.037 402.192 806.415 387.347 806.415 387.347C806.415 387.347 839.895 388.958 845.463 374.011C851.031 359.064 834.457 354 834.457 354L762.61 395.72Z" fill="#E0F6FF"/>
    </g>
    <g>
        <path d="M62.2892 528.79L42.1392 538.87C42.1392 538.87 32.1392 553.76 67.0892 602.01C102.039 650.26 117.189 692.44 142.279 721.55C149.279 729.67 162.529 727.7 144.239 697.18C125.949 666.66 115.699 655.5 124.359 651.41C133.019 647.32 136.719 680.59 148.749 680.86C160.779 681.13 140.409 653.51 124.729 634.02C109.049 614.53 123.319 611.52 130.899 620.24C147.709 639.57 165.639 694.64 181.929 701.15C198.219 707.66 198.309 688.54 184.529 671.7C170.749 654.86 135.879 611.11 118.299 585.58C84.0992 535.88 62.2892 528.79 62.2892 528.79Z" fill="#E0B9D4"/>
        <mask id="mask20_3006_22956" style="mask-type:luminance" maskUnits="userSpaceOnUse" x="40" y="528" width="155" height="198">
            <path d="M62.2892 528.79L42.1392 538.87C42.1392 538.87 32.1392 553.76 67.0892 602.01C102.039 650.26 117.189 692.44 142.279 721.55C149.279 729.67 162.529 727.7 144.239 697.18C125.949 666.66 115.699 655.5 124.359 651.41C133.019 647.32 136.719 680.59 148.749 680.86C160.779 681.13 140.409 653.51 124.729 634.02C109.049 614.53 123.319 611.52 130.899 620.24C147.709 639.57 165.639 694.64 181.929 701.15C198.219 707.66 198.309 688.54 184.529 671.7C170.749 654.86 135.879 611.11 118.299 585.58C84.0992 535.88 62.2892 528.79 62.2892 528.79Z" fill="white"/>
        </mask>
        <g mask="url(#mask20_3006_22956)">
            <path d="M36.0599 581.15C36.0599 581.15 53.4299 562.1 70.7999 575.55C88.1699 589 92.5899 636.62 96.8199 671.36C101.05 706.1 135.41 750.99 158.76 730.75C171.37 719.82 126.82 661.27 126.82 661.27C126.82 661.27 92.2599 604.12 117.67 574.42C143.08 544.72 77.5199 535.76 77.5199 535.76L23.1699 563.22L36.0599 581.15Z" fill="#D68DBF"/>
            <path d="M131.491 596.22C131.491 596.22 130.061 619.19 136.501 634.88C142.941 650.57 155.551 671.58 155.551 671.58C155.551 671.58 146.871 637.96 169.561 639.92C192.251 641.88 131.491 596.22 131.491 596.22Z" fill="#D68DBF"/>
        </g>
        <path d="M11.1709 533C11.1709 533 -0.589127 552.9 6.01087 558.37C19.7209 569.73 87.2009 524.3 87.2009 524.3C87.2009 524.3 110.061 510.03 85.2709 503.44C67.0809 498.61 29.9409 505.26 11.1709 533Z" fill="#C3ECF9"/>
        <mask id="mask21_3006_22956" style="mask-type:luminance" maskUnits="userSpaceOnUse" x="4" y="501" width="93" height="60">
            <path d="M11.1709 533C11.1709 533 -0.589127 552.9 6.01087 558.37C19.7209 569.73 87.2009 524.3 87.2009 524.3C87.2009 524.3 110.061 510.03 85.2709 503.44C67.0809 498.61 29.9409 505.26 11.1709 533Z" fill="white"/>
        </mask>
        <g mask="url(#mask21_3006_22956)">
            <path d="M20.9311 509.99C19.2511 511.67 5.1311 542.84 23.1711 533.52C34.3811 527.73 36.4311 520.26 36.4311 520.26C36.4311 520.26 59.1111 518.61 62.9511 508.31C66.7911 498.01 37.7411 502 37.7411 502L20.9311 509.99Z" fill="#E0F6FF"/>
        </g>
    </g>
    <g opacity="0.7" clip-path="url(#clip1_3006_22956)">
        <path d="M635.98 230.846C635.98 230.846 633.258 236.16 643.774 253.755C654.29 271.351 660.671 276.385 665.628 276.77C668.885 277.021 669.372 274.254 669.323 272.32C669.307 271.709 669.951 271.288 670.491 271.589C672.113 272.514 675.214 273.362 679.861 270.943C687.105 267.18 690.489 282.905 698.135 277.407C705.781 271.909 688.129 253.065 679.035 246.817C669.351 240.171 661.961 227.93 646.529 223.945C631.096 219.96 635.978 230.826 635.978 230.826L635.98 230.846Z" fill="#E0B9D4"/>
        <mask id="mask22_3006_22956" style="mask-type:luminance" maskUnits="userSpaceOnUse" x="635" y="223" width="66" height="56">
            <path d="M635.98 230.846C635.98 230.846 633.258 236.16 643.774 253.755C654.29 271.351 660.671 276.385 665.628 276.77C668.885 277.021 669.372 274.254 669.323 272.32C669.307 271.709 669.951 271.288 670.491 271.589C672.113 272.514 675.214 273.362 679.861 270.943C687.105 267.18 690.489 282.905 698.135 277.407C705.781 271.909 688.129 253.065 679.035 246.817C669.351 240.171 661.961 227.93 646.529 223.945C631.096 219.96 635.978 230.826 635.978 230.826L635.98 230.846Z" fill="white"/>
        </mask>
        <g mask="url(#mask22_3006_22956)">
            <path d="M650.821 269.242C650.821 269.242 647.287 249.283 658.28 256.621C667.068 262.486 671.746 263.228 675.387 255.038C679.028 246.848 671.315 231.332 671.315 231.332L646.684 204.347L619.536 227.116L623.072 257.178L650.821 269.242Z" fill="#D68DBF"/>
        </g>
        <path d="M617.808 215.505C617.808 215.505 611.016 225.785 613.88 236.546C617.332 249.544 629.225 235.126 638.441 228.368C647.657 221.61 669.807 211.577 659.222 203.658C648.638 195.74 626.478 200.783 617.808 215.505Z" fill="#C3ECF9"/>
        <mask id="mask23_3006_22956" style="mask-type:luminance" maskUnits="userSpaceOnUse" x="613" y="199" width="50" height="43">
            <path d="M617.808 215.505C617.808 215.505 611.016 225.785 613.88 236.546C617.332 249.544 629.225 235.126 638.441 228.368C647.657 221.61 669.807 211.577 659.222 203.658C648.638 195.74 626.478 200.783 617.808 215.505Z" fill="white"/>
        </mask>
        <g mask="url(#mask23_3006_22956)">
            <path d="M616.466 208.057C616.466 208.057 610.046 229.189 630.743 212.36C644.408 201.254 644.842 191.08 629.323 197.016C613.804 202.951 616.466 208.057 616.466 208.057Z" fill="#E0F6FF"/>
        </g>
    </g>
    <defs>
        <clipPath id="clip0_3006_22956">
            <rect width="84.66" height="89.4" fill="white" transform="translate(63 414.802) rotate(-5.28728)"/>
        </clipPath>
        <clipPath id="clip1_3006_22956">
            <rect width="84.66" height="89.4" fill="white" transform="translate(609 197.802) rotate(-5.28728)"/>
        </clipPath>
    </defs>
</svg>
