<svg width="502" height="418" viewBox="0 0 502 418" fill="none" xmlns="http://www.w3.org/2000/svg">
<path d="M154.096 177.797L133.392 152.69L105.755 176.958L102.887 188.54L114.547 224.482L130.483 228.196C130.483 228.196 145.185 213.26 145.185 212.435C145.185 211.609 154.083 177.783 154.083 177.783L154.096 177.797Z" fill="white" stroke="#2B2B2B" stroke-miterlimit="10"/>
<path d="M416.5 325.028C416.5 325.028 431.6 335.944 455.518 315.097C456.66 314.099 458.466 315.058 458.758 316.548C460.059 323.338 460.684 339.978 440.617 354.395C414.694 373.005 416.5 325.042 416.5 325.042V325.028Z" fill="#D35730" stroke="#2B2B2B" stroke-miterlimit="10" stroke-linecap="round"/>
<path d="M327.536 183.467C321.454 195.581 305.942 240.017 325.252 231.444C325.876 231.165 326.567 231.684 326.461 232.349C325.345 239.591 320.71 269.224 317.138 283.015C313.698 296.274 312.529 309.333 323.22 307.736C323.791 307.656 324.163 308.295 323.791 308.721C320.684 312.222 313.366 322.02 314.787 335.425C314.787 335.425 295.65 331.298 289.661 314.765C286.128 304.994 276.035 309.786 276.035 309.786C276.035 309.786 270.59 346.234 306.673 360.758C306.673 360.758 334.987 400.455 374.204 373.764C374.204 373.764 389.875 384.201 410.194 371.607C410.194 371.607 448.03 390.071 471.775 339.152C471.775 339.152 476.277 327.451 467.207 332.164C458.136 336.876 447.605 347.606 432.306 344.637C432.306 344.637 438.693 312.488 418.999 296.141C418.706 295.888 418.693 295.435 418.999 295.209C421.522 293.372 429.942 285.385 415.918 268.598C401.893 251.812 382.358 226.931 377.869 221.207C377.418 220.621 377.63 219.783 378.307 219.49C383.208 217.36 396.196 207.908 333.566 181.417C331.281 180.459 328.639 181.258 327.523 183.467H327.536Z" fill="#EB6B3B"/>
<mask id="mask0_1038_19423" style="mask-type:luminance" maskUnits="userSpaceOnUse" x="275" y="181" width="198" height="202">
<path d="M327.536 183.467C321.454 195.581 305.942 240.017 325.252 231.444C325.876 231.165 326.567 231.684 326.461 232.349C325.345 239.591 320.71 269.224 317.138 283.015C313.698 296.274 312.529 309.333 323.22 307.736C323.791 307.656 324.163 308.295 323.791 308.721C320.684 312.222 313.366 322.02 314.787 335.425C314.787 335.425 295.65 331.298 289.661 314.765C286.128 304.994 276.035 309.786 276.035 309.786C276.035 309.786 270.59 346.234 306.673 360.758C306.673 360.758 334.987 400.455 374.204 373.764C374.204 373.764 389.875 384.201 410.194 371.607C410.194 371.607 448.03 390.071 471.775 339.152C471.775 339.152 476.277 327.451 467.207 332.164C458.136 336.876 447.605 347.606 432.306 344.637C432.306 344.637 438.693 312.488 418.999 296.141C418.706 295.888 418.693 295.435 418.999 295.209C421.522 293.372 429.942 285.385 415.918 268.598C401.893 251.812 382.358 226.931 377.869 221.207C377.418 220.621 377.63 219.783 378.307 219.49C383.208 217.36 396.196 207.908 333.566 181.417C331.281 180.459 328.639 181.258 327.523 183.467H327.536Z" fill="white"/>
</mask>
<g mask="url(#mask0_1038_19423)">
<path d="M479.715 339.804C479.715 339.804 454.788 377.171 421.919 363.247C421.919 363.247 413.539 360.145 406.699 365.244C399.86 370.342 384.415 369.89 380.006 365.018C380.006 365.018 351.081 382.297 343.591 369.237L318.902 380.273L329.274 400.614L445.319 401.719L482.384 382.989L487.896 349.083L479.728 339.791L479.715 339.804Z" fill="#D35730"/>
<path d="M419.05 261.303C419.05 261.303 424.787 280.539 413.538 280.978C402.29 281.418 378.903 272.139 357.057 284.732C335.21 297.326 363.963 291.189 372.94 290.257C381.918 289.325 409.78 287.142 426.553 300.747C443.313 314.365 419.05 261.29 419.05 261.29V261.303Z" fill="#D35730"/>
</g>
<path d="M327.536 183.467C321.454 195.581 305.942 240.017 325.252 231.444C325.876 231.165 326.567 231.684 326.461 232.349C325.345 239.591 320.71 269.224 317.138 283.015C313.698 296.274 312.529 309.333 323.22 307.736C323.791 307.656 324.163 308.295 323.791 308.721C320.684 312.222 313.366 322.02 314.787 335.425C314.787 335.425 295.65 331.298 289.661 314.765C286.128 304.994 276.035 309.786 276.035 309.786C276.035 309.786 270.59 346.234 306.673 360.758C306.673 360.758 334.987 400.455 374.204 373.764C374.204 373.764 389.875 384.201 410.194 371.607C410.194 371.607 448.03 390.071 471.775 339.152C471.775 339.152 476.277 327.451 467.207 332.164C458.136 336.876 447.605 347.606 432.306 344.637C432.306 344.637 438.693 312.488 418.999 296.141C418.706 295.888 418.693 295.435 418.999 295.209C421.522 293.372 429.942 285.385 415.918 268.598C401.893 251.812 382.358 226.931 377.869 221.207C377.418 220.621 377.63 219.783 378.307 219.49C383.208 217.36 396.196 207.908 333.566 181.417C331.281 180.459 328.639 181.258 327.523 183.467H327.536Z" stroke="#2B2B2B" stroke-miterlimit="10" stroke-linecap="round"/>
<path d="M337.336 300.76C337.336 300.76 347.588 292.72 361.878 291.468" stroke="#2B2B2B" stroke-miterlimit="10" stroke-linecap="round"/>
<path d="M408.824 291.854C408.824 291.854 394.986 286.995 381.918 289.338" stroke="#2B2B2B" stroke-miterlimit="10" stroke-linecap="round"/>
<path d="M366.174 331.718C369.697 331.343 372.152 327.252 371.657 322.58C371.162 317.908 367.905 314.425 364.382 314.8C360.86 315.175 358.405 319.266 358.9 323.938C359.395 328.609 362.651 332.093 366.174 331.718Z" fill="#2B2B2B" stroke="#2B2B2B" stroke-miterlimit="10" stroke-linecap="round"/>
<path d="M363.453 325.069C365.05 324.899 366.163 323.048 365.94 320.936C365.716 318.823 364.239 317.248 362.642 317.418C361.045 317.588 359.931 319.438 360.155 321.551C360.379 323.664 361.855 325.239 363.453 325.069Z" fill="white"/>
<path d="M403.682 331.596C407.205 331.221 409.66 327.13 409.165 322.458C408.67 317.786 405.413 314.303 401.89 314.678C398.367 315.053 395.913 319.144 396.408 323.816C396.902 328.487 400.159 331.971 403.682 331.596Z" fill="#2B2B2B" stroke="#2B2B2B" stroke-miterlimit="10" stroke-linecap="round"/>
<path d="M400.972 324.945C402.569 324.775 403.683 322.925 403.459 320.812C403.235 318.699 401.759 317.124 400.162 317.294C398.564 317.464 397.451 319.314 397.675 321.427C397.898 323.54 399.375 325.115 400.972 324.945Z" fill="white"/>
<path d="M346.356 367.64C304.602 392.707 279.516 367.054 271.627 356.032C270.804 354.887 271.879 353.343 273.234 353.742C281.813 356.232 303.009 359.946 324.523 344.823" fill="#EB6B3B"/>
<path d="M346.356 367.64C304.602 392.707 279.516 367.054 271.627 356.032C270.804 354.887 271.879 353.343 273.234 353.742C281.813 356.232 303.009 359.946 324.523 344.823" stroke="#2B2B2B" stroke-miterlimit="10" stroke-linecap="round"/>
<path d="M267.005 308.961C267.005 308.961 269.303 316.548 270.936 322.779C272.556 329.009 277.47 328.276 278.864 321.248C280.259 314.219 288.825 319.317 288.825 319.317C288.825 319.317 296.009 322.712 295.053 313.314C294.084 303.929 276.607 308.362 271.069 303.729C265.544 299.096 267.018 308.947 267.018 308.947L267.005 308.961Z" fill="#B18666" stroke="#2B2B2B" stroke-miterlimit="10"/>
<path d="M217.348 280.965L266.127 313.154C266.127 313.154 275.622 314.272 278.039 303.875L234.373 241.335C234.373 241.335 241.77 276.452 217.348 280.979V280.965Z" fill="white" stroke="#2B2B2B" stroke-miterlimit="10"/>
<path d="M78.5925 210.411C78.5925 210.411 73.4929 205.725 70.9297 201.785C68.3799 197.845 63.413 197.845 62.3771 201.306C62.3771 201.306 62.1381 202.65 62.7224 204.328C62.9615 205.007 62.4037 205.699 61.6998 205.552C58.3665 204.847 51.5138 203.848 49.5483 206.844C46.932 210.851 47.4765 217.147 57.9016 219.916C68.3268 222.685 75.0068 216.175 81.7666 220.475C88.5263 224.762 78.5925 210.425 78.5925 210.425V210.411Z" fill="#B18666" stroke="#2B2B2B" stroke-miterlimit="10"/>
<path d="M135.528 42.1192C139.552 47.0713 154.067 67.3457 154.067 67.3457C154.067 67.3457 162.368 78.4213 155.528 86.3021C147.865 95.1413 162.155 93.3575 162.155 93.3575C162.155 93.3575 168.158 89.2041 173.125 88.1658C178.092 87.1274 181.266 82.9741 178.224 76.957C175.183 70.9399 166.086 41.0676 166.086 41.0676C166.086 41.0676 161.823 37.5399 154.904 40.2422C149.512 42.3455 139.087 41.2673 136.006 41.1474C135.488 41.1208 135.196 41.7199 135.528 42.1192Z" fill="#525A4B"/>
<mask id="mask1_1038_19423" style="mask-type:luminance" maskUnits="userSpaceOnUse" x="135" y="39" width="45" height="55">
<path d="M135.528 42.1192C139.552 47.0713 154.067 67.3457 154.067 67.3457C154.067 67.3457 162.368 78.4213 155.528 86.3021C147.865 95.1413 162.155 93.3575 162.155 93.3575C162.155 93.3575 168.158 89.2041 173.125 88.1658C178.092 87.1274 181.266 82.9741 178.224 76.957C175.183 70.9399 166.086 41.0676 166.086 41.0676C166.086 41.0676 161.823 37.5399 154.904 40.2422C149.512 42.3455 139.087 41.2673 136.006 41.1474C135.488 41.1208 135.196 41.7199 135.528 42.1192Z" fill="white"/>
</mask>
<g mask="url(#mask1_1038_19423)">
<path d="M154.079 67.3457C154.079 67.3457 163.07 83.6131 172.446 84.1589C181.822 84.7047 182.658 73.0433 182.658 73.0433L170.507 19.7017L124.689 29.9387L116.137 37.4068L135.393 69.7685L154.066 67.3324" fill="#3E4438"/>
<path d="M154.079 67.3457C154.079 67.3457 163.07 83.6131 172.446 84.1589C181.822 84.7047 182.658 73.0433 182.658 73.0433L170.507 19.7017L124.689 29.9387L116.137 37.4068L135.393 69.7685L154.066 67.3324" stroke="#2B2B2B" stroke-miterlimit="10"/>
</g>
<path d="M135.528 42.1192C139.552 47.0713 154.067 67.3457 154.067 67.3457C154.067 67.3457 162.368 78.4213 155.528 86.3021C147.865 95.1413 162.155 93.3575 162.155 93.3575C162.155 93.3575 168.158 89.2041 173.125 88.1658C178.092 87.1274 181.266 82.9741 178.224 76.957C175.183 70.9399 166.086 41.0676 166.086 41.0676C166.086 41.0676 161.823 37.5399 154.904 40.2422C149.512 42.3455 139.087 41.2673 136.006 41.1474C135.488 41.1208 135.196 41.7199 135.528 42.1192Z" stroke="#2B2B2B" stroke-miterlimit="10"/>
<path d="M96.5085 73.3495L97.6506 62.3005C97.6506 62.3005 99.3107 54.1401 87.8497 52.7557C76.3887 51.3712 66.0432 36.435 66.0432 36.435C66.0432 36.435 58.8983 36.1289 51.2621 41.1875C44.2367 45.8334 30.1728 46.1263 30.1728 46.1263C30.1728 46.1263 28.3799 56.6428 53.3604 60.3702C78.3409 64.1109 78.5799 73.6956 78.5799 73.6956L85.1006 88.1659H91.5815L96.5085 73.3495Z" fill="#525A4B"/>
<mask id="mask2_1038_19423" style="mask-type:luminance" maskUnits="userSpaceOnUse" x="30" y="36" width="68" height="53">
<path d="M96.5085 73.3495L97.6506 62.3005C97.6506 62.3005 99.3107 54.1401 87.8497 52.7557C76.3887 51.3712 66.0432 36.435 66.0432 36.435C66.0432 36.435 58.8983 36.1289 51.2621 41.1875C44.2367 45.8334 30.1728 46.1263 30.1728 46.1263C30.1728 46.1263 28.3799 56.6428 53.3604 60.3702C78.3409 64.1109 78.5799 73.6956 78.5799 73.6956L85.1006 88.1659H91.5815L96.5085 73.3495Z" fill="white"/>
</mask>
<g mask="url(#mask2_1038_19423)">
<path d="M14.8633 44.6084C15.6867 45.9928 42.46 64.5233 42.46 64.5233L42.6326 57.9072C42.6326 57.9072 67.0155 62.6196 78.8882 61.9141C90.7609 61.2086 102.514 55.1249 97.7331 48.2026C92.9522 41.2803 62.3275 17.4916 62.3275 17.4916L22.8714 33.2665L14.8633 44.6084Z" fill="#3E4438" stroke="#2B2B2B" stroke-miterlimit="10"/>
</g>
<path d="M96.5085 73.3495L97.6506 62.3005C97.6506 62.3005 99.3107 54.1401 87.8497 52.7557C76.3887 51.3712 66.0432 36.435 66.0432 36.435C66.0432 36.435 58.8983 36.1289 51.2621 41.1875C44.2367 45.8334 30.1728 46.1263 30.1728 46.1263C30.1728 46.1263 28.3799 56.6428 53.3604 60.3702C78.3409 64.1109 78.5799 73.6956 78.5799 73.6956L85.1006 88.1659H91.5815L96.5085 73.3495Z" stroke="#2B2B2B" stroke-miterlimit="10"/>
<path d="M130.494 138.1L126.351 111.263C126.351 111.263 123.588 103.235 132.699 96.6059C140.096 91.2145 150.388 83.8263 154.014 81.2304C154.718 80.7246 156.205 80.7379 156.192 81.6032C156.165 84.8513 159.472 93.0117 167.746 90.7353C168.423 90.5489 168.689 91.7337 168.304 92.3061L156.258 110.051C155.86 110.637 155.807 111.382 156.125 112.021L166.936 133.68L178.251 187.874L144.306 206.83L130.507 138.113L130.494 138.1Z" fill="#90A7AB" stroke="#2B2B2B" stroke-miterlimit="10"/>
<path d="M205.024 174.309H205.038L204.878 174.002C204.586 173.403 204.267 172.831 203.922 172.272L180.004 129.207C180.004 129.207 179.964 129.141 179.938 129.101L179.871 128.981C176.471 122.871 169.977 118.731 162.5 118.731C151.531 118.731 142.633 127.65 142.633 138.645C142.633 141.494 143.244 144.197 144.319 146.659L144.373 146.766C144.864 147.871 145.448 148.936 146.139 149.921L168.742 190.469C169.313 191.827 170.03 193.092 170.867 194.277L170.92 194.357C174.519 199.402 180.402 202.69 187.069 202.69C198.039 202.69 206.937 193.771 206.937 182.775C206.937 179.74 206.233 176.864 205.024 174.282V174.309Z" fill="#525A4B" stroke="#2B2B2B" stroke-miterlimit="10"/>
<path d="M78.5795 73.6958C82.2714 75.3465 89.0312 77.3699 94.516 73.3763C95.6448 72.551 97.2252 73.3231 97.3182 74.7208C97.8627 82.8412 99.6422 101.585 104.556 108.227C110.904 116.8 129.669 133.427 135.738 154.979C138.355 164.271 105.765 176.971 105.765 176.971L102.896 188.553L96.8268 171.566C96.8268 171.566 76.4015 136.982 75.857 110.158C75.4719 91.4808 75.618 80.445 75.7508 75.4663C75.7906 74.0286 77.2647 73.1101 78.5795 73.6958Z" fill="#90A7AB" stroke="#2B2B2B" stroke-miterlimit="10"/>
<path d="M102.246 192.347C103.176 192.999 104.451 192.413 104.663 191.308C105.354 187.634 108.448 178.915 120.148 171.58C135.049 162.248 117.665 164.524 117.665 164.524C117.665 164.524 104.159 168.957 100.892 182.935C99.4973 188.886 100.825 191.348 102.246 192.36V192.347Z" fill="#525A4B" stroke="#2B2B2B" stroke-miterlimit="10"/>
<path d="M168.598 186.756H168.612L168.452 186.449C168.16 185.85 167.841 185.278 167.496 184.719L143.578 141.654C143.578 141.654 143.538 141.588 143.512 141.548L143.445 141.428C140.046 135.318 133.551 131.177 126.075 131.177C115.105 131.177 106.207 140.097 106.207 151.092C106.207 153.941 106.818 156.644 107.894 159.106L107.947 159.213C108.438 160.318 109.022 161.383 109.713 162.368L132.316 202.916C132.887 204.274 133.605 205.539 134.441 206.724L134.494 206.804C138.093 211.849 143.977 215.137 150.643 215.137C161.613 215.137 170.511 206.218 170.511 195.222C170.511 192.187 169.807 189.311 168.598 186.729V186.756Z" fill="#525A4B" stroke="#2B2B2B" stroke-miterlimit="10"/>
<path d="M82.6579 207.482L125.806 219.436L130.494 254.847C130.494 254.847 99.9092 246.46 71.8078 221.274C70.0814 219.729 68.9127 215.656 69.7494 213.486C70.6524 211.116 71.3829 209.106 74.9686 207.522C77.1466 206.564 80.3471 206.857 82.6446 207.482H82.6579Z" fill="white" stroke="#2B2B2B" stroke-miterlimit="10"/>
<path d="M185.237 295.888C221.132 295.888 250.231 266.72 250.231 230.739C250.231 194.758 221.132 165.589 185.237 165.589C149.341 165.589 120.242 194.758 120.242 230.739C120.242 266.72 149.341 295.888 185.237 295.888Z" fill="#A7DEF2" stroke="#2B2B2B" stroke-miterlimit="10"/>
<path d="M227.576 253.449C227.576 253.449 240.537 247.086 237.921 228.223C235.305 209.346 212.051 220.621 212.051 220.621L227.576 253.449Z" fill="#B18666" stroke="#2B2B2B" stroke-miterlimit="10"/>
<path d="M225.156 219.983C226.259 237.621 225.156 250.374 225.156 250.374C225.156 250.374 234.187 247.326 233.709 232.975C233.377 223.058 225.156 219.969 225.156 219.969V219.983Z" fill="#FCC289"/>
<path d="M228.494 227.171C228.494 227.797 227.165 232.057 229.662 239.618C234.563 254.488 229.596 273.857 213.088 281.112C197.125 288.141 154.097 285.265 143.964 253.436C143.964 253.436 124.056 245.675 127.522 227.171C130.511 211.197 148.32 221.261 148.32 221.261C149.355 218.159 156.54 205.592 162.955 204.115C172.264 201.971 228.507 227.171 228.507 227.171H228.494Z" fill="#B18666"/>
<mask id="mask3_1038_19423" style="mask-type:luminance" maskUnits="userSpaceOnUse" x="127" y="203" width="105" height="82">
<path d="M228.494 227.171C228.494 227.797 227.165 232.057 229.662 239.618C234.563 254.488 229.596 273.857 213.088 281.112C197.125 288.141 154.097 285.265 143.964 253.436C143.964 253.436 124.056 245.675 127.522 227.171C130.511 211.197 148.32 221.261 148.32 221.261C149.355 218.159 156.54 205.592 162.955 204.115C172.264 201.971 228.507 227.171 228.507 227.171H228.494Z" fill="white"/>
</mask>
<g mask="url(#mask3_1038_19423)">
<path d="M179.886 229.248C179.886 229.248 154.201 227.916 162.289 253.356C162.488 253.981 161.944 254.594 161.293 254.474C157.11 253.715 145.848 253.489 150.775 274.256C156.778 299.562 212.449 292.094 212.449 292.094L253.433 264.711L242.357 227.158L203.14 215.137L179.872 229.234L179.886 229.248Z" fill="#FCC289"/>
<path d="M143.524 225.48C142.422 243.119 144.334 246.766 144.334 246.766C144.334 246.766 132.169 244.25 132.634 229.9C132.966 219.982 143.524 225.48 143.524 225.48Z" fill="#FCC289"/>
</g>
<path d="M228.507 227.171C228.499 227.171 228.492 227.175 228.49 227.183C228.422 227.448 227.236 232.27 229.662 239.618C234.563 254.488 229.596 273.857 213.088 281.112C197.125 288.141 154.097 285.265 143.964 253.436C143.964 253.436 124.056 245.675 127.522 227.171C130.511 211.197 148.32 221.261 148.32 221.261C149.355 218.159 156.54 205.592 162.955 204.115C172.264 201.971 228.507 227.171 228.507 227.171V227.171Z" stroke="#2B2B2B" stroke-miterlimit="10"/>
<path d="M154.094 212.648C154.094 212.648 169.406 245.422 205.011 241.894C240.616 238.367 227.163 206.804 227.163 206.804L154.094 212.634V212.648Z" fill="#3A3735" stroke="#2B2B2B" stroke-miterlimit="10"/>
<path d="M150.64 215.164C150.64 215.164 169.963 229.102 200.043 229.248C230.468 229.395 233.217 223.231 234.97 213.686C236.724 204.142 233.231 187.302 200.255 187.861C172.526 188.34 160.308 180.899 149.484 194.717C142.1 204.142 150.653 215.151 150.653 215.151L150.64 215.164Z" fill="white" stroke="#2B2B2B" stroke-miterlimit="10"/>
<path d="M177.441 250.294C177.083 251.958 178.53 253.343 180.655 253.396C182.78 253.449 184.799 252.131 185.157 250.467C185.516 248.803 184.068 247.419 181.943 247.365C179.818 247.312 177.8 248.63 177.441 250.294Z" fill="#2B2B2B" stroke="#2B2B2B" stroke-miterlimit="10"/>
<path d="M212.062 251.04C211.704 252.704 213.151 254.088 215.276 254.141C217.401 254.195 219.42 252.877 219.778 251.213C220.137 249.549 218.689 248.164 216.564 248.111C214.44 248.058 212.421 249.376 212.062 251.04Z" fill="#2B2B2B" stroke="#2B2B2B" stroke-miterlimit="10"/>
<path d="M200.19 259.253C203.153 259.253 205.555 257.954 205.555 256.351C205.555 254.749 203.153 253.449 200.19 253.449C197.226 253.449 194.824 254.749 194.824 256.351C194.824 257.954 197.226 259.253 200.19 259.253Z" fill="#2B2B2B" stroke="#2B2B2B" stroke-miterlimit="10"/>
<path d="M183.297 265.763C183.297 265.763 199.22 272.406 212.049 265.763" stroke="#2B2B2B" stroke-miterlimit="10" stroke-linecap="round"/>
<path d="M173.746 197.925C173.746 197.925 187.823 200.041 196.721 198.777Z" fill="white"/>
<path d="M173.746 197.925C173.746 197.925 187.823 200.041 196.721 198.777" stroke="#2B2B2B" stroke-linecap="round" stroke-linejoin="round"/>
</svg>
