<svg width="733" height="546" viewBox="0 0 733 546" fill="none" xmlns="http://www.w3.org/2000/svg">
    <path d="M49.7951 238.612L49.7695 238.689V238.77L49.7695 259.133L49.7696 259.141L50.2695 259.133C49.7696 259.141 49.7696 259.141 49.7696 259.141L49.7696 259.142L49.7697 259.146L49.7699 259.156L49.771 259.194C49.772 259.227 49.7739 259.275 49.777 259.338C49.7833 259.463 49.7949 259.647 49.8161 259.89C49.8584 260.376 49.939 261.096 50.0923 262.045C50.399 263.942 50.9965 266.752 52.1602 270.432C54.4876 277.791 59.0789 288.623 68.1345 302.571C72.7815 309.733 78.5681 318.128 84.8655 327.264C90.7898 335.858 97.1663 345.109 103.471 354.606C116.502 374.233 129.273 394.978 137.317 413.425C140.7 421.189 144.043 427.221 147.046 430.369C148.537 431.931 150.042 432.889 151.508 432.847C153.024 432.804 154.261 431.709 155.232 429.765C155.758 428.711 155.949 427.185 155.878 425.331C155.807 423.463 155.466 421.199 154.876 418.625C153.694 413.476 151.499 407.038 148.387 399.952C142.163 385.778 132.25 368.961 119.369 354.605L119.056 354.885L119.369 354.605C114.666 349.365 112.006 344.952 110.788 341.543C109.56 338.102 109.837 335.811 110.767 334.657C111.653 333.556 113.341 333.271 115.542 334.341C117.73 335.403 120.285 337.766 122.622 341.662L122.622 341.663C125.009 345.639 127.145 348.221 129.183 350.016C131.226 351.814 133.152 352.803 135.088 353.615C135.696 353.87 136.304 354.107 136.917 354.347C140.179 355.62 143.585 356.949 147.942 361.306C153.084 366.449 154.839 372.818 156.004 380.465C156.306 382.444 156.568 384.51 156.84 386.659C157.616 392.784 158.478 399.582 160.586 406.958C162.106 412.277 168.36 427.015 175.904 439.653C179.676 445.972 183.791 451.802 187.822 455.672C189.837 457.607 191.856 459.076 193.824 459.861C195.803 460.65 197.755 460.754 199.579 459.915L199.579 459.915C200.758 459.372 201.469 458.625 201.591 457.586C201.705 456.613 201.279 455.52 200.591 454.324C199.892 453.11 198.861 451.69 197.629 450.039C197.387 449.714 197.136 449.379 196.877 449.034C195.819 447.622 194.637 446.045 193.384 444.274C187.158 435.473 179.197 421.905 176.586 400.791C176.027 396.256 174.164 383.767 170.075 371.006C168.03 364.626 165.425 358.163 162.138 352.589C158.853 347.018 154.869 342.302 150.054 339.457C141.205 334.229 133.531 326.176 129.141 318.607C126.946 314.821 125.591 311.189 125.301 308.117C125.011 305.052 125.78 302.61 127.748 301.059C128.708 300.303 129.991 300.131 131.623 300.577C133.263 301.026 135.195 302.088 137.353 303.71C141.663 306.949 146.75 312.328 152.022 319.106C162.562 332.656 173.764 351.695 180.883 370.09C188.019 388.527 193.506 400.031 198.355 406.192C200.782 409.275 203.097 411.085 205.439 411.71C207.807 412.343 210.102 411.74 212.415 410.229C213.712 409.382 214.175 407.825 214.116 405.932C214.057 404.031 213.472 401.657 212.512 398.969C210.589 393.585 207.108 386.798 203.044 379.718C195.947 367.355 187.026 354.026 181.381 345.592C180.558 344.362 179.804 343.236 179.136 342.232L179.136 342.232C178.024 340.563 176.286 337.902 174.048 334.474C165.712 321.71 150.429 298.305 134.609 275.843C124.574 261.596 114.315 247.716 105.467 237.162C101.044 231.886 96.9651 227.431 93.4375 224.175C91.6736 222.547 90.0398 221.211 88.563 220.221C87.0922 219.234 85.7474 218.57 84.5648 218.319L84.4609 218.808L84.5647 218.319C77.1289 216.74 71.2181 217.201 66.5345 218.81C61.8509 220.419 58.4263 223.164 55.9458 226.103C53.4679 229.04 51.9311 232.17 51.0136 234.563C50.5545 235.76 50.2494 236.776 50.0586 237.494C49.9632 237.853 49.8963 238.138 49.853 238.335C49.8314 238.434 49.8156 238.51 49.8052 238.562C49.8014 238.581 49.7984 238.597 49.796 238.609L49.7951 238.612Z" fill="#E0B9D4" stroke="#2B2B2B"/>
    <mask id="mask0_3029_19816" style="mask-type:luminance" maskUnits="userSpaceOnUse" x="50" y="217" width="164" height="243">
        <path d="M50.2695 238.77V259.133C50.2695 259.133 50.4877 274.472 68.5539 302.299C86.6086 330.125 121.65 376.246 137.775 413.225C144.54 428.748 151.029 437.061 154.784 429.541C158.54 422.021 144.678 383.559 118.997 354.939C100.081 333.862 113.576 325.606 123.051 341.405C132.526 357.193 137.775 350.432 148.295 360.953C158.816 371.474 155.393 386.974 161.067 406.82C164.076 417.353 186.001 465.612 199.37 459.46C208.11 455.436 181.338 443.293 176.089 400.852C174.975 391.815 168.659 351.029 149.8 339.887C131.952 329.343 118.859 307.427 127.438 300.666C136.443 293.583 167.074 333.023 181.35 369.91C195.626 406.797 203.206 415.651 212.141 409.81C220.778 404.176 189.229 358.297 178.72 342.509C168.199 326.722 101.941 222.522 84.4609 218.808C55.0129 212.553 50.281 238.735 50.281 238.735L50.2695 238.77Z" fill="white"/>
    </mask>
    <g mask="url(#mask0_3029_19816)">
        <path d="M127.116 251.084C127.116 251.084 77.8908 273.311 90.4326 345.797C102.974 418.284 46.031 331.298 46.031 331.298L6.45312 249.152L40.254 215.301L117.986 187.566L127.116 251.084Z" fill="#D68DBF"/>
        <path d="M147.387 272.345C147.387 272.345 127.598 287.626 138.704 313.774C149.81 339.921 159.94 363.194 146.422 373.83L167.658 446.306C167.658 446.306 187.447 452.86 189.859 424.079C192.271 395.298 154.14 335.782 174.412 316.154C194.683 296.526 147.387 272.356 147.387 272.356V272.345Z" fill="#D68DBF"/>
    </g>
    <path d="M9.39917 233.678L9.39901 233.678L9.39602 233.691L9.88282 233.805C9.39602 233.691 9.39598 233.691 9.39591 233.691L9.39566 233.692L9.39476 233.696L9.39133 233.711L9.37825 233.768C9.36684 233.818 9.35015 233.892 9.32882 233.988C9.28616 234.181 9.22494 234.464 9.15024 234.826C9.00084 235.55 8.79745 236.591 8.58078 237.863C8.14766 240.406 7.66054 243.874 7.44667 247.573C7.23302 251.268 7.2907 255.214 7.9575 258.704C8.62215 262.182 9.90666 265.283 12.2121 267.196L12.2121 267.196C14.6111 269.186 18.1278 269.889 22.3395 269.682C26.5618 269.474 31.564 268.349 37.0222 266.587C47.9413 263.062 60.7805 256.959 73.0329 250.399C85.2897 243.837 96.9791 236.808 105.603 231.42C109.915 228.726 113.462 226.442 115.931 224.831C117.165 224.025 118.13 223.388 118.787 222.952C119.115 222.734 119.367 222.566 119.536 222.453L119.728 222.324L119.776 222.292L119.785 222.285L119.794 222.28L119.841 222.25C119.882 222.224 119.941 222.186 120.016 222.136C120.166 222.036 120.382 221.888 120.647 221.695C121.176 221.311 121.904 220.745 122.704 220.02C124.299 218.573 126.203 216.468 127.37 213.867C128.543 211.252 128.969 208.132 127.587 204.71C126.212 201.304 123.07 197.661 117.24 193.926C103.933 185.4 80.3185 182.649 58.3993 188.332C36.4563 194.022 16.0801 208.201 9.39917 233.678Z" fill="#C3ECF9" stroke="#2B2B2B"/>
    <mask id="mask1_3029_19816" style="mask-type:luminance" maskUnits="userSpaceOnUse" x="7" y="185" width="121" height="85">
        <path d="M9.88282 233.805C9.88282 233.805 3.83469 259.595 12.5313 266.811C30.5967 281.797 119.513 221.866 119.513 221.866C119.513 221.866 140.096 209.162 116.97 194.347C90.6563 177.488 23.1255 183.305 9.88282 233.805Z" fill="white"/>
    </mask>
    <g mask="url(#mask1_3029_19816)">
        <path d="M7.8275 214.927C5.6138 217.143 6.93148 240.744 30.7023 228.449C45.4735 220.811 47.6345 207.315 47.6345 207.315C47.6345 207.315 78.0596 208.78 83.1195 195.192C88.1794 181.604 73.1183 177 73.1183 177L7.8275 214.927Z" fill="#E0F6FF"/>
    </g>
    <path d="M42.0878 249.89L39.3578 251.35L37.2982 249.401L32.535 251.949L32.9943 254.754L30.2643 256.214L27.9706 240.201L30.0227 239.104L42.0878 249.89ZM35.4234 247.571L31.1773 243.571L32.091 249.353L35.4234 247.571ZM45.9101 236.272L45.062 239.122C44.4648 238.941 43.9277 238.979 43.4508 239.234C43.0366 239.455 42.7502 239.81 42.5917 240.298C42.4458 240.78 42.5272 241.31 42.836 241.887L45.9981 247.799L43.5506 249.108L38.304 239.299L40.695 238.02L41.1985 238.961C41.2884 238.526 41.4993 238.09 41.8312 237.654C42.1757 237.212 42.5989 236.856 43.101 236.588C44.0298 236.091 44.9662 235.986 45.9101 236.272ZM57.6987 235.221C58.2425 236.237 58.6262 237.106 58.8498 237.825C59.0733 238.545 59.0892 239.239 58.8975 239.906C58.6482 240.798 58.0152 241.516 56.9985 242.06C55.9819 242.604 54.9814 242.695 53.9972 242.334L54.4906 243.256L52.1184 244.525L44.9484 231.12L47.3959 229.811L49.7826 234.273C49.9983 233.318 50.6145 232.569 51.6311 232.025C52.6478 231.481 53.5963 231.353 54.4767 231.641C55.1384 231.852 55.7065 232.251 56.1812 232.836C56.6558 233.422 57.1616 234.216 57.6987 235.221ZM55.7989 237.69C55.6754 237.368 55.4928 236.982 55.2512 236.53C55.0095 236.078 54.7926 235.718 54.6005 235.449C54.4018 235.168 54.172 234.92 53.9114 234.704C53.6633 234.482 53.3831 234.365 53.0707 234.355C52.771 234.337 52.4454 234.423 52.0939 234.611C51.7425 234.799 51.4844 235.025 51.3198 235.291C51.1677 235.55 51.1091 235.848 51.1438 236.184C51.1911 236.514 51.2765 236.84 51.3999 237.161C51.5167 237.47 51.6959 237.85 51.9376 238.302C52.1793 238.754 52.3995 239.12 52.5983 239.402C52.7903 239.67 53.0138 239.922 53.2686 240.157C53.5293 240.372 53.8095 240.489 54.1093 240.506C54.4216 240.517 54.7535 240.428 55.1049 240.24C55.4563 240.052 55.7081 239.829 55.8602 239.57C56.0248 239.304 56.0835 239.006 56.0362 238.676C55.9948 238.327 55.9156 237.998 55.7989 237.69ZM65.101 237.581L62.6535 238.89L57.558 229.364L60.0055 228.054L65.101 237.581ZM58.977 226.086L56.473 227.426L55.4056 225.43L57.9096 224.091L58.977 226.086ZM72.2439 233.76L70.9071 234.475C69.9783 234.972 69.1215 235.075 68.3366 234.785C67.5642 234.488 66.9733 233.956 66.5638 233.191L63.9657 228.333L62.9302 228.887L61.9332 227.023L62.9687 226.469L61.4179 223.57L63.8654 222.261L65.4162 225.16L67.1483 224.234L68.1453 226.098L66.4132 227.024L68.9307 231.731C69.2463 232.321 69.6865 232.465 70.2513 232.163L71.1361 231.689L72.2439 233.76ZM76.8168 219.74L75.9687 222.591C75.3715 222.41 74.8344 222.447 74.3575 222.702C73.9433 222.924 73.6569 223.279 73.4984 223.767C73.3525 224.249 73.4339 224.778 73.7427 225.356L76.9048 231.267L74.4572 232.577L69.2107 222.768L71.6017 221.489L72.1052 222.43C72.1951 221.995 72.406 221.559 72.7379 221.123C73.0823 220.681 73.5056 220.325 74.0076 220.057C74.9365 219.56 75.8728 219.454 76.8168 219.74ZM91.0643 223.694L88.6732 224.973L88.1898 224.069C87.9122 225.089 87.2777 225.865 86.2861 226.395C85.3196 226.912 84.3933 227.036 83.5071 226.767C82.4861 226.458 81.6567 225.707 81.0189 224.515L77.6655 218.245L80.1131 216.936L83.2852 222.867C83.6141 223.482 84.0127 223.85 84.4809 223.971C84.9616 224.085 85.4217 224.024 85.861 223.789C86.3128 223.548 86.6184 223.199 86.7778 222.742C86.9497 222.279 86.8712 221.74 86.5423 221.125L83.3701 215.194L85.8177 213.885L91.0643 223.694ZM107.674 214.81L105.227 216.119L102.055 210.188C101.726 209.573 101.321 209.209 100.84 209.094C100.372 208.974 99.9182 209.031 99.4789 209.266C99.0396 209.501 98.734 209.85 98.5621 210.313C98.3834 210.764 98.4519 211.284 98.7674 211.874L101.97 217.861L99.5222 219.17L96.3501 213.239C96.0211 212.624 95.6163 212.26 95.1355 212.146C94.6673 212.025 94.2136 212.082 93.7743 212.317C93.3224 212.559 93.0105 212.911 92.8386 213.374C92.6792 213.831 92.764 214.366 93.093 214.982L96.2651 220.912L93.8176 222.221L88.571 212.412L90.9621 211.133L91.4454 212.037C91.7356 211.01 92.3701 210.235 93.3492 209.711C94.4788 209.107 95.5664 209.058 96.6119 209.564C96.9596 208.313 97.7171 207.375 98.8843 206.751C99.9136 206.2 100.871 206.059 101.757 206.328C102.856 206.66 103.71 207.398 104.321 208.54L107.674 214.81Z" fill="#5DCBF5"/>
    <path d="M462.287 47.79L462.442 47.3145L462.247 47.2512L462.064 47.3429L441.914 57.4229L441.796 57.4818L441.722 57.5913L442.137 57.87C441.722 57.5913 441.722 57.592 441.721 57.5927L441.72 57.5945L441.717 57.5991L441.708 57.6125C441.701 57.6233 441.692 57.6379 441.681 57.6563C441.659 57.693 441.629 57.7451 441.593 57.813C441.52 57.9488 441.422 58.1479 441.313 58.4147C441.095 58.9485 440.831 59.7521 440.629 60.8609C440.225 63.0792 440.07 66.511 441.015 71.4404C442.903 81.2929 449.184 97.1461 466.682 121.303C483.709 144.809 496.032 166.874 507.109 186.708C507.388 187.207 507.666 187.705 507.943 188.201C519.231 208.407 529.315 226.276 541.898 240.876L542.277 240.55L541.899 240.877C543.699 242.965 545.924 244.434 547.989 244.945C549.024 245.201 550.042 245.222 550.949 244.931C551.865 244.637 552.637 244.034 553.174 243.105C554.229 241.278 554.343 238.254 553.113 233.87C551.876 229.461 549.251 223.573 544.666 215.923C540.585 209.113 536.904 203.266 533.745 198.249C533.363 197.641 532.988 197.046 532.62 196.462C529.22 191.056 526.506 186.688 524.633 183.15C522.751 179.593 521.765 176.955 521.738 174.988C521.725 174.023 521.943 173.237 522.389 172.58C522.838 171.918 523.544 171.347 524.571 170.862C525.503 170.422 526.34 170.483 527.159 170.929C528.01 171.392 528.858 172.281 529.718 173.532C531.332 175.878 532.866 179.308 534.507 182.979C534.615 183.22 534.723 183.462 534.832 183.704C536.584 187.616 538.464 191.718 540.67 194.857C542.866 197.982 545.48 200.287 548.736 200.36C550.325 200.396 551.516 199.972 552.215 199.02C552.897 198.092 553.007 196.793 552.768 195.316C552.288 192.357 550.333 188.249 547.558 183.594C541.99 174.254 532.957 162.452 525.117 152.707C521.217 147.859 519.218 144.081 518.494 141.293C517.771 138.505 518.341 136.814 519.407 135.938C520.504 135.037 522.31 134.837 524.388 135.453C526.449 136.063 528.682 137.454 530.52 139.568L530.52 139.568C534.683 144.356 538.934 151.38 543.231 159.359C546.241 164.947 549.263 170.982 552.286 177.021C553.578 179.601 554.87 182.182 556.161 184.729C560.471 193.228 564.777 201.349 569.029 207.756C571.155 210.96 573.276 213.748 575.386 215.944C577.494 218.136 579.613 219.764 581.742 220.614C585.874 222.266 589.109 222.346 591.384 221.102C593.676 219.848 594.829 217.341 595.003 214.209C595.349 207.964 591.845 198.854 584.914 190.383C571.134 173.543 536.276 129.808 518.709 104.296C501.588 79.4153 487.555 65.181 477.784 57.1611C472.899 53.151 469.08 50.6946 466.473 49.2379C465.17 48.5097 464.17 48.0314 463.492 47.7339C463.153 47.5851 462.894 47.4816 462.719 47.4146C462.631 47.3811 462.563 47.3567 462.517 47.3404C462.494 47.3322 462.476 47.3261 462.464 47.3218L462.449 47.3168L462.444 47.3153L462.443 47.3149C462.442 47.3147 462.442 47.3145 462.287 47.79Z" fill="#E0B9D4" stroke="#2B2B2B"/>
    <mask id="mask2_3029_19816" style="mask-type:luminance" maskUnits="userSpaceOnUse" x="440" y="47" width="155" height="198">
        <path d="M462.287 47.79L442.137 57.87C442.137 57.87 432.137 72.76 467.087 121.01C502.037 169.26 517.187 211.44 542.277 240.55C549.277 248.67 562.527 246.7 544.237 216.18C525.947 185.66 515.697 174.5 524.357 170.41C533.017 166.32 536.717 199.59 548.747 199.86C560.777 200.13 540.407 172.51 524.727 153.02C509.047 133.53 523.317 130.52 530.897 139.24C547.707 158.57 565.637 213.64 581.927 220.15C598.217 226.66 598.307 207.54 584.527 190.7C570.747 173.86 535.877 130.11 518.297 104.58C484.097 54.88 462.287 47.79 462.287 47.79Z" fill="white"/>
    </mask>
    <g mask="url(#mask2_3029_19816)">
        <path d="M436.058 100.15C436.058 100.15 453.428 81.0998 470.798 94.5498C488.168 108 492.588 155.62 496.818 190.36C501.048 225.1 535.408 269.99 558.758 249.75C571.368 238.82 526.818 180.27 526.818 180.27C526.818 180.27 492.258 123.12 517.668 93.4198C543.078 63.7198 477.518 54.7598 477.518 54.7598L423.168 82.2198L436.058 100.15Z" fill="#D68DBF"/>
        <path d="M531.487 115.22C531.487 115.22 530.057 138.19 536.497 153.88C542.937 169.57 555.547 190.58 555.547 190.58C555.547 190.58 546.867 156.96 569.557 158.92C592.247 160.88 531.487 115.22 531.487 115.22Z" fill="#D68DBF"/>
    </g>
    <path d="M398.747 57.6052L398.739 57.6176L398.733 57.6304L399.176 57.862C398.733 57.6304 398.733 57.6306 398.732 57.6309L398.732 57.632L398.73 57.6363L398.721 57.6529L398.688 57.7174C398.658 57.774 398.615 57.8578 398.56 57.9673C398.448 58.1862 398.287 58.5076 398.084 58.9191C397.679 59.7421 397.111 60.9259 396.456 62.3713C395.146 65.2609 393.489 69.2021 392.101 73.4006C390.714 77.5938 389.588 82.0698 389.356 86.0221C389.126 89.9524 389.774 93.4978 392.096 95.6733L392.096 95.6733C394.476 97.9027 397.974 98.6933 402.161 98.461C406.353 98.2282 411.316 96.9665 416.726 94.9945C427.55 91.0492 440.275 84.2194 452.416 76.8803C464.562 69.5382 476.146 61.6731 484.692 55.6447C488.965 52.6302 492.479 50.0743 494.926 48.2718C496.149 47.3706 497.106 46.6576 497.756 46.1698C498.082 45.9259 498.331 45.7383 498.498 45.6115L498.688 45.4677L498.737 45.4311L498.745 45.4246L498.749 45.4218L498.762 45.4123L498.828 45.3651C498.885 45.3238 498.969 45.2628 499.076 45.1831C499.29 45.0238 499.599 44.7898 499.98 44.489C500.741 43.8877 501.791 43.0183 502.948 41.9443C505.257 39.8024 508.024 36.8205 509.771 33.5067C511.519 30.191 512.283 26.4603 510.422 22.9133C508.575 19.3926 504.212 16.1979 496.074 13.7523L496.074 13.7523C484.071 10.1496 465.897 10.841 447.664 17.5497C429.419 24.2633 411.069 37.0195 398.747 57.6052Z" fill="#C3ECF9" stroke="#2B2B2B"/>
    <mask id="mask3_3029_19816" style="mask-type:luminance" maskUnits="userSpaceOnUse" x="389" y="12" width="122" height="86">
        <path d="M399.176 57.862C399.176 57.862 383.82 87.2346 392.438 95.3084C410.34 112.076 498.45 45.0207 498.45 45.0207C498.45 45.0207 528.299 23.9581 495.93 14.2312C472.179 7.10205 423.684 16.9175 399.176 57.862Z" fill="white"/>
    </mask>
    <g mask="url(#mask3_3029_19816)">
        <path d="M411.921 23.8992C409.727 26.3789 391.291 72.3861 414.846 58.6297C429.483 50.0836 432.16 39.0578 432.16 39.0578C432.16 39.0578 461.774 36.6224 466.788 21.4195C471.802 6.21656 433.87 12.1058 433.87 12.1058L411.921 23.8992Z" fill="#E0F6FF"/>
    </g>
    <path d="M421.062 75.192C421.789 76.3658 421.992 77.5043 421.671 78.6075C421.349 79.7106 420.595 80.6294 419.409 81.3638L414 84.7137L405.996 71.7892L411.188 68.5742C412.434 67.8024 413.611 67.5258 414.717 67.7446C415.836 67.956 416.74 68.6183 417.43 69.7316C417.834 70.3851 418.013 71.0528 417.967 71.7346C417.925 72.3968 417.764 72.9483 417.485 73.3893C419.015 73.2115 420.208 73.8124 421.062 75.192ZM418.733 78.0408C418.836 77.5584 418.745 77.0873 418.46 76.6275C418.176 76.1676 417.798 75.8824 417.328 75.7718C416.85 75.6491 416.339 75.7564 415.794 76.0936L413.162 77.7236L415.129 80.9003L417.761 79.2703C418.306 78.9331 418.63 78.5232 418.733 78.0408ZM415.213 72.762C415.331 72.3038 415.251 71.8508 414.974 71.4031C414.697 70.9553 414.33 70.6883 413.875 70.6019C413.412 70.5034 412.915 70.619 412.382 70.9488L409.913 72.4776L411.757 75.4546L414.226 73.9258C414.758 73.596 415.087 73.2081 415.213 72.762ZM431.063 68.6224L425.145 72.287C425.535 72.9163 426.031 73.3121 426.634 73.4746C427.237 73.637 427.865 73.5158 428.518 73.1112C429.002 72.8114 429.354 72.5013 429.575 72.1808C429.799 71.8407 429.978 71.4122 430.109 70.8952L432.409 71.4049C432.223 72.24 431.933 72.9472 431.538 73.5265C431.148 74.0862 430.547 74.6171 429.737 75.1192C429.132 75.4939 428.536 75.7622 427.95 75.9243C427.368 76.0667 426.757 76.0936 426.116 76.005C425.475 75.9163 424.832 75.6202 424.185 75.1166C423.538 74.613 422.93 73.9013 422.361 72.9816C421.424 71.4689 421.068 70.0567 421.294 68.745C421.512 67.4211 422.245 66.3733 423.491 65.6014C424.786 64.7995 426.059 64.5973 427.309 64.9947C428.553 65.3801 429.598 66.2565 430.444 67.624L431.063 68.6224ZM427.739 68.4457C427.472 68.0417 427.189 67.7478 426.891 67.564C426.196 67.0904 425.467 67.0897 424.705 67.5618C423.943 68.0339 423.619 68.6867 423.733 69.52C423.765 69.8687 423.902 70.2525 424.144 70.6714L427.739 68.4457ZM437.254 58.3089L436.588 61.2076C435.98 61.0648 435.447 61.1358 434.987 61.4205C434.588 61.6679 434.324 62.0402 434.197 62.5376C434.082 63.0275 434.197 63.5508 434.541 64.1074L438.071 69.8073L435.711 71.2686L429.855 61.8113L432.16 60.3836L432.722 61.2912C432.784 60.8509 432.967 60.4028 433.271 59.9469C433.586 59.4835 433.986 59.1019 434.47 58.8021C435.366 58.2475 436.294 58.0831 437.254 58.3089ZM450.947 61.8337L448.641 63.2614L448.136 62.4445C448.011 62.9736 447.818 63.4194 447.557 63.782C447.301 64.1249 446.907 64.4613 446.374 64.791C445.321 65.443 444.344 65.663 443.443 65.4511C442.585 65.2288 441.887 64.6819 441.347 63.8106C440.852 63.0119 440.726 62.1861 440.968 61.3331C441.202 60.468 441.852 59.7057 442.917 59.0462L445.113 57.686L444.821 57.2141C444.499 56.6937 444.127 56.4047 443.707 56.3472C443.278 56.2775 442.756 56.4338 442.139 56.816C441.4 57.2731 440.964 57.9201 440.829 58.7569L438.43 58.2084C438.575 57.4153 438.836 56.7684 439.212 56.2675C439.601 55.7591 440.194 55.2576 440.993 54.763C443.679 53.0993 445.712 53.3808 447.091 55.6075L450.947 61.8337ZM446.429 59.8099L446.114 59.3016L444.317 60.4145C443.385 60.9915 443.144 61.6431 443.594 62.3692C444.036 63.0832 444.735 63.1441 445.691 62.5521C446.308 62.1699 446.68 61.7301 446.807 61.2327C446.922 60.8771 446.796 60.4028 446.429 59.8099ZM459.64 54.8177C459.35 56.1865 458.575 57.2606 457.316 58.0399C456.917 58.2873 456.503 58.4847 456.076 58.6323C455.641 58.7678 455.162 58.8466 454.64 58.8686C454.122 58.8709 453.616 58.7828 453.12 58.6043C452.617 58.4136 452.099 58.0901 451.565 57.6337C451.036 57.1577 450.543 56.5507 450.085 55.8125C449.628 55.0743 449.308 54.3683 449.125 53.6947C448.947 53.0014 448.889 52.3931 448.95 51.8698C449.011 51.3464 449.158 50.8537 449.39 50.3914C449.635 49.9217 449.919 49.5283 450.242 49.2113C450.564 48.8942 450.925 48.6121 451.325 48.3648C452.595 47.5779 453.898 47.3569 455.234 47.7019L454.626 50.2886C453.859 50.0772 453.197 50.1439 452.64 50.4886C452.083 50.8333 451.763 51.3163 451.679 51.9376C451.598 52.5906 451.853 53.3951 452.445 54.3511C453.045 55.3192 453.655 55.9125 454.276 56.1308C454.869 56.3324 455.444 56.2609 456.001 55.9161C456.558 55.5714 456.912 55.0086 457.065 54.2276L459.64 54.8177ZM470.073 49.9895L467.713 51.4508L464.172 45.7329C463.805 45.1399 463.378 44.8017 462.891 44.7182C462.416 44.6272 461.967 44.7128 461.543 44.9751C461.107 45.2449 460.818 45.6164 460.676 46.0896C460.546 46.5553 460.665 47.0846 461.032 47.6776L464.573 53.3956L462.213 54.8569L454.209 41.9325L456.569 40.4711L459.256 44.8095C459.444 43.7888 460.01 42.9862 460.954 42.4017C461.886 41.8246 462.802 41.6421 463.704 41.854C464.742 42.0982 465.618 42.7951 466.33 43.9448L470.073 49.9895ZM479.771 43.984L477.465 45.4116L476.959 44.5948C476.835 45.1238 476.642 45.5697 476.381 45.9322C476.125 46.2752 475.73 46.6115 475.198 46.9412C474.145 47.5932 473.168 47.8133 472.267 47.6013C471.409 47.379 470.71 46.8322 470.171 45.9609C469.676 45.1622 469.55 44.3363 469.792 43.4833C470.026 42.6182 470.676 41.8559 471.741 41.1964L473.937 39.8363L473.645 39.3643C473.323 38.8439 472.951 38.555 472.531 38.4974C472.102 38.4277 471.58 38.584 470.962 38.9662C470.224 39.4234 469.788 40.0703 469.653 40.9072L467.254 40.3586C467.399 39.5656 467.66 38.9186 468.036 38.4177C468.424 37.9094 469.018 37.4079 469.817 36.9133C472.503 35.2496 474.536 35.5311 475.915 37.7577L479.771 43.984ZM475.253 41.9601L474.938 41.4518L473.141 42.5647C472.209 43.1417 471.968 43.7933 472.417 44.5194C472.86 45.2334 473.559 45.2944 474.515 44.7023C475.132 44.3201 475.504 43.8803 475.631 43.383C475.746 43.0274 475.62 42.5531 475.253 41.9601ZM484.675 40.9468L482.315 42.4082L476.627 33.2231L478.987 31.7618L484.675 40.9468ZM477.836 29.8627L475.422 31.3578L474.23 29.4336L476.644 27.9385L477.836 29.8627ZM495.174 34.445L492.814 35.9064L489.273 30.1884C488.906 29.5954 488.479 29.2572 487.992 29.1737C487.517 29.0827 487.068 29.1684 486.644 29.4307C486.209 29.7005 485.92 30.072 485.777 30.5452C485.647 31.0108 485.766 31.5402 486.133 32.1331L489.674 37.8511L487.314 39.3125L481.458 29.8551L483.763 28.4275L484.302 29.2988C484.515 28.2631 485.099 27.4493 486.055 26.8572C486.987 26.2802 487.904 26.0976 488.805 26.3096C489.844 26.5538 490.719 27.2507 491.431 28.4003L495.174 34.445Z" fill="#5DCBF5"/>
    <g >
        <path d="M358.835 155.926L358.99 155.451L358.795 155.388L358.612 155.479L331.819 168.873L331.701 168.932L331.628 169.042L332.043 169.321C331.628 169.042 331.627 169.042 331.627 169.043L331.625 169.045L331.622 169.05L331.612 169.067C331.603 169.08 331.592 169.098 331.578 169.121C331.55 169.168 331.511 169.235 331.464 169.322C331.37 169.498 331.242 169.757 331.099 170.107C330.813 170.805 330.466 171.862 330.199 173.324C329.666 176.249 329.46 180.789 330.712 187.322C333.216 200.381 341.554 221.425 364.813 253.514C387.458 284.756 403.848 314.083 418.576 340.437C418.947 341.101 419.317 341.763 419.686 342.424C434.697 369.276 448.097 393.005 464.816 412.391C467.193 415.146 470.124 417.076 472.829 417.745C474.184 418.08 475.506 418.104 476.675 417.729C477.854 417.351 478.848 416.577 479.541 415.377C480.91 413.008 481.076 409.046 479.444 403.232C477.805 397.393 474.322 389.583 468.23 379.424C462.805 370.377 457.911 362.61 453.712 355.945C453.203 355.136 452.704 354.344 452.215 353.567C447.695 346.385 444.082 340.576 441.588 335.868C439.085 331.142 437.757 327.605 437.72 324.948C437.702 323.638 437.999 322.56 438.614 321.654C439.231 320.743 440.197 319.968 441.581 319.315C442.87 318.706 444.038 318.792 445.172 319.408C446.337 320.042 447.482 321.248 448.631 322.917C450.787 326.049 452.832 330.619 455.011 335.49C455.156 335.812 455.301 336.136 455.446 336.461C457.777 341.662 460.27 347.097 463.193 351.253C466.106 355.396 469.539 358.4 473.787 358.495C475.871 358.542 477.392 357.986 478.276 356.782C479.144 355.601 479.297 353.93 478.981 351.984C478.349 348.086 475.765 342.65 472.075 336.465C464.678 324.065 452.674 308.391 442.249 295.441C437.057 288.992 434.382 283.951 433.412 280.213C432.442 276.476 433.193 274.15 434.681 272.929C436.199 271.683 438.665 271.428 441.456 272.255C444.228 273.075 447.224 274.942 449.686 277.772L449.686 277.772C455.235 284.149 460.894 293.496 466.609 304.1C470.612 311.528 474.632 319.551 478.652 327.577C480.369 331.004 482.087 334.432 483.803 337.815C489.534 349.108 495.255 359.892 500.903 368.397C503.727 372.65 506.541 376.345 509.338 379.253C512.132 382.158 514.931 384.303 517.731 385.421C523.205 387.607 527.449 387.696 530.411 386.077C533.39 384.448 534.909 381.183 535.138 377.053C535.594 368.812 530.963 356.746 521.76 345.507C503.438 323.13 457.084 265.01 433.722 231.105C410.963 198.053 392.314 179.151 379.337 168.505C372.848 163.183 367.778 159.924 364.321 157.994C362.593 157.029 361.268 156.395 360.371 156.002C359.923 155.806 359.581 155.669 359.35 155.581C359.235 155.537 359.146 155.505 359.086 155.484C359.056 155.473 359.033 155.465 359.017 155.46L358.998 155.454L358.993 155.452L358.991 155.451C358.99 155.451 358.99 155.451 358.835 155.926Z" fill="#E0B9D4" stroke="#2B2B2B"/>
        <mask id="mask4_3029_19816" style="mask-type:luminance" maskUnits="userSpaceOnUse" x="330" y="155" width="205" height="263">
            <path d="M358.835 155.926L332.043 169.321C332.043 169.321 318.746 189.106 365.218 253.22C411.689 317.335 431.834 373.383 465.195 412.064C474.503 422.854 492.121 420.236 467.801 379.681C443.482 339.127 429.853 324.297 441.368 318.863C452.882 313.428 457.802 357.637 473.798 357.996C489.794 358.354 462.709 321.653 441.86 295.755C421.01 269.857 439.985 265.857 450.064 277.444C472.415 303.13 496.256 376.306 517.916 384.957C539.576 393.607 539.696 368.201 521.373 345.824C503.051 323.447 456.685 265.312 433.31 231.388C387.835 165.348 358.835 155.926 358.835 155.926Z" fill="white"/>
        </mask>
        <g mask="url(#mask4_3029_19816)">
            <path d="M323.96 225.502C323.96 225.502 347.056 200.188 370.152 218.061C393.248 235.933 399.126 299.21 404.75 345.372C410.374 391.534 456.062 451.184 487.109 424.289C503.876 409.765 444.64 331.965 444.64 331.965C444.64 331.965 398.687 256.024 432.473 216.559C466.26 177.094 379.087 165.188 379.087 165.188L306.82 201.677L323.96 225.502Z" fill="#D68DBF"/>
            <path d="M450.852 245.527C450.852 245.527 448.95 276.049 457.513 296.898C466.076 317.747 482.843 345.665 482.843 345.665C482.843 345.665 471.302 300.991 501.472 303.595C531.642 306.199 450.852 245.527 450.852 245.527Z" fill="#D68DBF"/>
        </g>
        <path d="M290.449 161.24L290.44 161.253L290.433 161.266L290.863 161.521C290.433 161.266 290.432 161.266 290.432 161.267L290.432 161.268L290.429 161.272L290.421 161.287L290.387 161.345C290.357 161.396 290.313 161.472 290.256 161.57C290.143 161.767 289.978 162.057 289.771 162.428C289.359 163.169 288.779 164.236 288.112 165.538C286.778 168.141 285.088 171.692 283.673 175.476C282.26 179.253 281.109 183.293 280.873 186.865C280.637 190.423 281.303 193.646 283.683 195.617L283.683 195.617C286.103 197.621 289.65 198.329 293.899 198.12C298.159 197.911 303.206 196.777 308.714 195.002C319.732 191.452 332.688 185.305 345.051 178.698C357.42 172.088 369.215 165.008 377.917 159.581C382.269 156.867 385.848 154.566 388.339 152.944C389.585 152.132 390.559 151.49 391.221 151.051C391.553 150.832 391.806 150.663 391.977 150.549L392.171 150.419L392.22 150.386L392.229 150.38L392.232 150.378L392.246 150.369L392.313 150.327C392.371 150.29 392.456 150.235 392.565 150.163C392.783 150.02 393.098 149.809 393.485 149.538C394.26 148.997 395.329 148.214 396.509 147.247C398.859 145.32 401.681 142.632 403.464 139.641C405.25 136.646 406.047 133.245 404.128 130.012C402.238 126.827 397.792 123.956 389.519 121.758L389.519 121.758C377.313 118.519 358.82 119.139 340.262 125.176C321.694 131.216 303.004 142.697 290.449 161.24Z" fill="#C3ECF9" stroke="#2B2B2B"/>
        <mask id="mask5_3029_19816" style="mask-type:luminance" maskUnits="userSpaceOnUse" x="281" y="120" width="124" height="78">
            <path d="M290.863 161.521C290.863 161.521 275.226 187.964 284.002 195.232C302.232 210.327 391.957 149.96 391.957 149.96C391.957 149.96 422.353 130.998 389.391 122.242C365.204 115.824 315.821 124.66 290.863 161.521Z" fill="white"/>
        </mask>
        <g mask="url(#mask5_3029_19816)">
            <path d="M303.839 130.945C301.605 133.178 282.83 174.596 306.817 162.212C321.723 154.518 324.449 144.592 324.449 144.592C324.449 144.592 354.605 142.399 359.711 128.713C364.817 115.026 326.19 120.328 326.19 120.328L303.839 130.945Z" fill="#E0F6FF"/>
        </g>
        <path d="M325.936 170.177C326.618 171.443 326.691 172.689 326.155 173.915C325.613 175.129 324.615 176.127 323.161 176.91C322.096 177.484 321.104 177.849 320.185 178.004C319.26 178.147 318.305 178.071 317.322 177.776L318.102 175.173C319.259 175.52 320.533 175.319 321.924 174.569C322.701 174.151 323.212 173.69 323.458 173.185C323.716 172.674 323.7 172.149 323.41 171.611C323.16 171.147 322.823 170.851 322.399 170.724C322.04 170.627 321.557 170.693 320.953 170.921L319.224 171.537C318.008 171.982 316.944 172.078 316.032 171.826C315.056 171.544 314.263 170.838 313.656 169.711C313.001 168.495 312.894 167.291 313.336 166.1C313.77 164.896 314.702 163.909 316.13 163.139C317.935 162.167 319.656 161.911 321.294 162.37L320.521 164.897C319.564 164.62 318.484 164.806 317.28 165.454C316.616 165.812 316.197 166.248 316.021 166.763C315.839 167.265 315.88 167.761 316.143 168.25C316.359 168.651 316.656 168.903 317.035 169.006C317.465 169.114 317.964 169.063 318.531 168.855L320.26 168.239C321.488 167.787 322.529 167.679 323.383 167.914C324.417 168.182 325.268 168.936 325.936 170.177ZM335.567 163.752C336.073 164.692 336.403 165.5 336.558 166.177C336.718 166.835 336.703 167.497 336.513 168.165C336.168 169.386 335.369 170.334 334.116 171.009C332.876 171.677 331.651 171.82 330.442 171.436C329.773 171.214 329.201 170.859 328.728 170.371C328.26 169.863 327.777 169.145 327.277 168.218C326.778 167.29 326.448 166.498 326.288 165.841C326.14 165.176 326.158 164.504 326.341 163.823C326.686 162.603 327.479 161.658 328.719 160.99C329.997 160.301 331.228 160.156 332.412 160.553C333.081 160.774 333.646 161.133 334.107 161.628C334.581 162.117 335.067 162.825 335.567 163.752ZM333.123 165.069C332.468 163.853 331.855 163.165 331.283 163.004C330.84 162.871 330.38 162.933 329.904 163.189C329.44 163.439 329.142 163.786 329.009 164.229C328.829 164.795 329.066 165.686 329.721 166.901C330.382 168.129 330.999 168.824 331.571 168.985C332.014 169.118 332.468 169.059 332.932 168.81C333.408 168.553 333.712 168.203 333.845 167.76C334.025 167.194 333.785 166.297 333.123 165.069ZM344.694 165.165L343.303 165.914C342.363 166.421 341.501 166.53 340.715 166.242C339.942 165.947 339.349 165.417 338.937 164.653L333.236 154.07L335.68 152.754L341.3 163.186C341.617 163.775 342.064 163.914 342.64 163.604L343.58 163.097L344.694 165.165ZM354.059 160.12L351.672 161.406L351.216 160.561C351.06 161.081 350.841 161.515 350.558 161.861C350.282 162.188 349.868 162.5 349.316 162.797C348.226 163.384 347.237 163.545 346.35 163.279C345.508 163.005 344.843 162.417 344.357 161.515C343.912 160.688 343.836 159.856 344.128 159.019C344.415 158.169 345.109 157.448 346.212 156.854L348.486 155.628L348.223 155.14C347.933 154.601 347.579 154.29 347.163 154.207C346.74 154.112 346.209 154.236 345.569 154.581C344.805 154.992 344.33 155.612 344.145 156.439L341.784 155.747C341.976 154.964 342.276 154.334 342.681 153.857C343.1 153.373 343.722 152.908 344.55 152.462C347.332 150.964 349.344 151.367 350.586 153.673L354.059 160.12ZM349.671 157.828L349.388 157.301L347.527 158.304C346.562 158.824 346.282 159.46 346.687 160.211C347.085 160.951 347.779 161.054 348.769 160.521C349.408 160.176 349.806 159.76 349.963 159.271C350.099 158.923 350.002 158.442 349.671 157.828ZM364.833 154.316L362.389 155.633L359.2 149.712C358.869 149.098 358.463 148.734 357.982 148.622C357.513 148.502 357.06 148.561 356.621 148.797C356.17 149.04 355.859 149.393 355.689 149.857C355.531 150.314 355.617 150.849 355.948 151.464L359.138 157.385L356.694 158.701L351.418 148.908L353.806 147.622L354.292 148.524C354.566 147.503 355.198 146.726 356.188 146.193C357.153 145.673 358.079 145.546 358.966 145.812C359.988 146.118 360.82 146.867 361.461 148.057L364.833 154.316ZM374.875 148.907L372.488 150.193L372.032 149.347C371.876 149.868 371.657 150.301 371.375 150.647C371.098 150.974 370.684 151.286 370.133 151.583C369.042 152.17 368.054 152.331 367.167 152.065C366.324 151.791 365.66 151.203 365.174 150.301C364.728 149.474 364.652 148.642 364.945 147.805C365.231 146.956 365.926 146.234 367.028 145.64L369.303 144.415L369.04 143.926C368.749 143.387 368.396 143.076 367.979 142.994C367.556 142.898 367.025 143.023 366.386 143.367C365.621 143.779 365.147 144.398 364.962 145.225L362.6 144.533C362.793 143.75 363.092 143.12 363.498 142.643C363.916 142.159 364.539 141.694 365.366 141.249C368.148 139.75 370.16 140.154 371.402 142.459L374.875 148.907ZM370.488 146.614L370.204 146.088L368.343 147.09C367.378 147.61 367.098 148.246 367.503 148.998C367.902 149.737 368.596 149.84 369.586 149.307C370.225 148.963 370.623 148.546 370.78 148.057C370.916 147.709 370.818 147.228 370.488 146.614Z" fill="#5DCBF5"/>
    </g>
    <g clip-path="url(#clip0_3029_19816)">
        <path d="M341.676 318.655C341.687 318.67 341.699 318.684 341.711 318.699C341.957 319.015 342.32 319.478 342.787 320.068C343.72 321.248 345.067 322.936 346.722 324.971C350.033 329.041 354.581 334.498 359.527 340.046C364.471 345.592 369.821 351.237 374.735 355.679C377.191 357.9 379.546 359.827 381.693 361.292C383.832 362.751 385.8 363.777 387.479 364.157C390.748 364.896 393.703 364.529 396.016 363.258C398.333 361.985 399.968 359.825 400.617 357.06C401.912 351.543 399.282 343.732 390.672 335.615C382.156 327.588 370.554 313.194 359.736 298.926C350.078 286.187 341.065 273.575 335.462 265.735C334.793 264.799 334.173 263.93 333.606 263.138C328.295 255.72 324.668 249.782 322.753 244.135C320.845 238.509 320.631 233.152 322.194 226.88L322.194 226.88C322.612 225.2 322.457 223.149 321.91 220.883C321.361 218.608 320.406 216.072 319.178 213.4C316.722 208.056 313.15 202.114 309.462 196.544C302.27 185.683 294.601 176.182 293.797 175.186C293.776 175.16 293.76 175.14 293.748 175.126L293.745 175.122C281.965 160.779 270.007 148.067 259.179 139.11C253.765 134.632 248.621 131.081 243.912 128.736C239.209 126.394 234.896 125.231 231.161 125.591L341.676 318.655ZM341.676 318.655C341.613 318.713 341.544 318.776 341.468 318.843C341.07 319.197 340.489 319.68 339.752 320.2C338.282 321.238 336.175 322.437 333.65 323.051C331.117 323.667 328.166 323.693 325.032 322.382C321.903 321.074 318.633 318.449 315.428 313.834L315.422 313.826L315.417 313.817C312.374 309.022 309.351 304.057 306.339 298.984L306.769 298.729L306.339 298.984C305.425 297.444 304.192 295.241 302.698 292.571C297.643 283.536 289.591 269.147 280.732 256.928C274.992 249.01 268.949 242.058 263.205 238.075C260.335 236.085 257.576 234.862 254.993 234.604C252.595 234.364 250.32 234.952 248.206 236.588L247.793 236.94C245.316 239.05 243.968 241.216 243.496 243.454C243.025 245.695 243.418 248.074 244.548 250.633C246.821 255.78 252.001 261.511 258.668 268.023C261.209 270.504 263.961 273.094 266.837 275.801C278.989 287.238 293.355 300.759 303.404 317.016C309.626 327.081 312.475 335.794 313.012 342.587C313.546 349.357 311.783 354.316 308.643 356.703C305.455 359.127 301.061 358.756 296.719 355.327C292.384 351.902 288.016 345.388 284.674 335.286C278.054 315.281 267.608 300.81 254.816 287.289C248.416 280.524 241.433 274.001 234.043 267.136C233.689 266.807 233.333 266.477 232.977 266.146C225.908 259.581 218.483 252.686 210.873 244.97L210.873 244.97C194.807 228.678 187.306 207.225 183.816 189.882C182.071 181.205 181.326 173.545 181.019 168.053C180.865 165.307 180.82 163.101 180.813 161.581C180.81 160.821 180.817 160.233 180.824 159.833C180.828 159.633 180.831 159.481 180.834 159.378C180.836 159.326 180.837 159.287 180.838 159.261L180.839 159.231L180.839 159.223L180.839 159.221C180.839 159.22 180.839 159.22 181.339 159.239M341.676 318.655L231.161 125.591C225.885 126.099 220.109 128.458 214.437 131.673C208.759 134.893 203.149 138.993 198.196 143.023C193.242 147.053 188.938 151.02 185.873 153.98C184.34 155.459 183.117 156.688 182.276 157.547C181.855 157.976 181.53 158.313 181.31 158.543C181.2 158.658 181.117 158.746 181.06 158.806L180.996 158.874L180.98 158.891L180.976 158.896L180.974 158.897C180.974 158.897 180.974 158.897 181.339 159.239M181.339 159.239L180.839 159.22L180.847 159.034L180.974 158.897L181.339 159.239ZM244.022 213.007L244.022 213.007C241.774 209.723 240.706 206.112 240.776 202.943C240.846 199.772 242.049 197.087 244.291 195.552C246.534 194.016 249.471 193.866 252.451 194.948C255.429 196.03 258.409 198.333 260.656 201.621C262.904 204.91 263.972 208.521 263.902 211.689C263.832 214.858 262.63 217.541 260.387 219.077C258.144 220.612 255.207 220.762 252.227 219.68C249.249 218.599 246.269 216.295 244.022 213.007Z" fill="#E0B9D4" stroke="#2B2B2B"/>
        <mask id="mask6_3029_19816" style="mask-type:luminance" maskUnits="userSpaceOnUse" x="181" y="126" width="220" height="239">
            <path d="M247.449 236.559C266.159 220.629 298.799 285.299 306.769 298.729C309.779 303.799 312.799 308.759 315.839 313.549C328.499 331.779 341.729 317.909 341.729 317.909C341.729 317.909 374.899 360.799 387.589 363.669C400.279 366.539 407.429 352.099 390.329 335.979C373.229 319.859 343.829 278.279 333.199 263.429C322.569 248.579 318.539 239.479 321.709 226.759C324.829 214.219 294.269 176.569 293.359 175.439C269.819 146.779 245.619 124.699 231.209 126.089C210.509 128.079 181.339 159.239 181.339 159.239C181.339 159.239 179.289 212.229 211.229 244.619C243.169 276.999 271.849 294.939 285.149 335.129C298.449 375.329 327.749 357.349 302.979 317.279C278.209 277.209 227.159 253.859 247.469 236.559H247.449ZM244.009 195.139C248.829 191.839 256.469 194.609 261.069 201.339C265.669 208.069 265.489 216.189 260.669 219.489C255.849 222.789 248.209 220.019 243.609 213.289C239.009 206.569 239.189 198.439 244.009 195.139Z" fill="white"/>
        </mask>
        <g mask="url(#mask6_3029_19816)">
            <path d="M296.6 163.97C296.6 163.97 283.11 179.91 288.7 207.58C294.3 235.25 262.32 211.09 252.97 212.19C243.62 213.29 211.78 209.39 218.86 263.91C225.94 318.43 164.9 212.06 164.9 212.06L163.23 163.59L207.61 118.67L282.3 100.25L305.93 147.23L296.6 163.98V163.97Z" fill="#D68DBF"/>
            <path d="M273.359 246.829C273.359 246.829 295.809 266.069 310.029 257.559C324.249 249.049 328.289 205.179 328.289 205.179C328.289 205.179 355.399 247.649 356.989 249.469C358.579 251.289 367.239 276.539 367.239 276.539C367.239 276.539 322.279 284.369 325.389 334.669C328.499 384.969 315.719 327.809 315.719 327.809L275.979 266.009L273.369 246.829" fill="#D68DBF"/>
        </g>
        <path d="M206.423 147.99L206.429 147.984L206.454 147.968C206.488 147.946 206.539 147.913 206.608 147.868C206.744 147.78 206.95 147.648 207.222 147.475C207.768 147.128 208.583 146.614 209.661 145.948C211.818 144.616 215.028 142.673 219.234 140.236C227.647 135.363 240.047 128.51 255.992 120.6C272.098 112.61 278.524 99.8172 276.368 87.5795C274.218 75.3735 263.562 63.9132 245.917 58.4747C210.707 47.6122 155.256 57.786 128.944 104.367C115.805 127.627 115.397 145.936 120.643 158.853C125.88 171.75 136.731 179.201 145.966 180.765C150.654 181.56 156.793 179.842 163.287 176.916C169.805 173.979 176.775 169.779 183.163 165.494C189.554 161.207 195.376 156.825 199.599 153.516C201.711 151.861 203.423 150.473 204.609 149.499C205.201 149.012 205.662 148.629 205.975 148.367C206.132 148.236 206.251 148.135 206.331 148.067L206.423 147.99Z" fill="#C3ECF9" stroke="#2B2B2B"/>
        <mask id="mask7_3029_19816" style="mask-type:luminance" maskUnits="userSpaceOnUse" x="118" y="54" width="159" height="127">
            <path d="M206.13 147.582C206.13 147.582 164.17 183.342 146.05 180.272C127.93 177.202 103.21 150.942 129.38 104.612C155.55 58.2825 210.73 48.1425 245.77 58.9525C280.81 69.7525 287.68 104.322 255.77 120.152C223.86 135.982 206.13 147.582 206.13 147.582Z" fill="white"/>
        </mask>
        <g mask="url(#mask7_3029_19816)">
            <path d="M127.91 80.9821C127.91 80.9821 119.38 126.482 133.64 125.422C147.9 124.362 158.95 99.9621 158.95 99.9621C158.95 99.9621 166.29 108.482 186.2 95.7721C206.11 83.0621 197.31 74.0621 197.31 74.0621C197.31 74.0621 247.25 59.5121 211.66 46.5221C176.07 33.5421 127.91 80.9821 127.91 80.9821Z" fill="#E0F6FF"/>
        </g>
        <path d="M168.055 140.184L159.63 145.595L151.415 132.804L159.841 127.393L161.271 129.62L155.343 133.428L157.269 136.428L162.318 133.186L163.748 135.414L158.7 138.656L160.696 141.764L166.625 137.956L168.055 140.184ZM174.531 136.025L173.256 136.844C172.369 137.414 171.524 137.585 170.718 137.358C169.924 137.123 169.293 136.64 168.824 135.91L165.847 131.275L164.859 131.909L163.717 130.131L164.705 129.496L162.928 126.729L165.264 125.229L167.041 127.996L168.693 126.935L169.836 128.713L168.183 129.775L171.067 134.266C171.429 134.829 171.879 134.937 172.418 134.591L173.262 134.049L174.531 136.025ZM184.422 129.673L182.087 131.173L178.453 125.514C178.076 124.927 177.643 124.596 177.155 124.52C176.678 124.437 176.231 124.53 175.812 124.799C175.38 125.076 175.098 125.452 174.963 125.928C174.841 126.396 174.968 126.923 175.345 127.51L178.979 133.169L176.643 134.669L168.429 121.877L170.764 120.378L173.522 124.671C173.693 123.648 174.246 122.836 175.18 122.236C176.102 121.644 177.016 121.446 177.921 121.643C178.963 121.87 179.85 122.553 180.58 123.691L184.422 129.673ZM192.093 119.165L186.236 122.926C186.636 123.549 187.139 123.936 187.744 124.089C188.35 124.241 188.976 124.11 189.623 123.695C190.102 123.387 190.449 123.071 190.663 122.747C190.883 122.403 191.054 121.972 191.177 121.453L193.485 121.925C193.313 122.763 193.034 123.475 192.649 124.06C192.268 124.626 191.676 125.167 190.874 125.682C190.275 126.067 189.684 126.345 189.1 126.517C188.521 126.669 187.911 126.706 187.268 126.627C186.626 126.549 185.978 126.264 185.323 125.771C184.668 125.278 184.048 124.576 183.464 123.666C182.502 122.169 182.123 120.763 182.328 119.448C182.524 118.12 183.239 117.061 184.473 116.268C185.754 115.445 187.024 115.222 188.281 115.599C189.53 115.964 190.589 116.823 191.458 118.177L192.093 119.165ZM188.767 119.043C188.493 118.643 188.206 118.354 187.905 118.175C187.202 117.713 186.473 117.724 185.719 118.209C184.964 118.693 184.651 119.351 184.779 120.182C184.816 120.531 184.96 120.912 185.209 121.327L188.767 119.043ZM198.114 108.751L197.496 111.66C196.886 111.527 196.354 111.607 195.899 111.899C195.503 112.153 195.246 112.53 195.127 113.029C195.02 113.521 195.143 114.042 195.497 114.593L199.12 120.234L196.784 121.734L190.773 112.374L193.055 110.909L193.632 111.807C193.687 111.366 193.862 110.915 194.158 110.454C194.467 109.986 194.86 109.597 195.339 109.29C196.225 108.721 197.151 108.541 198.114 108.751ZM209.567 107.943L203.71 111.704C204.11 112.327 204.613 112.714 205.218 112.867C205.824 113.019 206.45 112.888 207.097 112.473C207.576 112.165 207.923 111.849 208.138 111.525C208.357 111.181 208.528 110.75 208.651 110.231L210.959 110.703C210.787 111.541 210.508 112.253 210.123 112.838C209.742 113.404 209.15 113.945 208.348 114.46C207.749 114.845 207.158 115.123 206.575 115.295C205.996 115.447 205.385 115.484 204.743 115.405C204.1 115.327 203.452 115.042 202.797 114.549C202.142 114.056 201.522 113.354 200.938 112.444C199.976 110.947 199.598 109.541 199.802 108.226C199.998 106.898 200.713 105.839 201.947 105.046C203.229 104.223 204.498 104 205.755 104.377C207.004 104.742 208.063 105.601 208.933 106.955L209.567 107.943ZM206.241 107.821C205.967 107.421 205.68 107.132 205.379 106.953C204.676 106.491 203.948 106.502 203.193 106.987C202.438 107.471 202.125 108.129 202.253 108.96C202.291 109.309 202.434 109.69 202.684 110.105L206.241 107.821ZM221.93 105.586L219.648 107.051L219.094 106.189C218.899 107.228 218.328 108.051 217.382 108.659C216.46 109.251 215.546 109.449 214.641 109.251C213.599 109.024 212.712 108.342 211.982 107.204L208.14 101.222L210.475 99.7217L214.11 105.381C214.486 105.968 214.913 106.303 215.389 106.386C215.878 106.461 216.331 106.364 216.751 106.095C217.182 105.818 217.459 105.446 217.581 104.978C217.716 104.503 217.594 103.972 217.218 103.385L213.583 97.7257L215.919 96.2258L221.93 105.586ZM237.78 95.407L235.444 96.9069L231.81 91.2477C231.433 90.6609 231 90.3297 230.512 90.2542C230.036 90.171 229.588 90.264 229.169 90.5332C228.75 90.8024 228.473 91.1748 228.338 91.6502C228.196 92.1137 228.306 92.6269 228.667 93.1898L232.336 98.9028L230.001 100.403L226.366 94.7436C225.989 94.1567 225.557 93.8255 225.069 93.75C224.592 93.6669 224.144 93.7599 223.725 94.0291C223.294 94.306 223.011 94.6822 222.877 95.1576C222.754 95.6254 222.881 96.1527 223.258 96.7396L226.893 102.399L224.557 103.899L218.546 94.5386L220.828 93.0733L221.382 93.9356C221.589 92.8889 222.16 92.0656 223.094 91.4656C224.172 90.7734 225.252 90.6379 226.335 91.0592C226.582 89.7841 227.262 88.7889 228.376 88.0736C229.358 87.4429 230.301 87.2261 231.206 87.4232C232.327 87.6675 233.238 88.3346 233.938 89.4245L237.78 95.407Z" fill="#5DCBF5"/>
    </g>
    <path d="M524.842 265.18L524.816 265.257V265.338L524.816 291.037L524.816 291.045L525.316 291.037C524.816 291.045 524.816 291.045 524.816 291.045L524.816 291.047L524.817 291.05L524.817 291.063L524.818 291.11C524.819 291.151 524.822 291.21 524.826 291.289C524.834 291.445 524.848 291.676 524.875 291.981C524.928 292.591 525.029 293.497 525.222 294.691C525.608 297.078 526.361 300.619 527.828 305.257C530.763 314.532 536.554 328.192 547.981 345.785C553.849 354.825 561.151 365.415 569.1 376.942C576.579 387.787 584.629 399.461 592.593 411.453C609.044 436.224 625.173 462.411 635.333 485.703C639.604 495.5 643.817 503.094 647.592 507.049C649.467 509.015 651.334 510.187 653.126 510.135C654.968 510.083 656.496 508.755 657.713 506.318C658.363 505.018 658.604 503.119 658.515 500.787C658.426 498.439 657.998 495.591 657.253 492.347C655.764 485.859 652.996 477.742 649.069 468.804C641.216 450.928 628.708 429.716 612.456 411.611L612.084 411.945L612.456 411.611C606.512 404.991 603.143 399.408 601.597 395.083C600.041 390.728 600.374 387.778 601.591 386.268C602.766 384.81 604.975 384.47 607.779 385.832C610.572 387.188 613.815 390.192 616.774 395.123L616.774 395.123C619.782 400.134 622.471 403.381 625.031 405.634C627.596 407.891 630.014 409.132 632.45 410.154C633.215 410.474 633.981 410.773 634.754 411.075C638.876 412.683 643.2 414.37 648.72 419.888C655.243 426.41 657.464 434.483 658.936 444.14C659.317 446.643 659.648 449.254 659.992 451.968C660.972 459.696 662.058 468.26 664.717 477.558C666.631 484.257 674.522 502.846 684.042 518.789C688.802 526.76 693.99 534.106 699.066 538.978C701.604 541.413 704.139 543.255 706.602 544.237C709.076 545.223 711.501 545.348 713.764 544.307L713.566 543.877L713.764 544.307C715.23 543.632 716.081 542.72 716.228 541.472C716.367 540.29 715.85 538.942 714.983 537.436C714.105 535.912 712.808 534.126 711.252 532.042C710.946 531.631 710.629 531.208 710.302 530.773C708.966 528.991 707.473 527 705.89 524.763C698.022 513.645 687.96 496.501 684.66 469.827C683.954 464.109 681.604 448.356 676.445 432.263C673.866 424.216 670.579 416.07 666.436 409.046C662.295 402.026 657.28 396.094 651.227 392.52C640.035 385.91 630.331 375.731 624.778 366.16C622.001 361.372 620.282 356.77 619.912 352.867C619.544 348.972 620.52 345.839 623.051 343.845C624.307 342.857 625.974 342.643 628.059 343.213C630.153 343.786 632.608 345.138 635.337 347.189C640.792 351.287 647.223 358.086 653.882 366.643C667.196 383.752 681.345 407.792 690.338 431.02C699.347 454.289 706.269 468.789 712.377 476.547C715.433 480.428 718.334 482.686 721.251 483.465C724.194 484.25 727.053 483.506 729.952 481.612C731.532 480.581 732.114 478.674 732.04 476.304C731.966 473.924 731.233 470.943 730.022 467.556C727.599 460.773 723.209 452.215 718.079 443.282C709.122 427.684 697.862 410.867 690.735 400.223C689.695 398.67 688.744 397.249 687.9 395.982L687.9 395.981C686.495 393.874 684.301 390.516 681.474 386.188C670.951 370.079 651.659 340.545 631.687 312.201C619.019 294.221 606.069 276.708 594.902 263.393C589.32 256.737 584.174 251.119 579.727 247.015C577.503 244.963 575.445 243.282 573.589 242.038C571.738 240.797 570.056 239.969 568.587 239.657L568.483 240.146L568.587 239.657C559.218 237.668 551.781 238.251 545.893 240.272C540.006 242.294 535.702 245.743 532.583 249.438C529.467 253.129 527.533 257.066 526.378 260.076C525.801 261.582 525.417 262.859 525.177 263.762C525.057 264.213 524.973 264.571 524.919 264.818C524.892 264.941 524.872 265.037 524.859 265.102C524.853 265.13 524.849 265.152 524.846 265.169L524.842 265.18Z" fill="#E0B9D4" stroke="#2B2B2B"/>
    <mask id="mask8_3029_19816" style="mask-type:luminance" maskUnits="userSpaceOnUse" x="525" y="238" width="207" height="307">
        <path d="M525.316 265.338V291.037C525.316 291.037 525.592 310.395 548.4 345.513C571.194 380.63 615.434 438.835 635.791 485.503C644.332 505.093 652.524 515.585 657.266 506.094C662.007 496.604 644.506 448.064 612.084 411.945C588.203 385.346 605.24 374.927 617.203 394.866C629.165 414.79 635.791 406.257 649.073 419.535C662.355 432.813 658.034 452.374 665.197 477.42C668.996 490.713 696.677 551.616 713.555 543.853C724.589 538.774 690.79 523.45 684.163 469.889C682.757 458.483 674.782 407.011 650.973 392.95C628.44 379.643 611.91 351.985 622.742 343.452C634.109 334.513 672.781 384.287 690.804 430.839C708.828 477.391 718.398 488.565 729.679 481.193C740.583 474.083 700.751 416.183 687.484 396.259C674.202 376.335 590.552 244.833 568.483 240.146C531.305 232.252 525.331 265.294 525.331 265.294L525.316 265.338Z" fill="white"/>
    </mask>
    <g mask="url(#mask8_3029_19816)">
        <path d="M622.336 280.879C622.336 280.879 560.19 308.929 576.024 400.408C591.858 491.887 519.967 382.11 519.967 382.11L470 278.441L512.673 235.72L610.809 200.719L622.336 280.879Z" fill="#D68DBF"/>
        <path d="M647.929 307.71C647.929 307.71 622.946 326.995 636.967 359.994C650.989 392.993 663.778 422.364 646.711 435.786L673.522 527.251C673.522 527.251 698.505 535.522 701.55 499.201C704.595 462.879 656.455 387.769 682.048 362.998C707.64 338.227 647.929 307.724 647.929 307.724V307.71Z" fill="#D68DBF"/>
    </g>
    <path d="M480.39 256.358L480.39 256.358L480.387 256.371L480.874 256.485C480.387 256.371 480.387 256.371 480.387 256.372L480.386 256.373L480.385 256.377L480.382 256.393L480.367 256.456C480.355 256.511 480.336 256.592 480.313 256.698C480.266 256.91 480.199 257.221 480.117 257.619C479.952 258.415 479.729 259.56 479.49 260.958C479.014 263.753 478.478 267.567 478.243 271.633C478.008 275.696 478.072 280.032 478.804 283.865C479.535 287.686 480.945 291.084 483.469 293.177L483.773 292.81L483.469 293.177C486.095 295.355 489.949 296.128 494.579 295.9C499.219 295.672 504.718 294.435 510.723 292.498C522.734 288.622 536.859 281.91 550.341 274.695C563.828 267.478 576.69 259.746 586.179 253.82C590.924 250.856 594.826 248.344 597.543 246.572C598.901 245.686 599.963 244.985 600.686 244.505C601.047 244.266 601.324 244.081 601.51 243.957L601.721 243.815L601.774 243.779L601.785 243.772L601.788 243.77L601.795 243.766C601.807 243.758 601.825 243.747 601.847 243.733C601.891 243.705 601.956 243.663 602.038 243.608C602.203 243.498 602.44 243.336 602.73 243.125C603.312 242.702 604.112 242.081 604.99 241.285C606.742 239.696 608.833 237.386 610.113 234.533C611.399 231.666 611.866 228.249 610.351 224.499C608.843 220.767 605.395 216.766 598.984 212.661C584.356 203.292 558.386 200.265 534.275 206.514C510.14 212.769 487.736 228.356 480.39 256.358Z" fill="#C3ECF9" stroke="#2B2B2B"/>
    <mask id="mask9_3029_19816" style="mask-type:luminance" maskUnits="userSpaceOnUse" x="478" y="203" width="133" height="93">
        <path d="M480.874 256.485C480.874 256.485 474.218 284.855 483.788 292.792C503.667 309.277 601.513 243.353 601.513 243.353C601.513 243.353 624.162 229.378 598.715 213.082C569.758 194.537 495.446 200.936 480.874 256.485Z" fill="white"/>
    </mask>
    <g mask="url(#mask9_3029_19816)">
        <path d="M478.61 235.72C476.174 238.158 477.624 264.118 503.782 250.594C520.037 242.192 522.415 227.347 522.415 227.347C522.415 227.347 555.895 228.958 561.463 214.011C567.031 199.064 550.457 194 550.457 194L478.61 235.72Z" fill="#E0F6FF"/>
    </g>
    <path d="M511.24 271.194C511.891 272.411 512.021 273.56 511.631 274.641C511.24 275.722 510.43 276.591 509.2 277.249L503.589 280.25L496.419 266.845L501.804 263.965C503.097 263.273 504.288 263.072 505.379 263.36C506.482 263.642 507.342 264.36 507.96 265.515C508.322 266.192 508.459 266.87 508.369 267.547C508.285 268.206 508.09 268.746 507.783 269.168C509.322 269.088 510.474 269.763 511.24 271.194ZM508.735 273.89C508.868 273.415 508.807 272.939 508.552 272.462C508.297 271.985 507.938 271.676 507.476 271.536C507.007 271.384 506.49 271.458 505.925 271.76L503.195 273.221L504.957 276.515L507.687 275.055C508.252 274.753 508.601 274.365 508.735 273.89ZM505.556 268.399C505.702 267.949 505.652 267.492 505.403 267.027C505.155 266.563 504.806 266.273 504.357 266.158C503.902 266.031 503.398 266.115 502.845 266.41L500.285 267.78L501.936 270.867L504.497 269.498C505.049 269.202 505.402 268.836 505.556 268.399ZM518.241 272.413L515.793 273.722L510.697 264.196L513.145 262.886L518.241 272.413ZM512.117 260.918L509.613 262.258L508.545 260.262L511.049 258.923L512.117 260.918ZM525.383 268.592L524.047 269.307C523.118 269.804 522.261 269.907 521.476 269.617C520.704 269.32 520.113 268.788 519.703 268.023L517.105 263.165L516.07 263.719L515.073 261.855L516.108 261.301L514.557 258.402L517.005 257.093L518.556 259.992L520.288 259.066L521.285 260.93L519.553 261.856L522.07 266.563C522.386 267.153 522.826 267.297 523.391 266.995L524.276 266.521L525.383 268.592ZM533.986 262.417C533.609 263.765 532.768 264.788 531.462 265.486C531.048 265.708 530.623 265.879 530.187 265.999C529.744 266.107 529.262 266.155 528.739 266.144C528.222 266.113 527.722 265.993 527.239 265.784C526.749 265.562 526.252 265.206 525.748 264.717C525.25 264.208 524.796 263.571 524.387 262.806C523.977 262.04 523.703 261.315 523.563 260.631C523.429 259.928 523.409 259.317 523.503 258.799C523.597 258.281 523.775 257.798 524.036 257.351C524.31 256.898 524.618 256.524 524.961 256.228C525.303 255.932 525.681 255.673 526.095 255.451C527.413 254.746 528.727 254.608 530.038 255.037L529.268 257.58C528.515 257.321 527.851 257.345 527.273 257.654C526.696 257.963 526.346 258.425 526.222 259.039C526.1 259.686 526.304 260.505 526.834 261.497C527.372 262.501 527.943 263.131 528.549 263.388C529.128 263.627 529.707 263.592 530.284 263.283C530.862 262.975 531.251 262.435 531.453 261.666L533.986 262.417ZM541.535 253.634C542.039 254.575 542.367 255.384 542.519 256.061C542.677 256.719 542.66 257.382 542.469 258.05C542.12 259.269 541.318 260.215 540.063 260.886C538.82 261.551 537.595 261.689 536.387 261.302C535.719 261.079 535.149 260.722 534.677 260.232C534.211 259.722 533.729 259.003 533.232 258.074C532.736 257.146 532.408 256.352 532.25 255.694C532.104 255.03 532.124 254.357 532.309 253.677C532.657 252.458 533.453 251.516 534.696 250.851C535.976 250.166 537.207 250.024 538.39 250.425C539.059 250.648 539.623 251.008 540.082 251.505C540.554 251.995 541.038 252.705 541.535 253.634ZM539.088 254.943C538.436 253.725 537.825 253.035 537.254 252.873C536.811 252.738 536.351 252.799 535.874 253.054C535.409 253.302 535.11 253.648 534.976 254.091C534.794 254.656 535.029 255.548 535.68 256.765C536.338 257.995 536.952 258.692 537.524 258.854C537.967 258.989 538.42 258.932 538.885 258.683C539.362 258.428 539.667 258.079 539.802 257.636C539.984 257.07 539.746 256.173 539.088 254.943ZM548.945 255.99L546.497 257.299L541.402 247.772L543.849 246.463L548.945 255.99ZM542.821 244.495L540.317 245.835L539.25 243.839L541.754 242.5L542.821 244.495ZM559.834 250.165L557.387 251.475L554.215 245.544C553.886 244.929 553.481 244.564 553 244.45C552.532 244.329 552.078 244.386 551.639 244.621C551.187 244.863 550.875 245.216 550.703 245.679C550.544 246.135 550.629 246.671 550.958 247.286L554.13 253.217L551.682 254.526L546.436 244.717L548.827 243.438L549.31 244.342C549.588 243.321 550.222 242.546 551.214 242.016C552.18 241.499 553.107 241.375 553.993 241.643C555.014 241.953 555.843 242.704 556.481 243.896L559.834 250.165ZM575.737 241.659L567.039 246.312L559.869 232.907L562.486 231.507L568.407 242.578L574.488 239.325L575.737 241.659ZM585.568 236.401L577.416 240.761L576.238 238.558L578.134 230.062C578.303 229.262 578.247 228.598 577.965 228.07C577.696 227.568 577.337 227.244 576.887 227.097C576.444 226.931 575.964 226.986 575.45 227.261C574.985 227.509 574.67 227.855 574.504 228.299C574.331 228.731 574.406 229.248 574.728 229.85L572.281 231.159C571.643 229.967 571.519 228.815 571.908 227.702C572.304 226.571 573.092 225.689 574.271 225.058C575.476 224.414 576.643 224.241 577.772 224.541C578.901 224.842 579.785 225.588 580.423 226.78C580.745 227.383 580.91 227.948 580.918 228.476C580.926 229.005 580.831 229.717 580.633 230.614L579.213 236.967L584.39 234.198L585.568 236.401ZM593.631 228.117C594.188 229.159 594.226 230.164 593.743 231.133C593.253 232.089 592.4 232.892 591.182 233.543C590.279 234.027 589.45 234.349 588.697 234.51C587.943 234.671 587.127 234.623 586.247 234.367L586.992 231.911C587.923 232.203 588.96 232.044 590.102 231.433C590.579 231.178 590.943 230.879 591.195 230.534C591.44 230.177 591.472 229.829 591.29 229.49C591.002 228.951 590.496 228.834 589.772 229.141L588.11 229.836C586.126 230.655 584.695 230.242 583.815 228.598C583.292 227.619 583.246 226.658 583.679 225.717C584.124 224.768 584.874 224.012 585.928 223.448C587.597 222.555 589.051 222.27 590.289 222.593L589.598 224.923C588.874 224.746 587.997 224.932 586.968 225.483C586.503 225.731 586.202 226.013 586.064 226.329C585.933 226.626 585.937 226.906 586.078 227.169C586.34 227.659 586.83 227.76 587.548 227.473L589.172 226.798C591.218 225.945 592.705 226.385 593.631 228.117Z" fill="#5DCBF5"/>
    <defs>
        <clipPath id="clip0_3029_19816">
            <rect width="291.42" height="330.04" fill="white" transform="translate(110 34.9996)"/>
        </clipPath>
    </defs>
</svg>
