<svg width="338" height="380" viewBox="0 0 338 380" fill="none" xmlns="http://www.w3.org/2000/svg">
<path d="M266.42 211.742L263.815 225.85C263.815 225.85 263.359 229.613 266.608 230.775C269.858 231.938 273.42 225.505 273.42 225.505C273.42 225.505 277.586 223.571 283.364 229.624C289.142 235.677 292.779 233.257 295.038 229.154C297.296 225.051 297.019 214.178 278.288 205.201C259.558 196.224 266.415 211.73 266.415 211.73L266.42 211.742Z" fill="#B18667" stroke="#2B2B2B" stroke-miterlimit="10"/>
<path d="M209.118 276.803C209.118 276.803 190.678 272.171 195.004 287.972C202.266 314.495 212.858 340.629 212.858 340.629C212.858 340.629 217.125 341.442 223.747 332.958C230.375 324.485 238.296 324.111 238.255 323.306C238.213 322.5 213.839 282.161 213.839 282.161L209.118 276.803Z" fill="#535B4C" stroke="#2B2B2B" stroke-miterlimit="10"/>
<path d="M149.751 281.813C149.751 281.813 137.994 276.741 132.453 288.685C126.9 300.633 142.977 324.505 143.181 357.261C143.181 357.261 144.994 361.823 157.347 355.8C169.7 349.778 174.784 354.155 177.383 350.907C179.976 347.646 162.142 307.985 162.142 307.985L149.751 281.813Z" fill="#535B4C" stroke="#2B2B2B" stroke-miterlimit="10"/>
<path d="M152.547 142.106C154.123 147.933 162.736 240.513 150.323 248.316C129.467 261.424 115.765 250.756 114.189 244.929C112.613 239.102 93.9221 154.693 93.9221 154.693C108.077 150.853 150.966 136.267 152.547 142.106Z" fill="#535B4C" stroke="#2B2B2B" stroke-miterlimit="10"/>
<path d="M145.17 140.792C143.589 134.957 130.833 133.338 116.678 137.175C102.524 141.012 92.3322 148.852 93.9137 154.686C95.4953 160.52 108.252 162.14 122.406 158.303C136.56 154.466 146.752 146.626 145.17 140.792Z" fill="#535B4C" stroke="#2B2B2B" stroke-miterlimit="10"/>
<path d="M86.3194 231.903C86.1495 232.528 84.9145 237.102 87.7857 241.523C90.6569 245.943 98.6775 254.59 96.081 257.141C93.6557 259.526 90.3328 259.02 86.0941 256.174C85.6763 255.894 85.1008 256.165 85.0635 256.667C84.786 260.109 83.5508 269.91 78.3808 269.315C72.1168 268.598 59.8323 256.587 74.1312 238.306C74.1312 238.306 75.9278 228.129 80.164 226.864C84.4003 225.599 86.3098 231.879 86.3098 231.879L86.3194 231.903Z" fill="#B18667" stroke="#2B2B2B" stroke-miterlimit="10"/>
<path d="M143.261 221.437L137.914 231.798C137.914 231.798 138.712 255.523 150.658 281.384C150.658 281.384 138.018 279.632 137.712 290.054C137.406 300.475 143.951 304.565 155.104 310.782C171.657 319.997 194.217 318.896 194.392 304.638C194.541 292.453 195.334 262.98 195.56 254.639C195.582 253.711 196.661 253.199 197.403 253.768L214.406 266.748C215.23 267.383 215.27 268.607 214.497 269.291L203.431 279.081C203.431 279.081 197.03 285.527 207.348 291.713C212.928 295.057 240.148 288.146 240.148 288.146C240.148 288.146 269.516 282.221 267.042 265.503C264.177 246.083 222.318 208.148 222.318 208.148L143.258 221.466L143.261 221.437Z" fill="#90A8AC" stroke="#2B2B2B" stroke-miterlimit="10"/>
<path d="M132.6 159.62L99.7057 169.789C99.7057 169.789 74.5284 175.457 71.4864 199.76C69.9767 211.747 68.1267 237.541 68.1267 237.541C68.1267 237.541 68.4781 245.653 77.7874 245.299C87.1087 244.941 91.7897 237.604 93.8325 230.116C95.1984 225.1 98.1295 215.252 99.9138 209.289C100.825 206.251 103.347 203.967 106.456 203.373L132.25 198.38C133.183 198.204 134.072 198.827 134.219 199.758L137.908 231.812C137.908 231.812 190.336 233.52 228.608 213.591L225.748 186.043C225.651 185.064 226.377 184.19 227.361 184.106L238.038 183.265C241.956 183.549 245.508 185.65 247.67 188.916L261.871 210.383C261.871 210.383 267.483 215.387 276.462 212.098C285.454 208.805 282.681 203.23 282.681 203.23L269.146 172.983C269.146 172.983 260.492 146.079 221.742 147.299C184.287 148.479 132.588 159.624 132.588 159.624L132.6 159.62Z" fill="white" stroke="#2B2B2B" stroke-miterlimit="10"/>
<path d="M133.562 167.951C133.562 167.951 155.958 206.748 214.541 182.373C273.119 157.986 211.014 131.467 211.014 131.467L133.567 167.963L133.562 167.951Z" fill="#D0D2D3"/>
<path d="M127.679 153.559C127.679 153.559 145.769 184.394 127.492 211.92C127.492 211.92 125.121 217.671 130.567 219.66C136.013 221.65 141.066 214.374 141.066 214.374C141.066 214.374 152.603 199.491 147.16 166.879C141.716 134.268 127.684 153.571 127.684 153.571L127.679 153.559Z" fill="#535B4C" stroke="#2B2B2B" stroke-miterlimit="10"/>
<path d="M215 156.221C215 156.221 225.15 175.771 227.099 199.095C227.099 199.095 239.76 176.727 225.894 151.893L214.988 156.226L215 156.221Z" fill="#535B4C" stroke="#2B2B2B" stroke-miterlimit="10"/>
<path d="M206.121 175.483C246.549 159.422 266.302 113.629 250.241 73.2009C234.18 32.7733 188.386 13.0203 147.959 29.0816C107.531 45.1428 87.778 90.9361 103.839 131.364C119.9 171.791 165.694 191.544 206.121 175.483Z" fill="#A9DFF2" stroke="#2B2B2B" stroke-miterlimit="10"/>
<path d="M223.586 91.277C223.586 91.277 237.506 81.4817 241.982 96.9581C246.459 112.435 239.385 129.782 232.795 132.734C226.204 135.687 223.586 91.277 223.586 91.277Z" fill="#B18667" stroke="#2B2B2B" stroke-miterlimit="10"/>
<path d="M221.777 99.7861C221.777 99.7861 234.797 89.5821 238.237 100.592C242.334 113.71 234.707 122.051 234.707 122.051L221.7 110.396L221.777 99.7861Z" fill="#FDC389"/>
<path d="M135.06 150.058C135.06 150.058 149.236 189.179 201.594 173.131C253.951 157.083 238.753 119.706 234.894 115.148C231.029 110.579 228.452 83.4627 215.234 78.5394C202.017 73.6161 134.955 98.2236 134.955 98.2236C134.955 98.2236 131.253 100.447 131.741 107.71C131.741 107.71 108.825 100.897 109.778 124.589C110.745 148.846 135.06 150.058 135.06 150.058Z" fill="#B18667"/>
<mask id="mask0_3020_25361" style="mask-type:luminance" maskUnits="userSpaceOnUse" x="109" y="77" width="131" height="100">
<path d="M135.056 150.061C135.056 150.061 149.232 189.182 201.59 173.134C253.947 157.086 238.749 119.709 234.89 115.151C231.026 110.582 228.448 83.4656 215.231 78.5423C202.013 73.619 134.951 98.2266 134.951 98.2266C134.951 98.2266 131.249 100.45 131.737 107.713C131.737 107.713 108.821 100.9 109.774 124.592C110.741 148.849 135.056 150.061 135.056 150.061Z" fill="white"/>
</mask>
<g mask="url(#mask0_3020_25361)">
<path d="M154.801 184.211C154.801 184.211 129.049 151.598 155.129 139.746C155.129 139.746 137.614 113.867 160.667 101.377C163.313 99.9357 183.264 97.3198 196.412 110.452C196.412 110.452 217.957 70.0314 231.915 100.71C247.814 135.677 244.739 153.303 244.739 153.303L196.2 183.346L154.813 184.206L154.801 184.211Z" fill="#FDC389"/>
<path d="M133.985 142.766C133.985 142.766 129.195 127.971 132.095 115.976C132.095 115.976 115.138 110.726 117.322 126.012C119.507 141.298 134.002 142.773 134.002 142.773L133.985 142.766Z" fill="#FDC389"/>
</g>
<path d="M135.06 150.058C135.06 150.058 149.236 189.179 201.594 173.131C253.951 157.083 238.753 119.706 234.894 115.148C231.029 110.579 228.452 83.4627 215.234 78.5394C202.017 73.6161 134.955 98.2236 134.955 98.2236C134.955 98.2236 131.253 100.447 131.741 107.71C131.741 107.71 108.825 100.897 109.778 124.589C110.745 148.846 135.06 150.058 135.06 150.058Z" stroke="#2B2B2B" stroke-miterlimit="10"/>
<path d="M156.83 99.5267C156.83 99.5267 183.437 107.981 213.037 98.605C242.636 89.2288 226.071 78.193 226.071 78.193L225.422 72.5968L130.392 92.1623L132.426 100.86L156.823 99.5435L156.83 99.5267Z" fill="#3A3836" stroke="#2B2B2B" stroke-miterlimit="10"/>
<path d="M132.702 97.7253C132.702 97.7253 114.861 88.6733 122.007 72.2452C129.154 55.817 148.38 53.5169 168.611 51.2216C188.842 48.9263 207.751 34.041 222.428 52.5312C222.428 52.5312 231.473 64.3527 225.795 75.6683C225.795 75.6683 225.306 80.9635 199.672 87.3424C163.957 96.2352 132.714 97.7206 132.714 97.7206L132.702 97.7253Z" fill="white" stroke="#2B2B2B" stroke-miterlimit="10"/>
<path d="M169.179 131.706C169.406 134.557 171.833 136.352 174.586 135.704C177.34 135.057 179.391 132.221 179.159 129.358C178.928 126.495 176.505 124.712 173.752 125.36C170.999 126.008 168.948 128.843 169.179 131.706Z" fill="#231F20" stroke="#2B2B2B" stroke-width="2.25837" stroke-miterlimit="10"/>
<path d="M213.96 121.193C214.187 124.044 216.615 125.839 219.368 125.191C222.121 124.544 224.172 121.708 223.941 118.845C223.709 115.982 221.286 114.199 218.533 114.847C215.78 115.495 213.729 118.33 213.96 121.193Z" fill="#231F20" stroke="#2B2B2B" stroke-width="2.25837" stroke-miterlimit="10"/>
<path d="M191.448 131.755C191.642 134.173 195.305 135.324 199.637 134.3C203.969 133.276 207.311 130.498 207.117 128.081C206.923 125.663 203.26 124.512 198.928 125.536C194.597 126.56 191.254 129.337 191.448 131.755Z" fill="#231F20" stroke="#2B2B2B" stroke-width="2.25837" stroke-miterlimit="10"/>
<path d="M204.91 143.225C208.119 142.285 208.455 151.796 198.707 153.397C188.964 155.01 186.947 145.651 190.286 145.495C198.19 145.114 200.874 144.397 204.906 143.213L204.91 143.225Z" fill="#231F20"/>
<mask id="mask1_3020_25361" style="mask-type:luminance" maskUnits="userSpaceOnUse" x="188" y="143" width="19" height="11">
<path d="M204.902 143.225C208.111 142.285 208.447 151.796 198.699 153.397C188.957 155.01 186.939 145.651 190.278 145.495C198.182 145.114 200.866 144.397 204.898 143.213L204.902 143.225Z" fill="white"/>
</mask>
<g mask="url(#mask1_3020_25361)">
<path d="M188.786 153.448C188.786 153.448 190.759 150.839 196.243 150.082C201.726 149.325 204.738 153.118 204.738 153.118C204.738 153.118 194.81 161.034 188.786 153.448Z" fill="#F79F88"/>
</g>
<path d="M204.91 143.225C208.119 142.285 208.455 151.796 198.707 153.397C188.964 155.01 186.947 145.651 190.286 145.495C198.19 145.114 200.874 144.397 204.906 143.213L204.91 143.225Z" stroke="#2B2B2B" stroke-width="2.25837" stroke-miterlimit="10"/>
<path d="M76.8541 256.025C76.8541 256.025 74.4078 266.321 78.3767 269.33" stroke="#2B2B2B" stroke-miterlimit="10" stroke-linecap="round"/>
<path d="M71.973 254.915C71.973 254.915 69.9355 261.188 72.5717 266.316" stroke="#2B2B2B" stroke-miterlimit="10" stroke-linecap="round"/>
<path d="M129.64 230.65C130.146 233.431 132.573 235.436 135.402 235.399C146.397 235.254 170.984 238.03 192.543 231.639C220.175 223.449 229.691 214.177 229.691 214.177C229.691 214.177 230.981 209.358 227.603 204.01C227.603 204.01 210.768 215.172 190.63 219.842C174.099 223.663 148.099 223.051 134.955 223.855C131.501 224.071 129.013 227.247 129.64 230.65Z" fill="#535B4C" stroke="#2B2B2B" stroke-miterlimit="10"/>
<path d="M284.125 220.944C284.125 220.944 289.469 224.396 292.567 232.267" stroke="#2B2B2B" stroke-miterlimit="10" stroke-linecap="round"/>
<path d="M288.316 217.37C288.316 217.37 293.954 221.527 295.038 229.167" stroke="#2B2B2B" stroke-miterlimit="10" stroke-linecap="round"/>
<path d="M171.148 103.093C162.1 105.883 151.028 111.147 146.622 113.431L147.853 120.958C148.806 121.643 149.93 121.881 150.373 121.915C150.989 125.856 152.321 134.243 152.719 136.266C153.117 138.289 154.837 139.091 155.647 139.24C159.909 140.02 169.026 141.68 171.399 142.076C174.365 142.572 178.513 142.735 182.317 140.292C185.36 138.336 187.368 134.007 187.991 132.086L189.484 132.129C191.057 127.831 194.29 119.036 194.642 118.236C195.082 117.235 195.802 115.678 197.204 115.449C198.326 115.266 199.913 116.585 200.566 117.268L209.947 128.784L211.63 128.223C212.525 129.712 215.335 132.998 219.42 134.227C223.505 135.456 228.674 133.505 230.748 132.375L245.761 124.05L241.491 97.9245C237.827 96.9251 228.185 94.9979 218.927 95.2839C209.669 95.5699 199.106 97.0109 194.982 97.6956C190.807 98.3324 180.196 100.303 171.148 103.093Z" fill="url(#paint0_linear_3020_25361)"/>
<path d="M133.199 102.691L133.511 102.301L133.114 101.983L132.803 102.385L133.199 102.691ZM146.627 113.432L146.314 113.822L146.568 114.025L146.857 113.876L146.627 113.432ZM194.986 97.6967L195.062 98.1911L195.068 98.19L194.986 97.6967ZM218.931 95.285L218.916 94.7853L218.916 94.7853L218.931 95.285ZM240.918 97.7733L241.042 97.2889L241.042 97.2889L240.918 97.7733ZM245.19 124.37L244.947 123.933L244.947 123.933L245.19 124.37ZM230.753 132.377L230.992 132.816L230.995 132.814L230.753 132.377ZM219.424 134.228L219.568 133.749L219.568 133.749L219.424 134.228ZM212.05 128.848L212.455 128.554L212.455 128.554L212.05 128.848ZM210.923 128.461L210.765 127.987L210.923 128.461ZM210.564 128.581L210.722 129.055L210.722 129.055L210.564 128.581ZM209.543 128.284L209.155 128.6L209.155 128.6L209.543 128.284ZM200.57 117.269L200.958 116.953L200.945 116.937L200.931 116.923L200.57 117.269ZM194.646 118.237L195.104 118.438L195.104 118.438L194.646 118.237ZM189.719 131.5L189.25 131.328L189.25 131.328L189.719 131.5ZM188.815 132.111L188.829 131.611L188.829 131.611L188.815 132.111ZM188.696 132.107L188.682 132.607L188.682 132.607L188.696 132.107ZM187.762 132.746L188.229 132.925L188.229 132.925L187.762 132.746ZM182.321 140.293L182.591 140.713L182.591 140.713L182.321 140.293ZM171.403 142.077L171.321 142.57L171.321 142.57L171.403 142.077ZM155.651 139.241L155.741 138.749L155.741 138.749L155.651 139.241ZM152.723 136.267L152.233 136.364L152.233 136.364L152.723 136.267ZM150.492 122.647L150.986 122.57L150.986 122.57L150.492 122.647ZM149.65 121.783L149.523 122.266L149.523 122.266L149.65 121.783ZM147.857 120.959L148.149 120.553L148.149 120.553L147.857 120.959ZM131.759 107.744L131.262 107.796L131.283 107.999L131.44 108.129L131.759 107.744ZM132.886 103.082L146.314 113.822L146.939 113.041L133.511 102.301L132.886 103.082ZM146.857 113.876C151.252 111.597 162.294 106.349 171.3 103.572L171.005 102.617C161.915 105.419 150.812 110.699 146.397 112.988L146.857 113.876ZM171.3 103.572C180.316 100.792 190.901 98.8257 195.062 98.191L194.911 97.2024C190.722 97.8414 180.085 99.8169 171.005 102.617L171.3 103.572ZM195.068 98.19C199.18 97.5073 209.719 96.0699 218.946 95.7848L218.916 94.7853C209.627 95.0722 199.041 96.5167 194.904 97.2035L195.068 98.19ZM218.946 95.7848C227.691 95.5146 236.796 97.2352 240.794 98.2577L241.042 97.2889C236.989 96.2522 227.785 94.5112 218.916 94.7853L218.946 95.7848ZM241.099 98.5997L245.166 123.482L246.153 123.32L242.086 98.4384L241.099 98.5997ZM244.947 123.933L230.51 131.939L230.995 132.814L245.432 124.807L244.947 123.933ZM230.513 131.938C229.514 132.482 227.746 133.235 225.731 133.7C223.71 134.166 221.494 134.329 219.568 133.749L219.28 134.707C221.44 135.357 223.852 135.159 225.955 134.674C228.064 134.188 229.917 133.401 230.992 132.816L230.513 131.938ZM219.568 133.749C216.127 132.714 213.607 130.145 212.455 128.554L211.645 129.141C212.872 130.835 215.555 133.586 219.28 134.707L219.568 133.749ZM210.765 127.987L210.406 128.106L210.722 129.055L211.081 128.935L210.765 127.987ZM209.93 127.968L200.958 116.953L200.182 117.585L209.155 128.6L209.93 127.968ZM200.931 116.923C200.583 116.559 199.992 116.031 199.333 115.613C198.701 115.212 197.885 114.833 197.128 114.957L197.289 115.944C197.654 115.884 198.192 116.073 198.797 116.457C199.375 116.823 199.904 117.296 200.209 117.614L200.931 116.923ZM197.128 114.957C196.251 115.1 195.619 115.656 195.168 116.253C194.718 116.848 194.408 117.537 194.189 118.036L195.104 118.438C195.325 117.936 195.595 117.347 195.966 116.856C196.335 116.367 196.764 116.03 197.289 115.944L197.128 114.957ZM194.189 118.036C193.845 118.818 190.881 126.872 189.25 131.328L190.189 131.672C191.832 127.185 194.777 119.182 195.104 118.438L194.189 118.036ZM188.829 131.611L188.71 131.607L188.682 132.607L188.801 132.61L188.829 131.611ZM187.295 132.568C186.9 133.601 186.238 135.016 185.344 136.383C184.446 137.755 183.335 139.047 182.051 139.872L182.591 140.713C184.04 139.783 185.244 138.363 186.181 136.93C187.121 135.494 187.813 134.013 188.229 132.925L187.295 132.568ZM182.051 139.872C178.401 142.216 174.404 142.072 171.485 141.584L171.321 142.57C174.333 143.074 178.632 143.257 182.591 140.713L182.051 139.872ZM171.485 141.584C169.118 141.188 160.006 139.53 155.741 138.749L155.561 139.733C159.821 140.512 168.943 142.173 171.321 142.57L171.485 141.584ZM155.741 138.749C155.051 138.623 153.558 137.921 153.214 136.171L152.233 136.364C152.684 138.659 154.631 139.562 155.561 139.733L155.741 138.749ZM153.214 136.171C152.842 134.278 151.641 126.74 150.986 122.57L149.998 122.725C150.651 126.883 151.856 134.446 152.233 136.364L153.214 136.171ZM149.777 121.299C149.293 121.172 148.686 120.939 148.149 120.553L147.565 121.365C148.229 121.842 148.959 122.118 149.523 122.266L149.777 121.299ZM148.149 120.553C147.215 119.881 137.061 111.491 132.078 107.36L131.44 108.129C136.395 112.237 146.594 120.666 147.565 121.365L148.149 120.553ZM132.257 107.693C132.168 106.833 132.316 104.652 133.595 102.997L132.803 102.385C131.315 104.312 131.157 106.78 131.262 107.796L132.257 107.693ZM188.71 131.607C188.07 131.589 187.514 131.994 187.295 132.568L188.229 132.925C188.306 132.723 188.492 132.602 188.682 132.607L188.71 131.607ZM189.25 131.328C189.186 131.502 189.018 131.616 188.829 131.611L188.801 132.61C189.416 132.628 189.976 132.253 190.189 131.672L189.25 131.328ZM150.986 122.57C150.882 121.904 150.346 121.448 149.777 121.299L149.523 122.266C149.794 122.337 149.968 122.533 149.998 122.725L150.986 122.57ZM212.455 128.554C212.084 128.041 211.409 127.772 210.765 127.987L211.081 128.935C211.269 128.873 211.503 128.944 211.645 129.141L212.455 128.554ZM245.166 123.482C245.195 123.663 245.108 123.844 244.947 123.933L245.432 124.807C245.962 124.514 246.25 123.919 246.153 123.32L245.166 123.482ZM210.406 128.106C210.234 128.164 210.045 128.109 209.93 127.968L209.155 128.6C209.532 129.063 210.156 129.244 210.722 129.055L210.406 128.106ZM240.794 98.2577C240.95 98.2975 241.071 98.4274 241.099 98.5997L242.086 98.4384C241.996 97.8876 241.596 97.4306 241.042 97.2889L240.794 98.2577Z" fill="#2B2B2B"/>
<path d="M209.539 128.285C209.785 128.587 210.192 128.705 210.561 128.582C210.123 127.048 208.429 124.698 206.447 122.47C204.491 120.272 203.152 119.769 202.665 119.845L209.539 128.285Z" fill="#2B2B2B"/>
<path d="M189.715 131.501C190.843 128.422 192.595 123.655 193.686 120.737C193.033 121.131 191.674 122.615 190.606 125.059C189.473 127.652 189.152 129.908 189.288 131.998C189.481 131.892 189.636 131.719 189.715 131.501Z" fill="#2B2B2B"/>
<path d="M197.211 115.45C198.332 115.267 199.919 116.586 200.572 117.269L202.934 120.168L205.014 118.127C205.242 117.904 205.265 117.546 205.064 117.299C204.397 116.477 202.92 114.698 201.886 113.759C200.513 112.513 198.537 111.8 196.664 112.106C194.468 112.465 192.912 113.788 192.123 115.355C191.526 116.541 190.588 118.744 190.168 119.744C190.044 120.039 190.165 120.378 190.446 120.53L193.213 122.022C193.947 120.048 194.512 118.546 194.648 118.237C195.088 117.236 195.809 115.679 197.211 115.45Z" fill="#2B2B2B"/>
<path d="M241.592 98.5188C241.533 98.1573 241.273 97.8638 240.918 97.773C240.808 97.745 240.695 97.7165 240.578 97.6876L240.23 98.4159C240.12 98.6458 240.083 98.9038 240.124 99.1553L241.013 104.593C241.152 105.442 241.998 105.601 242.74 105.541L241.592 98.5188Z" fill="#2B2B2B"/>
<path d="M182.921 104.282L207.248 100.306C207.622 100.245 207.922 99.9644 208.008 99.5955L208.86 95.9457C202.946 96.5031 197.635 97.2556 194.984 97.6957C192.205 98.1196 186.574 99.1348 180.45 100.589L181.922 103.753C182.099 104.134 182.508 104.35 182.921 104.282Z" fill="#2B2B2B"/>
<path d="M146.627 113.432L133.199 102.691C131.816 104.482 131.663 106.806 131.759 107.744C136.728 111.864 146.904 120.274 147.857 120.959C149.13 120.751 150.919 120.305 151.844 119.69C152.441 119.295 152.507 118.318 152.356 117.394L151.83 114.176C151.541 112.407 150.827 111.657 150.506 111.504C148.942 112.255 147.616 112.919 146.627 113.432Z" fill="#2B2B2B"/>
<defs>
<linearGradient id="paint0_linear_3020_25361" x1="151.033" y1="125.676" x2="243.555" y2="110.554" gradientUnits="userSpaceOnUse">
<stop stop-color="#5A8CBD"/>
<stop offset="0.047618" stop-color="#59BBC6"/>
<stop offset="0.0983081" stop-color="#90E48F"/>
<stop offset="0.172039" stop-color="#FAE439"/>
<stop offset="0.28" stop-color="#F09719"/>
<stop offset="0.436777" stop-color="#C92411"/>
<stop offset="0.574635" stop-color="#C92411"/>
<stop offset="0.72" stop-color="#F09719"/>
<stop offset="0.83" stop-color="#FAE439"/>
<stop offset="0.9" stop-color="#90E48F"/>
<stop offset="0.95" stop-color="#59BBC6"/>
<stop offset="1" stop-color="#5A8CBD"/>
</linearGradient>
</defs>
</svg>
