<svg width="338" height="380" viewBox="0 0 338 380" fill="none" xmlns="http://www.w3.org/2000/svg">
<path d="M70.6702 211.742L73.2745 225.85C73.2745 225.85 73.7307 229.613 70.4815 230.775C67.2323 231.938 63.6694 225.505 63.6694 225.505C63.6694 225.505 59.5037 223.571 53.726 229.624C47.9483 235.677 44.3106 233.257 42.052 229.154C39.7935 225.051 40.0711 214.178 58.8016 205.201C77.5321 196.224 70.675 211.73 70.675 211.73L70.6702 211.742Z" fill="#B18667" stroke="#2B2B2B" stroke-miterlimit="10"/>
<path d="M127.972 276.803C127.972 276.803 146.412 272.171 142.086 287.972C134.824 314.495 124.232 340.629 124.232 340.629C124.232 340.629 119.965 341.442 113.342 332.958C106.715 324.485 98.7938 324.111 98.8352 323.306C98.8766 322.5 123.251 282.161 123.251 282.161L127.972 276.803Z" fill="#535B4C" stroke="#2B2B2B" stroke-miterlimit="10"/>
<path d="M187.338 281.813C187.338 281.813 199.096 276.741 204.636 288.685C210.189 300.633 194.113 324.505 193.908 357.261C193.908 357.261 192.096 361.823 179.743 355.8C167.39 349.778 162.305 354.155 159.707 350.907C157.114 347.646 174.948 307.985 174.948 307.985L187.338 281.813Z" fill="#535B4C" stroke="#2B2B2B" stroke-miterlimit="10"/>
<path d="M184.543 142.106C182.967 147.933 174.354 240.513 186.767 248.316C207.623 261.424 221.324 250.756 222.901 244.929C224.477 239.102 243.168 154.693 243.168 154.693C229.013 150.853 186.124 136.267 184.543 142.106Z" fill="#535B4C" stroke="#2B2B2B" stroke-miterlimit="10"/>
<path d="M191.919 140.792C193.501 134.957 206.257 133.338 220.411 137.175C234.566 141.012 244.758 148.852 243.176 154.686C241.595 160.52 228.838 162.14 214.684 158.303C200.53 154.466 190.338 146.626 191.919 140.792Z" fill="#535B4C" stroke="#2B2B2B" stroke-miterlimit="10"/>
<path d="M250.77 231.903C250.94 232.528 252.175 237.102 249.304 241.523C246.433 245.943 238.412 254.59 241.009 257.141C243.434 259.526 246.757 259.02 250.996 256.174C251.414 255.894 251.989 256.165 252.026 256.667C252.304 260.109 253.539 269.91 258.709 269.315C264.973 268.598 277.258 256.587 262.959 238.306C262.959 238.306 261.162 228.129 256.926 226.864C252.69 225.599 250.78 231.879 250.78 231.879L250.77 231.903Z" fill="#B18667" stroke="#2B2B2B" stroke-miterlimit="10"/>
<path d="M193.829 221.437L199.176 231.798C199.176 231.798 198.378 255.523 186.431 281.384C186.431 281.384 199.072 279.632 199.378 290.054C199.684 300.475 193.139 304.565 181.986 310.782C165.432 319.997 142.873 318.896 142.698 304.638C142.549 292.453 141.756 262.98 141.529 254.639C141.508 253.711 140.429 253.199 139.687 253.768L122.684 266.748C121.86 267.383 121.82 268.607 122.593 269.291L133.659 279.081C133.659 279.081 140.06 285.527 129.741 291.713C124.162 295.057 96.9418 288.146 96.9418 288.146C96.9418 288.146 67.5739 282.221 70.0482 265.503C72.9131 246.083 114.772 208.148 114.772 208.148L193.831 221.466L193.829 221.437Z" fill="#90A8AC" stroke="#2B2B2B" stroke-miterlimit="10"/>
<path d="M204.49 159.62L237.384 169.789C237.384 169.789 262.561 175.457 265.603 199.76C267.113 211.747 268.963 237.541 268.963 237.541C268.963 237.541 268.612 245.653 259.302 245.299C249.981 244.941 245.3 237.604 243.257 230.116C241.891 225.1 238.96 215.252 237.176 209.289C236.265 206.251 233.743 203.967 230.634 203.373L204.84 198.38C203.907 198.204 203.018 198.827 202.871 199.758L199.182 231.812C199.182 231.812 146.753 233.52 108.482 213.591L111.342 186.043C111.438 185.064 110.712 184.19 109.728 184.106L99.0518 183.265C95.1343 183.549 91.5818 185.65 89.4199 188.916L75.2189 210.383C75.2189 210.383 69.6071 215.387 60.6277 212.098C51.6362 208.805 54.4085 203.23 54.4085 203.23L67.9443 172.983C67.9443 172.983 76.5979 146.079 115.347 147.299C152.803 148.479 204.502 159.624 204.502 159.624L204.49 159.62Z" fill="white" stroke="#2B2B2B" stroke-miterlimit="10"/>
<path d="M203.528 167.951C203.528 167.951 181.131 206.748 122.549 182.373C63.9713 157.986 126.076 131.467 126.076 131.467L203.523 167.963L203.528 167.951Z" fill="#D0D2D3"/>
<path d="M209.411 153.559C209.411 153.559 191.321 184.394 209.598 211.92C209.598 211.92 211.969 217.671 206.523 219.66C201.077 221.65 196.024 214.374 196.024 214.374C196.024 214.374 184.487 199.491 189.93 166.879C195.374 134.268 209.406 153.571 209.406 153.571L209.411 153.559Z" fill="#535B4C" stroke="#2B2B2B" stroke-miterlimit="10"/>
<path d="M122.09 156.221C122.09 156.221 111.94 175.771 109.991 199.095C109.991 199.095 97.3302 176.727 111.196 151.893L122.102 156.226L122.09 156.221Z" fill="#535B4C" stroke="#2B2B2B" stroke-miterlimit="10"/>
<path d="M130.968 175.483C90.5407 159.422 70.7878 113.629 86.849 73.2009C102.91 32.7733 148.704 13.0203 189.131 29.0816C229.559 45.1428 249.312 90.9361 233.251 131.364C217.189 171.791 171.396 191.544 130.968 175.483Z" fill="#A9DFF2" stroke="#2B2B2B" stroke-miterlimit="10"/>
<path d="M113.504 91.2771C113.504 91.2771 99.5834 81.4817 95.1074 96.9582C90.6313 112.435 97.705 129.782 104.295 132.734C110.885 135.687 113.504 91.2771 113.504 91.2771Z" fill="#B18667" stroke="#2B2B2B" stroke-miterlimit="10"/>
<path d="M115.312 99.7861C115.312 99.7861 102.293 89.5821 98.8525 100.592C94.7558 113.71 102.383 122.051 102.383 122.051L115.39 110.396L115.312 99.7861Z" fill="#FDC389"/>
<path d="M202.03 150.058C202.03 150.058 187.854 189.179 135.496 173.131C83.1389 157.083 98.3368 119.706 102.196 115.148C106.06 110.579 108.638 83.4627 121.855 78.5394C135.073 73.6161 202.135 98.2236 202.135 98.2236C202.135 98.2236 205.837 100.447 205.349 107.71C205.349 107.71 228.265 100.897 227.312 124.589C226.345 148.846 202.03 150.058 202.03 150.058Z" fill="#B18667"/>
<mask id="mask0_3020_25412" style="mask-type:luminance" maskUnits="userSpaceOnUse" x="97" y="77" width="131" height="100">
<path d="M202.034 150.061C202.034 150.061 187.857 189.182 135.5 173.134C83.1428 157.086 98.3407 119.709 102.2 115.151C106.064 110.582 108.642 83.4656 121.859 78.5423C135.077 73.619 202.138 98.2266 202.138 98.2266C202.138 98.2266 205.841 100.45 205.352 107.713C205.352 107.713 228.268 100.9 227.316 124.592C226.348 148.849 202.034 150.061 202.034 150.061Z" fill="white"/>
</mask>
<g mask="url(#mask0_3020_25412)">
<path d="M182.289 184.211C182.289 184.211 208.041 151.598 181.961 139.746C181.961 139.746 199.476 113.867 176.423 101.377C173.776 99.9357 153.826 97.3198 140.678 110.452C140.678 110.452 119.133 70.0314 105.175 100.71C89.2761 135.677 92.3504 153.303 92.3504 153.303L140.89 183.346L182.277 184.206L182.289 184.211Z" fill="#FDC389"/>
<path d="M203.104 142.766C203.104 142.766 207.895 127.971 204.995 115.976C204.995 115.976 221.952 110.726 219.767 126.012C217.583 141.298 203.088 142.773 203.088 142.773L203.104 142.766Z" fill="#FDC389"/>
</g>
<path d="M202.03 150.058C202.03 150.058 187.854 189.179 135.496 173.131C83.1389 157.083 98.3368 119.706 102.196 115.148C106.06 110.579 108.638 83.4627 121.855 78.5394C135.073 73.6161 202.135 98.2236 202.135 98.2236C202.135 98.2236 205.837 100.447 205.349 107.71C205.349 107.71 228.265 100.897 227.312 124.589C226.345 148.846 202.03 150.058 202.03 150.058Z" stroke="#2B2B2B" stroke-miterlimit="10"/>
<path d="M180.26 99.5268C180.26 99.5268 153.653 107.981 124.053 98.605C94.4534 89.2289 111.019 78.1931 111.019 78.1931L111.667 72.5969L206.698 92.1623L204.664 100.86L180.267 99.5436L180.26 99.5268Z" fill="#3A3836" stroke="#2B2B2B" stroke-miterlimit="10"/>
<path d="M204.388 97.7253C204.388 97.7253 222.229 88.6733 215.082 72.2451C207.936 55.8169 188.71 53.5169 168.479 51.2215C148.248 48.9262 129.338 34.041 114.661 52.5311C114.661 52.5311 105.616 64.3526 111.295 75.6682C111.295 75.6682 111.784 80.9635 137.418 87.3423C173.133 96.2351 204.376 97.7205 204.376 97.7205L204.388 97.7253Z" fill="white" stroke="#2B2B2B" stroke-miterlimit="10"/>
<path d="M167.911 131.706C167.684 134.557 165.257 136.352 162.503 135.704C159.75 135.057 157.699 132.221 157.93 129.358C158.162 126.495 160.585 124.712 163.338 125.36C166.091 126.008 168.142 128.843 167.911 131.706Z" fill="#231F20" stroke="#2B2B2B" stroke-width="2.25837" stroke-miterlimit="10"/>
<path d="M123.129 121.193C122.903 124.044 120.475 125.839 117.722 125.191C114.969 124.544 112.918 121.708 113.149 118.845C113.381 115.982 115.803 114.199 118.557 114.847C121.31 115.495 123.361 118.33 123.129 121.193Z" fill="#231F20" stroke="#2B2B2B" stroke-width="2.25837" stroke-miterlimit="10"/>
<path d="M145.642 131.755C145.448 134.173 141.785 135.324 137.453 134.3C133.121 133.276 129.779 130.498 129.973 128.081C130.167 125.663 133.83 124.512 138.161 125.536C142.493 126.56 145.836 129.337 145.642 131.755Z" fill="#231F20" stroke="#2B2B2B" stroke-width="2.25837" stroke-miterlimit="10"/>
<path d="M130.657 153.499C131.739 155.615 134.173 156.222 136.087 154.849C138.002 153.475 138.672 150.648 137.59 148.532C136.509 146.415 134.075 145.808 132.161 147.182C130.246 148.555 129.576 151.382 130.657 153.499Z" fill="#231F20" stroke="#231F20" stroke-miterlimit="10"/>
<path d="M260.236 256.025C260.236 256.025 262.682 266.321 258.713 269.33" stroke="#2B2B2B" stroke-miterlimit="10" stroke-linecap="round"/>
<path d="M265.117 254.915C265.117 254.915 267.154 261.188 264.518 266.316" stroke="#2B2B2B" stroke-miterlimit="10" stroke-linecap="round"/>
<path d="M207.45 230.65C206.944 233.431 204.517 235.436 201.688 235.399C190.693 235.254 166.106 238.03 144.547 231.639C116.915 223.449 107.399 214.177 107.399 214.177C107.399 214.177 106.108 209.358 109.487 204.01C109.487 204.01 126.322 215.172 146.46 219.842C162.991 223.663 188.99 223.051 202.135 223.855C205.589 224.071 208.077 227.247 207.45 230.65Z" fill="#535B4C" stroke="#2B2B2B" stroke-miterlimit="10"/>
<path d="M52.9648 220.944C52.9648 220.944 47.6212 224.396 44.5224 232.267" stroke="#2B2B2B" stroke-miterlimit="10" stroke-linecap="round"/>
<path d="M48.7734 217.37C48.7734 217.37 43.1356 221.527 42.0519 229.167" stroke="#2B2B2B" stroke-miterlimit="10" stroke-linecap="round"/>
</svg>
