<svg width="32" height="32" viewBox="0 0 32 32" fill="none" xmlns="http://www.w3.org/2000/svg">
<path d="M10 22L3 29" stroke="#2DABE0" stroke-width="2" stroke-linecap="round" stroke-linejoin="round"/>
<path d="M29 3L22 10" stroke="#2DABE0" stroke-width="2" stroke-linecap="round" stroke-linejoin="round"/>
<path d="M16.3818 8.61928L8.62132 16.3798C7.44975 17.5514 7.44975 19.4508 8.62132 20.6224L11.379 23.3801C12.5506 24.5517 14.4501 24.5517 15.6217 23.3801L23.3822 15.6196C24.5538 14.4481 24.5538 12.5486 23.3822 11.377L20.6245 8.61928C19.4529 7.44771 17.5534 7.44771 16.3818 8.61928Z" stroke="#2DABE0" stroke-width="2" stroke-linecap="round" stroke-linejoin="round"/>
<path d="M11.5 11.5L20.5 20.5" stroke="#2DABE0" stroke-width="2" stroke-linecap="round" stroke-linejoin="round"/>
<path d="M28 20L25 19" stroke="#2DABE0" stroke-width="2" stroke-linecap="round" stroke-linejoin="round"/>
<path d="M7 13L4 12" stroke="#2DABE0" stroke-width="2" stroke-linecap="round" stroke-linejoin="round"/>
<path d="M12 4L13 7" stroke="#2DABE0" stroke-width="2" stroke-linecap="round" stroke-linejoin="round"/>
<path d="M19 25L20 28" stroke="#2DABE0" stroke-width="2" stroke-linecap="round" stroke-linejoin="round"/>
</svg>
