<svg width="48" height="48" viewBox="0 0 48 48" fill="none" xmlns="http://www.w3.org/2000/svg">
    <g filter="url(#filter0_d_1038_20803)">
        <path d="M23.6734 8H23.6991C32.3538 8 39.3726 14.9709 39.3726 23.5667V24.4333C39.3726 33.0291 32.3538 40 23.6991 40H23.6734C15.0187 40 8 33.0291 8 24.4333V23.5667C8 14.9709 15.0187 8 23.6734 8Z" fill="white"/>
        <path d="M23.6868 18.3034C25.7768 18.3034 27.4712 17.318 27.4712 16.1024C27.4712 14.8868 25.7768 13.9014 23.6868 13.9014C21.5967 13.9014 19.9023 14.8868 19.9023 16.1024C19.9023 17.318 21.5967 18.3034 23.6868 18.3034Z" fill="#E6007A"/>
        <path d="M23.6868 34.8876C25.7768 34.8876 27.4712 33.9022 27.4712 32.6866C27.4712 31.471 25.7768 30.4856 23.6868 30.4856C21.5967 30.4856 19.9023 31.471 19.9023 32.6866C19.9023 33.9022 21.5967 34.8876 23.6868 34.8876Z" fill="#E6007A"/>
        <path d="M18.414 21.35C19.459 19.54 19.4522 17.5796 18.3988 16.9714C17.3454 16.3632 15.6443 17.3375 14.5992 19.1475C13.5542 20.9575 13.561 22.9178 14.6144 23.5261C15.6678 24.1343 17.3689 23.16 18.414 21.35Z" fill="#E6007A"/>
        <path d="M32.7747 29.641C33.8197 27.831 33.8135 25.871 32.7608 25.2632C31.7081 24.6554 30.0076 25.63 28.9625 27.44C27.9175 29.25 27.9237 31.21 28.9764 31.8178C30.0291 32.4256 31.7296 31.451 32.7747 29.641Z" fill="#E6007A"/>
        <path d="M18.3988 31.8174C19.4522 31.2092 19.459 29.2488 18.414 27.4388C17.3689 25.6288 15.6678 24.6546 14.6144 25.2628C13.561 25.871 13.5542 27.8313 14.5992 29.6413C15.6443 31.4513 17.3454 32.4256 18.3988 31.8174Z" fill="#E6007A"/>
        <path d="M32.7608 23.5266C33.8135 22.9188 33.8197 20.9588 32.7747 19.1488C31.7296 17.3388 30.0291 16.3642 28.9764 16.972C27.9237 17.5798 27.9175 19.5398 28.9625 21.3498C30.0076 23.1598 31.7081 24.1344 32.7608 23.5266Z" fill="#E6007A"/>
    </g>
    <defs>
        <filter id="filter0_d_1038_20803" x="0" y="0" width="47.3711" height="48" filterUnits="userSpaceOnUse" color-interpolation-filters="sRGB">
            <feFlood flood-opacity="0" result="BackgroundImageFix"/>
            <feColorMatrix in="SourceAlpha" type="matrix" values="0 0 0 0 0 0 0 0 0 0 0 0 0 0 0 0 0 0 127 0" result="hardAlpha"/>
            <feOffset/>
            <feGaussianBlur stdDeviation="4"/>
            <feComposite in2="hardAlpha" operator="out"/>
            <feColorMatrix type="matrix" values="0 0 0 0 0 0 0 0 0 0 0 0 0 0 0 0 0 0 0.12 0"/>
            <feBlend mode="normal" in2="BackgroundImageFix" result="effect1_dropShadow_1038_20803"/>
            <feBlend mode="normal" in="SourceGraphic" in2="effect1_dropShadow_1038_20803" result="shape"/>
        </filter>
    </defs>
</svg>
