<svg width="31" height="24" viewBox="0 0 31 24" fill="none" xmlns="http://www.w3.org/2000/svg">
    <path d="M18.9316 23.9337C18.6982 23.8631 18.4991 23.7443 18.3593 23.5923C18.2196 23.4403 18.1454 23.2619 18.1462 23.0797L18.1462 20.4183L2.56456 20.4183C1.8844 20.4183 1.23209 20.2238 0.751142 19.8775C0.270194 19.5312 -7.77699e-08 19.0615 -6.97308e-08 18.5717L-8.91027e-08 5.42828C-8.10637e-08 4.93852 0.270194 4.46883 0.751142 4.12253C1.23209 3.77622 1.8844 3.58167 2.56456 3.58167L18.1462 3.58167L18.1462 0.92033C18.1454 0.738047 18.2196 0.559673 18.3593 0.407687C18.4991 0.255702 18.6982 0.136907 18.9316 0.0662728C19.1685 -0.000247172 19.4266 -0.0171226 19.6762 0.0175989C19.9258 0.0523205 20.2111 0.215022 20.3421 0.360235C20.4731 0.505447 29.6783 11.3421 29.6783 11.3421C29.9191 11.5172 30.0541 11.7536 30.0541 12C30.0541 12.2464 29.9191 12.4828 29.6783 12.6578C29.6783 12.6578 20.4731 23.4945 20.3421 23.6398C20.2111 23.785 19.9258 23.9477 19.6762 23.9824C19.4266 24.0171 19.1685 24.0002 18.9316 23.9337Z" fill="url(#paint0_linear_1597_1169)"/>
    <defs>
        <linearGradient id="paint0_linear_1597_1169" x1="-1.96975e-07" y1="12" x2="30.0541" y2="12" gradientUnits="userSpaceOnUse">
            <stop stop-color="#C63336"/>
            <stop offset="0.33" stop-color="#F8C812"/>
            <stop offset="0.66" stop-color="#79CE3B"/>
            <stop offset="1" stop-color="#0085FF"/>
        </linearGradient>
    </defs>
</svg>
