<svg width="29" height="24" viewBox="0 0 29 24" fill="none" xmlns="http://www.w3.org/2000/svg">
    <path d="M28.6923 2.87535C27.6312 3.35606 26.509 3.67382 25.3606 3.81878C26.5721 3.06305 27.48 1.87413 27.9159 0.472594C26.7773 1.18025 25.531 1.67884 24.2312 1.94669C23.3622 0.962835 22.2053 0.307932 20.9415 0.084689C19.6777 -0.138555 18.3788 0.0824882 17.2482 0.71315C16.1178 1.34381 15.2198 2.34842 14.695 3.56942C14.1703 4.79042 14.0485 6.15874 14.3488 7.45978C12.0468 7.33821 9.79506 6.71235 7.73984 5.62286C5.68462 4.53338 3.87188 3.00463 2.41938 1.13593C1.90993 2.06486 1.64223 3.11685 1.64291 4.1873C1.64111 5.18139 1.87475 6.16054 2.32304 7.03755C2.77133 7.91457 3.42035 8.66222 4.21232 9.21394C3.29182 9.1878 2.39099 8.92989 1.58645 8.46216V8.53587C1.59334 9.92873 2.06079 11.2763 2.9097 12.3508C3.75863 13.4252 4.93693 14.1605 6.24527 14.4322C5.74163 14.5923 5.21874 14.6767 4.69232 14.6828C4.32793 14.6784 3.96445 14.6439 3.60527 14.5796C3.97784 15.7778 4.69885 16.8249 5.66795 17.5752C6.63707 18.3255 7.80608 18.7418 9.01232 18.7661C6.97544 20.4396 4.46063 21.3528 1.86879 21.3605C1.3969 21.3621 0.925366 21.3326 0.457031 21.2721C3.10328 23.0561 6.18713 24.0031 9.33704 23.9991C11.5107 24.0226 13.6671 23.5937 15.6803 22.7374C17.6934 21.881 19.5229 20.6145 21.062 19.0114C22.6011 17.4086 23.8189 15.5015 24.6442 13.4017C25.4694 11.3019 25.8858 9.05139 25.8689 6.7817C25.8689 6.5311 25.8689 6.26577 25.8689 6.00043C26.9766 5.13782 27.932 4.08033 28.6923 2.87535Z" fill="white"/>
</svg>
