<svg width="48" height="40" viewBox="0 0 48 40" fill="none" xmlns="http://www.w3.org/2000/svg">
    <g clip-path="url(#clip0_1325_20406)">
        <path fill-rule="evenodd" clip-rule="evenodd" d="M23.9987 14.667C24.5687 14.667 25.1534 14.6817 25.72 14.7057L26.3894 14.7377L27.03 14.7757L27.63 14.8163L28.178 14.859C28.7727 14.9045 29.3323 15.1583 29.7584 15.5757C30.1844 15.9931 30.4496 16.5474 30.5074 17.141L30.534 17.4243L30.584 18.031C30.6307 18.6597 30.6654 19.345 30.6654 20.0003C30.6654 20.6557 30.6307 21.341 30.584 21.9697L30.534 22.5763C30.5254 22.6737 30.5167 22.7677 30.5074 22.8597C30.4496 23.4534 30.1843 24.0078 29.7581 24.4252C29.3319 24.8426 28.7722 25.0963 28.1774 25.1417L27.6307 25.1837L27.0307 25.225L26.3894 25.263L25.72 25.295C25.1466 25.3199 24.5727 25.3328 23.9987 25.3337C23.4247 25.3328 22.8508 25.3199 22.2774 25.295L21.608 25.263L20.9674 25.225L20.3674 25.1837L19.8194 25.1417C19.2247 25.0961 18.6651 24.8424 18.239 24.425C17.813 24.0076 17.5477 23.4533 17.49 22.8597L17.4634 22.5763L17.4134 21.9697C17.3624 21.3144 17.3353 20.6575 17.332 20.0003C17.332 19.345 17.3667 18.6597 17.4134 18.031L17.4634 17.4243C17.472 17.327 17.4807 17.233 17.49 17.141C17.5477 16.5475 17.8128 15.9933 18.2388 15.5759C18.6647 15.1585 19.2241 14.9047 19.8187 14.859L20.366 14.8163L20.966 14.7757L21.6074 14.7377L22.2767 14.7057C22.8504 14.6807 23.4245 14.6679 23.9987 14.667ZM22.6654 18.3837V21.617C22.6654 21.925 22.9987 22.117 23.2654 21.9637L26.0654 20.347C26.1263 20.3119 26.1769 20.2614 26.2121 20.2005C26.2473 20.1397 26.2658 20.0706 26.2658 20.0003C26.2658 19.93 26.2473 19.861 26.2121 19.8001C26.1769 19.7392 26.1263 19.6887 26.0654 19.6537L23.2654 18.0377C23.2045 18.0025 23.1355 17.9841 23.0653 17.9841C22.9951 17.9841 22.9261 18.0026 22.8653 18.0377C22.8044 18.0729 22.7539 18.1234 22.7189 18.1842C22.6838 18.2451 22.6653 18.3141 22.6654 18.3843V18.3837Z" fill="#2B2B2B"/>
    </g>
    <defs>
        <clipPath id="clip0_1325_20406">
            <rect width="16" height="16" fill="white" transform="translate(16 12)"/>
        </clipPath>
    </defs>
</svg>
