<svg width="134" height="134" viewBox="0 0 134 134" fill="none" xmlns="http://www.w3.org/2000/svg">
    <g filter="url(#filter0_b_1849_3133)">
        <circle cx="66.6972" cy="66.6972" r="66.6972" fill="#CCEFFF" fill-opacity="0.4"/>
    </g>
    <path fill-rule="evenodd" clip-rule="evenodd" d="M53.8958 117.323C90.7316 117.323 120.593 87.4614 120.593 50.6255C120.593 38.5767 117.398 27.274 111.809 17.5186C125.111 29.7116 133.45 47.2304 133.45 66.6971C133.45 103.533 103.589 133.394 66.7532 133.394C41.9662 133.394 20.3373 119.873 8.83984 99.8041C20.7081 110.683 36.5266 117.323 53.8958 117.323Z" fill="#C6EAFF" fill-opacity="0.3"/>
    <g style="mix-blend-mode:soft-light" opacity="0.2">
        <circle cx="55.083" cy="48.4467" r="36.5009" fill="white"/>
    </g>
    <g style="mix-blend-mode:soft-light" opacity="0.5">
        <circle cx="42.1429" cy="24.2232" r="8.95932" fill="white"/>
    </g>
    <g style="mix-blend-mode:soft-light" opacity="0.5">
        <circle cx="101.207" cy="111.162" r="5.64105" fill="white"/>
    </g>
    <path d="M35.232 75.8708H32.136L31.2393 73.1806H25.8375L24.9194 75.8708H21.8234L27.3534 60.6688H29.6807L35.232 75.8708ZM30.4493 70.6825L28.5918 65.1526L26.6702 70.6825H30.4493ZM45.0256 65.665L42.9332 67.7788C42.4919 67.3375 42.0009 67.1169 41.46 67.1169C40.9902 67.1169 40.5703 67.2948 40.2003 67.6507C39.8444 68.0065 39.6665 68.5118 39.6665 69.1666V75.8708H36.8908V64.7469H39.6024V65.8145C39.8871 65.4729 40.2785 65.1882 40.7767 64.9604C41.2892 64.7327 41.8301 64.6188 42.3994 64.6188C43.4527 64.6188 44.3281 64.9675 45.0256 65.665ZM55.9164 70.2982C55.9164 71.4512 55.8452 72.3977 55.7028 73.1379C55.5605 73.8781 55.2474 74.4973 54.7634 74.9955C54.1229 75.6645 53.2261 75.999 52.0732 75.999C50.9202 75.999 49.995 75.6075 49.2975 74.8246V75.8708H46.6073V60.6688H49.3829V65.7291C50.0234 64.9889 50.9202 64.6188 52.0732 64.6188C53.2261 64.6188 54.1229 64.9533 54.7634 65.6223C55.2474 66.1205 55.5605 66.7397 55.7028 67.4799C55.8452 68.22 55.9164 69.1595 55.9164 70.2982ZM53.0767 71.5793C53.1194 71.2377 53.1407 70.8106 53.1407 70.2982C53.1407 69.7858 53.1194 69.3659 53.0767 69.0385C53.034 68.6969 52.9485 68.3695 52.8204 68.0563C52.7066 67.7432 52.5144 67.5083 52.244 67.3518C51.9877 67.1952 51.6604 67.1169 51.2618 67.1169C50.8633 67.1169 50.5288 67.1952 50.2583 67.3518C50.0021 67.5083 49.8099 67.7432 49.6818 68.0563C49.568 68.3695 49.4897 68.6969 49.447 69.0385C49.4043 69.3659 49.3829 69.7858 49.3829 70.2982C49.3829 70.8106 49.4043 71.2377 49.447 71.5793C49.4897 71.9067 49.568 72.234 49.6818 72.5614C49.8099 72.8746 50.0021 73.1094 50.2583 73.266C50.5288 73.4226 50.8633 73.5009 51.2618 73.5009C51.6604 73.5009 51.9877 73.4226 52.244 73.266C52.5144 73.1094 52.7066 72.8746 52.8204 72.5614C52.9485 72.234 53.034 71.9067 53.0767 71.5793ZM61.3304 75.8708H58.5547V65.0672H61.3304V75.8708ZM61.3517 62.8467H58.512V60.5834H61.3517V62.8467ZM69.4308 75.8708H67.9149C66.8615 75.8708 66.0573 75.5577 65.5022 74.9314C64.9613 74.3051 64.6908 73.5578 64.6908 72.6895V67.1809H63.5165V65.0672H64.6908V61.7791H67.4665V65.0672H69.4308V67.1809H67.4665V72.5187C67.4665 73.1877 67.7867 73.5222 68.4273 73.5222H69.4308V75.8708ZM80.0757 65.665L77.9832 67.7788C77.542 67.3375 77.0509 67.1169 76.51 67.1169C76.0403 67.1169 75.6204 67.2948 75.2503 67.6507C74.8944 68.0065 74.7165 68.5118 74.7165 69.1666V75.8708H71.9409V64.7469H74.6525V65.8145C74.9371 65.4729 75.3286 65.1882 75.8268 64.9604C76.3392 64.7327 76.8801 64.6188 77.4495 64.6188C78.5028 64.6188 79.3782 64.9675 80.0757 65.665ZM90.7742 75.8708H88.0626V74.846C87.3367 75.6146 86.4115 75.999 85.287 75.999C84.191 75.999 83.3156 75.6716 82.6608 75.0168C81.9064 74.2624 81.5292 73.2091 81.5292 71.8568V64.7469H84.3048V71.4725C84.3048 72.17 84.4828 72.6824 84.8386 73.0098C85.2087 73.3372 85.6428 73.5009 86.141 73.5009C86.6535 73.5009 87.0876 73.3372 87.4435 73.0098C87.8135 72.6824 87.9986 72.17 87.9986 71.4725V64.7469H90.7742V75.8708ZM109.611 75.8708H106.835V69.1452C106.835 68.4478 106.65 67.9353 106.28 67.608C105.924 67.2806 105.497 67.1169 104.999 67.1169C104.501 67.1169 104.067 67.2806 103.697 67.608C103.327 67.9211 103.142 68.4122 103.142 69.0812V75.8708H100.366V69.1452C100.366 68.4478 100.181 67.9353 99.8109 67.608C99.4551 67.2806 99.0281 67.1169 98.5299 67.1169C98.0174 67.1169 97.5762 67.2806 97.2061 67.608C96.8502 67.9353 96.6723 68.4478 96.6723 69.1452V75.8708H93.8967V64.7469H96.6083V65.7718C97.3484 65.0031 98.2736 64.6188 99.3839 64.6188C100.665 64.6188 101.647 65.0885 102.33 66.028C103.227 65.0885 104.337 64.6188 105.661 64.6188C106.828 64.6188 107.739 64.9462 108.394 65.601C109.205 66.4123 109.611 67.4656 109.611 68.7609V75.8708Z" fill="white"/>
    <defs>
        <filter id="filter0_b_1849_3133" x="-17.1018" y="-17.1018" width="167.598" height="167.598" filterUnits="userSpaceOnUse" color-interpolation-filters="sRGB">
            <feFlood flood-opacity="0" result="BackgroundImageFix"/>
            <feGaussianBlur in="BackgroundImageFix" stdDeviation="8.55092"/>
            <feComposite in2="SourceAlpha" operator="in" result="effect1_backgroundBlur_1849_3133"/>
            <feBlend mode="normal" in="SourceGraphic" in2="effect1_backgroundBlur_1849_3133" result="shape"/>
        </filter>
    </defs>
</svg>
