<svg width="101" height="101" viewBox="0 0 101 101" fill="none" xmlns="http://www.w3.org/2000/svg">
    <g filter="url(#filter0_b_1849_5285)">
        <circle cx="50.3415" cy="50.3415" r="50.3415" fill="#CCEFFF" fill-opacity="0.4"/>
    </g>
    <path fill-rule="evenodd" clip-rule="evenodd" d="M40.6778 88.5526C68.4806 88.5526 91.0193 66.014 91.0193 38.2111C91.0193 29.1164 88.6075 20.5849 84.3887 13.2214C94.4292 22.4245 100.724 35.6478 100.724 50.3415C100.724 78.1443 78.1857 100.683 50.3828 100.683C31.6747 100.683 15.3501 90.4781 6.67188 75.3311C15.6297 83.5419 27.5685 88.5526 40.6778 88.5526Z" fill="#C6EAFF" fill-opacity="0.3"/>
    <g style="mix-blend-mode:soft-light" opacity="0.2">
        <circle cx="41.5735" cy="36.5664" r="27.5501" fill="white"/>
    </g>
    <g style="mix-blend-mode:soft-light" opacity="0.5">
        <circle cx="31.8092" cy="18.2833" r="6.76229" fill="white"/>
    </g>
    <g style="mix-blend-mode:soft-light" opacity="0.5">
        <circle cx="76.3866" cy="83.9025" r="4.25774" fill="white"/>
    </g>
    <path d="M40.2635 58.946H37.1676L36.2709 56.2558H30.869L29.9509 58.946H26.855L32.3849 43.744H34.7122L40.2635 58.946ZM35.4809 53.7577L33.6233 48.2278L31.7017 53.7577H35.4809ZM50.4917 47.8221L46.4136 58.946H44.2358L40.1364 47.8221H43.0615L45.3247 54.6972L47.5666 47.8221H50.4917ZM60.4473 58.946H57.7357V57.9852C57.3514 58.3696 56.9529 58.6471 56.5401 58.8179C56.1415 58.9745 55.6291 59.0528 55.0028 59.0528C53.7644 59.0528 52.8179 58.7254 52.1631 58.0706C51.551 57.4301 51.245 56.5974 51.245 55.5726C51.245 54.6331 51.5724 53.8645 52.2271 53.2666C52.8819 52.6546 53.8356 52.3485 55.0882 52.3485H57.6717V51.7934C57.6717 51.1814 57.508 50.7401 57.1806 50.4696C56.8532 50.185 56.3266 50.0426 55.6006 50.0426C54.7323 50.0426 54.0206 50.3629 53.4655 51.0034L51.7147 49.274C52.2556 48.6762 52.8179 48.2634 53.4015 48.0356C53.9993 47.8079 54.7679 47.694 55.7074 47.694C58.8673 47.694 60.4473 49.0035 60.4473 51.6226V58.946ZM57.6717 54.8466V54.2488H55.5579C54.4619 54.2488 53.9139 54.6758 53.9139 55.5299C53.9139 56.3697 54.4761 56.7896 55.6006 56.7896C56.3266 56.7896 56.8746 56.6117 57.2447 56.2558C57.5293 56.0138 57.6717 55.5441 57.6717 54.8466ZM66.216 58.946H63.4403V48.1424H66.216V58.946ZM66.2373 45.9219H63.3976V43.6586H66.2373V45.9219ZM74.0388 58.946H72.4588C71.3913 58.946 70.5799 58.6329 70.0248 58.0066C69.4839 57.3803 69.2135 56.633 69.2135 55.7647V43.744H71.9891V55.5939C71.9891 56.2629 72.3165 56.5974 72.9713 56.5974H74.0388V58.946Z" fill="white"/>
    <defs>
        <filter id="filter0_b_1849_5285" x="-17.1018" y="-17.1018" width="134.887" height="134.887" filterUnits="userSpaceOnUse" color-interpolation-filters="sRGB">
            <feFlood flood-opacity="0" result="BackgroundImageFix"/>
            <feGaussianBlur in="BackgroundImageFix" stdDeviation="8.55092"/>
            <feComposite in2="SourceAlpha" operator="in" result="effect1_backgroundBlur_1849_5285"/>
            <feBlend mode="normal" in="SourceGraphic" in2="effect1_backgroundBlur_1849_5285" result="shape"/>
        </filter>
    </defs>
</svg>
