<svg width="181" height="181" viewBox="0 0 181 181" fill="none" xmlns="http://www.w3.org/2000/svg">
    <g filter="url(#filter0_b_1849_16729)">
        <circle cx="90.7065" cy="90.7558" r="89.7846" fill="#CCEFFF" fill-opacity="0.4"/>
    </g>
    <path fill-rule="evenodd" clip-rule="evenodd" d="M73.4758 158.905C123.062 158.905 163.26 118.707 163.26 69.1208C163.26 52.9011 158.96 37.6859 151.436 24.5535C169.342 40.9672 180.569 64.5505 180.569 90.7559C180.569 140.343 140.371 180.541 90.7844 180.541C57.4174 180.541 28.3016 162.339 12.8242 135.323C28.8007 149.968 50.0945 158.905 73.4758 158.905Z" fill="#C6EAFF" fill-opacity="0.3"/>
    <g style="mix-blend-mode:soft-light" opacity="0.2">
        <circle cx="75.0734" cy="66.1881" r="49.1359" fill="white"/>
    </g>
    <g style="mix-blend-mode:soft-light" opacity="0.5">
        <circle cx="57.6505" cy="33.5797" r="12.0606" fill="white"/>
    </g>
    <g style="mix-blend-mode:soft-light" opacity="0.5">
        <circle cx="137.164" cy="150.612" r="7.59373" fill="white"/>
    </g>
    <path d="M53.6414 95.5525C53.6414 96.9332 53.2144 98.0078 52.3604 98.7765C51.5063 99.5451 50.3818 99.9294 48.9869 99.9294H42.6243V84.7274H48.7307C50.1968 84.7274 51.3426 85.1118 52.1682 85.8804C53.008 86.649 53.4279 87.6881 53.4279 88.9977C53.4279 89.7663 53.2287 90.4282 52.8301 90.9833C52.4458 91.5242 52.0188 91.9085 51.549 92.1363C52.944 92.7911 53.6414 93.9298 53.6414 95.5525ZM50.1612 96.7481C50.5028 96.3923 50.6736 95.9439 50.6736 95.403C50.6736 94.8621 50.5028 94.4209 50.1612 94.0792C49.8196 93.7234 49.3285 93.5455 48.688 93.5455H45.5921V97.2819H48.688C49.3285 97.2819 49.8196 97.104 50.1612 96.7481ZM49.9477 90.4068C50.2893 90.0795 50.4601 89.6524 50.4601 89.1258C50.4601 88.5991 50.2893 88.1792 49.9477 87.8661C49.6061 87.5387 49.1221 87.375 48.4958 87.375H45.5921V90.8766H48.4958C49.1221 90.8766 49.6061 90.72 49.9477 90.4068ZM65.6024 95.2322H58.6419C58.6419 95.9724 58.8554 96.5702 59.2825 97.0257C59.7095 97.4812 60.3073 97.7089 61.076 97.7089C61.6453 97.7089 62.1079 97.6306 62.4638 97.4741C62.8339 97.3033 63.2111 97.0328 63.5954 96.6627L65.2821 98.3068C64.6843 98.9188 64.0651 99.3672 63.4246 99.6519C62.7983 99.9223 62.0083 100.058 61.0546 100.058C60.3429 100.058 59.6953 99.9721 59.1117 99.8013C58.5423 99.6163 58.0085 99.3174 57.5103 98.9046C57.0121 98.4918 56.6207 97.9011 56.336 97.1324C56.0513 96.3638 55.909 95.4386 55.909 94.3568C55.909 92.5775 56.3503 91.1897 57.2328 90.1933C58.1153 89.1827 59.2896 88.6774 60.7557 88.6774C62.2787 88.6774 63.4673 89.1756 64.3213 90.172C65.1754 91.1541 65.6024 92.4494 65.6024 94.0579V95.2322ZM62.8695 93.3319C62.8552 92.848 62.7698 92.4494 62.6132 92.1363C62.2716 91.3676 61.6524 90.9833 60.7557 90.9833C59.859 90.9833 59.2398 91.3676 58.8982 92.1363C58.7416 92.4494 58.6562 92.848 58.6419 93.3319H62.8695ZM76.2961 89.7236L74.2037 91.8374C73.7625 91.3961 73.2714 91.1755 72.7305 91.1755C72.2608 91.1755 71.8409 91.3534 71.4708 91.7093C71.1149 92.0651 70.937 92.5704 70.937 93.2252V99.9294H68.1614V88.8055H70.873V89.8731C71.1576 89.5314 71.5491 89.2468 72.0473 89.019C72.5597 88.7913 73.1006 88.6774 73.67 88.6774C74.7233 88.6774 75.5987 89.0261 76.2961 89.7236ZM86.0816 99.9294H83.37V98.9686C82.9857 99.353 82.5872 99.6305 82.1744 99.8013C81.7758 99.9579 81.2634 100.036 80.6371 100.036C79.3987 100.036 78.4522 99.7088 77.7974 99.054C77.1853 98.4135 76.8793 97.5808 76.8793 96.556C76.8793 95.6165 77.2067 94.8479 77.8615 94.25C78.5162 93.638 79.4699 93.3319 80.7225 93.3319H83.306V92.7768C83.306 92.1648 83.1423 91.7235 82.8149 91.453C82.4875 91.1684 81.9609 91.026 81.2349 91.026C80.3667 91.026 79.6549 91.3463 79.0998 91.9868L77.349 90.2574C77.8899 89.6596 78.4522 89.2468 79.0358 89.019C79.6336 88.7913 80.4022 88.6774 81.3417 88.6774C84.5017 88.6774 86.0816 89.9869 86.0816 92.606V99.9294ZM83.306 95.83V95.2322H81.1922C80.0962 95.2322 79.5482 95.6592 79.5482 96.5133C79.5482 97.3531 80.1104 97.773 81.2349 97.773C81.9609 97.773 82.5089 97.5951 82.879 97.2392C83.1636 96.9972 83.306 96.5275 83.306 95.83ZM97.1667 98.5416C96.1988 99.5522 94.9747 100.058 93.4943 100.058C93.0246 100.058 92.5691 100.008 92.1278 99.9081C91.6866 99.7942 91.2382 99.6092 90.7827 99.353C90.3415 99.0825 89.9571 98.7409 89.6298 98.3281C89.3024 97.9011 89.0319 97.3531 88.8184 96.6841C88.6191 96.0008 88.5195 95.2251 88.5195 94.3568C88.5195 93.4885 88.6191 92.7199 88.8184 92.0509C89.0319 91.3676 89.3024 90.8196 89.6298 90.4068C89.9571 89.9941 90.3415 89.6524 90.7827 89.382C91.2382 89.1115 91.6866 88.9265 92.1278 88.8269C92.5691 88.7272 93.0246 88.6774 93.4943 88.6774C94.9889 88.6774 96.213 89.1756 97.1667 90.172L95.2878 92.0509C94.7469 91.4673 94.1491 91.1755 93.4943 91.1755C92.8395 91.1755 92.3129 91.4175 91.9143 91.9014C91.5015 92.4138 91.2951 93.2323 91.2951 94.3568C91.2951 95.4955 91.5015 96.3211 91.9143 96.8335C92.3129 97.3175 92.8395 97.5595 93.4943 97.5595C94.1491 97.5595 94.7469 97.2677 95.2878 96.6841L97.1667 98.5416ZM108.578 99.9294H105.803V93.2038C105.803 92.5064 105.618 91.9939 105.247 91.6666C104.892 91.3392 104.465 91.1755 103.966 91.1755C103.454 91.1755 103.013 91.3392 102.643 91.6666C102.287 91.9939 102.109 92.5064 102.109 93.2038V99.9294H99.3332V84.7274H102.109V89.8304C102.806 89.0617 103.71 88.6774 104.82 88.6774C105.916 88.6774 106.792 89.0048 107.447 89.6596C108.201 90.414 108.578 91.4673 108.578 92.8195V99.9294ZM119.985 99.9294H117.273V98.9686C116.889 99.353 116.49 99.6305 116.078 99.8013C115.679 99.9579 115.167 100.036 114.54 100.036C113.302 100.036 112.355 99.7088 111.701 99.054C111.089 98.4135 110.783 97.5808 110.783 96.556C110.783 95.6165 111.11 94.8479 111.765 94.25C112.419 93.638 113.373 93.3319 114.626 93.3319H117.209V92.7768C117.209 92.1648 117.046 91.7235 116.718 91.453C116.391 91.1684 115.864 91.026 115.138 91.026C114.27 91.026 113.558 91.3463 113.003 91.9868L111.252 90.2574C111.793 89.6596 112.355 89.2468 112.939 89.019C113.537 88.7913 114.305 88.6774 115.245 88.6774C118.405 88.6774 119.985 89.9869 119.985 92.606V99.9294ZM117.209 95.83V95.2322H115.095C113.999 95.2322 113.451 95.6592 113.451 96.5133C113.451 97.3531 114.014 97.773 115.138 97.773C115.864 97.773 116.412 97.5951 116.782 97.2392C117.067 96.9972 117.209 96.5275 117.209 95.83ZM125.754 99.9294H122.978V89.1258H125.754V99.9294ZM125.775 86.9053H122.935V84.642H125.775V86.9053ZM138.103 99.9294H135.327V93.2038C135.327 92.5064 135.142 91.9939 134.772 91.6666C134.416 91.3392 133.989 91.1755 133.491 91.1755C132.979 91.1755 132.537 91.3392 132.167 91.6666C131.811 91.9939 131.633 92.5064 131.633 93.2038V99.9294H128.858V88.8055H131.569V89.8304C132.295 89.0617 133.221 88.6774 134.345 88.6774C135.441 88.6774 136.316 89.0048 136.971 89.6596C137.726 90.414 138.103 91.4673 138.103 92.8195V99.9294Z" fill="white"/>
    <defs>
        <filter id="filter0_b_1849_16729" x="-16.18" y="-16.1306" width="213.774" height="213.773" filterUnits="userSpaceOnUse" color-interpolation-filters="sRGB">
            <feFlood flood-opacity="0" result="BackgroundImageFix"/>
            <feGaussianBlur in="BackgroundImageFix" stdDeviation="8.55092"/>
            <feComposite in2="SourceAlpha" operator="in" result="effect1_backgroundBlur_1849_16729"/>
            <feBlend mode="normal" in="SourceGraphic" in2="effect1_backgroundBlur_1849_16729" result="shape"/>
        </filter>
    </defs>
</svg>
