<svg width="161" height="161" viewBox="0 0 161 161" fill="none" xmlns="http://www.w3.org/2000/svg">
    <g filter="url(#filter0_b_1849_4711)">
        <circle cx="80.3451" cy="80.3451" r="80.3451" fill="#CCEFFF" fill-opacity="0.4"/>
    </g>
    <path fill-rule="evenodd" clip-rule="evenodd" d="M64.9241 141.33C109.297 141.33 145.269 105.358 145.269 60.9846C145.269 46.4703 141.421 32.8549 134.688 21.1033C150.711 35.7913 160.757 56.8948 160.757 80.3448C160.757 124.718 124.786 160.69 80.4124 160.69C50.5533 160.69 24.4986 144.402 10.6484 120.226C24.9453 133.332 44.0007 141.33 64.9241 141.33Z" fill="#C6EAFF" fill-opacity="0.3"/>
    <g style="mix-blend-mode:soft-light" opacity="0.2">
        <circle cx="66.3528" cy="58.3601" r="43.9699" fill="white"/>
    </g>
    <g style="mix-blend-mode:soft-light" opacity="0.5">
        <circle cx="50.7653" cy="29.1801" r="10.7926" fill="white"/>
    </g>
    <g style="mix-blend-mode:soft-light" opacity="0.5">
        <circle cx="121.916" cy="133.908" r="6.79535" fill="white"/>
    </g>
    <path d="M66.145 75.8706H63.1772V67.0099L60.2735 72.7747H58.2665L55.3414 67.0099V75.8706H52.3735V60.6686H55.2987L59.27 68.8888L63.2199 60.6686H66.145V75.8706ZM77.8785 75.8706H75.1669V74.9098C74.7826 75.2941 74.384 75.5717 73.9712 75.7425C73.5727 75.8991 73.0602 75.9774 72.4339 75.9774C71.1956 75.9774 70.249 75.65 69.5942 74.9952C68.9822 74.3547 68.6761 73.522 68.6761 72.4971C68.6761 71.5577 69.0035 70.789 69.6583 70.1912C70.3131 69.5791 71.2667 69.2731 72.5193 69.2731H75.1028V68.718C75.1028 68.1059 74.9391 67.6647 74.6117 67.3942C74.2844 67.1095 73.7577 66.9672 73.0318 66.9672C72.1635 66.9672 71.4518 67.2875 70.8967 67.928L69.1459 66.1985C69.6868 65.6007 70.249 65.1879 70.8326 64.9602C71.4304 64.7324 72.1991 64.6186 73.1385 64.6186C76.2985 64.6186 77.8785 65.9281 77.8785 68.5472V75.8706ZM75.1028 71.7712V71.1734H72.9891C71.893 71.1734 71.345 71.6004 71.345 72.4544C71.345 73.2942 71.9073 73.7141 73.0318 73.7141C73.7577 73.7141 74.3057 73.5362 74.6758 73.1804C74.9605 72.9384 75.1028 72.4687 75.1028 71.7712ZM90.1165 75.8706H87.3409V69.145C87.3409 68.4475 87.1558 67.9351 86.7857 67.6077C86.4299 67.2803 86.0028 67.1166 85.5047 67.1166C84.9922 67.1166 84.551 67.2803 84.1809 67.6077C83.825 67.9351 83.6471 68.4475 83.6471 69.145V75.8706H80.8715V64.7467H83.5831V65.7715C84.309 65.0029 85.2342 64.6186 86.3587 64.6186C87.4547 64.6186 88.3301 64.9459 88.9849 65.6007C89.7393 66.3551 90.1165 67.4084 90.1165 68.7607V75.8706ZM98.107 75.8706H96.5911C95.5377 75.8706 94.7335 75.5575 94.1784 74.9312C93.6375 74.3049 93.367 73.5576 93.367 72.6893V67.1807H92.1927V65.0669H93.367V61.7789H96.1427V65.0669H98.107V67.1807H96.1427V72.5185C96.1427 73.1875 96.463 73.522 97.1035 73.522H98.107V75.8706ZM108.925 75.8706H106.214V74.9098C105.829 75.2941 105.431 75.5717 105.018 75.7425C104.619 75.8991 104.107 75.9774 103.481 75.9774C102.242 75.9774 101.296 75.65 100.641 74.9952C100.029 74.3547 99.7228 73.522 99.7228 72.4971C99.7228 71.5577 100.05 70.789 100.705 70.1912C101.36 69.5791 102.313 69.2731 103.566 69.2731H106.15V68.718C106.15 68.1059 105.986 67.6647 105.658 67.3942C105.331 67.1095 104.804 66.9672 104.078 66.9672C103.21 66.9672 102.498 67.2875 101.943 67.928L100.193 66.1985C100.733 65.6007 101.296 65.1879 101.879 64.9602C102.477 64.7324 103.246 64.6186 104.185 64.6186C107.345 64.6186 108.925 65.9281 108.925 68.5472V75.8706ZM106.15 71.7712V71.1734H104.036C102.94 71.1734 102.392 71.6004 102.392 72.4544C102.392 73.2942 102.954 73.7141 104.078 73.7141C104.804 73.7141 105.352 73.5362 105.723 73.1804C106.007 72.9384 106.15 72.4687 106.15 71.7712ZM52.0312 102.871H49.3836L43.3626 93.5402V102.871H40.3948V87.6686H43.0424L49.0634 96.9777V87.6686H52.0312V102.871ZM64.4989 98.1734H57.5384C57.5384 98.9135 57.7519 99.5114 58.179 99.9669C58.606 100.422 59.2038 100.65 59.9725 100.65C60.5418 100.65 61.0044 100.572 61.3603 100.415C61.7304 100.244 62.1076 99.974 62.4919 99.6039L64.1786 101.248C63.5808 101.86 62.9616 102.308 62.3211 102.593C61.6948 102.863 60.9048 102.999 59.9511 102.999C59.2394 102.999 58.5918 102.913 58.0082 102.742C57.4388 102.557 56.905 102.259 56.4068 101.846C55.9086 101.433 55.5172 100.842 55.2325 100.074C54.9478 99.305 54.8055 98.3798 54.8055 97.298C54.8055 95.5187 55.2467 94.1309 56.1293 93.1345C57.0118 92.1239 58.1861 91.6186 59.6522 91.6186C61.1752 91.6186 62.3638 92.1168 63.2178 93.1131C64.0719 94.0953 64.4989 95.3906 64.4989 96.999V98.1734ZM61.766 96.2731C61.7517 95.7891 61.6663 95.3906 61.5097 95.0774C61.1681 94.3088 60.5489 93.9245 59.6522 93.9245C58.7554 93.9245 58.1363 94.3088 57.7946 95.0774C57.6381 95.3906 57.5527 95.7891 57.5384 96.2731H61.766ZM72.054 102.871H70.5381C69.4848 102.871 68.6806 102.557 68.1254 101.931C67.5845 101.305 67.3141 100.558 67.3141 99.6893V94.1807H66.1398V92.0669H67.3141V88.7789H70.0897V92.0669H72.054V94.1807H70.0897V99.5185C70.0897 100.187 70.41 100.522 71.0505 100.522H72.054V102.871ZM89.1256 91.7467L85.7308 102.871H83.4462L81.1189 95.8888L78.7916 102.871H76.5071L73.0909 91.7467H76.0373L77.8308 98.6217L80.0941 91.7467H82.1224L84.407 98.6217L86.2005 91.7467H89.1256ZM99.607 97.298C99.607 98.3655 99.5145 99.2338 99.3294 99.9028C99.1586 100.558 98.8312 101.134 98.3473 101.632C97.4648 102.543 96.3118 102.999 94.8884 102.999C93.4792 102.999 92.3334 102.543 91.4509 101.632C90.9669 101.12 90.6324 100.536 90.4474 99.8814C90.2765 99.2124 90.1911 98.3513 90.1911 97.298C90.1911 96.2446 90.2765 95.3906 90.4474 94.7358C90.6324 94.0811 90.9669 93.4975 91.4509 92.985C92.3334 92.0741 93.4792 91.6186 94.8884 91.6186C96.3403 91.6186 97.4932 92.0741 98.3473 92.985C98.8312 93.4975 99.1586 94.0811 99.3294 94.7358C99.5145 95.3906 99.607 96.2446 99.607 97.298ZM96.8313 97.298C96.8313 95.9173 96.6178 95.0205 96.1908 94.6077C95.8634 94.2803 95.4293 94.1166 94.8884 94.1166C94.3617 94.1166 93.9347 94.2803 93.6073 94.6077C93.1803 95.0205 92.9668 95.9173 92.9668 97.298C92.9668 98.6929 93.1803 99.5968 93.6073 100.01C93.9347 100.337 94.3617 100.501 94.8884 100.501C95.4293 100.501 95.8634 100.337 96.1908 100.01C96.6178 99.5968 96.8313 98.6929 96.8313 97.298ZM110.389 92.6648L108.296 94.7785C107.855 94.3373 107.364 94.1166 106.823 94.1166C106.353 94.1166 105.933 94.2946 105.563 94.6504C105.207 95.0063 105.03 95.5116 105.03 96.1664V102.871H102.254V91.7467H104.965V92.8142C105.25 92.4726 105.642 92.1879 106.14 91.9602C106.652 91.7324 107.193 91.6186 107.762 91.6186C108.816 91.6186 109.691 91.9673 110.389 92.6648ZM122.091 102.871H118.653L115.92 98.2374L114.746 99.5612V102.871H111.97V87.6686H114.746V96.2945L118.44 91.7467H121.792L117.82 96.2304L122.091 102.871Z" fill="white"/>
    <defs>
        <filter id="filter0_b_1849_4711" x="-17.1018" y="-17.1018" width="194.895" height="194.894" filterUnits="userSpaceOnUse" color-interpolation-filters="sRGB">
            <feFlood flood-opacity="0" result="BackgroundImageFix"/>
            <feGaussianBlur in="BackgroundImageFix" stdDeviation="8.55092"/>
            <feComposite in2="SourceAlpha" operator="in" result="effect1_backgroundBlur_1849_4711"/>
            <feBlend mode="normal" in="SourceGraphic" in2="effect1_backgroundBlur_1849_4711" result="shape"/>
        </filter>
    </defs>
</svg>
