<svg width="186" height="186" viewBox="0 0 186 186" fill="none" xmlns="http://www.w3.org/2000/svg">
    <g filter="url(#filter0_b_1849_16739)">
        <circle cx="92.7775" cy="92.7775" r="92.7775" fill="#CCEFFF" fill-opacity="0.4"/>
    </g>
    <path fill-rule="evenodd" clip-rule="evenodd" d="M74.972 163.199C126.212 163.199 167.749 121.661 167.749 70.4214C167.749 53.6617 163.306 37.9399 155.532 24.3701C174.034 41.3309 185.634 65.6996 185.634 92.7776C185.634 144.017 144.096 185.555 92.8566 185.555C58.3768 185.555 28.2899 166.746 12.2969 138.829C28.8061 153.963 50.8105 163.199 74.972 163.199Z" fill="#C6EAFF" fill-opacity="0.3"/>
    <g style="mix-blend-mode:soft-light" opacity="0.2">
        <circle cx="76.6214" cy="67.3904" r="50.7737" fill="white"/>
    </g>
    <g style="mix-blend-mode:soft-light" opacity="0.5">
        <circle cx="58.6189" cy="33.6951" r="12.4626" fill="white"/>
    </g>
    <g style="mix-blend-mode:soft-light" opacity="0.5">
        <circle cx="140.78" cy="154.629" r="7.84685" fill="white"/>
    </g>
    <path d="M55.1373 101.523H52.1695V92.6627L49.2657 98.4275H47.2587L44.3336 92.6627V101.523H41.3658V86.3214H44.2909L48.2622 94.5416L52.2122 86.3214H55.1373V101.523ZM67.4045 95.9508C67.4045 97.0184 67.312 97.8866 67.1269 98.5556C66.9561 99.2104 66.6287 99.7869 66.1448 100.285C65.2623 101.196 64.1093 101.652 62.6859 101.652C61.2767 101.652 60.1309 101.196 59.2484 100.285C58.7644 99.7726 58.4299 99.189 58.2449 98.5343C58.0741 97.8653 57.9887 97.0041 57.9887 95.9508C57.9887 94.8975 58.0741 94.0434 58.2449 93.3887C58.4299 92.7339 58.7644 92.1503 59.2484 91.6379C60.1309 90.7269 61.2767 90.2714 62.6859 90.2714C64.1378 90.2714 65.2907 90.7269 66.1448 91.6379C66.6287 92.1503 66.9561 92.7339 67.1269 93.3887C67.312 94.0434 67.4045 94.8975 67.4045 95.9508ZM64.6289 95.9508C64.6289 94.5701 64.4153 93.6733 63.9883 93.2606C63.6609 92.9332 63.2268 92.7695 62.6859 92.7695C62.1592 92.7695 61.7322 92.9332 61.4048 93.2606C60.9778 93.6733 60.7643 94.5701 60.7643 95.9508C60.7643 97.3457 60.9778 98.2496 61.4048 98.6624C61.7322 98.9898 62.1592 99.1535 62.6859 99.1535C63.2268 99.1535 63.6609 98.9898 63.9883 98.6624C64.4153 98.2496 64.6289 97.3457 64.6289 95.9508ZM78.9975 95.9508C78.9975 97.0184 78.905 97.8866 78.7199 98.5556C78.5491 99.2104 78.2217 99.7869 77.7378 100.285C76.8553 101.196 75.7023 101.652 74.2789 101.652C72.8697 101.652 71.7239 101.196 70.8414 100.285C70.3574 99.7726 70.0229 99.189 69.8379 98.5343C69.6671 97.8653 69.5816 97.0041 69.5816 95.9508C69.5816 94.8975 69.6671 94.0434 69.8379 93.3887C70.0229 92.7339 70.3574 92.1503 70.8414 91.6379C71.7239 90.7269 72.8697 90.2714 74.2789 90.2714C75.7308 90.2714 76.8837 90.7269 77.7378 91.6379C78.2217 92.1503 78.5491 92.7339 78.7199 93.3887C78.905 94.0434 78.9975 94.8975 78.9975 95.9508ZM76.2218 95.9508C76.2218 94.5701 76.0083 93.6733 75.5813 93.2606C75.2539 92.9332 74.8198 92.7695 74.2789 92.7695C73.7522 92.7695 73.3252 92.9332 72.9978 93.2606C72.5708 93.6733 72.3573 94.5701 72.3573 95.9508C72.3573 97.3457 72.5708 98.2496 72.9978 98.6624C73.3252 98.9898 73.7522 99.1535 74.2789 99.1535C74.8198 99.1535 75.2539 98.9898 75.5813 98.6624C76.0083 98.2496 76.2218 97.3457 76.2218 95.9508ZM90.8894 101.523H88.1138V94.7978C88.1138 94.1004 87.9287 93.5879 87.5586 93.2606C87.2028 92.9332 86.7758 92.7695 86.2776 92.7695C85.7651 92.7695 85.3239 92.9332 84.9538 93.2606C84.5979 93.5879 84.42 94.1004 84.42 94.7978V101.523H81.6444V90.3995H84.356V91.4244C85.0819 90.6557 86.0071 90.2714 87.1316 90.2714C88.2276 90.2714 89.103 90.5988 89.7578 91.2535C90.5122 92.008 90.8894 93.0613 90.8894 94.4135V101.523ZM103.193 95.9508C103.193 97.1038 103.122 98.0503 102.979 98.7905C102.837 99.5307 102.524 100.15 102.04 100.648C101.399 101.317 100.503 101.652 99.3496 101.652C98.1967 101.652 97.2714 101.26 96.574 100.477V101.523H93.8837V86.3214H96.6594V91.3817C97.2999 90.6415 98.1967 90.2714 99.3496 90.2714C100.503 90.2714 101.399 90.6059 102.04 91.2749C102.524 91.7731 102.837 92.3923 102.979 93.1324C103.122 93.8726 103.193 94.8121 103.193 95.9508ZM100.353 97.2319C100.396 96.8902 100.417 96.4632 100.417 95.9508C100.417 95.4384 100.396 95.0185 100.353 94.6911C100.31 94.3495 100.225 94.0221 100.097 93.7089C99.983 93.3958 99.7909 93.1609 99.5204 93.0043C99.2642 92.8478 98.9368 92.7695 98.5383 92.7695C98.1397 92.7695 97.8052 92.8478 97.5348 93.0043C97.2786 93.1609 97.0864 93.3958 96.9583 93.7089C96.8444 94.0221 96.7661 94.3495 96.7234 94.6911C96.6807 95.0185 96.6594 95.4384 96.6594 95.9508C96.6594 96.4632 96.6807 96.8902 96.7234 97.2319C96.7661 97.5592 96.8444 97.8866 96.9583 98.214C97.0864 98.5272 97.2786 98.762 97.5348 98.9186C97.8052 99.0752 98.1397 99.1535 98.5383 99.1535C98.9368 99.1535 99.2642 99.0752 99.5204 98.9186C99.7909 98.762 99.983 98.5272 100.097 98.214C100.225 97.8866 100.31 97.5592 100.353 97.2319ZM114.969 96.8262H108.009C108.009 97.5664 108.223 98.1642 108.65 98.6197C109.077 99.0752 109.674 99.3029 110.443 99.3029C111.012 99.3029 111.475 99.2246 111.831 99.0681C112.201 98.8972 112.578 98.6268 112.962 98.2567L114.649 99.9008C114.051 100.513 113.432 100.961 112.792 101.246C112.165 101.516 111.375 101.652 110.422 101.652C109.71 101.652 109.062 101.566 108.479 101.395C107.909 101.21 107.376 100.911 106.877 100.499C106.379 100.086 105.988 99.4951 105.703 98.7264C105.418 97.9578 105.276 97.0326 105.276 95.9508C105.276 94.1715 105.717 92.7837 106.6 91.7873C107.482 90.7767 108.657 90.2714 110.123 90.2714C111.646 90.2714 112.834 90.7696 113.688 91.766C114.542 92.7481 114.969 94.0434 114.969 95.6519V96.8262ZM112.237 94.9259C112.222 94.442 112.137 94.0434 111.98 93.7303C111.639 92.9616 111.02 92.5773 110.123 92.5773C109.226 92.5773 108.607 92.9616 108.265 93.7303C108.109 94.0434 108.023 94.442 108.009 94.9259H112.237ZM125.941 101.523H123.229V100.563C122.845 100.947 122.446 101.225 122.034 101.395C121.635 101.552 121.123 101.63 120.496 101.63C119.258 101.63 118.311 101.303 117.657 100.648C117.044 100.008 116.738 99.1748 116.738 98.15C116.738 97.2105 117.066 96.4419 117.721 95.844C118.375 95.232 119.329 94.9259 120.582 94.9259H123.165V94.3708C123.165 93.7587 123.001 93.3175 122.674 93.047C122.347 92.7624 121.82 92.62 121.094 92.62C120.226 92.62 119.514 92.9403 118.959 93.5808L117.208 91.8514C117.749 91.2535 118.311 90.8408 118.895 90.613C119.493 90.3853 120.261 90.2714 121.201 90.2714C124.361 90.2714 125.941 91.5809 125.941 94.2V101.523ZM123.165 97.424V96.8262H121.051C119.955 96.8262 119.407 97.2532 119.407 98.1073C119.407 98.9471 119.97 99.367 121.094 99.367C121.82 99.367 122.368 99.189 122.738 98.8332C123.023 98.5912 123.165 98.1215 123.165 97.424ZM144.648 101.523H141.873V94.7978C141.873 94.1004 141.688 93.5879 141.317 93.2606C140.962 92.9332 140.535 92.7695 140.036 92.7695C139.538 92.7695 139.104 92.9332 138.734 93.2606C138.364 93.5737 138.179 94.0648 138.179 94.7338V101.523H135.403V94.7978C135.403 94.1004 135.218 93.5879 134.848 93.2606C134.492 92.9332 134.065 92.7695 133.567 92.7695C133.055 92.7695 132.613 92.9332 132.243 93.2606C131.887 93.5879 131.709 94.1004 131.709 94.7978V101.523H128.934V90.3995H131.645V91.4244C132.386 90.6557 133.311 90.2714 134.421 90.2714C135.702 90.2714 136.684 90.7411 137.367 91.6806C138.264 90.7411 139.374 90.2714 140.698 90.2714C141.865 90.2714 142.776 90.5988 143.431 91.2535C144.243 92.0649 144.648 93.1182 144.648 94.4135V101.523Z" fill="white"/>
    <defs>
        <filter id="filter0_b_1849_16739" x="-17.1018" y="-17.1018" width="219.758" height="219.759" filterUnits="userSpaceOnUse" color-interpolation-filters="sRGB">
            <feFlood flood-opacity="0" result="BackgroundImageFix"/>
            <feGaussianBlur in="BackgroundImageFix" stdDeviation="8.55092"/>
            <feComposite in2="SourceAlpha" operator="in" result="effect1_backgroundBlur_1849_16739"/>
            <feBlend mode="normal" in="SourceGraphic" in2="effect1_backgroundBlur_1849_16739" result="shape"/>
        </filter>
    </defs>
</svg>
