<svg width="181" height="181" viewBox="0 0 181 181" fill="none" xmlns="http://www.w3.org/2000/svg">
    <g filter="url(#filter0_b_1849_4395)">
        <circle cx="90.7065" cy="90.7558" r="89.7846" fill="#CCEFFF" fill-opacity="0.4"/>
    </g>
    <path fill-rule="evenodd" clip-rule="evenodd" d="M73.4739 158.905C123.061 158.905 163.259 118.707 163.259 69.1206C163.259 52.9017 158.958 37.6872 151.435 24.5552C169.34 40.9688 180.566 64.5513 180.566 90.7558C180.566 140.342 140.368 180.54 90.7815 180.54C57.4138 180.54 28.2974 162.338 12.8203 135.321C28.797 149.967 50.0917 158.905 73.4739 158.905Z" fill="#C6EAFF" fill-opacity="0.3"/>
    <g style="mix-blend-mode:soft-light" opacity="0.2">
        <circle cx="75.0734" cy="66.1881" r="49.1359" fill="white"/>
    </g>
    <g style="mix-blend-mode:soft-light" opacity="0.5">
        <circle cx="57.6505" cy="33.5794" r="12.0606" fill="white"/>
    </g>
    <g style="mix-blend-mode:soft-light" opacity="0.5">
        <circle cx="137.164" cy="150.612" r="7.59373" fill="white"/>
    </g>
    <path d="M58.0524 86.0939C58.9634 87.0049 59.4189 88.1294 59.4189 89.4674C59.4189 90.8054 58.9634 91.9299 58.0524 92.8409C57.1557 93.7519 55.9387 94.2073 54.4014 94.2073H51.4763V99.9294H48.5085V84.7274H54.4014C55.9387 84.7274 57.1557 85.1829 58.0524 86.0939ZM55.8533 90.9833C56.2518 90.599 56.4511 90.0937 56.4511 89.4674C56.4511 88.8411 56.2518 88.3358 55.8533 87.9515C55.4547 87.5671 54.9209 87.375 54.2519 87.375H51.4763V91.5385H54.2519C54.9209 91.5385 55.4547 91.3534 55.8533 90.9833ZM70.4396 94.3568C70.4396 95.4244 70.3471 96.2926 70.162 96.9616C69.9912 97.6164 69.6638 98.1929 69.1799 98.6911C68.2974 99.6021 67.1444 100.058 65.721 100.058C64.3118 100.058 63.166 99.6021 62.2835 98.6911C61.7995 98.1787 61.465 97.5951 61.28 96.9403C61.1091 96.2713 61.0237 95.4101 61.0237 94.3568C61.0237 93.3035 61.1091 92.4494 61.28 91.7947C61.465 91.1399 61.7995 90.5563 62.2835 90.0439C63.166 89.1329 64.3118 88.6774 65.721 88.6774C67.1729 88.6774 68.3258 89.1329 69.1799 90.0439C69.6638 90.5563 69.9912 91.1399 70.162 91.7947C70.3471 92.4494 70.4396 93.3035 70.4396 94.3568ZM67.6639 94.3568C67.6639 92.9761 67.4504 92.0793 67.0234 91.6666C66.696 91.3392 66.2619 91.1755 65.721 91.1755C65.1943 91.1755 64.7673 91.3392 64.4399 91.6666C64.0129 92.0793 63.7994 92.9761 63.7994 94.3568C63.7994 95.7517 64.0129 96.6556 64.4399 97.0684C64.7673 97.3958 65.1943 97.5595 65.721 97.5595C66.2619 97.5595 66.696 97.3958 67.0234 97.0684C67.4504 96.6556 67.6639 95.7517 67.6639 94.3568ZM77.8051 99.9294H76.2251C75.1575 99.9294 74.3462 99.6163 73.791 98.99C73.2502 98.3637 72.9797 97.6164 72.9797 96.7481V84.7274H75.7553V96.5773C75.7553 97.2463 76.0827 97.5808 76.7375 97.5808H77.8051V99.9294ZM90.1502 99.9294H86.7126L83.9797 95.2962L82.8054 96.62V99.9294H80.0297V84.7274H82.8054V93.3533L86.4991 88.8055H89.8513L85.88 93.2892L90.1502 99.9294ZM100.16 99.9294H97.4486V98.9686C97.0643 99.353 96.6657 99.6305 96.2529 99.8013C95.8544 99.9579 95.3419 100.036 94.7156 100.036C93.4773 100.036 92.5307 99.7088 91.8759 99.054C91.2639 98.4135 90.9578 97.5808 90.9578 96.556C90.9578 95.6165 91.2852 94.8479 91.94 94.25C92.5948 93.638 93.5485 93.3319 94.8011 93.3319H97.3845V92.7768C97.3845 92.1648 97.2208 91.7235 96.8935 91.453C96.5661 91.1684 96.0394 91.026 95.3135 91.026C94.4452 91.026 93.7335 91.3463 93.1784 91.9868L91.4276 90.2574C91.9685 89.6596 92.5307 89.2468 93.1143 89.019C93.7121 88.7913 94.4808 88.6774 95.4202 88.6774C98.5802 88.6774 100.16 89.9869 100.16 92.606V99.9294ZM97.3845 95.83V95.2322H95.2708C94.1748 95.2322 93.6267 95.6592 93.6267 96.5133C93.6267 97.3531 94.189 97.773 95.3135 97.773C96.0394 97.773 96.5874 97.5951 96.9575 97.2392C97.2422 96.9972 97.3845 96.5275 97.3845 95.83ZM112.014 99.9294H109.302V98.8832C108.605 99.6661 107.687 100.058 106.548 100.058C105.381 100.058 104.477 99.723 103.836 99.054C103.352 98.5559 103.039 97.9367 102.897 97.1965C102.755 96.4563 102.683 95.5098 102.683 94.3568C102.683 93.2181 102.755 92.2786 102.897 91.5385C103.039 90.7983 103.352 90.1791 103.836 89.6809C104.477 89.0119 105.374 88.6774 106.527 88.6774C107.665 88.6774 108.569 89.0475 109.238 89.7877V84.7274H112.014V99.9294ZM109.238 94.3568C109.238 93.3177 109.11 92.5277 108.854 91.9868C108.612 91.4459 108.107 91.1755 107.338 91.1755C106.939 91.1755 106.605 91.2538 106.334 91.4103C106.078 91.5669 105.886 91.8018 105.758 92.1149C105.644 92.4281 105.566 92.7555 105.523 93.0971C105.48 93.4245 105.459 93.8444 105.459 94.3568C105.459 94.8692 105.48 95.2962 105.523 95.6379C105.566 95.9653 105.644 96.2926 105.758 96.62C105.886 96.9332 106.078 97.168 106.334 97.3246C106.605 97.4812 106.939 97.5595 107.338 97.5595C107.737 97.5595 108.064 97.4812 108.32 97.3246C108.591 97.168 108.79 96.9332 108.918 96.62C109.046 96.3069 109.131 95.9795 109.174 95.6379C109.217 95.282 109.238 94.855 109.238 94.3568ZM124.068 94.3568C124.068 95.4244 123.975 96.2926 123.79 96.9616C123.619 97.6164 123.292 98.1929 122.808 98.6911C121.925 99.6021 120.772 100.058 119.349 100.058C117.94 100.058 116.794 99.6021 115.911 98.6911C115.428 98.1787 115.093 97.5951 114.908 96.9403C114.737 96.2713 114.652 95.4101 114.652 94.3568C114.652 93.3035 114.737 92.4494 114.908 91.7947C115.093 91.1399 115.428 90.5563 115.911 90.0439C116.794 89.1329 117.94 88.6774 119.349 88.6774C120.801 88.6774 121.954 89.1329 122.808 90.0439C123.292 90.5563 123.619 91.1399 123.79 91.7947C123.975 92.4494 124.068 93.3035 124.068 94.3568ZM121.292 94.3568C121.292 92.9761 121.078 92.0793 120.651 91.6666C120.324 91.3392 119.89 91.1755 119.349 91.1755C118.822 91.1755 118.395 91.3392 118.068 91.6666C117.641 92.0793 117.427 92.9761 117.427 94.3568C117.427 95.7517 117.641 96.6556 118.068 97.0684C118.395 97.3958 118.822 97.5595 119.349 97.5595C119.89 97.5595 120.324 97.3958 120.651 97.0684C121.078 96.6556 121.292 95.7517 121.292 94.3568ZM131.711 99.9294H130.195C129.141 99.9294 128.337 99.6163 127.782 98.99C127.241 98.3637 126.971 97.6164 126.971 96.7481V91.2395H125.796V89.1258H126.971V85.8377H129.746V89.1258H131.711V91.2395H129.746V96.5773C129.746 97.2463 130.067 97.5808 130.707 97.5808H131.711V99.9294Z" fill="white"/>
    <defs>
        <filter id="filter0_b_1849_4395" x="-16.18" y="-16.1306" width="213.774" height="213.773" filterUnits="userSpaceOnUse" color-interpolation-filters="sRGB">
            <feFlood flood-opacity="0" result="BackgroundImageFix"/>
            <feGaussianBlur in="BackgroundImageFix" stdDeviation="8.55092"/>
            <feComposite in2="SourceAlpha" operator="in" result="effect1_backgroundBlur_1849_4395"/>
            <feBlend mode="normal" in="SourceGraphic" in2="effect1_backgroundBlur_1849_4395" result="shape"/>
        </filter>
    </defs>
</svg>
