<svg width="154" height="154" viewBox="0 0 154 154" fill="none" xmlns="http://www.w3.org/2000/svg">
    <g filter="url(#filter0_b_1849_9283)">
        <circle cx="76.9583" cy="76.9583" r="76.9583" fill="#CCEFFF" fill-opacity="0.4"/>
    </g>
    <path fill-rule="evenodd" clip-rule="evenodd" d="M62.1877 135.372C104.691 135.372 139.146 100.917 139.146 58.414C139.146 44.5103 135.459 31.4677 129.009 20.2107C144.359 34.2797 153.983 54.4949 153.983 76.9579C153.983 119.461 119.527 153.916 77.0245 153.916C48.4254 153.916 23.4699 138.316 10.2031 115.161C23.897 127.713 42.1479 135.372 62.1877 135.372Z" fill="#C6EAFF" fill-opacity="0.3"/>
    <g style="mix-blend-mode:soft-light" opacity="0.2">
        <circle cx="63.5579" cy="55.8999" r="42.1165" fill="white"/>
    </g>
    <g style="mix-blend-mode:soft-light" opacity="0.5">
        <circle cx="48.6228" cy="27.9502" r="10.3377" fill="white"/>
    </g>
    <g style="mix-blend-mode:soft-light" opacity="0.5">
        <ellipse cx="116.775" cy="128.264" rx="6.50891" ry="6.50891" fill="white"/>
    </g>
    <path d="M49.021 70.3232C49.9319 71.2341 50.3874 72.3586 50.3874 73.6966C50.3874 75.0346 49.9319 76.1591 49.021 77.0701C48.1242 77.9811 46.9072 78.4366 45.3699 78.4366H42.4448V84.1587H39.477V68.9567H45.3699C46.9072 68.9567 48.1242 69.4122 49.021 70.3232ZM46.8218 75.2126C47.2203 74.8282 47.4196 74.3229 47.4196 73.6966C47.4196 73.0703 47.2203 72.565 46.8218 72.1807C46.4232 71.7964 45.8895 71.6042 45.2205 71.6042H42.4448V75.7677H45.2205C45.8895 75.7677 46.4232 75.5827 46.8218 75.2126ZM61.4081 78.586C61.4081 79.6536 61.3156 80.5219 61.1305 81.1909C60.9597 81.8457 60.6324 82.4221 60.1484 82.9203C59.2659 83.8313 58.1129 84.2868 56.6895 84.2868C55.2803 84.2868 54.1345 83.8313 53.252 82.9203C52.768 82.4079 52.4335 81.8243 52.2485 81.1695C52.0777 80.5005 51.9923 79.6394 51.9923 78.586C51.9923 77.5327 52.0777 76.6787 52.2485 76.0239C52.4335 75.3691 52.768 74.7855 53.252 74.2731C54.1345 73.3621 55.2803 72.9066 56.6895 72.9066C58.1414 72.9066 59.2943 73.3621 60.1484 74.2731C60.6324 74.7855 60.9597 75.3691 61.1305 76.0239C61.3156 76.6787 61.4081 77.5327 61.4081 78.586ZM58.6325 78.586C58.6325 77.2053 58.419 76.3086 57.9919 75.8958C57.6645 75.5684 57.2304 75.4047 56.6895 75.4047C56.1628 75.4047 55.7358 75.5684 55.4084 75.8958C54.9814 76.3086 54.7679 77.2053 54.7679 78.586C54.7679 79.981 54.9814 80.8849 55.4084 81.2976C55.7358 81.625 56.1628 81.7887 56.6895 81.7887C57.2304 81.7887 57.6645 81.625 57.9919 81.2976C58.419 80.8849 58.6325 79.981 58.6325 78.586ZM68.7736 84.1587H67.1936C66.126 84.1587 65.3147 83.8455 64.7596 83.2192C64.2187 82.5929 63.9482 81.8457 63.9482 80.9774V68.9567H66.7239V80.8066C66.7239 81.4756 67.0513 81.8101 67.706 81.8101H68.7736V84.1587ZM79.2553 73.0348L74.494 85.9522C74.252 86.5927 73.9745 87.0696 73.6613 87.3827C73.092 87.9521 72.2948 88.2368 71.27 88.2368H70.1811V85.7387H70.8216C71.2202 85.7387 71.512 85.6675 71.697 85.5252C71.8963 85.3971 72.0671 85.1337 72.2094 84.7352L72.6792 83.3687L68.8787 73.0348H71.8038L74.1097 79.9098L76.3302 73.0348H79.2553ZM89.4265 83.753C89.4265 85.1053 88.9781 86.2084 88.0813 87.0624C87.1988 87.9307 86.0174 88.3649 84.537 88.3649C83.6545 88.3649 82.9001 88.2581 82.2738 88.0446C81.6475 87.8311 81.0568 87.4539 80.5017 86.913L82.2311 85.1622C82.8147 85.7316 83.5407 86.0162 84.4089 86.0162C85.1776 86.0162 85.7398 85.7885 86.0957 85.333C86.4658 84.8917 86.6508 84.3509 86.6508 83.7103V82.5787C85.9818 83.3189 85.0993 83.689 84.0033 83.689C82.893 83.689 82.0105 83.3616 81.3557 82.7068C80.8718 82.2229 80.5586 81.6535 80.4163 80.9987C80.2882 80.3297 80.2241 79.4259 80.2241 78.2871C80.2241 77.1484 80.2882 76.2517 80.4163 75.5969C80.5586 74.9421 80.8718 74.3728 81.3557 73.8888C82.0105 73.234 82.9001 72.9066 84.0246 72.9066C85.1206 72.9066 86.0245 73.2981 86.7362 74.081V73.0348H89.4265V83.753ZM86.6508 78.2871C86.6508 77.3904 86.5298 76.6858 86.2878 76.1734C86.0459 75.6609 85.5548 75.4047 84.8146 75.4047C84.4161 75.4047 84.0887 75.483 83.8325 75.6396C83.5905 75.7819 83.4054 76.0026 83.2773 76.3015C83.1635 76.6004 83.0852 76.8993 83.0425 77.1982C83.014 77.4971 82.9998 77.8601 82.9998 78.2871C82.9998 78.7142 83.014 79.0771 83.0425 79.376C83.0852 79.675 83.1635 79.9739 83.2773 80.2728C83.3912 80.5717 83.5762 80.7994 83.8325 80.956C84.0887 81.1126 84.4161 81.1909 84.8146 81.1909C85.2132 81.1909 85.5405 81.1126 85.7968 80.956C86.053 80.7994 86.238 80.5717 86.3519 80.2728C86.4658 79.9739 86.5441 79.675 86.5868 79.376C86.6295 79.0771 86.6508 78.7142 86.6508 78.2871ZM101.483 78.586C101.483 79.6536 101.391 80.5219 101.206 81.1909C101.035 81.8457 100.707 82.4221 100.223 82.9203C99.3409 83.8313 98.188 84.2868 96.7646 84.2868C95.3554 84.2868 94.2095 83.8313 93.327 82.9203C92.8431 82.4079 92.5086 81.8243 92.3235 81.1695C92.1527 80.5005 92.0673 79.6394 92.0673 78.586C92.0673 77.5327 92.1527 76.6787 92.3235 76.0239C92.5086 75.3691 92.8431 74.7855 93.327 74.2731C94.2095 73.3621 95.3554 72.9066 96.7646 72.9066C98.2164 72.9066 99.3694 73.3621 100.223 74.2731C100.707 74.7855 101.035 75.3691 101.206 76.0239C101.391 76.6787 101.483 77.5327 101.483 78.586ZM98.7075 78.586C98.7075 77.2053 98.494 76.3086 98.067 75.8958C97.7396 75.5684 97.3055 75.4047 96.7646 75.4047C96.2379 75.4047 95.8109 75.5684 95.4835 75.8958C95.0565 76.3086 94.843 77.2053 94.843 78.586C94.843 79.981 95.0565 80.8849 95.4835 81.2976C95.8109 81.625 96.2379 81.7887 96.7646 81.7887C97.3055 81.7887 97.7396 81.625 98.067 81.2976C98.494 80.8849 98.7075 79.981 98.7075 78.586ZM113.375 84.1587H110.599V77.4331C110.599 76.7356 110.414 76.2232 110.044 75.8958C109.688 75.5684 109.261 75.4047 108.763 75.4047C108.251 75.4047 107.81 75.5684 107.439 75.8958C107.084 76.2232 106.906 76.7356 106.906 77.4331V84.1587H104.13V73.0348H106.842V74.0596C107.568 73.291 108.493 72.9066 109.617 72.9066C110.713 72.9066 111.589 73.234 112.243 73.8888C112.998 74.6432 113.375 75.6965 113.375 77.0488V84.1587Z" fill="white"/>
    <defs>
        <filter id="filter0_b_1849_9283" x="-17.1018" y="-17.1018" width="188.122" height="188.12" filterUnits="userSpaceOnUse" color-interpolation-filters="sRGB">
            <feFlood flood-opacity="0" result="BackgroundImageFix"/>
            <feGaussianBlur in="BackgroundImageFix" stdDeviation="8.55092"/>
            <feComposite in2="SourceAlpha" operator="in" result="effect1_backgroundBlur_1849_9283"/>
            <feBlend mode="normal" in="SourceGraphic" in2="effect1_backgroundBlur_1849_9283" result="shape"/>
        </filter>
    </defs>
</svg>
