<svg width="134" height="134" viewBox="0 0 134 134" fill="none" xmlns="http://www.w3.org/2000/svg">
    <g filter="url(#filter0_b_1849_10014)">
        <circle cx="66.6972" cy="66.6972" r="66.6972" fill="#CCEFFF" fill-opacity="0.4"/>
    </g>
    <path fill-rule="evenodd" clip-rule="evenodd" d="M53.8958 117.322C90.7316 117.322 120.593 87.4611 120.593 50.6253C120.593 38.5764 117.398 27.2738 111.809 17.5183C125.111 29.7114 133.45 47.2302 133.45 66.6968C133.45 103.533 103.589 133.394 66.7532 133.394C41.9662 133.394 20.3373 119.873 8.83984 99.8038C20.7081 110.683 36.5266 117.322 53.8958 117.322Z" fill="#C6EAFF" fill-opacity="0.3"/>
    <g style="mix-blend-mode:soft-light" opacity="0.2">
        <circle cx="55.083" cy="48.4467" r="36.5009" fill="white"/>
    </g>
    <g style="mix-blend-mode:soft-light" opacity="0.5">
        <circle cx="42.139" cy="24.2232" r="8.95932" fill="white"/>
    </g>
    <g style="mix-blend-mode:soft-light" opacity="0.5">
        <circle cx="101.207" cy="111.162" r="5.64105" fill="white"/>
    </g>
    <path d="M44.4854 71.3869C44.4854 72.8245 43.9587 73.9561 42.9054 74.7817C41.852 75.593 40.4998 75.9987 38.8487 75.9987C37.6388 75.9987 36.5926 75.8493 35.71 75.5503C34.8275 75.2372 34.0233 74.7176 33.2974 73.9917L35.219 72.0701C36.073 72.9242 37.29 73.3512 38.87 73.3512C39.7525 73.3512 40.4215 73.1875 40.877 72.8601C41.3467 72.5327 41.5816 72.063 41.5816 71.4509C41.5816 70.9243 41.425 70.5044 41.1119 70.1912C40.8414 69.935 40.3859 69.7642 39.7454 69.6788L37.9306 69.4012C36.6495 69.2162 35.6673 68.7963 34.9841 68.1415C34.2582 67.4298 33.8952 66.4334 33.8952 65.1523C33.8952 63.7716 34.372 62.6614 35.3257 61.8216C36.2794 60.9675 37.5676 60.5405 39.1903 60.5405C41.24 60.5405 42.8769 61.1312 44.101 62.3126L42.2221 64.1702C41.5104 63.4727 40.4713 63.124 39.1049 63.124C38.3505 63.124 37.774 63.309 37.3754 63.6791C36.9769 64.035 36.7776 64.4905 36.7776 65.0456C36.7776 65.5011 36.9199 65.864 37.2046 66.1345C37.532 66.4334 37.9946 66.6256 38.5924 66.711L40.4073 66.9885C41.7026 67.1736 42.6705 67.5721 43.311 68.1842C44.0939 68.9101 44.4854 69.9777 44.4854 71.3869ZM56.0111 70.298C56.0111 71.3655 55.9186 72.2338 55.7336 72.9028C55.5627 73.5576 55.2354 74.134 54.7514 74.6322C53.8689 75.5432 52.7159 75.9987 51.2925 75.9987C49.8833 75.9987 48.7375 75.5432 47.855 74.6322C47.371 74.1198 47.0365 73.5362 46.8515 72.8814C46.6807 72.2124 46.5953 71.3513 46.5953 70.298C46.5953 69.2446 46.6807 68.3906 46.8515 67.7358C47.0365 67.0811 47.371 66.4975 47.855 65.985C48.7375 65.0741 49.8833 64.6186 51.2925 64.6186C52.7444 64.6186 53.8974 65.0741 54.7514 65.985C55.2354 66.4975 55.5627 67.0811 55.7336 67.7358C55.9186 68.3906 56.0111 69.2446 56.0111 70.298ZM53.2355 70.298C53.2355 68.9173 53.022 68.0205 52.5949 67.6077C52.2676 67.2803 51.8334 67.1166 51.2925 67.1166C50.7659 67.1166 50.3388 67.2803 50.0115 67.6077C49.5844 68.0205 49.3709 68.9173 49.3709 70.298C49.3709 71.6929 49.5844 72.5968 50.0115 73.0096C50.3388 73.3369 50.7659 73.5006 51.2925 73.5006C51.8334 73.5006 52.2676 73.3369 52.5949 73.0096C53.022 72.5968 53.2355 71.6929 53.2355 70.298ZM63.3766 75.8706H61.7966C60.7291 75.8706 59.9177 75.5575 59.3626 74.9312C58.8217 74.3049 58.5512 73.5576 58.5512 72.6893V60.6686H61.3269V72.5185C61.3269 73.1875 61.6543 73.522 62.309 73.522H63.3766V75.8706ZM74.0136 75.8706H71.302V74.9098C70.9177 75.2941 70.5192 75.5717 70.1064 75.7425C69.7078 75.8991 69.1954 75.9774 68.5691 75.9774C67.3307 75.9774 66.3842 75.65 65.7294 74.9952C65.1173 74.3547 64.8113 73.522 64.8113 72.4971C64.8113 71.5577 65.1387 70.789 65.7934 70.1912C66.4482 69.5791 67.4019 69.2731 68.6545 69.2731H71.238V68.718C71.238 68.1059 71.0743 67.6647 70.7469 67.3942C70.4195 67.1095 69.8929 66.9672 69.1669 66.9672C68.2986 66.9672 67.5869 67.2875 67.0318 67.928L65.281 66.1985C65.8219 65.6007 66.3842 65.1879 66.9677 64.9602C67.5656 64.7324 68.3342 64.6186 69.2737 64.6186C72.4336 64.6186 74.0136 65.9281 74.0136 68.5472V75.8706ZM71.238 71.7712V71.1734H69.1242C68.0282 71.1734 67.4802 71.6004 67.4802 72.4544C67.4802 73.2942 68.0424 73.7141 69.1669 73.7141C69.8929 73.7141 70.4409 73.5362 70.811 73.1804C71.0956 72.9384 71.238 72.4687 71.238 71.7712ZM86.2517 75.8706H83.476V69.145C83.476 68.4475 83.291 67.9351 82.9209 67.6077C82.565 67.2803 82.138 67.1166 81.6398 67.1166C81.1274 67.1166 80.6861 67.2803 80.316 67.6077C79.9602 67.9351 79.7823 68.4475 79.7823 69.145V75.8706H77.0066V64.7467H79.7182V65.7715C80.4441 65.0029 81.3694 64.6186 82.4939 64.6186C83.5899 64.6186 84.4653 64.9459 85.12 65.6007C85.8744 66.3551 86.2517 67.4084 86.2517 68.7607V75.8706ZM97.6583 75.8706H94.9467V74.9098C94.5624 75.2941 94.1639 75.5717 93.7511 75.7425C93.3525 75.8991 92.8401 75.9774 92.2138 75.9774C90.9754 75.9774 90.0289 75.65 89.3741 74.9952C88.762 74.3547 88.456 73.522 88.456 72.4971C88.456 71.5577 88.7834 70.789 89.4381 70.1912C90.0929 69.5791 91.0466 69.2731 92.2992 69.2731H94.8827V68.718C94.8827 68.1059 94.719 67.6647 94.3916 67.3942C94.0642 67.1095 93.5376 66.9672 92.8116 66.9672C91.9433 66.9672 91.2316 67.2875 90.6765 67.928L88.9257 66.1985C89.4666 65.6007 90.0289 65.1879 90.6125 64.9602C91.2103 64.7324 91.9789 64.6186 92.9184 64.6186C96.0783 64.6186 97.6583 65.9281 97.6583 68.5472V75.8706ZM94.8827 71.7712V71.1734H92.7689C91.6729 71.1734 91.1249 71.6004 91.1249 72.4544C91.1249 73.2942 91.6871 73.7141 92.8116 73.7141C93.5376 73.7141 94.0856 73.5362 94.4557 73.1804C94.7403 72.9384 94.8827 72.4687 94.8827 71.7712Z" fill="white"/>
    <defs>
        <filter id="filter0_b_1849_10014" x="-17.1018" y="-17.1018" width="167.598" height="167.598" filterUnits="userSpaceOnUse" color-interpolation-filters="sRGB">
            <feFlood flood-opacity="0" result="BackgroundImageFix"/>
            <feGaussianBlur in="BackgroundImageFix" stdDeviation="8.55092"/>
            <feComposite in2="SourceAlpha" operator="in" result="effect1_backgroundBlur_1849_10014"/>
            <feBlend mode="normal" in="SourceGraphic" in2="effect1_backgroundBlur_1849_10014" result="shape"/>
        </filter>
    </defs>
</svg>
